<?xml version="1.0" encoding="utf-8"?>
<!-- Generator: Adobe Illustrator 23.0.0, SVG Export Plug-In . SVG Version: 6.00 Build 0)  -->
<svg version="1.1" id="Capa_1" xmlns="http://www.w3.org/2000/svg" xmlns:xlink="http://www.w3.org/1999/xlink" x="0px" y="0px"
	 viewBox="0 0 278 500" style="enable-background:new 0 0 278 500;" xml:space="preserve">
<style type="text/css">
	.st0{fill-rule:evenodd;clip-rule:evenodd;}
</style>
<g>
	<g>
		<path d="M47.56,32.39c-0.12-2.4-0.22-4.81-0.31-7.21c0.96,0.07,1.97,0.13,2.98,0.19c1.02,0.05,2.02,0.08,2.99,0.08
			c0.97,0,1.97-0.05,3-0.14c1.01-0.11,2-0.13,2.99-0.13c1.62,0,3.16,0.11,4.58,0.36c1.43,0.23,2.68,0.67,3.77,1.3
			c1.09,0.62,1.97,1.45,2.6,2.51c0.64,1.04,0.95,2.38,0.95,3.95c0,2.8-0.88,4.97-2.62,6.55c-1.75,1.57-4.03,2.69-6.85,3.34v0.11
			c3.34,0.14,5.99,0.96,7.92,2.42c1.93,1.48,2.9,3.83,2.9,7.06c0,2.1-0.42,3.88-1.28,5.3c-0.88,1.44-2,2.59-3.4,3.48
			c-1.39,0.89-2.93,1.5-4.61,1.86c-1.66,0.36-3.34,0.54-4.99,0.54c-0.9,0-1.81-0.01-2.72-0.06c-0.94-0.05-1.85-0.05-2.74-0.05
			c-0.91,0-1.84,0-2.75,0c-0.92,0-1.82,0.02-2.72,0.11c0.1-2.41,0.19-4.81,0.31-7.21c0.07-2.38,0.13-4.82,0.13-7.3v-9.72
			C47.69,37.25,47.63,34.8,47.56,32.39z M59.29,42.09c1.3-0.26,2.45-0.7,3.46-1.33c1.04-0.61,1.85-1.44,2.47-2.47
			c0.62-1.04,0.94-2.35,0.94-3.92c0-1.55-0.28-2.77-0.85-3.71c-0.56-0.91-1.28-1.63-2.14-2.14c-0.86-0.5-1.86-0.85-2.94-1.03
			c-1.09-0.14-2.2-0.24-3.29-0.24c-0.96,0-1.8,0.04-2.47,0.1c-0.67,0.05-1.28,0.11-1.81,0.19c-0.06,1.8-0.14,3.59-0.22,5.35
			c-0.08,1.78-0.12,3.56-0.12,5.36v4.22h3.05C56.67,42.48,57.98,42.37,59.29,42.09z M52.44,56.03c0.07,1.91,0.16,3.79,0.22,5.71
			c0.72,0.07,1.57,0.14,2.53,0.2c1,0.05,1.98,0.08,3,0.08c1.2,0,2.36-0.22,3.48-0.61c1.1-0.43,2.06-1.03,2.89-1.85
			c0.84-0.8,1.5-1.81,2-2.99c0.47-1.2,0.72-2.54,0.72-4.04c0-1.62-0.29-2.94-0.88-3.97c-0.59-1.04-1.43-1.85-2.53-2.44
			c-1.07-0.58-2.38-0.98-3.9-1.21c-1.54-0.22-3.23-0.34-5.11-0.34h-2.54v5.76C52.32,52.26,52.35,54.14,52.44,56.03z"/>
		<path d="M79.78,50.3c0.06-1.4,0.1-2.81,0.1-4.19c0-1.33-0.02-2.76-0.04-4.31c-0.02-1.54-0.05-3.11-0.08-4.68
			c0.94,0.19,1.73,0.29,2.38,0.29c0.6,0,1.37-0.1,2.32-0.29c-0.2,2.26-0.34,4.74-0.43,7.43c-0.1,2.68-0.13,5.44-0.13,8.28
			c0,1.94,0.16,3.44,0.48,4.46c0.37,1.04,0.78,1.81,1.27,2.36c0.53,0.59,1.18,1.08,2,1.49c0.8,0.4,1.74,0.59,2.84,0.59
			c1.58,0,2.9-0.35,3.95-1.04c1.06-0.7,1.81-1.56,2.32-2.57c0.25-0.64,0.48-1.19,0.64-1.63c0.13-0.47,0.26-1.06,0.35-1.8
			c0.11-0.77,0.16-1.78,0.18-3.06c0.02-1.27,0.04-3.02,0.04-5.24v-4.74c0-0.84-0.01-1.62-0.04-2.36c-0.02-0.77-0.05-1.49-0.08-2.16
			c0.41,0.07,0.8,0.13,1.18,0.22c0.37,0.04,0.76,0.07,1.18,0.07c0.42,0,0.83-0.04,1.19-0.07c0.38-0.08,0.76-0.14,1.14-0.22
			c-0.2,2.95-0.3,5.76-0.35,8.5c-0.04,2.74-0.04,5.62-0.04,8.67c0,1.69,0,3.36,0.04,4.97c0.05,1.62,0.11,3.18,0.17,4.69
			c-0.74-0.08-1.48-0.11-2.2-0.11s-1.45,0.02-2.18,0.11c0.02-0.35,0.05-0.7,0.07-1.08c0.01-0.38,0.02-0.77,0.02-1.19v-2.42h-0.1
			c-0.98,1.8-2.26,3.14-3.79,3.98c-1.55,0.84-3.22,1.27-5.04,1.27c-2.93,0-5.22-0.79-6.9-2.34c-1.67-1.57-2.51-3.8-2.51-6.76
			C79.7,53.44,79.72,51.73,79.78,50.3z"/>
		<path d="M110.38,59.94c0.4,0.44,0.86,0.88,1.42,1.26c0.54,0.41,1.16,0.73,1.87,0.98c0.68,0.28,1.43,0.41,2.21,0.41
			c0.72,0,1.42-0.12,2.08-0.34c0.66-0.23,1.22-0.55,1.74-0.96c0.5-0.42,0.9-0.95,1.22-1.6c0.29-0.64,0.46-1.37,0.46-2.2
			c0-1.16-0.34-2.05-1-2.68c-0.66-0.62-1.49-1.13-2.47-1.52c-0.96-0.4-2.03-0.74-3.2-1.04c-1.18-0.3-2.26-0.72-3.22-1.27
			c-0.98-0.55-1.8-1.26-2.47-2.17c-0.65-0.9-0.97-2.15-0.97-3.73c0-1.24,0.19-2.36,0.62-3.42c0.4-1.03,1.02-1.92,1.81-2.68
			c0.78-0.76,1.76-1.33,2.93-1.76c1.16-0.44,2.5-0.66,4.01-0.66c1.38,0,2.57,0.19,3.52,0.56c0.97,0.38,1.87,0.72,2.75,1.03
			c-0.31,0.54-0.6,1.25-0.84,2.08c-0.25,0.83-0.46,1.46-0.52,1.92h-0.68c-0.3-0.91-0.88-1.72-1.75-2.44
			c-0.86-0.71-1.93-1.07-3.2-1.07c-0.56,0-1.13,0.11-1.69,0.28c-0.58,0.2-1.08,0.48-1.54,0.86c-0.46,0.36-0.83,0.85-1.14,1.45
			c-0.29,0.61-0.44,1.32-0.44,2.15c0,1.2,0.34,2.14,1,2.8s1.48,1.18,2.45,1.56c0.98,0.37,2.05,0.71,3.23,0.98
			c1.15,0.29,2.23,0.68,3.22,1.19c0.97,0.5,1.79,1.21,2.46,2.11c0.66,0.9,0.98,2.15,0.98,3.73c0,1.08-0.24,2.17-0.71,3.2
			c-0.48,1.07-1.15,2.02-2.03,2.87c-0.89,0.84-1.96,1.5-3.19,1.96c-1.25,0.48-2.65,0.72-4.24,0.72c-1.73,0-3.18-0.17-4.33-0.52
			c-1.16-0.34-2.16-0.73-2.94-1.18c0.22-0.5,0.44-1.16,0.7-2c0.25-0.85,0.37-1.56,0.37-2.12h0.67
			C109.68,59.07,109.98,59.49,110.38,59.94z"/>
		<path d="M132.03,25.27c0.55-0.56,1.25-0.84,2.03-0.84c0.79,0,1.48,0.28,2.04,0.84c0.56,0.58,0.84,1.26,0.84,2.03
			c0,0.8-0.28,1.48-0.84,2.04c-0.56,0.56-1.25,0.85-2.04,0.85c-0.78,0-1.48-0.29-2.03-0.85c-0.58-0.56-0.85-1.24-0.85-2.04
			C131.18,26.53,131.46,25.84,132.03,25.27z M131.88,42.35c-0.04-1.85-0.17-3.59-0.35-5.22c1.04,0.19,1.9,0.29,2.53,0.29
			c0.64,0,1.49-0.1,2.54-0.29c-0.18,1.63-0.3,3.37-0.38,5.22c-0.04,1.86-0.07,3.64-0.07,5.34v5.88c0,1.69,0.04,3.46,0.07,5.32
			c0.08,1.86,0.2,3.55,0.38,5.06c-0.86-0.08-1.72-0.11-2.54-0.11c-0.8,0-1.67,0.02-2.53,0.11c0.18-1.51,0.31-3.2,0.35-5.06
			c0.07-1.86,0.08-3.62,0.08-5.32v-5.88C131.96,45.98,131.95,44.21,131.88,42.35z"/>
		<path d="M161.68,41.66c-1.1-1.43-2.6-2.17-4.52-2.17c-2.64,0-4.56,0.82-5.8,2.44c-1.21,1.62-1.81,3.9-1.81,6.83v4.81
			c0,1.69,0.01,3.46,0.06,5.32c0.08,1.86,0.19,3.55,0.38,5.06c-0.86-0.08-1.72-0.11-2.56-0.11c-0.82,0-1.66,0.02-2.53,0.11
			c0.2-1.51,0.31-3.2,0.36-5.06c0.06-1.86,0.1-3.62,0.1-5.32v-5.88c0-1.7-0.04-3.48-0.1-5.34c-0.05-1.85-0.16-3.59-0.36-5.22
			c1.07,0.19,1.9,0.29,2.53,0.29c0.32,0,0.65-0.04,1-0.07c0.36-0.08,0.78-0.14,1.27-0.22c-0.12,1.5-0.16,3.01-0.16,4.52h0.08
			c1.07-1.62,2.34-2.88,3.8-3.76c1.48-0.89,3.23-1.33,5.27-1.33c1.07,0,2.12,0.16,3.2,0.44c1.08,0.31,2.04,0.82,2.92,1.56
			c0.86,0.73,1.57,1.73,2.12,3c0.54,1.25,0.82,2.87,0.82,4.82c0,1.62-0.05,3.28-0.12,4.99c-0.07,1.72-0.1,3.53-0.1,5.45v3.67
			c0,0.59,0.01,1.19,0.02,1.78c0,0.59,0.04,1.14,0.07,1.67c-0.74-0.08-1.56-0.11-2.39-0.11c-0.8,0-1.57,0.02-2.34,0.11
			c0.07-1.96,0.16-3.97,0.25-6.05c0.08-2.06,0.13-4.2,0.13-6.37v-3.46C163.3,45.26,162.76,43.13,161.68,41.66z"/>
		<path d="M176.03,40.52c2.21-2.64,5.41-3.96,9.64-3.96c1.98,0,3.71,0.31,5.15,0.94c1.45,0.61,2.68,1.45,3.65,2.47
			c0.98,1.04,1.7,2.27,2.18,3.65c0.46,1.39,0.7,2.88,0.7,4.45c0,0.4-0.01,0.74-0.04,1.1c-0.01,0.36-0.05,0.72-0.08,1.12
			c-2.03-0.05-4.02-0.08-6.03-0.12c-2-0.05-4.02-0.06-6.05-0.06c-1.25,0-2.46,0.01-3.7,0.06c-1.21,0.04-2.46,0.07-3.68,0.12
			c-0.05,0.18-0.07,0.47-0.07,0.84v0.73c0,1.46,0.22,2.84,0.66,4.12c0.42,1.28,1.04,2.39,1.88,3.3c0.83,0.92,1.84,1.67,3.04,2.21
			c1.22,0.54,2.62,0.82,4.18,0.82c0.77,0,1.55-0.1,2.32-0.31c0.79-0.2,1.56-0.48,2.32-0.84c0.76-0.36,1.46-0.78,2.11-1.27
			c0.66-0.49,1.25-1.01,1.73-1.57l0.28,0.14l-0.34,2.78c-1.13,0.9-2.52,1.67-4.2,2.3c-1.67,0.64-3.42,0.97-5.22,0.97
			c-2.04,0-3.89-0.31-5.57-0.94c-1.67-0.64-3.11-1.52-4.33-2.71c-1.22-1.18-2.17-2.58-2.82-4.2c-0.66-1.62-1-3.37-1-5.26
			C172.73,46.78,173.83,43.16,176.03,40.52z M182.24,39.33c-0.95,0.64-1.73,1.43-2.36,2.39c-0.61,0.97-1.09,2.02-1.4,3.17
			c-0.34,1.14-0.52,2.23-0.61,3.24c1.18,0.04,2.4,0.08,3.66,0.12c1.26,0.04,2.48,0.05,3.7,0.05c1.24,0,2.5-0.01,3.79-0.05
			c1.26-0.04,2.52-0.08,3.72-0.12c0-1.01-0.1-2.08-0.26-3.22c-0.16-1.13-0.52-2.18-1.01-3.14c-0.5-1-1.24-1.8-2.11-2.44
			c-0.91-0.64-2.1-0.97-3.55-0.97C184.38,38.36,183.2,38.7,182.24,39.33z"/>
		<path d="M202.62,59.94c0.4,0.44,0.88,0.88,1.42,1.26c0.54,0.41,1.18,0.73,1.87,0.98c0.7,0.28,1.45,0.41,2.21,0.41
			c0.73,0,1.42-0.12,2.06-0.34c0.66-0.23,1.25-0.55,1.76-0.96c0.49-0.42,0.91-0.95,1.21-1.6c0.29-0.64,0.44-1.37,0.44-2.2
			c0-1.16-0.32-2.05-1-2.68c-0.64-0.62-1.46-1.13-2.44-1.52c-0.98-0.4-2.06-0.74-3.23-1.04c-1.16-0.3-2.23-0.72-3.22-1.27
			c-0.97-0.55-1.8-1.26-2.45-2.17c-0.66-0.9-0.98-2.15-0.98-3.73c0-1.24,0.19-2.36,0.62-3.42c0.4-1.03,1.01-1.92,1.79-2.68
			c0.8-0.76,1.78-1.33,2.94-1.76c1.16-0.44,2.51-0.66,4.02-0.66c1.38,0,2.56,0.19,3.52,0.56c0.96,0.38,1.87,0.72,2.74,1.03
			c-0.3,0.54-0.59,1.25-0.84,2.08c-0.25,0.83-0.43,1.46-0.5,1.92h-0.68c-0.31-0.91-0.89-1.72-1.74-2.44
			c-0.88-0.71-1.94-1.07-3.23-1.07c-0.55,0-1.13,0.11-1.69,0.28c-0.56,0.2-1.07,0.48-1.52,0.86c-0.46,0.36-0.83,0.85-1.13,1.45
			c-0.29,0.61-0.46,1.32-0.46,2.15c0,1.2,0.34,2.14,1,2.8c0.65,0.66,1.48,1.18,2.44,1.56c1,0.37,2.06,0.71,3.23,0.98
			c1.16,0.29,2.24,0.68,3.22,1.19c0.97,0.5,1.81,1.21,2.46,2.11c0.66,0.9,0.98,2.15,0.98,3.73c0,1.08-0.24,2.17-0.72,3.2
			c-0.44,1.07-1.13,2.02-2,2.87c-0.9,0.84-1.94,1.5-3.19,1.96c-1.26,0.48-2.65,0.72-4.25,0.72c-1.74,0-3.17-0.17-4.33-0.52
			c-1.18-0.34-2.16-0.73-2.94-1.18c0.23-0.5,0.47-1.16,0.71-2c0.24-0.85,0.36-1.56,0.36-2.12h0.68
			C201.93,59.07,202.22,59.49,202.62,59.94z"/>
		<path d="M223.33,59.94c0.41,0.44,0.88,0.88,1.42,1.26c0.55,0.41,1.16,0.73,1.88,0.98c0.67,0.28,1.44,0.41,2.22,0.41
			c0.71,0,1.4-0.12,2.04-0.34c0.66-0.23,1.26-0.55,1.78-0.96c0.49-0.42,0.9-0.95,1.2-1.6c0.3-0.64,0.44-1.37,0.44-2.2
			c0-1.16-0.31-2.05-0.97-2.68c-0.66-0.62-1.48-1.13-2.46-1.52c-0.97-0.4-2.05-0.74-3.23-1.04c-1.16-0.3-2.23-0.72-3.2-1.27
			c-0.98-0.55-1.81-1.26-2.45-2.17c-0.67-0.9-1.01-2.15-1.01-3.73c0-1.24,0.22-2.36,0.62-3.42c0.42-1.03,1.02-1.92,1.8-2.68
			c0.8-0.76,1.78-1.33,2.95-1.76c1.16-0.44,2.48-0.66,4.01-0.66c1.39,0,2.58,0.19,3.52,0.56c0.97,0.38,1.88,0.72,2.74,1.03
			c-0.3,0.54-0.58,1.25-0.84,2.08c-0.26,0.83-0.43,1.46-0.52,1.92h-0.67c-0.3-0.91-0.88-1.72-1.75-2.44
			c-0.88-0.71-1.93-1.07-3.2-1.07c-0.56,0-1.14,0.11-1.7,0.28c-0.55,0.2-1.07,0.48-1.52,0.86c-0.46,0.36-0.8,0.85-1.12,1.45
			c-0.3,0.61-0.47,1.32-0.47,2.15c0,1.2,0.34,2.14,1.01,2.8c0.65,0.66,1.45,1.18,2.44,1.56c1,0.37,2.06,0.71,3.23,0.98
			c1.16,0.29,2.22,0.68,3.2,1.19c0.98,0.5,1.82,1.21,2.45,2.11c0.68,0.9,1.01,2.15,1.01,3.73c0,1.08-0.24,2.17-0.71,3.2
			c-0.48,1.07-1.15,2.02-2.03,2.87c-0.89,0.84-1.96,1.5-3.19,1.96c-1.25,0.48-2.66,0.72-4.24,0.72c-1.73,0-3.18-0.17-4.34-0.52
			c-1.18-0.34-2.15-0.73-2.93-1.18c0.22-0.5,0.46-1.16,0.7-2c0.25-0.85,0.36-1.56,0.36-2.12h0.7
			C222.65,59.07,222.95,59.49,223.33,59.94z"/>
	</g>
	<g>
		<path d="M48.74,128.06c0.65,0.88,1.4,1.67,2.32,2.36c0.92,0.7,1.98,1.28,3.2,1.73c1.21,0.43,2.58,0.66,4.08,0.66
			c1.55,0,2.94-0.28,4.19-0.8c1.22-0.54,2.28-1.27,3.14-2.18c0.89-0.91,1.54-2,2-3.23c0.47-1.24,0.71-2.57,0.71-3.97
			c0-2.16-0.55-3.86-1.64-5.12c-1.12-1.27-2.47-2.33-4.12-3.17c-1.64-0.85-3.42-1.61-5.3-2.32c-1.9-0.72-3.67-1.58-5.32-2.63
			c-1.63-1.08-3-2.41-4.1-4.07c-1.09-1.63-1.64-3.82-1.64-6.6c0-1.96,0.35-3.74,1.06-5.37c0.7-1.62,1.7-3.01,3.05-4.18
			c1.33-1.18,2.94-2.09,4.81-2.74c1.88-0.67,3.98-1,6.32-1c2.26,0,4.19,0.28,5.85,0.82c1.63,0.54,3.16,1.36,4.57,2.48
			c-0.44,0.8-0.77,1.66-1.04,2.53c-0.29,0.89-0.59,2.02-0.88,3.37h-0.84c-0.24-0.65-0.54-1.38-0.94-2.14
			c-0.41-0.78-0.94-1.5-1.63-2.15c-0.67-0.65-1.46-1.21-2.41-1.66c-0.94-0.43-2.06-0.66-3.37-0.66c-1.32,0-2.52,0.22-3.64,0.64
			c-1.08,0.41-2.06,1.02-2.87,1.79c-0.82,0.78-1.45,1.69-1.91,2.77c-0.44,1.08-0.66,2.24-0.66,3.52c0,2.2,0.56,3.94,1.64,5.2
			c1.12,1.26,2.48,2.34,4.13,3.19c1.63,0.88,3.41,1.64,5.3,2.33c1.9,0.67,3.67,1.51,5.3,2.51c1.63,0.96,3,2.23,4.1,3.78
			c1.09,1.55,1.67,3.61,1.67,6.18c0,2.17-0.4,4.2-1.16,6.12c-0.78,1.91-1.91,3.6-3.38,5.02c-1.46,1.43-3.28,2.54-5.42,3.3
			c-2.11,0.78-4.55,1.16-7.27,1.16c-2.89,0-5.24-0.38-7.06-1.16c-1.81-0.76-3.3-1.66-4.52-2.63c0.42-1.07,0.7-2.05,0.88-2.92
			c0.17-0.88,0.32-1.98,0.46-3.35h0.83C47.6,126.35,48.11,127.2,48.74,128.06z"/>
		<path d="M79.99,110.18c1.02-2.2,2.38-4.02,4.02-5.44c1.67-1.44,3.58-2.48,5.75-3.17c2.15-0.67,4.34-1.03,6.6-1.03
			c2.57,0,4.88,0.32,6.91,0.96c2.04,0.64,3.5,1.36,4.39,2.15c-0.32,0.71-0.61,1.44-0.88,2.21c-0.26,0.77-0.48,1.58-0.67,2.44h-0.55
			c-0.32-0.62-0.78-1.25-1.33-1.87c-0.56-0.64-1.24-1.21-2-1.76c-0.77-0.53-1.63-0.97-2.57-1.32c-0.94-0.36-1.97-0.54-3.08-0.54
			c-2.12,0-3.94,0.4-5.46,1.16c-1.51,0.78-2.76,1.85-3.72,3.2c-0.95,1.36-1.67,2.95-2.1,4.8c-0.46,1.86-0.68,3.85-0.68,6.01
			c0,4.84,1.02,8.46,3.1,10.93c2.08,2.46,5.09,3.68,9.07,3.68c0.92,0,1.9-0.12,2.88-0.37c0.97-0.26,1.93-0.61,2.89-1.07
			c0.92-0.44,1.8-0.96,2.63-1.57c0.82-0.62,1.55-1.27,2.15-1.98l0.34,0.22c-0.24,1.13-0.37,2.27-0.42,3.44
			c-1.4,1.12-3.16,2.09-5.23,2.87c-2.08,0.8-4.26,1.2-6.5,1.2c-2.02,0-4.04-0.29-6.07-0.88c-2.04-0.58-3.89-1.57-5.52-2.95
			c-1.63-1.37-2.96-3.18-3.96-5.37c-1.01-2.21-1.52-4.9-1.52-8.09C78.43,115.01,78.96,112.39,79.99,110.18z"/>
		<path d="M113.61,96.69c-0.02-1.87-0.06-3.72-0.11-5.56c-0.05-1.82-0.1-3.58-0.18-5.22c-0.06-1.67-0.14-3.08-0.23-4.26
			c1.3,0.23,2.34,0.36,3.16,0.36c0.78,0,1.84-0.13,3.17-0.36c-0.11,1.18-0.18,2.58-0.25,4.21c-0.07,1.64-0.13,3.36-0.18,5.17
			c-0.06,1.8-0.08,3.61-0.11,5.44c-0.02,1.84-0.02,3.52-0.02,5.06v5.34h0.13c1.31-2.02,2.88-3.58,4.73-4.68
			c1.82-1.09,4.02-1.66,6.55-1.66c1.32,0,2.65,0.2,3.98,0.56c1.34,0.4,2.54,1.03,3.63,1.94c1.08,0.91,1.98,2.16,2.66,3.73
			c0.68,1.56,1.01,3.56,1.01,6c0,2.02-0.04,4.09-0.16,6.23c-0.08,2.12-0.13,4.38-0.13,6.78v4.55c0,0.77,0.01,1.5,0.05,2.22
			c0,0.73,0.04,1.42,0.08,2.09c-0.94-0.11-1.93-0.16-2.96-0.16c-1.01,0-1.98,0.05-2.92,0.16c0.08-2.44,0.2-4.97,0.3-7.54
			c0.12-2.57,0.19-5.21,0.19-7.94v-4.27c0-3.52-0.68-6.17-2.05-7.98c-1.37-1.8-3.24-2.7-5.62-2.7c-3.28,0-5.69,1.01-7.19,3.01
			c-1.55,2.02-2.29,4.85-2.29,8.51c0,1.31,0,2.82,0.02,4.57c0.02,1.73,0.05,3.48,0.11,5.22c0.05,1.78,0.11,3.46,0.18,5.1
			c0.07,1.64,0.14,2.98,0.25,4.02c-1.08-0.11-2.15-0.16-3.17-0.16c-1.04,0-2.09,0.05-3.16,0.16c0.08-1.08,0.17-2.44,0.23-4.09
			c0.08-1.63,0.13-3.37,0.18-5.2c0.05-1.84,0.08-3.67,0.11-5.55c0.01-1.87,0.04-3.62,0.04-5.21v-12.72
			C113.64,100.29,113.62,98.58,113.61,96.69z"/>
		<path d="M149.23,109.94c1.02-2.23,2.33-4.03,3.97-5.41c1.66-1.38,3.48-2.39,5.52-3.02c2.04-0.64,4.07-0.96,6.1-0.96
			c2.05,0,4.09,0.32,6.1,0.96c2.02,0.64,3.84,1.64,5.49,3.02c1.64,1.38,2.96,3.18,3.99,5.41c1,2.23,1.5,4.93,1.5,8.11
			c0,3.19-0.5,5.89-1.5,8.13c-1.02,2.22-2.34,4.02-3.99,5.41c-1.64,1.38-3.47,2.35-5.49,2.9c-2,0.56-4.04,0.84-6.1,0.84
			c-2.03,0-4.06-0.28-6.1-0.84c-2.04-0.55-3.86-1.52-5.52-2.9c-1.64-1.39-2.95-3.19-3.97-5.41c-1-2.23-1.51-4.93-1.51-8.13
			C147.72,114.88,148.23,112.17,149.23,109.94z M154.44,123.74c0.35,1.84,0.95,3.46,1.8,4.87c0.84,1.44,1.97,2.59,3.36,3.43
			c1.4,0.84,3.15,1.25,5.22,1.25c2.05,0,3.78-0.41,5.17-1.25c1.42-0.84,2.53-1.99,3.4-3.43c0.84-1.42,1.43-3.04,1.78-4.87
			c0.36-1.82,0.54-3.71,0.54-5.69c0-1.97-0.18-3.86-0.54-5.69c-0.35-1.82-0.94-3.46-1.78-4.89c-0.86-1.43-1.98-2.56-3.4-3.42
			c-1.39-0.84-3.12-1.26-5.17-1.26c-2.08,0-3.82,0.42-5.22,1.26c-1.39,0.86-2.52,1.99-3.36,3.42c-0.85,1.43-1.45,3.06-1.8,4.89
			c-0.35,1.82-0.53,3.72-0.53,5.69C153.91,120.04,154.09,121.92,154.44,123.74z"/>
		<path d="M186.7,109.94c1-2.23,2.33-4.03,3.96-5.41c1.64-1.38,3.48-2.39,5.53-3.02c2.03-0.64,4.06-0.96,6.07-0.96
			c2.05,0,4.09,0.32,6.11,0.96c2.02,0.64,3.84,1.64,5.47,3.02c1.66,1.38,2.96,3.18,3.98,5.41c1.01,2.23,1.51,4.93,1.51,8.11
			c0,3.19-0.5,5.89-1.51,8.13c-1.02,2.22-2.33,4.02-3.98,5.41c-1.63,1.38-3.46,2.35-5.47,2.9c-2.02,0.56-4.06,0.84-6.11,0.84
			c-2.02,0-4.04-0.28-6.07-0.84c-2.05-0.55-3.89-1.52-5.53-2.9c-1.63-1.39-2.96-3.19-3.96-5.41c-1.01-2.23-1.52-4.93-1.52-8.13
			C185.18,114.88,185.69,112.17,186.7,109.94z M191.91,123.74c0.35,1.84,0.94,3.46,1.76,4.87c0.86,1.44,1.98,2.59,3.38,3.43
			c1.42,0.84,3.13,1.25,5.21,1.25c2.05,0,3.79-0.41,5.2-1.25c1.42-0.84,2.52-1.99,3.37-3.43c0.85-1.42,1.44-3.04,1.79-4.87
			c0.35-1.82,0.53-3.71,0.53-5.69c0-1.97-0.18-3.86-0.53-5.69c-0.35-1.82-0.94-3.46-1.79-4.89c-0.85-1.43-1.96-2.56-3.37-3.42
			c-1.4-0.84-3.14-1.26-5.2-1.26c-2.08,0-3.79,0.42-5.21,1.26c-1.4,0.86-2.52,1.99-3.38,3.42c-0.83,1.43-1.42,3.06-1.76,4.89
			c-0.37,1.82-0.53,3.72-0.53,5.69C191.38,120.04,191.54,121.92,191.91,123.74z"/>
		<path d="M227.39,96.69c-0.02-1.87-0.05-3.72-0.11-5.56c-0.04-1.82-0.1-3.58-0.17-5.22c-0.07-1.67-0.16-3.08-0.24-4.26
			c1.31,0.23,2.35,0.36,3.16,0.36c0.78,0,1.84-0.13,3.14-0.36c-0.08,1.18-0.16,2.59-0.24,4.26c-0.06,1.64-0.13,3.4-0.18,5.22
			c-0.02,1.84-0.07,3.68-0.08,5.56c-0.04,1.88-0.05,3.6-0.05,5.2v12.72c0,1.58,0.01,3.34,0.05,5.21c0.01,1.87,0.06,3.71,0.08,5.55
			c0.05,1.82,0.12,3.56,0.18,5.2c0.08,1.66,0.16,3.01,0.24,4.09c-1.06-0.11-2.11-0.16-3.14-0.16c-1.03,0-2.09,0.05-3.16,0.16
			c0.08-1.08,0.17-2.44,0.24-4.09c0.07-1.63,0.13-3.37,0.17-5.2c0.06-1.84,0.08-3.67,0.11-5.55c0.01-1.87,0.04-3.62,0.04-5.21
			v-12.72C227.42,100.29,227.4,98.58,227.39,96.69z"/>
	</g>
	<path class="st0" d="M79.26,218.51c-3.24,3.42-8.55,5.94-13.05,6c-11.22,0.04-17.38-9.37-17.48-22.88
		c-0.02-11.53,4.81-24.1,16.94-24.18c4.72,0,9.4,3,12.12,7.21h1.02c0.56-2.76,1.01-5.47,1.66-8.1c-4.21-2.54-10.09-3.82-14.94-3.82
		c-15.89,0.11-28.98,9.52-28.95,30.1c0.11,16.15,11.99,26.49,27.6,26.37c4.9,0,10.03-0.96,14.43-3.44l1.57-6.77L79.26,218.51z
		 M93.19,174.02l0.19,53.62l27.8-0.08c-0.11-1.13-0.36-2.32-0.37-3.43c0.01-1.08,0.26-2.27,0.36-3.35
		c-4.43,0.65-9.42,1.03-16.85,1.15l-0.08-20l7.57-0.05c3.34,0.02,6.3,0.32,9,0.68c-0.14-1.1-0.38-2.27-0.38-3.38
		c0-1.09,0.2-2.29,0.38-3.41c-2.7,0.42-5.66,0.76-9.01,0.76l-7.56,0.04l-0.1-16.94c7.48-0.17,12.43,0.41,16.89,1.03
		c-0.16-1.09-0.36-2.29-0.4-3.4c0-1.08,0.19-2.24,0.38-3.38L93.19,174.02z M137.22,227.86c1.86-0.14,3.67-0.41,5.51-0.43
		c1.8,0.02,3.67,0.24,5.46,0.4l-0.24-54.07c-1.79,0.19-3.64,0.44-5.44,0.43c-1.82,0.05-3.65-0.2-5.5-0.41L137.22,227.86z
		 M176.66,203.97c13.19-0.06,22.64-3.12,22.56-17.12c0-8.89-5.53-13.31-15.66-13.26l-17.97,0.07l0.2,54.03
		c1.85-0.13,3.66-0.37,5.48-0.4c1.82,0,3.68,0.22,5.5,0.37L176.66,203.97z M176.58,177.89h4.49c3.82-0.04,6.82,4.13,6.85,10.39
		c0,4.82-1.74,9.34-6.49,10.75c-1.51,0.4-3.19,0.53-4.8,0.59L176.58,177.89z M227.6,210.99c2.03,5.26,3.56,10.57,5.26,16.39
		c2.11-0.14,4.16-0.41,6.28-0.41c2.14,0,4.15,0.23,6.28,0.35l-20.61-54.62c-0.94,0.16-1.79,0.22-2.76,0.22
		c-0.97,0.04-1.81-0.06-2.8-0.17l-20.62,54.66c1.13-0.07,2.35-0.26,3.54-0.26c1.12,0,2.24,0.16,3.37,0.19
		c1.38-5.4,3.18-10.3,5.06-16.29L227.6,210.99z M212.53,206.2l6.8-18.36l6.58,18.32L212.53,206.2z"/>
	<path d="M141.03,489c-32.25,0-62.57-14.99-85.3-42.22c-22.56-26.99-35.02-62.79-35.21-100.82V155.42h240.95v189.69
		c0.07,19.73-3.15,38.9-9.63,56.97C232.97,454.7,189.7,488.81,141.57,489H141.03z M24.06,159.26v186.69
		c0.32,76.75,52.82,139.23,116.97,139.23h0.5c46.66-0.2,88.66-33.37,107.01-84.47c6.29-17.63,9.43-36.35,9.37-55.6V159.26H24.06z"/>
	<path d="M140.36,472.35c-27.29,0-53-12.73-72.43-35.87c-19.55-23.32-30.26-54.58-30.18-87.97c-0.01-12.93-0.02-25.88-0.07-38.83
		c-0.06-21.02-0.13-42.02-0.19-63.03l-0.01-1.92l1.79-0.01c13.37-0.06,26.76-0.12,40.15-0.2c20.54-0.11,41.07-0.22,61.61-0.3
		c33.97-0.25,67.89-0.48,101.74-0.68h1.76v1.94c-0.06,16.29-0.11,32.59-0.16,48.91c-0.04,17.46-0.1,34.95-0.17,52.44
		c0.13,33.44-10.62,65-30.23,88.81c-19.54,23.56-45.45,36.59-72.92,36.71L140.36,472.35z M41.05,248.53
		c0.06,20.4,0.11,40.76,0.16,61.14c0.05,12.95,0.06,25.9,0.11,38.84c-0.11,32.45,10.31,62.79,29.25,85.41
		c18.72,22.31,43.52,34.61,69.8,34.61h0.65c26.48-0.12,51.4-12.71,70.31-35.44c19.03-23.1,29.48-53.76,29.33-86.27
		c0.07-17.51,0.14-34.99,0.17-52.46c0.05-15.67,0.11-31.33,0.16-46.98c-33.23,0.19-66.55,0.41-99.96,0.66
		c-20.52,0.07-41.06,0.18-61.58,0.31C66.6,248.4,53.83,248.47,41.05,248.53"/>
	<path d="M93.15,174.01l0.25,53.65l27.78-0.14c-0.16-1.13-0.35-2.29-0.35-3.38c-0.05-1.1,0.19-2.28,0.34-3.36
		c-4.43,0.64-9.42,1.02-16.85,1.16l-0.08-20.01l7.61-0.02c3.26-0.02,6.26,0.28,8.94,0.67c-0.12-1.14-0.36-2.33-0.36-3.41
		c0-1.1,0.2-2.29,0.31-3.37c-2.69,0.38-5.66,0.73-8.94,0.73l-7.6,0.01l-0.07-16.9c7.49-0.19,12.43,0.41,16.89,1.03
		c-0.18-1.13-0.38-2.33-0.38-3.4c0-1.08,0.2-2.29,0.34-3.37L93.15,174.01z M142.47,174.19c-1.79,0.01-3.67-0.2-5.46-0.38l0.2,54.03
		c1.81-0.12,3.65-0.41,5.47-0.43c1.84,0,3.65,0.25,5.5,0.4l-0.24-54.03C146.15,173.95,144.29,174.15,142.47,174.19 M176.51,177.86
		h4.56c3.82-0.04,6.82,4.12,6.82,10.42c0,4.79-1.7,9.33-6.45,10.75c-1.52,0.4-3.2,0.48-4.8,0.55L176.51,177.86z M183.54,173.61
		l-17.99,0.07l0.24,53.98c1.85-0.13,3.61-0.4,5.48-0.4c1.84,0,3.62,0.24,5.46,0.37l-0.1-23.73c13.15-0.07,22.65-3.1,22.58-17.12
		c-0.05-8.82-5.46-13.19-15.41-13.19H183.54z M65.52,172.75c-15.9,0.06-28.98,9.49-28.89,30.04c0.02,16.15,11.91,26.51,27.53,26.44
		c4.88-0.02,10.08-1.02,14.43-3.47l1.6-6.79l-0.92-0.46c-3.29,3.42-8.56,5.94-13.08,6c-11.25,0.04-17.4-9.39-17.5-22.89
		c-0.01-11.57,4.84-24.08,16.97-24.15c4.72-0.02,9.41,2.94,12.13,7.19l0.98-0.04c0.6-2.76,1.02-5.39,1.7-8.1
		c-4.21-2.47-9.94-3.78-14.69-3.78H65.52 M219.31,187.8l6.6,18.34l-13.38,0.05L219.31,187.8z M222.02,172.92
		c-0.91,0-1.84-0.06-2.78-0.19l-20.61,54.68c1.13-0.1,2.29-0.28,3.48-0.28c1.14,0,2.27,0.14,3.43,0.23
		c1.33-5.45,3.16-10.33,5.05-16.37l17.01-0.06c2.03,5.26,3.53,10.62,5.22,16.43c2.11-0.13,4.2-0.41,6.28-0.38
		c2.14-0.04,4.19,0.22,6.31,0.34l-20.62-54.6C223.82,172.81,223.02,172.92,222.02,172.92"/>
	<path d="M70.8,399.42c0,0.08-0.01,0.14-0.04,0.23c0.3-0.04,0.36-0.07,0.32-0.11c-0.02-0.06-0.29-0.13-0.32-0.13L70.8,399.42
		 M130.36,403.19c-3.19-4.28-4.15-5.39-6.13-10.75c9.36,8.63,23.87,8.71,34.01,2.47c0.76,0.18-6.77,13.31-17.13,13.31
		C137.76,408.21,134.11,406.86,130.36,403.19 M119.01,384.07c0,8.25,0.59,12.06,4.74,19.07c4.63,7.81,14.09,12.75,22.59,10.59
		c12.75-3.22,18.04-18.46,22.3-29.85c-1.63,0.77-5.87,3.23-8.08,4.57c-7.68,4.33-14.22,5.89-23.06,4.73
		c-5.8-1.02-11.03-6.07-12.15-7.91c-2.09-3.17-3.42-11.14-3.42-11.14C119.9,377.69,119.6,380.06,119.01,384.07 M186.68,335.36
		c-1.79-1.6-4.87-5.35-6.61-6.97l-4.14,3.91c1.34,1.19,3.42,3.17,5.58,5.59c-3.2,1.33-8.57,3.4-11.34,4.97
		c1.15,2.24,1.18,2.86,2.44,5.08c2.72-1.62,8.79-4,11.87-5.32c-1.61,4.3-3.85,9.95-5.71,14.4c2.05,1.12,2.41,1.69,4.56,2.89
		c2.26-4.64,3.71-10.29,5.94-15.13c1.09,0.32,6.65,5.56,7.92,6.69l3.22-4.37c-1.88-1.68-5.74-5.05-7.6-6.73
		c1.86-0.64,4.55-1.54,11.53-3.54l-1.46-5.62c-2.47,0.68-7.63,2.29-10.07,3.02c0.18-1.5,1.13-5.03,1.93-7.76
		c-2.24-0.67-2.96-1.1-5.2-1.75C189.16,326.35,187.23,334.76,186.68,335.36 M88.61,322.45c-4.18,12.46,1.33,27.05,8.15,34.31
		c-0.48,0.14-0.97,0.23-1.55,0.23C86.88,356.99,69.74,340.82,88.61,322.45 M95.49,363.18c4.56,0.96,9.83,2.05,15.99,1.22
		c-7.63-7.67-15.24-12.85-18.66-27.87c-1.18-6.25,0.85-13.56,2.09-15.37c2-3.2,8.17-8.11,8.17-8.11c-0.55-0.05-1.08-0.06-1.64-0.06
		C72.55,312.99,62.64,355.97,95.49,363.18 M135.91,290.28c-1.87-1.69-4.85-5.42-6.66-7.03l-4.12,3.9c1.34,1.18,3.41,3.2,5.57,5.6
		c-3.16,1.33-8.52,3.37-11.35,4.97c1.21,2.27,1.28,2.83,2.5,5.1c2.75-1.64,8.76-4.08,11.88-5.35c-1.67,4.31-3.86,9.94-5.75,14.39
		c2.06,1.15,2.41,1.73,4.54,2.9c2.28-4.63,3.73-10.25,5.95-15.1c1.07,0.28,6.66,5.51,7.93,6.69l3.23-4.38
		c-1.92-1.68-5.77-5.06-7.63-6.74c1.88-0.65,4.6-1.54,11.53-3.52l-1.44-5.64c-2.5,0.66-7.62,2.32-10.09,3.05
		c0.22-1.52,1.19-5.04,1.98-7.79c-2.28-0.65-2.99-1.1-5.26-1.76C138.4,281.22,136.43,289.62,135.91,290.28 M58.69,257.34v0.02
		c-0.04,0-0.04,0.02-0.06,0.02c-0.02,0.05-0.08,0.08-0.01,0.05h0.07v-0.07C58.69,257.34,58.7,257.34,58.69,257.34 M115.84,425.19
		c-5.34-1.82-13.62-6.84-16.56-9.13c-3.12-1.88-13.11-12.91-13.11-12.91s16.01-13.72,18.23-16.37c2.28-2.7,14.4-13.18,16.19-15.55
		c1.79-2.39,7.46-6.95,10.59-9.83c3.16-2.92,13.21-14.83,13.21-14.83l13.71,12.84c0,0,12.82,11.89,14.08,13.05
		c1.22,1.2,6.58,5.7,12.22,12.81l7.91,10l3.08,4.16c0,0-2.15,2.47-3.52,3.95c-1.34,1.46-5.6,4.94-8.22,7.45
		c-2.72,2.48-11.15,7.1-14.38,9.11c-3.24,1.99-11.69,4.6-14.26,5.2c-2.56,0.6-12.95,2.6-18.36,2.87c-0.55,0.04-1.1,0.07-1.73,0.07
		C129.25,428.05,120.64,426.85,115.84,425.19 M78.98,392.84c-0.72-1.5-3.6-7.81-4.78-10.66c-1.19-2.76-4.75-14.7-5.21-17.22
		c-0.52-2.54-1.49-12.19-1.98-14.99c-0.47-2.76-0.02-13.73,0.85-19.31c0.96-5.62,3.22-15,5.34-20.36c2.11-5.34,4.25-8.17,6.07-11.46
		c1.85-3.29,6.35-9.18,6.35-9.18s11.55,11.88,13.91,14.43c2.34,2.54,9.94,10.09,12.09,12.16c2.12,1.99,7.77,8.29,11.1,10.57
		c3.29,2.26,16.03,14.95,16.03,14.95l-11.69,12.72c0,0-15.01,14.83-16.18,16.07c-1.19,1.27-13.14,12.06-13.14,12.06l-12.42,10.69
		l-4.01,3.34C81.32,396.66,79.68,394.36,78.98,392.84 M179.13,367.77c-1.16-1.06-15.95-14.91-15.95-14.91l-13.05-11.61
		c0,0,10.19-13.9,13.19-16.19c2.99-2.32,7.54-9.25,9.49-11.32c1.92-2.02,8.21-10.31,10.35-12.81c2.14-2.58,9.87-13.65,9.87-13.65
		s7.37,7.69,9.09,10.97c1.76,3.3,3.94,6.1,6.1,11.03c2.23,4.96,4.74,11.08,6.18,19.68c1.52,8.57,1.32,15.78,1.31,19.29
		c-0.04,3.52-1.24,12.47-1.64,15.03c-0.44,2.54-4.55,13.98-5.75,16.71c-3.37,7.38-4.85,9.85-7.87,13
		C193.85,384.17,188.69,376.54,179.13,367.77 M130.84,323.14c-3-2.66-8.26-6.87-9.94-9.06c-1.68-2.22-12.71-12.07-14.79-14.52
		c-2.15-2.45-15.59-15.88-15.59-15.88s8.44-8.75,11.35-10.54c2.7-2.12,7.86-5.82,14.87-8.02c7.03-2.18,14.68-1.96,19.78-1.78
		c5.01,0.19,9.41,0.54,11.83,1.1c2.39,0.58,10.43,1.67,13.86,3.1c3.42,1.42,10.54,3.79,13.78,6.07c3.24,2.36,6.66,3.76,7.93,5.05
		c1.24,1.36,3.29,3.67,3.29,3.67l-2.83,3.89l-7.24,9.41c-5.27,6.64-12.22,16.53-13.35,17.66c-1.13,1.14-9.23,10.59-9.23,10.59
		l-10.43,11.91C144.15,335.79,133.8,325.8,130.84,323.14 M189.92,260.09c0.61,2.58,0.55,2.32,1.24,4.94
		c2.75-0.78,7.48-1.79,10.24-2.54c-2.68,3.71-6.99,9.97-9.72,13.72c-10.11-8.26-22.02-14.29-32.02-16.39
		c-13.36-3.84-25.52-4.2-38.98-2.99c-10.32,2.34-17.61,6.08-26.03,12.57c-2.59,2.39-6.36,6.17-8.71,8.63
		c-0.29,0-12.39-13.83-13.59-15.16c2.22,0.08,6.13,0.2,8.32,0.31c0.14-2.74,0.25-2.88,0.41-5.62c-7.59-0.1-11.44-0.36-22.37-0.12
		c1.68,8.71,2.88,15.29,4.67,24.08c2.4-0.58,2.29-0.66,4.74-1.19c0.11-0.19-0.5-2.48-2.62-13.61c4.33,4.99,10.54,12.61,14.99,17.57
		c-4.06,5.27-7.57,11.8-10.79,17.58c-3.59,7.61-5.88,15-7.9,23.39c-0.32,1.5-0.43,3.65-0.68,5.23c-0.56,3.71-0.16,3.71-0.56,7.54
		c-0.34,8.09-0.08,15.7,0.98,23.94c0.43,2.14,0.96,4.74,1.38,6.85c2.71,11.63,7.09,22.38,13.44,32.59
		c-2.54,2.18-4.61,3.52-6.46,4.92c0.23-1.51,0.61-5.02,0.88-6.68c-0.54,0.05-1.85,0.05-4.7-0.13c0.25,10.15-9.52,16.54-9.72,23.52
		c1.72,0.67,8.32-0.1,14.43-0.86c5.28-0.66,10.24-1.33,11.33-1.06c-0.3-1.8-0.31-3.92-0.4-5.23c-2.63-0.13-8.11,0.88-11.03,1.1
		c4.08-4.34,5.99-5.81,10.5-9.16c1.7,2.03,3.53,4.06,5.21,6.07c4.56,4.58,9.55,8.52,15.06,12.24c0.89,0.49,3.47,2.04,4.8,2.21
		c0,0.1,0.05,0.14,0.08,0.23c0.5,0.1,4.02,1.75,7.65,3.2c2.57,0.78,5.33,1.57,8.29,2.24c7.07,1.24,13.69,1.42,21.06,0.8
		c6.54-0.91,12.85-2.22,19.36-4.38c2.1-0.78,4.18-1.56,6.24-2.36c11.41-5.21,22.41-12.87,31.06-22.8
		c2.83,3.79,9.16,10.98,12.37,13.75c-6.94-0.42-9.23,0.05-9.52,0.13c-0.13,2.7,0.17,2.8,0.06,4.42c12.19,0.89,19.27,0.85,22.73,1.15
		c-0.77-6.44-3.88-20.26-4.08-23.76c-1.38,0.11-3.06,0.37-4.26,0.43c0.11,1.67,0.67,3.68,0.8,5.3c0.56,3.07,1.3,5.47,2.22,9.63
		c-4.33-4.25-11.46-12.22-15.12-17.46c0.96-1.43,1.81-2.74,2.81-4.09c3.96-6.22,6.15-11.46,8.92-17.99
		c0.32-1.03,1.28-3.34,1.92-5.32c1.5-5.85,2.62-10.6,3.36-16.65c0.77-10.75,0.18-20.84-2.17-31.18c-1.02-4.04-1.02-4.04-2.23-7.84
		c-2.14-5.44-4.09-10.61-6.72-15.45c-2.44-3.95-4.44-7.39-7-10.87c-0.96-1.22-5.93-7.41-6.22-8.35c2.12-3.02,6.75-8.93,8.92-11.95
		c-1.1,5.28-2.38,8.25-2.76,10.72c2.11,0.19,3.41,0.78,5.15,1.03c1.7-7.57,1.58-8.56,3.34-15.96c-0.04-0.1,2.16-11.25,2.04-11.38
		C207.55,255.5,196.95,258.14,189.92,260.09"/>
</g>
</svg>
