<?xml version="1.0" encoding="utf-8"?>
<!-- Generator: Adobe Illustrator 22.0.1, SVG Export Plug-In . SVG Version: 6.00 Build 0)  -->
<svg version="1.1" id="Capa_1" xmlns="http://www.w3.org/2000/svg" xmlns:xlink="http://www.w3.org/1999/xlink" x="0px" y="0px"
	 viewBox="0 0 102.3 146.2" style="enable-background:new 0 0 102.3 146.2;" xml:space="preserve">
<style type="text/css">
	.st0{fill:#020203;}
</style>
<g>
	<g>
		<path class="st0" d="M54.3,96.6c-11.7,0-21.2-9.5-21.2-21.2V43.9c0-11.7,9.5-21.2,21.2-21.2s21.2,9.5,21.2,21.2v31.5
			C75.4,87.1,65.9,96.6,54.3,96.6z M54.3,24.6c-10.7,0-19.4,8.7-19.4,19.4v31.5c0,10.7,8.7,19.4,19.4,19.4s19.4-8.7,19.4-19.4V43.9
			C73.6,33.3,65,24.6,54.3,24.6z"/>
	</g>
	<g>
		<path class="st0" d="M54.3,118.5l-0.6-0.6c-5.4-5.4-13.7-13.7-14.3-14.2c-0.3-0.3-0.5-0.7-0.3-1.1c0.2-0.4,0.8-0.6,1.2-0.4
			c0.2,0.1,0.3,0.2,14,13.8l13.8-13.7c0.4-0.3,0.9-0.3,1.3,0c0.3,0.4,0.3,0.9,0,1.3L54.3,118.5z"/>
	</g>
	<g>
		<path class="st0" d="M54.3,132.8l-0.6-0.6c-5.4-5.4-13.7-13.7-14.3-14.2c-0.3-0.3-0.5-0.7-0.3-1.1c0.2-0.4,0.8-0.6,1.2-0.4
			c0.2,0.1,0.3,0.2,14,13.8l13.8-13.7c0.4-0.3,0.9-0.3,1.3,0c0.3,0.4,0.3,0.9,0,1.3L54.3,132.8z"/>
	</g>
	<g>
		<ellipse transform="matrix(0.1602 -0.9871 0.9871 0.1602 5.8347 87.3996)" class="st0" cx="54.3" cy="40.3" rx="4.2" ry="4.2"/>
	</g>
</g>
</svg>
