<?xml version="1.0" encoding="utf-8"?>
<!-- Generator: Adobe Illustrator 23.0.3, SVG Export Plug-In . SVG Version: 6.00 Build 0)  -->
<svg version="1.1" id="Capa_1" xmlns="http://www.w3.org/2000/svg" xmlns:xlink="http://www.w3.org/1999/xlink" x="0px" y="0px"
	 viewBox="0 0 1613.8 83.1" style="enable-background:new 0 0 1613.8 83.1;" xml:space="preserve">
<style type="text/css">
	.st0{fill:#86BCA0;}
</style>
<title>titulo_1</title>
<g>
	<path class="st0" d="M34.4,56.6h0.2l10.1-34.5h7.5v42.2h-5.9V33.9l-0.2,0l-9.7,30.5h-4l-9.8-30.9l-0.2,0v30.9h-5.9V22.1h7.7
		L34.4,56.6z"/>
	<path class="st0" d="M58.3,48.3c0-4.7,1.1-8.5,3.3-11.5c2.2-3,5.2-4.5,9.1-4.5s6.9,1.5,9.1,4.5c2.2,3,3.3,6.8,3.3,11.5v0.8
		c0,4.7-1.1,8.5-3.3,11.4c-2.2,2.9-5.2,4.4-9,4.4c-3.9,0-6.9-1.5-9.1-4.4c-2.2-2.9-3.3-6.8-3.3-11.4V48.3z M64.2,49.1
		c0,3.3,0.5,6.1,1.6,8.2s2.7,3.2,4.9,3.2c2.1,0,3.8-1.1,4.8-3.2s1.6-4.9,1.6-8.2v-0.8c0-3.3-0.5-6-1.6-8.2c-1.1-2.2-2.7-3.2-4.9-3.2
		s-3.8,1.1-4.9,3.2c-1.1,2.2-1.6,4.9-1.6,8.2V49.1z"/>
	<path class="st0" d="M87.7,49c0-5,0.9-9.1,2.8-12.1c1.8-3,4.4-4.6,7.7-4.6c1.5,0,2.8,0.3,4,1c1.2,0.7,2.2,1.6,3,2.9V19.1h5.9v45.2
		h-4.9l-0.6-3.8c-0.9,1.4-1.9,2.5-3.2,3.3c-1.3,0.7-2.7,1.1-4.3,1.1c-3.3,0-5.9-1.4-7.7-4.2c-1.8-2.8-2.7-6.5-2.7-11.1V49z
		 M93.5,49.7c0,3.3,0.5,5.9,1.5,7.8s2.5,2.9,4.6,2.9c1.3,0,2.4-0.3,3.4-1c0.9-0.7,1.7-1.7,2.2-3V41.2c-0.6-1.3-1.3-2.3-2.3-3.1
		c-0.9-0.8-2-1.1-3.3-1.1c-2.1,0-3.6,1.1-4.6,3.4c-1,2.2-1.5,5.1-1.5,8.7V49.7z"/>
	<path class="st0" d="M129.3,65c-3.9,0-7-1.4-9.2-4.3c-2.2-2.9-3.3-6.6-3.3-11.2v-1.4c0-4.6,1.1-8.4,3.3-11.3s5.1-4.4,8.6-4.4
		c3.6,0,6.3,1.3,8.2,3.8c1.9,2.5,2.8,5.9,2.8,10.2v3.3h-17c0,3.2,0.6,5.8,1.7,7.8c1.1,2,2.9,3,5.3,3c1.6,0,3.1-0.3,4.3-0.8
		s2.3-1.3,3.4-2.2l1.9,3.7c-1,1.1-2.4,2-4.1,2.7C133.5,64.6,131.5,65,129.3,65z M128.8,36.9c-1.7,0-3.1,0.8-4.1,2.4
		c-1,1.6-1.6,3.7-1.9,6.3h11.1v-0.7c0-2.4-0.4-4.3-1.3-5.7C131.8,37.7,130.5,36.9,128.8,36.9z"/>
	<path class="st0" d="M151.4,64.4h-5.9V19.1h5.9V64.4z"/>
	<path class="st0" d="M174.8,64.4c-0.3-0.9-0.4-1.8-0.6-2.5c-0.1-0.7-0.2-1.5-0.3-2.2c-0.8,1.5-1.9,2.8-3.3,3.8
		c-1.4,1-2.9,1.5-4.7,1.5c-2.8,0-5-0.8-6.5-2.5s-2.2-3.9-2.2-6.8c0-3,1-5.3,3.1-7c2.1-1.7,5-2.6,8.7-2.6h4.8v-3.2
		c0-1.9-0.4-3.4-1.3-4.5c-0.9-1.1-2.1-1.6-3.7-1.6c-1.4,0-2.6,0.5-3.4,1.4c-0.8,0.9-1.3,2.1-1.3,3.6l-5.6,0l-0.1-0.2
		c-0.1-2.4,0.8-4.6,2.8-6.4c2-1.9,4.6-2.8,7.9-2.8c3.1,0,5.6,0.9,7.6,2.7c1.9,1.8,2.9,4.4,2.9,7.8v14.6c0,1.2,0.1,2.4,0.2,3.5
		c0.2,1.1,0.4,2.2,0.7,3.3H174.8z M167.2,60.4c1.6,0,3-0.5,4.3-1.5c1.2-1,2-2.2,2.4-3.6v-5.6H169c-1.8,0-3.2,0.6-4.3,1.7
		c-1,1.2-1.5,2.5-1.5,4.2c0,1.5,0.3,2.6,1,3.5C165,60,166,60.4,167.2,60.4z"/>
	<path class="st0" d="M192,33l0.3,4.3c0.9-1.5,2-2.7,3.3-3.6c1.3-0.8,2.9-1.3,4.7-1.3c1.7,0,3.2,0.5,4.5,1.4c1.3,1,2.2,2.4,2.9,4.4
		c0.8-1.8,1.9-3.2,3.3-4.3c1.4-1,3-1.5,4.9-1.5c2.7,0,4.9,1.1,6.4,3.3c1.6,2.2,2.3,5.6,2.3,10.1v18.5h-5.9V45.8
		c0-3.3-0.4-5.6-1.2-6.9c-0.8-1.3-2-2-3.6-2c-1.4,0-2.5,0.5-3.4,1.5c-0.9,1-1.6,2.3-2,4c0,0.3,0,0.7,0.1,1.1c0,0.4,0,0.8,0,1.1v19.7
		h-5.9V45.8c0-3.2-0.4-5.4-1.2-6.8s-2-2-3.6-2c-1.3,0-2.4,0.3-3.2,1s-1.6,1.7-2.1,2.9v23.5h-5.9V33H192z"/>
	<path class="st0" d="M237.8,24.7h-5.9v-5.6h5.9V24.7z M237.8,64.4h-5.9V33h5.9V64.4z"/>
	<path class="st0" d="M256.3,65c-3.9,0-7-1.4-9.2-4.3c-2.2-2.9-3.3-6.6-3.3-11.2v-1.4c0-4.6,1.1-8.4,3.3-11.3s5.1-4.4,8.6-4.4
		c3.6,0,6.3,1.3,8.2,3.8c1.9,2.5,2.8,5.9,2.8,10.2v3.3h-17c0,3.2,0.6,5.8,1.7,7.8c1.1,2,2.9,3,5.3,3c1.6,0,3.1-0.3,4.3-0.8
		s2.3-1.3,3.4-2.2l1.9,3.7c-1,1.1-2.4,2-4.1,2.7C260.4,64.6,258.5,65,256.3,65z M255.7,36.9c-1.7,0-3.1,0.8-4.1,2.4
		c-1,1.6-1.6,3.7-1.9,6.3h11.1v-0.7c0-2.4-0.4-4.3-1.3-5.7C258.8,37.7,257.5,36.9,255.7,36.9z"/>
	<path class="st0" d="M277.4,33l0.3,4.7c0.9-1.7,2-3,3.4-3.9c1.4-0.9,2.9-1.4,4.6-1.4c2.8,0,5,1,6.5,3.1c1.6,2.1,2.3,5.2,2.3,9.6
		v19.3h-5.9V45.1c0-3-0.4-5-1.2-6.3s-2.1-1.8-3.7-1.8c-1.4,0-2.5,0.4-3.5,1.1s-1.7,1.7-2.3,2.9v23.4H272V33H277.4z"/>
	<path class="st0" d="M308.8,25.2V33h4.9v4.2h-4.9v18.7c0,1.6,0.2,2.8,0.7,3.5c0.5,0.7,1.1,1,2,1c0.3,0,0.6,0,0.9-0.1
		c0.3-0.1,0.6-0.1,1-0.3l0.6,4.1c-0.6,0.3-1.2,0.5-1.9,0.7c-0.7,0.2-1.4,0.2-2.1,0.2c-2.3,0-4-0.7-5.3-2.2c-1.3-1.5-1.9-3.8-1.9-6.9
		V37.2h-4.1V33h4.1v-7.8H308.8z"/>
	<path class="st0" d="M317.9,48.3c0-4.7,1.1-8.5,3.3-11.5c2.2-3,5.2-4.5,9.1-4.5s6.9,1.5,9.1,4.5c2.2,3,3.3,6.8,3.3,11.5v0.8
		c0,4.7-1.1,8.5-3.3,11.4c-2.2,2.9-5.2,4.4-9,4.4c-3.9,0-6.9-1.5-9.1-4.4c-2.2-2.9-3.3-6.8-3.3-11.4V48.3z M323.8,49.1
		c0,3.3,0.5,6.1,1.6,8.2s2.7,3.2,4.9,3.2c2.1,0,3.8-1.1,4.8-3.2s1.6-4.9,1.6-8.2v-0.8c0-3.3-0.5-6-1.6-8.2c-1.1-2.2-2.7-3.2-4.9-3.2
		s-3.8,1.1-4.9,3.2c-1.1,2.2-1.6,4.9-1.6,8.2V49.1z"/>
	<path class="st0" d="M384.9,49.7c0,4.6-0.9,8.4-2.8,11.1c-1.8,2.8-4.4,4.2-7.7,4.2c-1.5,0-2.9-0.3-4.1-0.9c-1.2-0.6-2.2-1.5-3-2.7
		v15.1h-5.9V33h5l0.6,3.8c0.9-1.4,1.9-2.5,3.1-3.2c1.2-0.7,2.7-1.1,4.3-1.1c3.3,0,5.9,1.5,7.8,4.6c1.8,3,2.8,7.1,2.8,12.1V49.7z
		 M379,49c0-3.6-0.5-6.5-1.6-8.7c-1-2.2-2.6-3.4-4.7-3.4c-1.3,0-2.4,0.4-3.3,1.1c-0.9,0.7-1.6,1.7-2.2,2.9v15.8
		c0.5,1.2,1.3,2.1,2.2,2.7c0.9,0.6,2,1,3.4,1c2.1,0,3.6-1,4.6-3c1-2,1.5-4.6,1.5-7.9V49z"/>
	<path class="st0" d="M389.4,48.3c0-4.7,1.1-8.5,3.3-11.5c2.2-3,5.2-4.5,9.1-4.5s6.9,1.5,9.1,4.5c2.2,3,3.3,6.8,3.3,11.5v0.8
		c0,4.7-1.1,8.5-3.3,11.4c-2.2,2.9-5.2,4.4-9,4.4c-3.9,0-6.9-1.5-9.1-4.4c-2.2-2.9-3.3-6.8-3.3-11.4V48.3z M395.3,49.1
		c0,3.3,0.5,6.1,1.6,8.2s2.7,3.2,4.9,3.2c2.1,0,3.8-1.1,4.8-3.2s1.6-4.9,1.6-8.2v-0.8c0-3.3-0.5-6-1.6-8.2c-1.1-2.2-2.7-3.2-4.9-3.2
		s-3.8,1.1-4.9,3.2c-1.1,2.2-1.6,4.9-1.6,8.2V49.1z"/>
	<path class="st0" d="M433.3,37.9l-2.6-0.1c-1.2,0-2.3,0.4-3.1,1.1c-0.8,0.7-1.5,1.8-1.9,3.1v22.4h-5.9V33h5.4l0.4,4.6
		c0.7-1.6,1.6-2.9,2.7-3.8c1.1-0.9,2.3-1.4,3.7-1.4c0.4,0,0.7,0,1,0.1c0.3,0.1,0.6,0.2,0.9,0.2L433.3,37.9z"/>
	<path class="st0" d="M464.6,37.9l-2.6-0.1c-1.2,0-2.3,0.4-3.1,1.1c-0.8,0.7-1.5,1.8-1.9,3.1v22.4h-5.9V33h5.4l0.4,4.6
		c0.7-1.6,1.6-2.9,2.7-3.8c1.1-0.9,2.3-1.4,3.7-1.4c0.4,0,0.7,0,1,0.1c0.3,0.1,0.6,0.2,0.9,0.2L464.6,37.9z"/>
	<path class="st0" d="M480.2,65c-3.9,0-7-1.4-9.2-4.3c-2.2-2.9-3.3-6.6-3.3-11.2v-1.4c0-4.6,1.1-8.4,3.3-11.3s5.1-4.4,8.6-4.4
		c3.6,0,6.3,1.3,8.2,3.8c1.9,2.5,2.8,5.9,2.8,10.2v3.3h-17c0,3.2,0.6,5.8,1.7,7.8c1.1,2,2.9,3,5.3,3c1.6,0,3.1-0.3,4.3-0.8
		s2.3-1.3,3.4-2.2l1.9,3.7c-1,1.1-2.4,2-4.1,2.7C484.4,64.6,482.4,65,480.2,65z M479.7,36.9c-1.7,0-3.1,0.8-4.1,2.4
		c-1,1.6-1.6,3.7-1.9,6.3h11.1v-0.7c0-2.4-0.4-4.3-1.3-5.7C482.7,37.7,481.4,36.9,479.7,36.9z"/>
	<path class="st0" d="M495,49c0-5,0.9-9.1,2.8-12.1c1.8-3,4.4-4.6,7.8-4.6c1.6,0,3.1,0.4,4.3,1.2c1.2,0.8,2.3,1.9,3.1,3.4l0.6-3.9
		h4.9v31.4c0,4-1.1,7.1-3.2,9.3c-2.1,2.2-5.2,3.3-9.1,3.3c-1.3,0-2.8-0.2-4.3-0.6s-2.9-1-4.1-1.7l1-4.4c1.1,0.6,2.2,1.1,3.5,1.4
		c1.2,0.3,2.5,0.5,3.9,0.5c2.2,0,3.8-0.7,4.9-2c1-1.3,1.6-3.3,1.6-5.9v-3.1c-0.9,1.2-1.9,2.1-3,2.8c-1.2,0.6-2.5,0.9-4,0.9
		c-3.3,0-5.9-1.4-7.7-4.2c-1.8-2.8-2.8-6.5-2.8-11.1V49z M500.9,49.7c0,3.3,0.5,5.9,1.5,7.9c1,1.9,2.5,2.9,4.6,2.9
		c1.3,0,2.4-0.3,3.4-1c0.9-0.7,1.7-1.6,2.2-2.9V41.1c-0.6-1.3-1.3-2.3-2.2-3c-0.9-0.7-2-1.1-3.3-1.1c-2.1,0-3.6,1.1-4.6,3.4
		c-1,2.2-1.5,5.1-1.5,8.7V49.7z"/>
	<path class="st0" d="M538.6,37.9l-2.6-0.1c-1.2,0-2.3,0.4-3.1,1.1c-0.8,0.7-1.5,1.8-1.9,3.1v22.4h-5.9V33h5.4l0.4,4.6
		c0.7-1.6,1.6-2.9,2.7-3.8c1.1-0.9,2.3-1.4,3.7-1.4c0.4,0,0.7,0,1,0.1c0.3,0.1,0.6,0.2,0.9,0.2L538.6,37.9z"/>
	<path class="st0" d="M554.2,65c-3.9,0-7-1.4-9.2-4.3c-2.2-2.9-3.3-6.6-3.3-11.2v-1.4c0-4.6,1.1-8.4,3.3-11.3s5.1-4.4,8.6-4.4
		c3.6,0,6.3,1.3,8.2,3.8c1.9,2.5,2.8,5.9,2.8,10.2v3.3h-17c0,3.2,0.6,5.8,1.7,7.8c1.1,2,2.9,3,5.3,3c1.6,0,3.1-0.3,4.3-0.8
		c1.2-0.5,2.3-1.3,3.4-2.2l1.9,3.7c-1,1.1-2.4,2-4.1,2.7C558.4,64.6,556.4,65,554.2,65z M553.7,36.9c-1.7,0-3.1,0.8-4.1,2.4
		c-1,1.6-1.6,3.7-1.9,6.3h11.1v-0.7c0-2.4-0.4-4.3-1.3-5.7C556.8,37.7,555.5,36.9,553.7,36.9z"/>
	<path class="st0" d="M584.8,56.4c0-1.2-0.4-2.2-1.2-3.1c-0.8-0.8-2.4-1.7-4.7-2.8c-3.2-1.2-5.6-2.5-7.3-4c-1.6-1.4-2.4-3.3-2.4-5.5
		c0-2.4,1-4.5,2.9-6.2c1.9-1.7,4.5-2.6,7.6-2.6c3.2,0,5.8,0.9,7.8,2.8c2,1.9,2.9,4.1,2.8,6.8l-0.1,0.2h-5.7c0-1.5-0.4-2.8-1.3-3.8
		s-2.1-1.6-3.6-1.6c-1.5,0-2.7,0.4-3.5,1.3c-0.8,0.8-1.3,1.8-1.3,2.9c0,1.2,0.4,2.1,1.1,2.8c0.7,0.7,2.3,1.6,4.7,2.7
		c3.3,1.2,5.8,2.5,7.4,4s2.5,3.4,2.5,5.7c0,2.6-1,4.7-3,6.4c-2,1.6-4.6,2.5-7.9,2.5c-3.5,0-6.3-1-8.3-2.9c-2-2-3-4.3-2.9-6.9
		l0.1-0.2h5.5c0.1,2,0.7,3.5,1.7,4.4c1.1,0.9,2.4,1.3,4,1.3c1.6,0,2.8-0.4,3.7-1.2C584.4,58.7,584.8,57.7,584.8,56.4z"/>
	<path class="st0" d="M602.4,24.7h-5.9v-5.6h5.9V24.7z M602.4,64.4h-5.9V33h5.9V64.4z"/>
	<path class="st0" d="M608.4,48.3c0-4.7,1.1-8.5,3.3-11.5c2.2-3,5.2-4.5,9.1-4.5s6.9,1.5,9.1,4.5c2.2,3,3.3,6.8,3.3,11.5v0.8
		c0,4.7-1.1,8.5-3.3,11.4c-2.2,2.9-5.2,4.4-9,4.4c-3.9,0-6.9-1.5-9.1-4.4c-2.2-2.9-3.3-6.8-3.3-11.4V48.3z M614.3,49.1
		c0,3.3,0.5,6.1,1.6,8.2s2.7,3.2,4.9,3.2c2.1,0,3.8-1.1,4.8-3.2s1.6-4.9,1.6-8.2v-0.8c0-3.3-0.5-6-1.6-8.2c-1.1-2.2-2.7-3.2-4.9-3.2
		S617,38,616,40.2c-1.1,2.2-1.6,4.9-1.6,8.2V49.1z M623.1,19.6h6.8l0.1,0.1l-7,7.6H618L623.1,19.6z"/>
	<path class="st0" d="M644.2,33l0.3,4.7c0.9-1.7,2-3,3.4-3.9c1.4-0.9,2.9-1.4,4.6-1.4c2.8,0,5,1,6.5,3.1c1.6,2.1,2.3,5.2,2.3,9.6
		v19.3h-5.9V45.1c0-3-0.4-5-1.2-6.3s-2.1-1.8-3.7-1.8c-1.4,0-2.5,0.4-3.5,1.1s-1.7,1.7-2.3,2.9v23.4h-5.9V33H644.2z"/>
	<path class="st0" d="M690.1,53.5l0.5,2.1h0.2l6.1-22.7h6.5l-11.2,36.3c-0.7,2.1-1.7,4-3,5.5S686,77,683.6,77c-0.5,0-1-0.1-1.6-0.2
		c-0.6-0.1-1.1-0.2-1.7-0.4l0.7-4.4c0.2,0,0.5,0.1,0.9,0.1c0.4,0,0.7,0.1,0.9,0.1c1.2,0,2.1-0.5,2.8-1.5s1.2-2.1,1.6-3.5l1.1-3.2
		L678.3,33h6.4L690.1,53.5z"/>
	<path class="st0" d="M725.8,33l0.3,4.3c0.9-1.5,2-2.7,3.3-3.6c1.3-0.8,2.9-1.3,4.7-1.3c1.7,0,3.2,0.5,4.5,1.4s2.2,2.4,2.9,4.4
		c0.8-1.8,1.9-3.2,3.3-4.3c1.4-1,3-1.5,4.9-1.5c2.7,0,4.9,1.1,6.4,3.3c1.6,2.2,2.3,5.6,2.3,10.1v18.5h-5.9V45.8
		c0-3.3-0.4-5.6-1.2-6.9c-0.8-1.3-2-2-3.6-2c-1.4,0-2.5,0.5-3.4,1.5c-0.9,1-1.6,2.3-2,4c0,0.3,0,0.7,0.1,1.1c0,0.4,0,0.8,0,1.1v19.7
		h-5.9V45.8c0-3.2-0.4-5.4-1.2-6.8c-0.8-1.4-2-2-3.6-2c-1.3,0-2.4,0.3-3.2,1s-1.6,1.7-2.1,2.9v23.5h-5.9V33H725.8z"/>
	<path class="st0" d="M764.1,48.3c0-4.7,1.1-8.5,3.3-11.5c2.2-3,5.2-4.5,9.1-4.5s6.9,1.5,9.1,4.5c2.2,3,3.3,6.8,3.3,11.5v0.8
		c0,4.7-1.1,8.5-3.3,11.4c-2.2,2.9-5.2,4.4-9,4.4c-3.9,0-6.9-1.5-9.1-4.4c-2.2-2.9-3.3-6.8-3.3-11.4V48.3z M770,49.1
		c0,3.3,0.5,6.1,1.6,8.2s2.7,3.2,4.9,3.2c2.1,0,3.8-1.1,4.8-3.2s1.6-4.9,1.6-8.2v-0.8c0-3.3-0.5-6-1.6-8.2c-1.1-2.2-2.7-3.2-4.9-3.2
		s-3.8,1.1-4.9,3.2c-1.1,2.2-1.6,4.9-1.6,8.2V49.1z"/>
	<path class="st0" d="M793.4,49c0-5,0.9-9.1,2.8-12.1c1.8-3,4.4-4.6,7.7-4.6c1.5,0,2.8,0.3,4,1c1.2,0.7,2.2,1.6,3,2.9V19.1h5.9v45.2
		H812l-0.6-3.8c-0.9,1.4-1.9,2.5-3.2,3.3c-1.3,0.7-2.7,1.1-4.3,1.1c-3.3,0-5.9-1.4-7.7-4.2c-1.8-2.8-2.7-6.5-2.7-11.1V49z
		 M799.3,49.7c0,3.3,0.5,5.9,1.5,7.8s2.5,2.9,4.6,2.9c1.3,0,2.4-0.3,3.3-1c0.9-0.7,1.7-1.7,2.2-3V41.2c-0.6-1.3-1.3-2.3-2.3-3.1
		c-0.9-0.8-2-1.1-3.3-1.1c-2.1,0-3.6,1.1-4.6,3.4c-1,2.2-1.5,5.1-1.5,8.7V49.7z"/>
	<path class="st0" d="M835.1,65c-3.9,0-7-1.4-9.2-4.3c-2.2-2.9-3.3-6.6-3.3-11.2v-1.4c0-4.6,1.1-8.4,3.3-11.3s5.1-4.4,8.6-4.4
		c3.6,0,6.3,1.3,8.2,3.8c1.9,2.5,2.8,5.9,2.8,10.2v3.3h-17c0,3.2,0.6,5.8,1.7,7.8c1.2,2,2.9,3,5.3,3c1.6,0,3.1-0.3,4.3-0.8
		c1.2-0.5,2.3-1.3,3.4-2.2l1.9,3.7c-1,1.1-2.4,2-4.1,2.7C839.2,64.6,837.3,65,835.1,65z M834.5,36.9c-1.7,0-3.1,0.8-4.1,2.4
		c-1,1.6-1.6,3.7-1.9,6.3h11.1v-0.7c0-2.4-0.4-4.3-1.3-5.7C837.6,37.7,836.3,36.9,834.5,36.9z"/>
	<path class="st0" d="M857.1,64.4h-5.9V19.1h5.9V64.4z"/>
	<path class="st0" d="M880.6,64.4c-0.3-0.9-0.5-1.8-0.6-2.5c-0.1-0.7-0.2-1.5-0.3-2.2c-0.8,1.5-1.9,2.8-3.3,3.8
		c-1.4,1-2.9,1.5-4.7,1.5c-2.8,0-5-0.8-6.5-2.5c-1.5-1.7-2.2-3.9-2.2-6.8c0-3,1-5.3,3.1-7c2.1-1.7,5-2.6,8.7-2.6h4.8v-3.2
		c0-1.9-0.4-3.4-1.3-4.5s-2.1-1.6-3.7-1.6c-1.4,0-2.6,0.5-3.4,1.4c-0.8,0.9-1.3,2.1-1.3,3.6l-5.6,0l-0.1-0.2
		c-0.1-2.4,0.8-4.6,2.8-6.4c2-1.9,4.6-2.8,7.9-2.8c3.1,0,5.6,0.9,7.6,2.7c1.9,1.8,2.9,4.4,2.9,7.8v14.6c0,1.2,0.1,2.4,0.2,3.5
		c0.2,1.1,0.4,2.2,0.7,3.3H880.6z M873,60.4c1.6,0,3-0.5,4.3-1.5s2-2.2,2.4-3.6v-5.6h-4.9c-1.8,0-3.2,0.6-4.3,1.7
		c-1,1.2-1.5,2.5-1.5,4.2c0,1.5,0.3,2.6,1,3.5S871.7,60.4,873,60.4z"/>
	<path class="st0" d="M897.7,33l0.3,4.3c0.9-1.5,2-2.7,3.3-3.6c1.3-0.8,2.9-1.3,4.7-1.3c1.7,0,3.2,0.5,4.5,1.4s2.2,2.4,2.9,4.4
		c0.8-1.8,1.9-3.2,3.3-4.3c1.4-1,3-1.5,4.9-1.5c2.7,0,4.9,1.1,6.4,3.3c1.6,2.2,2.3,5.6,2.3,10.1v18.5h-5.9V45.8
		c0-3.3-0.4-5.6-1.2-6.9c-0.8-1.3-2-2-3.6-2c-1.4,0-2.5,0.5-3.4,1.5c-0.9,1-1.6,2.3-2,4c0,0.3,0,0.7,0.1,1.1c0,0.4,0,0.8,0,1.1v19.7
		h-5.9V45.8c0-3.2-0.4-5.4-1.2-6.8c-0.8-1.4-2-2-3.6-2c-1.3,0-2.4,0.3-3.2,1s-1.6,1.7-2.1,2.9v23.5h-5.9V33H897.7z"/>
	<path class="st0" d="M943.5,24.7h-5.9v-5.6h5.9V24.7z M943.5,64.4h-5.9V33h5.9V64.4z"/>
	<path class="st0" d="M962,65c-3.9,0-7-1.4-9.2-4.3c-2.2-2.9-3.3-6.6-3.3-11.2v-1.4c0-4.6,1.1-8.4,3.3-11.3s5.1-4.4,8.6-4.4
		c3.6,0,6.3,1.3,8.2,3.8c1.9,2.5,2.8,5.9,2.8,10.2v3.3h-17c0,3.2,0.6,5.8,1.7,7.8c1.2,2,2.9,3,5.3,3c1.6,0,3.1-0.3,4.3-0.8
		c1.2-0.5,2.3-1.3,3.4-2.2l1.9,3.7c-1,1.1-2.4,2-4.1,2.7C966.2,64.6,964.2,65,962,65z M961.5,36.9c-1.7,0-3.1,0.8-4.1,2.4
		c-1,1.6-1.6,3.7-1.9,6.3h11.1v-0.7c0-2.4-0.4-4.3-1.3-5.7C964.5,37.7,963.2,36.9,961.5,36.9z"/>
	<path class="st0" d="M983.1,33l0.3,4.7c0.9-1.7,2-3,3.4-3.9c1.4-0.9,2.9-1.4,4.6-1.4c2.8,0,5,1,6.5,3.1c1.6,2.1,2.3,5.2,2.3,9.6
		v19.3h-5.9V45.1c0-3-0.4-5-1.2-6.3s-2.1-1.8-3.7-1.8c-1.4,0-2.5,0.4-3.5,1.1s-1.7,1.7-2.3,2.9v23.4h-5.9V33H983.1z"/>
	<path class="st0" d="M1014.6,25.2V33h4.9v4.2h-4.9v18.7c0,1.6,0.2,2.8,0.7,3.5s1.1,1,2,1c0.3,0,0.6,0,0.9-0.1
		c0.3-0.1,0.6-0.1,1-0.3l0.6,4.1c-0.6,0.3-1.2,0.5-1.9,0.7c-0.7,0.2-1.4,0.2-2.1,0.2c-2.3,0-4-0.7-5.3-2.2c-1.3-1.5-1.9-3.8-1.9-6.9
		V37.2h-4.1V33h4.1v-7.8H1014.6z"/>
	<path class="st0" d="M1023.6,48.3c0-4.7,1.1-8.5,3.3-11.5c2.2-3,5.2-4.5,9.1-4.5s6.9,1.5,9.1,4.5c2.2,3,3.3,6.8,3.3,11.5v0.8
		c0,4.7-1.1,8.5-3.3,11.4c-2.2,2.9-5.2,4.4-9,4.4c-3.9,0-6.9-1.5-9.1-4.4c-2.2-2.9-3.3-6.8-3.3-11.4V48.3z M1029.5,49.1
		c0,3.3,0.5,6.1,1.6,8.2s2.7,3.2,4.9,3.2c2.1,0,3.8-1.1,4.8-3.2s1.6-4.9,1.6-8.2v-0.8c0-3.3-0.5-6-1.6-8.2c-1.1-2.2-2.7-3.2-4.9-3.2
		s-3.8,1.1-4.9,3.2c-1.1,2.2-1.6,4.9-1.6,8.2V49.1z"/>
	<path class="st0" d="M1083.4,64.4c-0.3-0.9-0.5-1.8-0.6-2.5c-0.1-0.7-0.2-1.5-0.3-2.2c-0.8,1.5-1.9,2.8-3.3,3.8
		c-1.4,1-2.9,1.5-4.7,1.5c-2.8,0-5-0.8-6.5-2.5c-1.5-1.7-2.2-3.9-2.2-6.8c0-3,1-5.3,3.1-7c2.1-1.7,5-2.6,8.7-2.6h4.8v-3.2
		c0-1.9-0.4-3.4-1.3-4.5s-2.1-1.6-3.7-1.6c-1.4,0-2.6,0.5-3.4,1.4c-0.8,0.9-1.3,2.1-1.3,3.6l-5.6,0l-0.1-0.2
		c-0.1-2.4,0.8-4.6,2.8-6.4c2-1.9,4.6-2.8,7.9-2.8c3.1,0,5.6,0.9,7.6,2.7c1.9,1.8,2.9,4.4,2.9,7.8v14.6c0,1.2,0.1,2.4,0.2,3.5
		c0.2,1.1,0.4,2.2,0.7,3.3H1083.4z M1075.8,60.4c1.6,0,3-0.5,4.3-1.5s2-2.2,2.4-3.6v-5.6h-4.9c-1.8,0-3.2,0.6-4.3,1.7
		c-1,1.2-1.5,2.5-1.5,4.2c0,1.5,0.3,2.6,1,3.5S1074.5,60.4,1075.8,60.4z"/>
	<path class="st0" d="M1101.4,64.4h-5.9V19.1h5.9V64.4z"/>
	<path class="st0" d="M1107.6,49c0-5,0.9-9.1,2.8-12.1c1.8-3,4.4-4.6,7.8-4.6c1.6,0,3.1,0.4,4.3,1.2s2.3,1.9,3.1,3.4l0.6-3.9h4.9
		v31.4c0,4-1.1,7.1-3.2,9.3c-2.1,2.2-5.2,3.3-9.1,3.3c-1.3,0-2.8-0.2-4.3-0.6c-1.5-0.4-2.9-1-4.1-1.7l1-4.4c1.1,0.6,2.2,1.1,3.5,1.4
		c1.2,0.3,2.5,0.5,3.9,0.5c2.2,0,3.8-0.7,4.9-2s1.6-3.3,1.6-5.9v-3.1c-0.9,1.2-1.9,2.1-3,2.8c-1.2,0.6-2.5,0.9-4,0.9
		c-3.3,0-5.9-1.4-7.7-4.2c-1.8-2.8-2.8-6.5-2.8-11.1V49z M1113.6,49.7c0,3.3,0.5,5.9,1.5,7.9c1,1.9,2.5,2.9,4.6,2.9
		c1.3,0,2.4-0.3,3.4-1c0.9-0.7,1.7-1.6,2.2-2.9V41.1c-0.6-1.3-1.3-2.3-2.2-3c-0.9-0.7-2-1.1-3.3-1.1c-2.1,0-3.6,1.1-4.6,3.4
		c-1,2.2-1.5,5.1-1.5,8.7V49.7z"/>
	<path class="st0" d="M1149.2,65c-3.9,0-7-1.4-9.2-4.3c-2.2-2.9-3.3-6.6-3.3-11.2v-1.4c0-4.6,1.1-8.4,3.3-11.3s5.1-4.4,8.6-4.4
		c3.6,0,6.3,1.3,8.2,3.8c1.9,2.5,2.8,5.9,2.8,10.2v3.3h-17c0,3.2,0.6,5.8,1.7,7.8c1.2,2,2.9,3,5.3,3c1.6,0,3.1-0.3,4.3-0.8
		c1.2-0.5,2.3-1.3,3.4-2.2l1.9,3.7c-1,1.1-2.4,2-4.1,2.7C1153.3,64.6,1151.4,65,1149.2,65z M1148.7,36.9c-1.7,0-3.1,0.8-4.1,2.4
		c-1,1.6-1.6,3.7-1.9,6.3h11.1v-0.7c0-2.4-0.4-4.3-1.3-5.7C1151.7,37.7,1150.4,36.9,1148.7,36.9z"/>
	<path class="st0" d="M1188.5,49.7c0,4.6-0.9,8.4-2.7,11.1c-1.8,2.8-4.4,4.2-7.8,4.2c-1.7,0-3.2-0.4-4.5-1.1
		c-1.3-0.8-2.3-1.9-3.1-3.4l-0.6,3.9h-4.8V19.1h5.9v17.3c0.8-1.3,1.8-2.3,3-2.9c1.2-0.7,2.6-1,4.1-1c3.4,0,6,1.5,7.8,4.5
		c1.8,3,2.7,7.1,2.7,12.1V49.7z M1182.6,49c0-3.6-0.5-6.6-1.5-8.8c-1-2.2-2.5-3.3-4.6-3.3c-1.4,0-2.5,0.4-3.5,1.2
		c-0.9,0.8-1.7,1.9-2.2,3.2v14.9c0.5,1.3,1.3,2.4,2.2,3.1c0.9,0.7,2.1,1.1,3.5,1.1c2.1,0,3.6-1,4.6-2.9c1-1.9,1.4-4.5,1.4-7.9V49z"
		/>
	<path class="st0" d="M1207.6,37.9l-2.6-0.1c-1.2,0-2.3,0.4-3.1,1.1c-0.8,0.7-1.5,1.8-1.9,3.1v22.4h-5.9V33h5.4l0.4,4.6
		c0.7-1.6,1.6-2.9,2.7-3.8c1.1-0.9,2.3-1.4,3.7-1.4c0.4,0,0.7,0,1,0.1c0.3,0.1,0.6,0.2,0.9,0.2L1207.6,37.9z"/>
	<path class="st0" d="M1228.8,64.4c-0.3-0.9-0.5-1.8-0.6-2.5c-0.1-0.7-0.2-1.5-0.3-2.2c-0.8,1.5-1.9,2.8-3.3,3.8
		c-1.4,1-2.9,1.5-4.7,1.5c-2.8,0-5-0.8-6.5-2.5c-1.5-1.7-2.2-3.9-2.2-6.8c0-3,1-5.3,3.1-7c2.1-1.7,5-2.6,8.7-2.6h4.8v-3.2
		c0-1.9-0.4-3.4-1.3-4.5s-2.1-1.6-3.7-1.6c-1.4,0-2.6,0.5-3.4,1.4c-0.8,0.9-1.3,2.1-1.3,3.6l-5.6,0l-0.1-0.2
		c-0.1-2.4,0.8-4.6,2.8-6.4c2-1.9,4.6-2.8,7.9-2.8c3.1,0,5.6,0.9,7.6,2.7c1.9,1.8,2.9,4.4,2.9,7.8v14.6c0,1.2,0.1,2.4,0.2,3.5
		c0.2,1.1,0.4,2.2,0.7,3.3H1228.8z M1221.2,60.4c1.6,0,3-0.5,4.3-1.5s2-2.2,2.4-3.6v-5.6h-4.9c-1.8,0-3.2,0.6-4.3,1.7
		c-1,1.2-1.5,2.5-1.5,4.2c0,1.5,0.3,2.6,1,3.5S1219.9,60.4,1221.2,60.4z"/>
	<path class="st0" d="M1246.8,24.7h-5.9v-5.6h5.9V24.7z M1246.8,64.4h-5.9V33h5.9V64.4z"/>
	<path class="st0" d="M1264.9,60.5c1.5,0,2.7-0.6,3.6-1.7c1-1.1,1.5-2.6,1.5-4.6h5.3l0.1,0.2c0.1,3-0.9,5.5-3,7.5s-4.6,3-7.5,3
		c-3.9,0-6.9-1.5-9-4.4c-2.1-2.9-3.2-6.7-3.2-11.3v-1.1c0-4.6,1.1-8.3,3.2-11.3c2.1-3,5.1-4.5,9-4.5c3.1,0,5.7,1.1,7.6,3.2
		c2,2.1,2.9,4.9,2.9,8.3l-0.1,0.1h-5.3c0-2.1-0.5-3.8-1.4-5.1c-0.9-1.3-2.2-2-3.7-2c-2.2,0-3.8,1.1-4.8,3.2c-1,2.1-1.5,4.8-1.5,8
		v1.1c0,3.3,0.5,6,1.5,8.1C1261.1,59.5,1262.7,60.5,1264.9,60.5z"/>
	<path class="st0" d="M1279.7,48.3c0-4.7,1.1-8.5,3.3-11.5c2.2-3,5.2-4.5,9.1-4.5s6.9,1.5,9.1,4.5c2.2,3,3.3,6.8,3.3,11.5v0.8
		c0,4.7-1.1,8.5-3.3,11.4c-2.2,2.9-5.2,4.4-9,4.4c-3.9,0-6.9-1.5-9.1-4.4c-2.2-2.9-3.3-6.8-3.3-11.4V48.3z M1285.6,49.1
		c0,3.3,0.5,6.1,1.6,8.2s2.7,3.2,4.9,3.2c2.1,0,3.8-1.1,4.8-3.2s1.6-4.9,1.6-8.2v-0.8c0-3.3-0.5-6-1.6-8.2c-1.1-2.2-2.7-3.2-4.9-3.2
		s-3.8,1.1-4.9,3.2c-1.1,2.2-1.6,4.9-1.6,8.2V49.1z"/>
</g>
</svg>
