<?xml version="1.0" encoding="utf-8"?>
<!-- Generator: Adobe Illustrator 23.0.3, SVG Export Plug-In . SVG Version: 6.00 Build 0)  -->
<svg version="1.1" id="Capa_1" xmlns="http://www.w3.org/2000/svg" xmlns:xlink="http://www.w3.org/1999/xlink" x="0px" y="0px"
	 viewBox="0 0 639 322.7" style="enable-background:new 0 0 639 322.7;" xml:space="preserve">
<style type="text/css">
	.st0{opacity:0.6;fill:#FFFFFF;enable-background:new    ;}
	.st1{fill:#424242;}
	.st2{fill:#61C1A2;}
	.st3{fill:#294955;}
	.st4{fill:none;stroke:#294955;stroke-width:2;stroke-miterlimit:10;}
	.st5{fill-rule:evenodd;clip-rule:evenodd;fill:#FFFFFF;}
	.st6{fill-rule:evenodd;clip-rule:evenodd;fill:#294955;}
</style>
<g>
	<path class="st0" d="M594.3,250.9H112.4c-7.5,0-13.6-6.6-13.6-14.6V20.4c0-8.2,6.1-14.8,13.6-14.8h481.7c7.5,0,13.6,6.6,13.6,14.6
		V236C607.8,244.3,601.8,250.9,594.3,250.9z"/>
</g>
<g>
	<path class="st1" d="M278,82.5c-6.8,0-12.4-5.5-12.4-12.3c0-3.7,1.6-7,4.2-9.2c-1.3-0.2-2.8-0.4-4.2-0.4c-12.1,0-22,9.8-22,22
		s9.8,21.9,22,21.9c12.1,0,22-9.8,22-21.9c0-1.4-0.1-2.8-0.4-4.2C285,80.8,281.6,82.5,278,82.5z"/>
	<path class="st2" d="M206.9,82.5c4-7.7,16.3-27.7,38.3-36c-12.5,7.1-21,20.6-21,36c0,6.8,1.7,13.3,4.7,19c2.8-1.6,5.5-3.1,8.3-4.8
		c-2.2-4.3-3.4-9.1-3.4-14.2c0-17.5,14.3-31.8,31.9-31.8c5.6,0,10.9,1.4,15.5,4c1.8-2.6,3.6-5.3,5.2-8c-0.1-0.1-0.2-0.1-0.5-0.2
		c0.1,0.1,0.4,0.1,0.5,0.2c2.8-4.7,5.3-9.5,7.4-14.3c-8.2-3.4-17.5-5.4-28.1-5.4c-52.3,0-74,50.4-75,52.5l-1.3,3.1l1.3,3.1
		c0.5,1.1,5.6,13.2,16.8,25.4c5.3-1.8,10.6-4.1,15.7-6.6C214.6,96.2,209.3,87.2,206.9,82.5z"/>
	<path class="st3" d="M340.7,85.5l1.3-3.1l-1.3-3.1c-0.8-2-21.7-50.4-71.7-52.4c-2.3,7.6-3.8,15.5-4.7,23.8c0.5,0,1,0,1.4,0
		c17.5,0,31.9,14.3,31.9,31.8c0,15.2-10.8,28-25.1,31.1c2.9,7.9,6.5,15.5,10.6,22.6C322.9,126.8,339.8,87.4,340.7,85.5z
		 M285.9,118.6c12.6-7.1,21.2-20.6,21.2-36.1s-8.5-29-21.2-36.1c22.4,8.2,34.5,28.3,38.6,36.1C320.4,90.3,308.3,110.4,285.9,118.6z"
		/>
</g>
<g>
	<path class="st2" d="M177.5,155.8v10.3h-3.6v-25.9h8.5c2.4,0,4.3,0.7,5.8,2.2c1.3,1.4,2,3.4,2,5.6c0,2.4-0.7,4.2-2,5.6
		c-1.3,1.4-3.2,2.2-5.8,2.2L177.5,155.8L177.5,155.8z M177.5,153h4.9c1.3,0,2.4-0.5,3.1-1.4s1.1-2.2,1.1-3.6s-0.4-2.8-1.1-3.7
		s-1.7-1.4-3.1-1.4h-4.9V153z"/>
	<path class="st2" d="M202,149.8l-1.7-0.1c-0.7,0-1.3,0.2-1.9,0.7c-0.5,0.5-0.8,1.1-1.1,1.9v13.8h-3.6v-19.3h3.2l0.2,2.9
		c0.4-1.1,1-1.8,1.6-2.4c0.6-0.6,1.4-0.8,2.3-0.8c0.2,0,0.5,0,0.7,0.1c0.2,0,0.5,0.1,0.6,0.1L202,149.8z"/>
	<path class="st2" d="M203.9,155.2c0-2.5,0.7-4.7,2-6.4s3.1-2.5,5.5-2.5c2.3,0,4.2,0.8,5.5,2.5s2,3.7,2,6.4v2.4c0,2.5-0.7,4.7-2,6.4
		s-3.1,2.4-5.5,2.4s-4.2-0.8-5.5-2.4c-1.3-1.7-2-3.7-2-6.4V155.2z M207.5,157.7c0,1.8,0.4,3.2,1,4.3s1.7,1.7,3,1.7s2.3-0.6,2.9-1.7
		s1-2.5,1-4.3v-2.5c0-1.7-0.4-3.1-1-4.3c-0.6-1.1-1.6-1.7-2.9-1.7s-2.3,0.6-2.9,1.7c-0.6,1.1-1,2.5-1,4.3v2.5H207.5z"/>
	<path class="st2" d="M231.3,161.2c0-0.7-0.2-1.4-0.7-1.9s-1.4-1.1-2.8-1.7c-2-0.7-3.5-1.6-4.4-2.5c-1-0.8-1.4-2-1.4-3.4
		s0.6-2.8,1.8-3.8c1.2-1.1,2.8-1.6,4.6-1.6c2,0,3.6,0.6,4.8,1.7c1.2,1.1,1.8,2.5,1.7,4.2v0.1h-3.5c0-1-0.2-1.7-0.7-2.4
		c-0.5-0.6-1.2-1-2.2-1s-1.6,0.2-2.2,0.7c-0.5,0.5-0.7,1.1-0.7,1.8s0.2,1.3,0.6,1.8c0.5,0.5,1.3,1,2.8,1.7c2,0.7,3.5,1.6,4.6,2.5
		c1,1,1.4,2,1.4,3.5c0,1.6-0.6,2.9-1.8,3.8c-1.2,1-2.8,1.4-4.8,1.4c-2.2,0-3.8-0.6-5-1.8s-1.8-2.6-1.8-4.2V160h3.4
		c0,1.2,0.4,2.2,1.1,2.6c0.6,0.6,1.4,0.8,2.4,0.8s1.7-0.2,2.2-0.7C231,162.6,231.3,162,231.3,161.2z"/>
	<path class="st2" d="M252.5,158.1c0,2.5-0.6,4.6-1.7,6.1c-1.1,1.6-2.6,2.3-4.7,2.3c-1,0-1.8-0.2-2.5-0.6c-0.7-0.4-1.3-1-1.8-1.7
		v9.2h-3.6v-26.6h3.2l0.2,2.2c0.5-0.8,1.1-1.4,1.9-1.9c0.7-0.5,1.6-0.7,2.5-0.7c2,0,3.6,0.8,4.7,2.5s1.7,4,1.7,6.7L252.5,158.1
		L252.5,158.1z M248.8,155.7c0-1.9-0.4-3.5-1-4.7s-1.6-1.8-2.8-1.8c-0.7,0-1.4,0.2-1.9,0.6c-0.6,0.5-1,1.1-1.3,1.8v9.7
		c0.4,0.7,0.7,1.3,1.3,1.7s1.2,0.6,2,0.6c1.2,0,2.2-0.5,2.8-1.6s1-2.4,1-4.1v-2.3L248.8,155.7L248.8,155.7z"/>
	<path class="st2" d="M262.9,166.5c-2.3,0-4.1-0.8-5.5-2.4c-1.3-1.6-2-3.6-2-6.1v-2.8c0-2.5,0.7-4.6,2-6.2s3.1-2.4,5.2-2.4
		c2.2,0,3.8,0.7,5,2.3c1.2,1.4,1.8,3.5,1.8,6v2.5h-10.3v0.7c0,1.7,0.4,3,1.1,4.1s1.8,1.7,3.1,1.7c1,0,1.8-0.1,2.5-0.5s1.4-0.7,2-1.4
		l1.2,2.3c-0.6,0.7-1.4,1.2-2.4,1.7C265.3,166.2,264.3,166.5,262.9,166.5z M262.5,149.2c-1.1,0-1.9,0.5-2.5,1.6s-1,2.3-1.1,3.8h6.8
		v-0.7c0-1.3-0.2-2.5-0.8-3.4C264.4,149.7,263.5,149.2,262.5,149.2z"/>
	<path class="st2" d="M279.1,163.7c1,0,1.7-0.4,2.3-1.1s1-1.7,1-2.8h3.2v0.1c0,1.8-0.6,3.4-1.8,4.6c-1.3,1.2-2.9,1.9-4.7,1.9
		c-2.4,0-4.2-0.8-5.5-2.4c-1.3-1.7-1.9-3.7-1.9-6.2v-2.6c0-2.5,0.6-4.6,1.9-6.2c1.3-1.7,3.1-2.4,5.5-2.4c1.9,0,3.5,0.6,4.8,1.9
		c1.2,1.3,1.8,3,1.8,5v0.1h-3.4c0-1.3-0.2-2.4-0.8-3.1c-0.6-0.8-1.3-1.2-2.4-1.2c-1.3,0-2.4,0.6-2.9,1.7c-0.6,1.1-0.8,2.5-0.8,4.2
		v2.6c0,1.7,0.2,3.1,0.8,4.3C276.9,163.1,277.8,163.7,279.1,163.7z"/>
	<path class="st2" d="M293.5,142v4.8h3v2.6h-3V161c0,1,0.1,1.7,0.5,2.2c0.2,0.5,0.7,0.6,1.2,0.6c0.2,0,0.6,0,0.8,0s0.5-0.1,0.8-0.1
		l0.4,2.5c-0.4,0.1-0.8,0.2-1.3,0.4s-1.1,0.1-1.6,0.1c-1.3,0-2.4-0.5-3.2-1.3c-0.7-0.8-1.1-2.3-1.1-4.2v-11.5h-2.5v-2.6h2.5v-4.8
		h3.5L293.5,142L293.5,142z"/>
	<path class="st2" d="M304,141.8h-3.6v-3.5h3.6V141.8z M304,166.1h-3.6v-19.3h3.6V166.1z"/>
	<path class="st2" d="M313.9,160.2l0.4,1.4h0.1l0.4-1.4l3.2-13.4h3.7l-5.8,19.3h-3.2l-5.8-19.3h3.7L313.9,160.2z"/>
	<path class="st2" d="M333.7,166.1c-0.1-0.5-0.2-0.8-0.4-1.3c-0.1-0.5-0.1-0.8-0.1-1.3c-0.5,0.8-1.2,1.6-2,2.2s-1.7,0.8-2.6,0.8
		c-1.7,0-2.9-0.5-3.8-1.6s-1.4-2.4-1.4-4.1c0-1.8,0.6-3.2,1.9-4.3c1.2-1.1,3-1.6,5.3-1.6h2.6V153c0-1.2-0.2-2-0.8-2.8
		c-0.5-0.6-1.3-1-2.3-1c-0.8,0-1.6,0.2-2,0.8c-0.5,0.6-0.8,1.3-0.8,2.2h-3.5v-0.1c0-1.4,0.5-2.8,1.8-4c1.2-1.2,2.9-1.8,4.8-1.8
		s3.5,0.6,4.7,1.7c1.2,1.1,1.8,2.8,1.8,4.8v9c0,0.7,0,1.4,0.1,2.2s0.2,1.3,0.5,2L333.7,166.1L333.7,166.1z M329.4,163.7
		c0.8,0,1.6-0.2,2.3-0.7s1.2-1.1,1.6-1.9v-4h-2.8c-1.1,0-1.9,0.4-2.5,1.1c-0.6,0.7-1,1.6-1,2.6c0,0.8,0.2,1.6,0.6,2.2
		C328.1,163.5,328.7,163.7,329.4,163.7z"/>
</g>
<line class="st4" x1="441.3" y1="34.9" x2="441.3" y2="235.6"/>
<g>
	<g>
		<path class="st3" d="M487.6,43.3c0-1.1-0.2-2.2-0.2-3.2c0.5,0,0.9,0,1.4,0.2c0.5,0,0.9,0,1.4,0s0.9,0,1.4,0s0.9,0,1.4,0
			c0.8,0,1.4,0,2,0.2s1.2,0.3,1.7,0.6s0.9,0.6,1.1,1.1c0.3,0.5,0.5,1.1,0.5,1.7c0,1.2-0.5,2.2-1.1,2.9c-0.8,0.8-1.9,1.2-3.1,1.5l0,0
			c1.5,0,2.6,0.5,3.5,1.1s1.2,1.7,1.2,3.1c0,0.9-0.2,1.7-0.6,2.3c-0.3,0.6-0.9,1.1-1.5,1.5s-1.2,0.6-2,0.8s-1.5,0.2-2.2,0.2
			c-0.5,0-0.8,0-1.2,0s-0.8,0-1.2,0c-0.5,0-0.8,0-1.2,0c-0.5,0-0.8,0-1.2,0c0-1.1,0.2-2.2,0.2-3.2s0-2.2,0-3.2v-4.3
			C487.6,45.5,487.6,44.4,487.6,43.3z M492.7,47.6c0.6-0.2,1.1-0.3,1.5-0.6c0.5-0.3,0.8-0.6,1.1-1.1c0.3-0.5,0.5-1.1,0.5-1.7
			s-0.2-1.2-0.3-1.7c-0.3-0.5-0.6-0.8-0.9-0.9c-0.3-0.2-0.8-0.3-1.2-0.5c-0.5-0.2-0.9-0.2-1.4-0.2s-0.8,0-1.1,0
			c-0.3,0-0.6,0-0.8,0.2c0,0.8,0,1.5-0.2,2.3c0,0.8,0,1.5,0,2.3v1.9h1.4C491.6,47.8,492.2,47.8,492.7,47.6z M489.8,53.8
			c0,0.8,0,1.7,0.2,2.5c0.3,0,0.6,0,1.1,0.2c0.5,0,0.9,0,1.4,0s1.1-0.2,1.5-0.3c0.5-0.2,0.9-0.5,1.2-0.8c0.3-0.3,0.6-0.8,0.9-1.4
			c0.2-0.5,0.3-1.1,0.3-1.9c0-0.8-0.2-1.2-0.5-1.7s-0.6-0.8-1.1-1.1s-1.1-0.5-1.7-0.5c-0.6-0.2-1.4-0.2-2.3-0.2h-1.2v2.6
			C489.6,52.1,489.6,53,489.8,53.8z"/>
		<path class="st3" d="M501.8,51.3c0-0.6,0-1.2,0-1.9c0-0.6,0-1.2,0-1.9c0-0.6,0-1.4,0-2c0.5,0.2,0.8,0.2,1.1,0.2
			c0.3,0,0.6,0,1.1-0.2c-0.2,0.9-0.2,2.2-0.2,3.2c0,1.2,0,2.5,0,3.7c0,0.9,0,1.5,0.2,2s0.3,0.8,0.6,1.1c0.3,0.3,0.5,0.5,0.9,0.6
			c0.3,0.2,0.8,0.3,1.2,0.3c0.8,0,1.2-0.2,1.7-0.5s0.8-0.6,1.1-1.1c0.2-0.3,0.2-0.5,0.3-0.8c0-0.2,0.2-0.5,0.2-0.8s0-0.8,0-1.4
			c0-0.6,0-1.4,0-2.3v-2.2c0-0.3,0-0.8,0-1.1s0-0.6,0-0.9c0.2,0,0.3,0,0.5,0.2c0.2,0,0.3,0,0.5,0s0.3,0,0.5,0s0.3,0,0.5-0.2
			c-0.2,1.2-0.2,2.5-0.2,3.7s0,2.5,0,3.8c0,0.8,0,1.5,0,2.2c0,0.8,0,1.4,0,2c-0.3,0-0.6,0-0.9,0s-0.6,0-0.9,0c0-0.2,0-0.3,0-0.5
			s0-0.3,0-0.5v-1.1l0,0c-0.5,0.8-0.9,1.4-1.7,1.7c-0.6,0.3-1.4,0.6-2.2,0.6c-1.2,0-2.3-0.3-3.1-1.1c-0.8-0.6-1.1-1.7-1.1-2.9
			C501.8,52.7,501.8,51.9,501.8,51.3z"/>
		<path class="st3" d="M515.2,55.5c0.2,0.2,0.3,0.5,0.6,0.6c0.3,0.2,0.5,0.3,0.8,0.5s0.6,0.2,0.9,0.2s0.6,0,0.9-0.2
			c0.3-0.2,0.6-0.3,0.8-0.5s0.5-0.5,0.5-0.8c0.2-0.3,0.2-0.6,0.2-0.9c0-0.5-0.2-0.9-0.5-1.2s-0.6-0.5-1.1-0.6
			c-0.5-0.2-0.9-0.3-1.4-0.5s-0.9-0.3-1.4-0.6s-0.8-0.6-1.1-0.9c-0.3-0.5-0.5-0.9-0.5-1.7c0-0.6,0.2-1.1,0.3-1.5s0.5-0.9,0.8-1.2
			s0.8-0.6,1.2-0.8c0.5-0.2,1.1-0.3,1.7-0.3s1.1,0.2,1.5,0.3s0.8,0.3,1.2,0.5c-0.2,0.3-0.3,0.6-0.3,0.9c-0.2,0.3-0.2,0.6-0.2,0.8
			H520c-0.2-0.5-0.5-0.8-0.8-1.1s-0.9-0.5-1.4-0.5c-0.3,0-0.5,0-0.8,0.2s-0.5,0.2-0.6,0.3c-0.2,0.2-0.3,0.3-0.5,0.6
			s-0.2,0.6-0.2,0.9c0,0.5,0.2,0.9,0.5,1.2s0.6,0.5,1.1,0.6c0.5,0.2,0.9,0.3,1.4,0.5s0.9,0.3,1.4,0.5s0.8,0.5,1.1,0.9
			c0.3,0.5,0.5,0.9,0.5,1.7c0,0.5-0.2,0.9-0.3,1.4s-0.5,0.9-0.9,1.2c-0.5,0.3-0.9,0.6-1.4,0.9c-0.6,0.2-1.2,0.3-1.9,0.3
			c-0.8,0-1.4,0-1.9-0.2s-0.9-0.3-1.2-0.5c0.2-0.2,0.2-0.5,0.3-0.9c0.2-0.3,0.2-0.6,0.2-0.9h0.3C514.9,55.2,515.1,55.3,515.2,55.5z"
			/>
		<path class="st3" d="M524.8,40.2c0.3-0.3,0.6-0.3,0.9-0.3c0.3,0,0.6,0.2,0.9,0.3c0.3,0.3,0.3,0.6,0.3,0.9c0,0.3-0.2,0.6-0.3,0.9
			c-0.3,0.3-0.6,0.3-0.9,0.3c-0.3,0-0.6-0.2-0.9-0.3c-0.3-0.3-0.3-0.6-0.3-0.9S524.6,40.5,524.8,40.2z M524.8,47.8
			c0-0.8-0.2-1.5-0.2-2.3c0.5,0.2,0.8,0.2,1.1,0.2s0.6,0,1.1-0.2c-0.2,0.8-0.2,1.5-0.2,2.3s0,1.5,0,2.3v2.6c0,0.8,0,1.5,0,2.3
			s0.2,1.5,0.2,2.2c-0.3,0-0.8,0-1.1,0s-0.8,0-1.1,0c0.2-0.6,0.2-1.4,0.2-2.2s0-1.5,0-2.3v-2.6C524.8,49.3,524.8,48.5,524.8,47.8z"
			/>
		<path class="st3" d="M537.9,47.5c-0.5-0.6-1.1-0.9-2-0.9c-1.2,0-2,0.3-2.6,1.1c-0.5,0.8-0.8,1.7-0.8,3.1V53c0,0.8,0,1.5,0,2.3
			s0.2,1.5,0.2,2.2c-0.3,0-0.8,0-1.1,0s-0.8,0-1.1,0c0.2-0.6,0.2-1.4,0.2-2.2s0-1.5,0-2.3v-2.6c0-0.8,0-1.5,0-2.3s0-1.5-0.2-2.3
			c0.5,0.2,0.8,0.2,1.1,0.2c0.2,0,0.3,0,0.5,0s0.3,0,0.6-0.2c0,0.6,0,1.4,0,2l0,0c0.5-0.8,1.1-1.2,1.7-1.7s1.4-0.6,2.3-0.6
			c0.5,0,0.9,0,1.4,0.2s0.9,0.3,1.2,0.6s0.8,0.8,0.9,1.4c0.3,0.6,0.3,1.2,0.3,2.2c0,0.8,0,1.4,0,2.2s0,1.5,0,2.5v1.5
			c0,0.3,0,0.5,0,0.8s0,0.5,0,0.8c-0.3,0-0.6,0-1.1,0c-0.3,0-0.8,0-1.1,0c0-0.9,0-1.7,0.2-2.6c0-0.9,0-1.9,0-2.8v-1.5
			C538.7,49,538.4,48.1,537.9,47.5z"/>
		<path class="st3" d="M544.2,47c0.9-1.2,2.3-1.7,4.3-1.7c0.9,0,1.7,0.2,2.3,0.5s1.2,0.6,1.5,1.1c0.5,0.5,0.8,0.9,0.9,1.5
			s0.3,1.2,0.3,2c0,0.2,0,0.3,0,0.5s0,0.3,0,0.5c-0.9,0-1.9,0-2.6,0c-0.9,0-1.7,0-2.6,0c-0.6,0-1.1,0-1.7,0s-1.1,0-1.7,0
			c0,0.2,0,0.2,0,0.3V52c0,0.6,0.2,1.2,0.3,1.9c0.2,0.6,0.5,1.1,0.8,1.4c0.3,0.5,0.8,0.8,1.4,0.9c0.5,0.3,1.1,0.3,1.9,0.3
			c0.3,0,0.6,0,1.1-0.2c0.3-0.2,0.6-0.2,1.1-0.3c0.3-0.2,0.6-0.3,0.9-0.6c0.3-0.2,0.6-0.5,0.8-0.6h0.2l-0.2,1.2
			c-0.5,0.5-1.1,0.8-1.9,1.1s-1.5,0.5-2.3,0.5c-0.9,0-1.7-0.2-2.5-0.5s-1.4-0.6-1.9-1.2c-0.6-0.5-0.9-1.1-1.2-1.9
			c-0.3-0.8-0.5-1.5-0.5-2.3C542.8,49.8,543.3,48.1,544.2,47z M547,46.4c-0.5,0.3-0.8,0.6-1.1,1.1s-0.5,0.9-0.6,1.4
			c-0.2,0.5-0.2,0.9-0.3,1.4c0.5,0,1.1,0,1.5,0c0.6,0,1.1,0,1.7,0s1.1,0,1.7,0c0.6,0,1.1,0,1.7,0c0-0.5,0-0.9-0.2-1.4
			c0-0.5-0.2-0.9-0.5-1.4c-0.2-0.5-0.5-0.8-0.9-1.1c-0.5-0.3-0.9-0.5-1.5-0.5C547.9,46.1,547.5,46.1,547,46.4z"/>
		<path class="st3" d="M556,55.5c0.2,0.2,0.3,0.5,0.6,0.6c0.3,0.2,0.5,0.3,0.8,0.5s0.6,0.2,0.9,0.2c0.3,0,0.6,0,0.9-0.2
			c0.3-0.2,0.6-0.3,0.8-0.5s0.5-0.5,0.5-0.8c0.2-0.3,0.2-0.6,0.2-0.9c0-0.5-0.2-0.9-0.5-1.2s-0.6-0.5-1.1-0.6
			c-0.5-0.2-0.9-0.3-1.4-0.5s-0.9-0.3-1.4-0.6s-0.8-0.6-1.1-0.9c-0.3-0.5-0.5-0.9-0.5-1.7c0-0.6,0.2-1.1,0.3-1.5
			c0.2-0.5,0.5-0.9,0.8-1.2s0.8-0.6,1.2-0.8c0.5-0.2,1.1-0.3,1.7-0.3s1.1,0.2,1.5,0.3s0.8,0.3,1.2,0.5c-0.2,0.3-0.3,0.6-0.3,0.9
			c-0.2,0.3-0.2,0.6-0.2,0.8h-0.3c-0.2-0.5-0.5-0.8-0.8-1.1s-0.9-0.5-1.4-0.5c-0.3,0-0.5,0-0.8,0.2s-0.5,0.2-0.6,0.3
			c-0.2,0.2-0.3,0.3-0.5,0.6s-0.2,0.6-0.2,0.9c0,0.5,0.2,0.9,0.5,1.2s0.6,0.5,1.1,0.6c0.5,0.2,0.9,0.3,1.4,0.5s0.9,0.3,1.4,0.5
			s0.8,0.5,1.1,0.9c0.3,0.5,0.5,0.9,0.5,1.7c0,0.5-0.2,0.9-0.3,1.4s-0.5,0.9-0.9,1.2c-0.5,0.3-0.9,0.6-1.4,0.9
			c-0.6,0.2-1.2,0.3-1.9,0.3c-0.8,0-1.4,0-1.9-0.2s-0.9-0.3-1.2-0.5c0.2-0.2,0.2-0.5,0.3-0.9c0.2-0.3,0.2-0.6,0.2-0.9h0.3
			C555.7,55.2,555.8,55.3,556,55.5z"/>
		<path class="st3" d="M565.1,55.5c0.2,0.2,0.3,0.5,0.6,0.6c0.3,0.2,0.5,0.3,0.8,0.5s0.6,0.2,0.9,0.2c0.3,0,0.6,0,0.9-0.2
			c0.3-0.2,0.6-0.3,0.8-0.5s0.5-0.5,0.5-0.8c0.2-0.3,0.2-0.6,0.2-0.9c0-0.5-0.2-0.9-0.5-1.2s-0.6-0.5-1.1-0.6s-0.9-0.3-1.4-0.5
			s-0.9-0.3-1.4-0.6s-0.8-0.6-1.1-0.9c-0.3-0.5-0.5-0.9-0.5-1.7c0-0.6,0.2-1.1,0.3-1.5s0.5-0.9,0.8-1.2s0.8-0.6,1.2-0.8
			c0.5-0.2,1.1-0.3,1.7-0.3c0.6,0,1.1,0.2,1.5,0.3c0.5,0.2,0.8,0.3,1.2,0.5c-0.2,0.3-0.3,0.6-0.3,0.9c-0.2,0.3-0.2,0.6-0.2,0.8h-0.3
			c-0.2-0.5-0.5-0.8-0.8-1.1S568,46,567.5,46c-0.3,0-0.5,0-0.8,0.2s-0.5,0.2-0.6,0.3c-0.2,0.2-0.3,0.3-0.5,0.6s-0.2,0.6-0.2,0.9
			c0,0.5,0.2,0.9,0.5,1.2s0.6,0.5,1.1,0.6c0.5,0.2,0.9,0.3,1.4,0.5s0.9,0.3,1.4,0.5s0.8,0.5,1.1,0.9c0.3,0.5,0.5,0.9,0.5,1.7
			c0,0.5-0.2,0.9-0.3,1.4s-0.5,0.9-0.9,1.2c-0.5,0.3-0.9,0.6-1.4,0.9c-0.6,0.2-1.2,0.3-1.9,0.3c-0.8,0-1.4,0-1.9-0.2
			s-0.9-0.3-1.2-0.5c0.2-0.2,0.2-0.5,0.3-0.9c0.2-0.3,0.2-0.6,0.2-0.9h0.3C564.8,55.2,564.9,55.3,565.1,55.5z"/>
		<g>
			<path class="st3" d="M488.8,82c0.3,0.3,0.6,0.8,1.1,1.1c0.5,0.3,0.9,0.6,1.4,0.8c0.5,0.2,1.1,0.3,1.9,0.3c0.6,0,1.2-0.2,1.9-0.3
				c0.6-0.3,1.1-0.6,1.4-0.9c0.3-0.5,0.6-0.9,0.9-1.4c0.2-0.6,0.3-1.1,0.3-1.7c0-0.9-0.3-1.7-0.8-2.3c-0.5-0.6-1.1-1.1-1.9-1.4
				s-1.5-0.8-2.3-1.1c-0.8-0.3-1.5-0.6-2.3-1.1s-1.4-1.1-1.9-1.7c-0.5-0.8-0.8-1.7-0.8-2.9c0-0.9,0.2-1.7,0.5-2.3
				c0.3-0.8,0.8-1.4,1.4-1.9s1.2-0.9,2.2-1.2c0.8-0.3,1.7-0.5,2.8-0.5c0.9,0,1.9,0.2,2.6,0.3c0.8,0.3,1.4,0.6,2,1.1
				c-0.2,0.3-0.3,0.8-0.5,1.1c-0.2,0.5-0.3,0.9-0.3,1.5h-0.3c-0.2-0.3-0.3-0.6-0.5-0.9s-0.5-0.6-0.8-0.9s-0.6-0.5-1.1-0.8
				c-0.5-0.2-0.9-0.3-1.5-0.3s-1.1,0.2-1.5,0.3c-0.5,0.2-0.9,0.5-1.2,0.8c-0.3,0.3-0.6,0.8-0.8,1.2c-0.2,0.5-0.3,0.9-0.3,1.5
				c0,0.9,0.3,1.7,0.8,2.3c0.5,0.6,1.1,1.1,1.9,1.4s1.5,0.8,2.3,1.1c0.8,0.3,1.5,0.6,2.3,1.1s1.4,0.9,1.9,1.7
				c0.5,0.6,0.8,1.5,0.8,2.8c0,0.9-0.2,1.9-0.5,2.6c-0.3,0.8-0.8,1.5-1.5,2.2c-0.6,0.6-1.4,1.1-2.3,1.4s-2,0.5-3.2,0.5
				s-2.3-0.2-3.1-0.5c-0.8-0.3-1.4-0.8-2-1.1c0.2-0.5,0.3-0.9,0.3-1.2c0-0.3,0.2-0.9,0.2-1.4h0.3C488.4,81.3,488.7,81.7,488.8,82z"
				/>
			<path class="st3" d="M502.6,74.1c0.5-0.9,1.1-1.7,1.7-2.3c0.8-0.6,1.5-1.1,2.5-1.4c0.9-0.3,1.9-0.5,2.9-0.5s2.2,0.2,3.1,0.5
				c0.9,0.3,1.5,0.6,1.9,0.9c-0.2,0.3-0.3,0.6-0.3,0.9c-0.2,0.3-0.2,0.6-0.3,1.1h-0.3c-0.2-0.3-0.3-0.5-0.6-0.8s-0.5-0.5-0.9-0.8
				c-0.3-0.3-0.8-0.5-1.1-0.6c-0.5-0.2-0.9-0.2-1.4-0.2c-0.9,0-1.7,0.2-2.3,0.5c-0.6,0.3-1.2,0.8-1.7,1.4S505,74,504.9,75
				c-0.2,0.8-0.3,1.7-0.3,2.6c0,2.2,0.5,3.7,1.4,4.8c0.9,1.1,2.2,1.5,4,1.5c0.5,0,0.8,0,1.2-0.2c0.5-0.2,0.9-0.3,1.2-0.5
				c0.5-0.2,0.8-0.5,1.1-0.6c0.3-0.3,0.6-0.6,0.9-0.9l0.2,0.2c-0.2,0.5-0.2,0.9-0.2,1.5c-0.6,0.5-1.4,0.9-2.3,1.2
				c-0.9,0.3-1.9,0.5-2.8,0.5s-1.7-0.2-2.6-0.3c-0.9-0.3-1.7-0.6-2.5-1.2s-1.2-1.4-1.7-2.3s-0.6-2.2-0.6-3.5
				C502,76.3,502.1,75.2,502.6,74.1z"/>
			<path class="st3" d="M517.2,68.3c0-0.8,0-1.7,0-2.5s0-1.5,0-2.3s0-1.4-0.2-1.9c0.6,0.2,1.1,0.2,1.4,0.2c0.3,0,0.8,0,1.4-0.2
				c0,0.5-0.2,1.1-0.2,1.9c0,0.8,0,1.5,0,2.3s0,1.5,0,2.3s0,1.5,0,2.2v2.3l0,0c0.6-0.9,1.2-1.5,2-2s1.7-0.8,2.9-0.8
				c0.6,0,1.1,0.2,1.7,0.3c0.6,0.2,1.1,0.5,1.5,0.8c0.5,0.5,0.9,0.9,1.1,1.7c0.3,0.6,0.5,1.5,0.5,2.6c0,0.9,0,1.9,0,2.8s0,1.9,0,2.9
				v2c0,0.3,0,0.6,0,0.9s0,0.6,0,0.9c-0.5,0-0.9,0-1.2,0c-0.5,0-0.9,0-1.2,0c0-1.1,0.2-2.2,0.2-3.2s0.2-2.3,0.2-3.5v-1.9
				c0-1.5-0.3-2.6-0.9-3.5c-0.6-0.8-1.4-1.2-2.5-1.2c-1.4,0-2.5,0.5-3.1,1.4s-0.9,2.2-0.9,3.7c0,0.6,0,1.2,0,2s0,1.5,0,2.3
				s0,1.5,0,2.2c0,0.8,0,1.2,0.2,1.7c-0.5,0-0.9,0-1.4,0s-0.9,0-1.4,0c0-0.5,0.2-1.1,0.2-1.9s0-1.5,0-2.3s0-1.5,0-2.5
				c0-0.8,0-1.5,0-2.3v-5.6C517.2,69.8,517.2,69.1,517.2,68.3z"/>
			<path class="st3" d="M532.8,74.1c0.5-0.9,1.1-1.7,1.7-2.3c0.8-0.6,1.5-1.1,2.5-1.4c0.9-0.3,1.9-0.5,2.6-0.5
				c0.9,0,1.9,0.2,2.6,0.5c0.9,0.3,1.7,0.8,2.5,1.4s1.2,1.4,1.7,2.3s0.6,2.2,0.6,3.5c0,1.4-0.2,2.6-0.6,3.5s-1.1,1.7-1.7,2.3
				c-0.8,0.6-1.5,1.1-2.5,1.2c-0.9,0.3-1.7,0.3-2.6,0.3c-0.9,0-1.7-0.2-2.6-0.3c-0.9-0.3-1.7-0.6-2.5-1.2s-1.2-1.4-1.7-2.3
				s-0.6-2.2-0.6-3.5C532.2,76.3,532.4,75.1,532.8,74.1z M535.1,80.2c0.2,0.8,0.5,1.5,0.8,2.2c0.3,0.6,0.9,1.1,1.5,1.5
				c0.6,0.3,1.4,0.6,2.3,0.6s1.7-0.2,2.3-0.6c0.6-0.3,1.1-0.9,1.5-1.5c0.3-0.6,0.6-1.4,0.8-2.2s0.2-1.7,0.2-2.5
				c0-0.9-0.2-1.7-0.2-2.5c-0.2-0.8-0.5-1.5-0.8-2.2c-0.3-0.6-0.9-1.1-1.5-1.5c-0.6-0.3-1.4-0.6-2.3-0.6c-0.9,0-1.7,0.2-2.3,0.6
				c-0.6,0.3-1.1,0.9-1.5,1.5c-0.3,0.6-0.6,1.4-0.8,2.2c-0.2,0.8-0.2,1.7-0.2,2.5C535,78.5,535,79.4,535.1,80.2z"/>
			<path class="st3" d="M549.3,74.1c0.5-0.9,1.1-1.7,1.7-2.3c0.8-0.6,1.5-1.1,2.5-1.4c0.9-0.3,1.9-0.5,2.6-0.5
				c0.9,0,1.9,0.2,2.6,0.5c0.9,0.3,1.7,0.8,2.5,1.4s1.2,1.4,1.7,2.3s0.6,2.2,0.6,3.5c0,1.4-0.2,2.6-0.6,3.5
				c-0.5,0.9-1.1,1.7-1.7,2.3c-0.8,0.6-1.5,1.1-2.5,1.2c-0.9,0.3-1.7,0.3-2.6,0.3c-0.9,0-1.7-0.2-2.6-0.3c-0.9-0.3-1.7-0.6-2.5-1.2
				s-1.2-1.4-1.7-2.3s-0.6-2.2-0.6-3.5C548.6,76.3,548.9,75.1,549.3,74.1z M551.5,80.2c0.2,0.8,0.5,1.5,0.8,2.2
				c0.3,0.6,0.9,1.1,1.5,1.5c0.6,0.3,1.4,0.6,2.3,0.6s1.7-0.2,2.3-0.6c0.6-0.5,1.1-0.9,1.5-1.5c0.3-0.6,0.6-1.4,0.8-2.2
				s0.2-1.7,0.2-2.5c0-0.9-0.2-1.7-0.2-2.5c-0.2-0.8-0.5-1.5-0.8-2.2c-0.3-0.6-0.9-1.1-1.5-1.5c-0.6-0.5-1.4-0.6-2.3-0.6
				s-1.7,0.2-2.3,0.6c-0.6,0.3-1.1,0.9-1.5,1.5c-0.3,0.6-0.6,1.4-0.8,2.2c-0.2,0.8-0.2,1.7-0.2,2.5S551.3,79.4,551.5,80.2z"/>
			<path class="st3" d="M567.1,68.3c0-0.8,0-1.7,0-2.5s0-1.5,0-2.3s0-1.4-0.2-1.9c0.6,0.2,1.1,0.2,1.4,0.2c0.3,0,0.8,0,1.4-0.2
				c0,0.5-0.2,1.1-0.2,1.9c0,0.8,0,1.5,0,2.3s0,1.5,0,2.5c0,0.8,0,1.5,0,2.3v5.6c0,0.8,0,1.4,0,2.3c0,0.8,0,1.7,0,2.5s0,1.5,0,2.3
				s0,1.2,0.2,1.9c-0.5,0-0.9,0-1.4,0s-0.9,0-1.4,0c0-0.5,0.2-1.1,0.2-1.9s0-1.5,0-2.3s0-1.5,0-2.5c0-0.8,0-1.5,0-2.3v-5.6
				C567.1,69.8,567.1,69.1,567.1,68.3z"/>
		</g>
	</g>
	<path class="st3" d="M583,181.5c0-0.3,0-0.6,0-1.1c0-0.3,0-0.6,0-1.1V97.6H474.4v81.9c0,0.3,0,0.6,0,0.8c0,0.3,0,0.6,0,0.9v0.8l0,0
		c0.8,29.3,24.8,52.8,54.3,52.8c29.5,0,53.4-23.4,54.3-52.8l0,0V181.5L583,181.5z"/>
	<g>
		<path class="st5" d="M500.4,123.8c-1.5,1.4-3.8,2.5-6,2.5c-5.1,0-8-3.8-8-9.4c0-4.8,2.2-9.9,7.7-10c2.2,0,4.3,1.2,5.6,2.9h0.5
			c0.3-1.1,0.5-2.3,0.8-3.4c-2-1.1-4.6-1.5-6.8-1.5c-7.3,0-13.3,3.8-13.3,12.3c0,6.6,5.4,11,12.7,11c2.3,0,4.6-0.5,6.6-1.4l0.8-2.8
			L500.4,123.8L500.4,123.8z M506.7,105.5l0.2,22.2h12.8c0-0.5-0.2-0.9-0.2-1.4s0.2-0.9,0.2-1.4c-2,0.3-4.3,0.5-7.7,0.5V117h3.4
			c1.5,0,2.9,0.2,4.2,0.3c0-0.5-0.2-0.9-0.2-1.4s0.2-0.9,0.2-1.4c-1.2,0.2-2.6,0.3-4.2,0.3H512v-6.9c3.4,0,5.7,0.2,7.7,0.5
			c0-0.5-0.2-0.9-0.2-1.4s0.2-0.9,0.2-1.4L506.7,105.5L506.7,105.5z M527,127.7c0.8,0,1.7-0.2,2.5-0.2s1.7,0.2,2.5,0.2l-0.2-22.4
			c-0.8,0-1.7,0.2-2.5,0.2s-1.7-0.2-2.5-0.2L527,127.7L527,127.7z M544.9,117.8c6,0,10.3-1.2,10.3-7.1c0-3.7-2.5-5.6-7.1-5.4h-8.2
			l0.2,22.2c0.8,0,1.7-0.2,2.5-0.2s1.7,0.2,2.5,0.2L544.9,117.8L544.9,117.8z M544.9,107.2h2c1.7,0,3.1,1.7,3.1,4.3
			c0,2-0.8,3.8-2.9,4.5c-0.8,0.2-1.4,0.2-2.2,0.3L544.9,107.2L544.9,107.2z M568.3,120.7c0.9,2.2,1.7,4.3,2.5,6.8
			c0.9,0,1.9-0.2,2.9-0.2c0.9,0,1.9,0.2,2.9,0.2l-9.4-22.5c-0.5,0-0.8,0.2-1.2,0.2s-0.8,0-1.2-0.2l-9.4,22.5c0.6,0,1.1-0.2,1.5-0.2
			c0.5,0,1.1,0,1.5,0.2c0.6-2.3,1.4-4.3,2.3-6.8H568.3L568.3,120.7z M561.4,118.7l3.1-7.6l2.9,7.6H561.4L561.4,118.7z"/>
	</g>
	<path class="st5" d="M574.2,176.3c0-13.9,0.2-27.9,0.2-41.8c-15.4,0.2-31,0.2-46.6,0.3c-15.6,0-31,0.2-46.6,0.2
		c0,14,0.2,28.1,0.2,42.1s5.2,26.7,13.6,35.8c8.5,9.1,20.2,14.6,32.9,14.5c12.7,0,24.4-5.7,32.7-14.8
		C569.1,203.1,574.3,190.5,574.2,176.3L574.2,176.3z"/>
	<g>
		<path class="st6" d="M524.3,163.6c-0.9-0.5-1.1-0.8-2.2-1.2c0.9-1.9,1.9-4.2,2.6-6c-1.4,0.6-4.2,1.5-5.4,2.2
			c-0.6-0.9-0.6-1.2-1.1-2.2c1.2-0.6,3.7-1.5,5.2-2c-0.9-1.1-2-1.9-2.6-2.3l1.9-1.5c0.8,0.6,2.2,2.2,3.1,2.9
			c0.3-0.3,1.2-3.7,1.4-4.3c1.1,0.3,1.4,0.5,2.5,0.8c-0.5,1.1-0.8,2.6-0.9,3.2c1.1-0.3,3.4-0.9,4.6-1.2l0.6,2.3
			c-3.2,0.8-4.5,1.2-5.2,1.4c0.8,0.8,2.6,2.2,3.5,2.8l-1.5,1.9c-0.6-0.5-3.1-2.6-3.7-2.8C526,159.5,525.3,161.8,524.3,163.6
			L524.3,163.6z M547.5,182.3c-0.9-0.5-1.1-0.8-2.2-1.2c0.9-1.9,1.9-4.2,2.6-5.9c-1.4,0.5-4.2,1.5-5.4,2.2c-0.6-0.9-0.6-1.2-1.1-2.2
			c1.2-0.6,3.7-1.5,5.2-2c-0.9-0.9-2-1.9-2.6-2.3l1.9-1.5c0.8,0.6,2.2,2.2,3.1,2.9c0.3-0.3,1.2-3.7,1.2-4.5c1.1,0.3,1.4,0.5,2.5,0.8
			c-0.3,1.1-0.8,2.6-0.9,3.2c1.1-0.3,3.5-0.9,4.6-1.2l0.6,2.3c-3.2,0.8-4.5,1.2-5.2,1.4c0.9,0.6,2.6,2.2,3.5,2.8l-1.5,1.9
			c-0.6-0.5-3.1-2.6-3.7-2.8C549.2,178,548.6,180.3,547.5,182.3L547.5,182.3z M519.4,188.2c0,0,0.6,3.2,1.5,4.6
			c0.5,0.8,2.9,2.8,5.6,3.2c4,0.5,7.1-0.2,10.5-2c1.1-0.6,2.9-1.5,3.7-1.9c-2,4.6-4.3,11-10.2,12.3c-3.8,0.9-8.2-1.1-10.3-4.3
			c-1.9-2.9-2.2-4.5-2.2-7.9C518.3,190.6,518.5,189.5,519.4,188.2L519.4,188.2z M520.5,195.7c4.3,3.5,11,3.5,15.6,1.1
			c0.5,0.2-5.7,9.6-12.8,3.4C521.9,198.3,521.4,197.9,520.5,195.7L520.5,195.7z M510.9,162.9c0,0-2.8,2-3.7,3.4
			c-0.6,0.8-1.5,3.7-0.9,6.3c1.5,6.2,5.1,8.3,8.5,11.6c-2.8,0.3-5.2-0.2-7.3-0.5C492.1,180.6,497,162.2,510.9,162.9L510.9,162.9z
			 M504.3,166.7c-1.9,5.1,0.6,11.1,3.7,14.2C504.6,182,495,174.9,504.3,166.7L504.3,166.7z"/>
		<path class="st6" d="M556.4,208.5c0-0.6-0.2-0.8,0-1.9c0.2,0,1.2-0.2,4.3,0c-1.4-1.1-4.3-4.2-5.7-5.7c-4,4-9,7.3-14.2,9.4
			c-0.9,0.3-1.9,0.6-2.9,0.9c-2.9,0.9-5.9,1.4-8.8,1.9c-3.4,0.3-6.5,0.2-9.7-0.3c-1.4-0.3-2.6-0.6-3.8-0.9c-1.7-0.6-3.2-1.2-3.5-1.4
			c0,0,0,0,0-0.2c-0.6,0-1.9-0.8-2.2-0.9c-2.5-1.5-4.8-3.1-6.9-5.1c-0.8-0.8-1.7-1.7-2.5-2.5c-2,1.4-2.9,2-4.8,3.7
			c1.4-0.2,3.8-0.5,5.1-0.5c0,0.6,0,1.4,0.2,2.2c-1.1-0.3-10.3,1.2-11.7,0.8c0.2-2.9,4.6-5.6,4.5-9.7c3.4,0.2,2-0.2,2.2,0
			c-0.2,0.6-0.3,2.2-0.5,2.8c0.9-0.6,1.9-1.1,2.9-2c-2.9-4.2-4.9-8.6-6.2-13.4c-0.2-0.9-0.5-2-0.6-2.8c-0.5-3.4-0.6-6.5-0.5-9.9
			c0.2-1.5,0-1.5,0.3-3.1c0.2-0.6,0.2-1.5,0.3-2.2c0.9-3.4,2-6.5,3.5-9.7c1.5-2.5,3.1-5.1,4.9-7.3c-2-2-4.9-5.2-6.9-7.3
			c0.9,4.6,1.2,5.6,1.2,5.6c-1.1,0.2-1.1,0.3-2.2,0.5c-0.8-3.7-1.4-6.3-2.2-10c0,0-0.2,0,0,0c5.1-0.2,6.8,0,10.3,0
			c0,1.1-0.2,1.2-0.2,2.3c-0.9,0-2.8-0.2-3.8-0.2c0.6,0.5,6,6.3,6.2,6.3c1.1-1.1,2.8-2.6,4-3.5c3.8-2.6,7.1-4.2,11.9-5.2
			c6.2-0.5,11.7-0.3,17.9,1.2c4.6,0.9,10,3.4,14.6,6.8c1.2-1.5,3.2-4.2,4.5-5.7c-1.2,0.3-3.4,0.8-4.8,1.1c-0.3-1.1-0.3-0.9-0.6-2
			c3.2-0.8,8-1.9,11.3-2.6l-0.9,4.6c-0.8,3.1-0.8,3.4-1.5,6.6c-0.8-0.2-1.4-0.3-2.3-0.5c0.2-1.1,0.8-2.3,1.2-4.5
			c-1.1,1.2-3.1,3.7-4,4.9c0.2,0.3,2.5,2.9,2.8,3.4c1.2,1.4,2,2.9,3.2,4.5c1.2,2,2.2,4.2,3.1,6.3c0.6,1.5,0.6,1.5,1.1,3.2
			c1.1,4.3,1.4,8.5,0.9,12.9c-0.3,2.5-0.9,4.5-1.5,6.9c-0.3,0.8-0.8,1.7-0.9,2.2c-1.2,2.6-2.3,4.8-4,7.4c-0.5,0.6-0.8,1.1-1.2,1.7
			c1.7,2.2,4.9,5.4,6.9,7.3c-0.5-1.7-0.8-2.6-1.1-4c0-0.6-0.3-1.5-0.3-2.2c0.6,0,1.2-0.2,2-0.2c0,1.4,1.5,7.1,1.9,9.9
			C565.4,208.8,562.1,208.8,556.4,208.5L556.4,208.5z M503,200c0,0,7.3-5.7,8.3-6.8c1.1-1.1,6.6-5.4,7.4-6.5c0.8-0.9,3.4-2.9,4.8-4
			c1.4-1.2,6-6.2,6-6.2l6.3,5.2c0,0,5.9,4.9,6.5,5.4s3.1,2.3,5.6,5.2l3.5,4.2l1.4,1.7c0,0-0.9,1.1-1.5,1.5c-0.6,0.6-2.6,2-3.8,3.1
			s-5.1,2.9-6.6,3.7s-5.4,1.9-6.5,2.2s-5.9,1.1-8.3,1.2c-2.5,0.2-7.1-0.5-9.6-1.2s-6.2-2.8-7.6-3.7C507.7,204.7,503,200,503,200
			L503,200z M502.9,153.3c0,0,5.2,4.9,6.3,6c1.1,1.1,4.5,4.2,5.6,4.9c0.9,0.8,3.5,3.4,5.1,4.3c1.5,0.9,7.4,6.2,7.4,6.2l-5.4,5.2
			c0,0-6.8,6.2-7.4,6.6c-0.6,0.5-6,4.9-6,4.9l-5.7,4.5l-1.9,1.4c0,0-0.8-0.9-1.1-1.5c-0.3-0.6-1.5-3.2-2.2-4.3
			c-0.5-1.1-2.2-6-2.5-7.1c-0.2-1.1-0.6-5.1-0.9-6.2c-0.2-1.1,0-5.7,0.5-8s1.5-6.2,2.5-8.3c0.9-2.1,2-3.4,2.8-4.8
			C500.7,155.6,502.9,153.3,502.9,153.3L502.9,153.3z M505.1,150.8c0,0,6.2,5.6,7.1,6.5c0.9,1.1,6,5.1,6.8,6s3.2,2.6,4.5,3.7
			c1.4,1.1,6,5.2,6,5.2l4.8-4.9c0,0,3.7-3.8,4.2-4.3s3.7-4.5,6.2-7.3l3.4-3.8l1.2-1.5c0,0-0.9-0.9-1.5-1.5c-0.6-0.5-2.2-1.1-3.7-2
			s-4.8-2-6.3-2.5c-1.5-0.6-5.2-1.1-6.3-1.2c-1.1-0.2-3.1-0.3-5.4-0.5c-2.3,0-5.9-0.2-9.1,0.8c-3.2,0.9-5.6,2.5-6.8,3.4
			C508.9,147.1,505.1,150.8,505.1,150.8L505.1,150.8z M551.9,152.2c0,0-3.5,4.6-4.5,5.6c-0.9,1.1-3.8,4.5-4.8,5.2
			c-0.9,0.8-2.9,3.7-4.3,4.6c-1.4,0.9-6,6.6-6,6.6l6,4.8c0,0,6.8,5.7,7.3,6.2c4.3,3.5,6.8,6.8,9.7,10.3c1.4-1.2,2-2.3,3.5-5.4
			c0.6-1.1,2.5-5.9,2.6-6.9c0.2-1.1,0.8-4.8,0.8-6.2s0.2-4.5-0.6-8c-0.6-3.5-1.9-6-2.8-8.2c-0.9-2-2-3.2-2.8-4.6
			C555.3,155.5,551.9,152.2,551.9,152.2L551.9,152.2z"/>
	</g>
</g>
<g>
	<path class="st3" d="M200.2,187.7c-0.6-0.2-1.1-0.5-1.5-0.7c-0.5-0.3-0.8-0.6-1.2-0.9c-0.3-0.4-0.6-0.8-0.7-1.3s-0.3-1.1-0.3-1.8
		c0-0.9,0.1-1.6,0.4-2.3c0.3-0.7,0.7-1.2,1.2-1.6c0.5-0.4,1.2-0.8,1.9-1c0.8-0.2,1.6-0.3,2.5-0.3s1.6,0.1,2.4,0.2
		c0.7,0.2,1.5,0.4,2.3,0.7c-0.1,1-0.4,1.9-0.8,2.9c-0.3-0.1-0.5-0.2-0.8-0.3s-0.5-0.2-0.8-0.3s-0.6-0.1-1-0.2
		c-0.4,0-0.8-0.1-1.3-0.1c-0.3,0-0.6,0-0.9,0.1c-0.3,0.1-0.6,0.1-0.8,0.3c-0.2,0.1-0.4,0.3-0.6,0.6c-0.2,0.3-0.2,0.6-0.2,1
		c0,0.3,0.1,0.6,0.2,0.8c0.1,0.2,0.3,0.4,0.5,0.6c0.2,0.2,0.4,0.3,0.7,0.4c0.3,0.1,0.5,0.2,0.8,0.3l1.5,0.6c0.6,0.3,1.2,0.5,1.7,0.8
		s1,0.6,1.3,1c0.4,0.4,0.6,0.9,0.8,1.4c0.2,0.6,0.3,1.2,0.3,2.1c0,0.9-0.2,1.6-0.5,2.3s-0.8,1.3-1.3,1.8c-0.6,0.5-1.3,0.9-2.2,1.2
		s-1.8,0.4-3,0.4c-0.6,0-1,0-1.5-0.1c-0.4,0-0.8-0.1-1.2-0.2c-0.4-0.1-0.8-0.2-1.2-0.3s-0.8-0.3-1.2-0.4c0.1-0.5,0.1-1,0.3-1.5
		c0.1-0.5,0.3-1.1,0.5-1.6c0.7,0.3,1.4,0.5,2,0.6s1.3,0.2,2,0.2c1.1,0,1.9-0.2,2.5-0.6c0.6-0.4,0.9-1,0.9-1.8c0-0.4-0.1-0.7-0.2-1
		c-0.1-0.3-0.3-0.5-0.6-0.7c-0.2-0.2-0.5-0.3-0.8-0.5c-0.3-0.1-0.6-0.2-0.9-0.4L200.2,187.7z"/>
	<path class="st3" d="M211.4,185.8h-1.7c-0.1-0.2-0.1-0.4-0.1-0.7c0-0.2,0-0.5,0-0.7c0-0.5,0.1-0.9,0.2-1.3h5.2V196
		c-0.6,0.1-1.2,0.2-1.8,0.2s-1.1-0.1-1.7-0.2L211.4,185.8L211.4,185.8z M210.9,180.9c-0.1-0.6-0.2-1.1-0.2-1.7
		c0-0.5,0.1-1.1,0.2-1.7c0.3-0.1,0.6-0.1,0.9-0.1c0.3,0,0.6,0,0.9,0c0.3,0,0.6,0,0.9,0c0.3,0,0.6,0.1,0.9,0.1
		c0.1,0.3,0.1,0.6,0.1,0.8c0,0.3,0,0.6,0,0.8c0,0.3,0,0.5,0,0.8s-0.1,0.6-0.1,0.9c-0.3,0.1-0.6,0.1-0.9,0.1c-0.3,0-0.6,0-0.9,0
		c-0.3,0-0.6,0-0.9,0C211.5,181,211.1,180.9,210.9,180.9z"/>
	<path class="st3" d="M218.4,183.1c0.2-0.1,0.5-0.1,0.7-0.1s0.5,0,0.8,0s0.5,0,0.8,0c0.2,0,0.4,0.1,0.7,0.1c0.1,0.1,0.1,0.2,0.1,0.4
		s0.1,0.3,0.1,0.5s0.1,0.3,0.1,0.5s0,0.3,0.1,0.4c0.1-0.3,0.3-0.5,0.5-0.8s0.5-0.5,0.8-0.7s0.6-0.4,1-0.5s0.8-0.2,1.3-0.2
		c2,0,3.3,0.8,3.9,2.3c0.3-0.6,0.8-1.2,1.4-1.6c0.6-0.5,1.4-0.7,2.3-0.7c1.5,0,2.6,0.4,3.2,1.2c0.7,0.8,1,2.1,1,3.8v8.2
		c-0.6,0.1-1.2,0.2-1.8,0.2s-1.2-0.1-1.8-0.2v-7.3c0-0.9-0.1-1.6-0.3-2.1s-0.7-0.7-1.4-0.7c-0.3,0-0.6,0-0.8,0.1
		c-0.3,0.1-0.5,0.2-0.8,0.5c-0.2,0.2-0.4,0.5-0.6,1c-0.1,0.4-0.2,0.9-0.2,1.6v7c-0.6,0.1-1.2,0.2-1.8,0.2s-1.2-0.1-1.8-0.2v-7.3
		c0-0.9-0.1-1.6-0.3-2.1s-0.7-0.7-1.4-0.7c-0.3,0-0.6,0-0.9,0.1c-0.3,0.1-0.5,0.2-0.8,0.5c-0.2,0.2-0.4,0.6-0.5,1s-0.2,1-0.2,1.7
		v6.8c-0.6,0.1-1.2,0.2-1.8,0.2s-1.2-0.1-1.8-0.2v-12.9H218.4z"/>
	<path class="st3" d="M240.2,183.1c0.6-0.1,1.2-0.2,1.8-0.2s1.2,0.1,1.8,0.2v6.9c0,0.7,0.1,1.2,0.2,1.7c0.1,0.4,0.3,0.8,0.5,1.1
		s0.5,0.4,0.8,0.6c0.3,0.1,0.7,0.2,1.2,0.2c0.6,0,1.1-0.1,1.6-0.2v-10.1c0.6-0.1,1.2-0.2,1.8-0.2s1.2,0.1,1.8,0.2v12.4
		c-0.5,0.2-1.2,0.4-2.1,0.5c-0.9,0.2-1.8,0.3-2.7,0.3s-1.7-0.1-2.5-0.2c-0.8-0.1-1.5-0.4-2.1-0.9c-0.6-0.4-1.1-1.1-1.4-1.9
		s-0.5-1.9-0.5-3.3v-7.1H240.2z"/>
	<path class="st3" d="M254.6,177.7c0.6-0.1,1.2-0.2,1.8-0.2c0.6,0,1.2,0.1,1.8,0.2v13.1c0,0.5,0,0.9,0.1,1.3
		c0.1,0.3,0.2,0.6,0.3,0.7c0.1,0.2,0.3,0.3,0.5,0.4c0.2,0.1,0.5,0.1,0.8,0.1c0.1,0,0.3,0,0.4,0c0.2,0,0.3,0,0.5-0.1
		c0.2,0.7,0.3,1.4,0.3,2c0,0.1,0,0.3,0,0.4c0,0.1,0,0.2-0.1,0.4c-0.3,0.1-0.6,0.1-1,0.2c-0.4,0-0.7,0.1-1,0.1
		c-1.3,0-2.3-0.4-3.1-1.1c-0.8-0.7-1.2-1.9-1.2-3.5L254.6,177.7L254.6,177.7z"/>
	<path class="st3" d="M269.3,187.5c0-0.4-0.1-0.7-0.2-1s-0.3-0.4-0.6-0.6c-0.2-0.1-0.5-0.2-0.9-0.3c-0.3-0.1-0.7-0.1-1.1-0.1
		c-0.9,0-1.9,0.2-2.9,0.5c-0.2-0.4-0.4-0.8-0.5-1.2s-0.2-0.8-0.2-1.4c0.7-0.3,1.5-0.4,2.2-0.6c0.7-0.1,1.4-0.2,2.1-0.2
		c1.7,0,3.1,0.4,4.1,1.3c1,0.8,1.5,2.2,1.5,4v7.5c-0.6,0.2-1.3,0.4-2.1,0.5c-0.8,0.2-1.8,0.3-2.8,0.3c-0.9,0-1.6-0.1-2.3-0.2
		c-0.7-0.2-1.3-0.4-1.8-0.8c-0.5-0.4-0.9-0.8-1.2-1.4c-0.3-0.6-0.4-1.2-0.4-2s0.2-1.5,0.5-2s0.8-1,1.3-1.3s1.1-0.6,1.8-0.7
		c0.7-0.1,1.3-0.2,2-0.2c0.5,0,1,0,1.6,0.1v-0.2H269.3z M269.3,190.1c-0.2,0-0.4-0.1-0.7-0.1c-0.2,0-0.4,0-0.6,0
		c-0.8,0-1.5,0.1-1.9,0.4c-0.5,0.3-0.7,0.8-0.7,1.4c0,0.4,0.1,0.8,0.3,1c0.2,0.2,0.4,0.4,0.7,0.5c0.3,0.1,0.5,0.2,0.8,0.2
		s0.5,0,0.8,0s0.5,0,0.8-0.1c0.3,0,0.5-0.1,0.7-0.1v-3.2H269.3z"/>
	<path class="st3" d="M284.6,192.9c0.2,0.3,0.4,0.7,0.5,1.2c0.1,0.4,0.2,1,0.2,1.6c-0.7,0.3-1.3,0.4-1.9,0.5s-1.2,0.1-1.8,0.1
		c-1.1,0-2-0.2-2.8-0.5s-1.5-0.8-2-1.4c-0.5-0.6-0.9-1.3-1.2-2.1c-0.3-0.8-0.4-1.7-0.4-2.7s0.1-1.8,0.4-2.7c0.3-0.8,0.7-1.5,1.2-2.2
		c0.5-0.6,1.2-1.1,2-1.5s1.7-0.5,2.7-0.5c0.4,0,0.7,0,1,0s0.6,0.1,0.9,0.1c0.3,0.1,0.6,0.1,0.9,0.2c0.3,0.1,0.6,0.2,1,0.3
		c0,0.4-0.1,0.8-0.2,1.3s-0.3,0.9-0.5,1.4c-0.5-0.2-0.9-0.3-1.3-0.3c-0.4-0.1-0.8-0.1-1.3-0.1c-1,0-1.8,0.3-2.3,1s-0.8,1.6-0.8,2.9
		c0,1.4,0.3,2.3,0.9,3c0.6,0.6,1.3,0.9,2.3,0.9c0.3,0,0.5,0,0.7,0s0.4,0,0.6-0.1c0.2,0,0.4-0.1,0.6-0.2
		C284.1,193.1,284.3,193,284.6,192.9z"/>
	<path class="st3" d="M288.5,185.8h-1.7c-0.1-0.2-0.1-0.4-0.1-0.7c0-0.2,0-0.5,0-0.7c0-0.5,0.1-0.9,0.2-1.3h5.2V196
		c-0.6,0.1-1.2,0.2-1.8,0.2c-0.6,0-1.1-0.1-1.7-0.2v-10.2H288.5z M288,180.9c-0.1-0.6-0.2-1.1-0.2-1.7c0-0.5,0.1-1.1,0.2-1.7
		c0.3-0.1,0.6-0.1,0.9-0.1s0.6,0,0.9,0s0.6,0,0.9,0s0.6,0.1,0.9,0.1c0.1,0.3,0.1,0.6,0.1,0.8c0,0.3,0,0.6,0,0.8c0,0.3,0,0.5,0,0.8
		s-0.1,0.6-0.1,0.9c-0.3,0.1-0.6,0.1-0.9,0.1s-0.6,0-0.9,0s-0.6,0-0.9,0C288.6,181,288.3,180.9,288,180.9z"/>
	<path class="st3" d="M301,196.3c-1.1,0-2-0.2-2.7-0.5c-0.8-0.3-1.4-0.8-1.9-1.4c-0.5-0.6-0.9-1.3-1.2-2.1c-0.3-0.8-0.4-1.7-0.4-2.7
		s0.1-1.8,0.4-2.7c0.3-0.8,0.6-1.6,1.2-2.2c0.5-0.6,1.2-1.1,1.9-1.4s1.7-0.5,2.7-0.5c1.1,0,2,0.2,2.8,0.5c0.8,0.4,1.4,0.8,2,1.4
		c0.5,0.6,0.9,1.3,1.2,2.2c0.3,0.8,0.4,1.7,0.4,2.7s-0.1,1.8-0.4,2.7c-0.3,0.8-0.6,1.5-1.2,2.1c-0.5,0.6-1.2,1.1-2,1.4
		C302.9,196.1,302,196.3,301,196.3z M301,193.6c0.9,0,1.6-0.3,2-1s0.6-1.7,0.6-3s-0.2-2.3-0.6-3s-1.1-1-2-1s-1.6,0.3-2,1
		s-0.6,1.7-0.6,3s0.2,2.3,0.6,3C299.4,193.2,300,193.6,301,193.6z M301.2,178c0.7-0.1,1.4-0.2,2.3-0.2c0.4,0,0.8,0,1.1,0
		c0.3,0,0.6,0.1,1,0.1l-3.8,3.1c-0.2,0-0.5,0.1-0.8,0.1s-0.6,0.1-1,0.1c-0.5,0-1.1-0.1-1.6-0.2L301.2,178z"/>
	<path class="st3" d="M310,183.1c0.2-0.1,0.5-0.1,0.7-0.1s0.5,0,0.8,0s0.5,0,0.8,0c0.2,0,0.4,0.1,0.7,0.1c0.1,0.1,0.1,0.2,0.1,0.4
		s0.1,0.3,0.1,0.5s0.1,0.3,0.1,0.5s0,0.3,0.1,0.4c0.2-0.3,0.4-0.5,0.6-0.8s0.5-0.5,0.8-0.7s0.7-0.4,1-0.5c0.4-0.1,0.8-0.2,1.3-0.2
		c1.5,0,2.6,0.4,3.3,1.2c0.7,0.8,1.1,2.1,1.1,3.8v8.3c-0.6,0.1-1.2,0.2-1.8,0.2c-0.6,0-1.2-0.1-1.8-0.2v-7.3c0-0.9-0.1-1.6-0.4-2.1
		s-0.8-0.7-1.4-0.7c-0.3,0-0.6,0-0.9,0.1s-0.6,0.2-0.8,0.5c-0.2,0.2-0.4,0.6-0.6,1s-0.2,1-0.2,1.7v6.8c-0.6,0.1-1.2,0.2-1.8,0.2
		c-0.6,0-1.2-0.1-1.8-0.2L310,183.1L310,183.1z"/>
	<path class="st3" d="M328.7,183.1c0.4-0.1,0.7-0.1,1-0.1s0.6,0,0.8,0c0.3,0,0.7,0,1,0c0.4,0,0.7,0.1,1,0.1l2.7,11.3l3.1-11.3
		c0.6-0.1,1.1-0.2,1.7-0.2c0.3,0,0.5,0,0.8,0s0.6,0.1,1.1,0.1l-4.8,16c-0.2,0.6-0.4,1.2-0.7,1.6c-0.3,0.4-0.6,0.7-0.9,1
		c-0.4,0.2-0.7,0.4-1.2,0.5c-0.4,0.1-0.9,0.1-1.4,0.1s-0.9,0-1.3-0.1s-0.7-0.1-1.1-0.2c0-0.1,0-0.2,0-0.2s0-0.1,0-0.2
		c0-0.4,0-0.8,0.1-1.1c0.1-0.4,0.2-0.7,0.3-1c0.2,0.1,0.4,0.1,0.6,0.1c0.3,0,0.5,0.1,0.8,0.1c0.2,0,0.4,0,0.6,0s0.4-0.1,0.6-0.2
		c0.2-0.1,0.4-0.3,0.5-0.6c0.2-0.3,0.3-0.6,0.5-1.1l0.4-1.6c-0.2,0-0.4,0-0.6,0s-0.5,0-0.7,0s-0.4,0-0.5,0c-0.2,0-0.3,0-0.5-0.1
		L328.7,183.1z"/>
	<path class="st3" d="M130.8,213.1c0.2-0.1,0.5-0.1,0.7-0.1s0.5,0,0.8,0s0.5,0,0.8,0c0.2,0,0.4,0.1,0.7,0.1c0.1,0.1,0.1,0.2,0.1,0.4
		s0.1,0.3,0.1,0.5s0.1,0.3,0.1,0.5s0,0.3,0.1,0.4c0.1-0.3,0.3-0.5,0.5-0.8s0.5-0.5,0.8-0.7s0.6-0.4,1-0.5s0.8-0.2,1.3-0.2
		c2,0,3.3,0.8,3.9,2.3c0.3-0.6,0.8-1.2,1.4-1.6c0.6-0.5,1.4-0.7,2.3-0.7c1.5,0,2.6,0.4,3.2,1.2c0.7,0.8,1,2.1,1,3.8v8.2
		c-0.6,0.1-1.2,0.2-1.8,0.2s-1.2-0.1-1.8-0.2v-7.3c0-0.9-0.1-1.6-0.3-2.1s-0.7-0.7-1.4-0.7c-0.3,0-0.6,0-0.8,0.1
		c-0.3,0.1-0.5,0.2-0.8,0.5c-0.2,0.2-0.4,0.5-0.6,1c-0.1,0.4-0.2,0.9-0.2,1.6v7c-0.6,0.1-1.2,0.2-1.8,0.2s-1.2-0.1-1.8-0.2v-7.3
		c0-0.9-0.1-1.6-0.3-2.1s-0.7-0.7-1.4-0.7c-0.3,0-0.6,0-0.9,0.1c-0.3,0.1-0.5,0.2-0.8,0.5c-0.2,0.2-0.4,0.6-0.5,1s-0.2,1-0.2,1.7
		v6.8c-0.6,0.1-1.2,0.2-1.8,0.2s-1.2-0.1-1.8-0.2v-12.9H130.8z"/>
	<path class="st3" d="M158.3,226.4c-1.1,0-2-0.2-2.7-0.5c-0.8-0.3-1.4-0.8-1.9-1.4c-0.5-0.6-0.9-1.3-1.2-2.1s-0.4-1.7-0.4-2.7
		s0.1-1.8,0.4-2.7c0.3-0.8,0.6-1.6,1.2-2.2c0.5-0.6,1.2-1.1,1.9-1.4s1.7-0.5,2.7-0.5c1.1,0,2,0.2,2.8,0.5s1.4,0.8,2,1.4
		c0.5,0.6,0.9,1.3,1.2,2.2c0.3,0.8,0.4,1.7,0.4,2.7s-0.1,1.8-0.4,2.7c-0.3,0.8-0.6,1.5-1.2,2.1c-0.5,0.6-1.2,1.1-2,1.4
		C160.3,226.2,159.4,226.4,158.3,226.4z M158.3,223.7c0.9,0,1.6-0.3,2-1s0.6-1.7,0.6-3s-0.2-2.3-0.6-3c-0.4-0.7-1.1-1-2-1
		s-1.6,0.3-2,1s-0.6,1.7-0.6,3s0.2,2.3,0.6,3C156.7,223.3,157.4,223.7,158.3,223.7z"/>
	<path class="st3" d="M175.1,207.7c0.3-0.1,0.6-0.1,0.9-0.1c0.3,0,0.6,0,0.9,0c0.3,0,0.6,0,0.9,0c0.3,0,0.6,0.1,0.9,0.1v17.9
		c-0.8,0.2-1.6,0.4-2.4,0.5c-0.8,0.1-1.8,0.2-2.9,0.2c-0.9,0-1.7-0.1-2.5-0.4c-0.8-0.2-1.5-0.6-2.1-1.2c-0.6-0.5-1.1-1.2-1.5-2
		s-0.5-1.9-0.5-3.1c0-1,0.2-1.8,0.5-2.7c0.3-0.8,0.8-1.6,1.3-2.2c0.6-0.6,1.3-1.1,2.1-1.5s1.7-0.5,2.7-0.5c0.3,0,0.6,0,0.9,0
		c0.3,0,0.6,0.1,0.9,0.2L175.1,207.7L175.1,207.7z M175.1,215.8c-0.3-0.1-0.6-0.1-0.8-0.2c-0.2,0-0.5,0-0.8,0c-0.6,0-1,0.1-1.4,0.3
		s-0.7,0.5-1,0.9s-0.5,0.8-0.6,1.3s-0.2,1-0.2,1.6c0,0.7,0.1,1.3,0.3,1.7c0.2,0.5,0.4,0.9,0.7,1.1c0.3,0.3,0.6,0.5,1,0.6
		s0.8,0.2,1.3,0.2c0.3,0,0.5,0,0.8,0c0.2,0,0.5-0.1,0.8-0.2v-7.3H175.1z"/>
	<path class="st3" d="M184.9,220.7c0.1,1,0.4,1.7,1.1,2.2c0.6,0.5,1.5,0.7,2.5,0.7c0.6,0,1.1-0.1,1.7-0.2c0.6-0.1,1.2-0.3,1.7-0.5
		c0.2,0.3,0.3,0.7,0.5,1.2c0.1,0.5,0.2,1,0.2,1.5c-1.3,0.5-2.8,0.8-4.4,0.8c-1.2,0-2.2-0.2-3.1-0.5c-0.9-0.3-1.6-0.8-2.1-1.4
		c-0.5-0.6-0.9-1.3-1.2-2.1s-0.4-1.7-0.4-2.7s0.1-1.8,0.4-2.7c0.3-0.8,0.7-1.6,1.2-2.2c0.5-0.6,1.2-1.1,2-1.5s1.7-0.5,2.7-0.5
		c0.9,0,1.7,0.2,2.4,0.5s1.3,0.8,1.8,1.3c0.5,0.6,0.9,1.2,1.1,2c0.3,0.8,0.4,1.6,0.4,2.4c0,0.3,0,0.6,0,0.9c0,0.3-0.1,0.6-0.1,0.7
		h-8.4V220.7z M190,218.2c0-0.8-0.3-1.4-0.7-1.9s-1-0.7-1.7-0.7c-0.8,0-1.5,0.2-1.9,0.7s-0.7,1.1-0.8,2h5.1V218.2z"/>
	<path class="st3" d="M196.1,207.7c0.6-0.1,1.2-0.2,1.8-0.2s1.2,0.1,1.8,0.2v13.1c0,0.5,0,0.9,0.1,1.3c0.1,0.3,0.2,0.6,0.3,0.7
		c0.1,0.2,0.3,0.3,0.5,0.4c0.2,0.1,0.5,0.1,0.8,0.1c0.1,0,0.3,0,0.4,0c0.2,0,0.3,0,0.5-0.1c0.2,0.7,0.3,1.4,0.3,2c0,0.1,0,0.3,0,0.4
		s0,0.2-0.1,0.4c-0.3,0.1-0.6,0.1-1,0.2c-0.4,0-0.7,0.1-1,0.1c-1.3,0-2.3-0.4-3.1-1.1c-0.8-0.7-1.2-1.9-1.2-3.5v-14H196.1z"/>
	<path class="st3" d="M210.7,217.5c0-0.4-0.1-0.7-0.2-1c-0.1-0.3-0.3-0.4-0.6-0.6c-0.2-0.1-0.5-0.2-0.9-0.3
		c-0.3-0.1-0.7-0.1-1.1-0.1c-0.9,0-1.9,0.2-2.9,0.5c-0.2-0.4-0.4-0.8-0.5-1.2s-0.2-0.8-0.2-1.4c0.7-0.3,1.5-0.4,2.2-0.6
		c0.7-0.1,1.4-0.2,2.1-0.2c1.7,0,3.1,0.4,4.1,1.3c1,0.8,1.5,2.2,1.5,4v7.5c-0.6,0.2-1.3,0.4-2.1,0.5c-0.8,0.2-1.8,0.3-2.8,0.3
		c-0.9,0-1.6-0.1-2.3-0.2c-0.7-0.2-1.3-0.4-1.8-0.8c-0.5-0.4-0.9-0.8-1.2-1.4c-0.3-0.6-0.4-1.2-0.4-2s0.2-1.5,0.5-2s0.8-1,1.3-1.3
		s1.1-0.6,1.8-0.7c0.7-0.1,1.3-0.2,2-0.2c0.5,0,1,0,1.6,0.1v-0.2H210.7z M210.7,220.1c-0.2,0-0.4-0.1-0.7-0.1c-0.2,0-0.4,0-0.6,0
		c-0.8,0-1.5,0.1-1.9,0.4c-0.5,0.3-0.7,0.8-0.7,1.4c0,0.4,0.1,0.8,0.3,1s0.4,0.4,0.7,0.5s0.5,0.2,0.8,0.2s0.5,0,0.8,0s0.5,0,0.8-0.1
		c0.3,0,0.5-0.1,0.7-0.1v-3.2H210.7z"/>
	<path class="st3" d="M226,223c0.2,0.3,0.4,0.7,0.5,1.2c0.1,0.4,0.2,1,0.2,1.6c-0.7,0.3-1.3,0.4-1.9,0.5c-0.6,0.1-1.2,0.1-1.8,0.1
		c-1.1,0-2-0.2-2.8-0.5s-1.5-0.8-2-1.4c-0.5-0.6-0.9-1.3-1.2-2.1s-0.4-1.7-0.4-2.7s0.1-1.8,0.4-2.7c0.3-0.8,0.7-1.5,1.2-2.2
		c0.5-0.6,1.2-1.1,2-1.5s1.7-0.5,2.7-0.5c0.4,0,0.7,0,1,0s0.6,0.1,0.9,0.1c0.3,0.1,0.6,0.1,0.9,0.2c0.3,0.1,0.6,0.2,1,0.3
		c0,0.4-0.1,0.8-0.2,1.3s-0.3,0.9-0.5,1.4c-0.5-0.2-0.9-0.3-1.3-0.3c-0.4-0.1-0.8-0.1-1.3-0.1c-1,0-1.8,0.3-2.3,1s-0.8,1.6-0.8,2.9
		c0,1.4,0.3,2.3,0.9,3c0.6,0.6,1.3,0.9,2.3,0.9c0.3,0,0.5,0,0.7,0s0.4,0,0.6-0.1c0.2,0,0.4-0.1,0.6-0.2
		C225.5,223.2,225.8,223.1,226,223z"/>
	<path class="st3" d="M230,215.8h-1.7c-0.1-0.2-0.1-0.4-0.1-0.7c0-0.2,0-0.5,0-0.7c0-0.5,0.1-0.9,0.2-1.3h5.2V226
		c-0.6,0.1-1.2,0.2-1.8,0.2s-1.1-0.1-1.7-0.2L230,215.8L230,215.8z M229.4,210.9c-0.1-0.6-0.2-1.1-0.2-1.7c0-0.5,0.1-1.1,0.2-1.7
		c0.3-0.1,0.6-0.1,0.9-0.1c0.3,0,0.6,0,0.9,0c0.3,0,0.6,0,0.9,0c0.3,0,0.6,0.1,0.9,0.1c0.1,0.3,0.1,0.6,0.1,0.8c0,0.3,0,0.6,0,0.8
		c0,0.3,0,0.5,0,0.8s-0.1,0.6-0.1,0.9c-0.3,0.1-0.6,0.1-0.9,0.1c-0.3,0-0.6,0-0.9,0c-0.3,0-0.6,0-0.9,0
		C230,211,229.7,211,229.4,210.9z"/>
	<path class="st3" d="M242.4,226.4c-1.1,0-2-0.2-2.7-0.5c-0.8-0.3-1.4-0.8-1.9-1.4c-0.5-0.6-0.9-1.3-1.2-2.1s-0.4-1.7-0.4-2.7
		s0.1-1.8,0.4-2.7c0.3-0.8,0.6-1.6,1.2-2.2c0.5-0.6,1.2-1.1,1.9-1.4s1.7-0.5,2.7-0.5c1.1,0,2,0.2,2.8,0.5s1.4,0.8,2,1.4
		c0.5,0.6,0.9,1.3,1.2,2.2c0.3,0.8,0.4,1.7,0.4,2.7s-0.1,1.8-0.4,2.7c-0.3,0.8-0.6,1.5-1.2,2.1c-0.5,0.6-1.2,1.1-2,1.4
		C244.4,226.2,243.5,226.4,242.4,226.4z M242.4,223.7c0.9,0,1.6-0.3,2-1s0.6-1.7,0.6-3s-0.2-2.3-0.6-3c-0.4-0.7-1.1-1-2-1
		s-1.6,0.3-2,1s-0.6,1.7-0.6,3s0.2,2.3,0.6,3C240.8,223.3,241.5,223.7,242.4,223.7z M242.7,208c0.7-0.1,1.4-0.2,2.3-0.2
		c0.4,0,0.8,0,1.1,0s0.6,0.1,1,0.1l-3.8,3.1c-0.2,0-0.5,0.1-0.8,0.1s-0.6,0.1-1,0.1c-0.5,0-1.1-0.1-1.6-0.2L242.7,208z"/>
	<path class="st3" d="M251.5,213.1c0.2-0.1,0.5-0.1,0.7-0.1s0.5,0,0.8,0s0.5,0,0.8,0c0.2,0,0.4,0.1,0.7,0.1c0.1,0.1,0.1,0.2,0.1,0.4
		s0.1,0.3,0.1,0.5s0.1,0.3,0.1,0.5s0,0.3,0.1,0.4c0.2-0.3,0.4-0.5,0.6-0.8c0.2-0.3,0.5-0.5,0.8-0.7s0.7-0.4,1-0.5
		c0.4-0.1,0.8-0.2,1.3-0.2c1.5,0,2.6,0.4,3.3,1.2c0.7,0.8,1.1,2.1,1.1,3.8v8.3c-0.6,0.1-1.2,0.2-1.8,0.2c-0.6,0-1.2-0.1-1.8-0.2
		v-7.3c0-0.9-0.1-1.6-0.4-2.1s-0.8-0.7-1.4-0.7c-0.3,0-0.6,0-0.9,0.1s-0.6,0.2-0.8,0.5c-0.2,0.2-0.4,0.6-0.6,1
		c-0.2,0.4-0.2,1-0.2,1.7v6.8c-0.6,0.1-1.2,0.2-1.8,0.2s-1.2-0.1-1.8-0.2L251.5,213.1L251.5,213.1z"/>
	<path class="st3" d="M274.5,220.7c0.1,1,0.4,1.7,1.1,2.2c0.6,0.5,1.5,0.7,2.5,0.7c0.6,0,1.1-0.1,1.7-0.2c0.6-0.1,1.2-0.3,1.7-0.5
		c0.2,0.3,0.3,0.7,0.5,1.2c0.1,0.5,0.2,1,0.2,1.5c-1.3,0.5-2.8,0.8-4.4,0.8c-1.2,0-2.2-0.2-3.1-0.5s-1.6-0.8-2.1-1.4
		c-0.5-0.6-0.9-1.3-1.2-2.1c-0.3-0.8-0.4-1.7-0.4-2.7s0.1-1.8,0.4-2.7c0.3-0.8,0.7-1.6,1.2-2.2c0.5-0.6,1.2-1.1,2-1.5
		s1.7-0.5,2.7-0.5c0.9,0,1.7,0.2,2.4,0.5c0.7,0.3,1.3,0.8,1.8,1.3c0.5,0.6,0.9,1.2,1.1,2c0.3,0.8,0.4,1.6,0.4,2.4c0,0.3,0,0.6,0,0.9
		c0,0.3-0.1,0.6-0.1,0.7h-8.4V220.7z M279.6,218.2c0-0.8-0.3-1.4-0.7-1.9c-0.4-0.5-1-0.7-1.7-0.7c-0.8,0-1.5,0.2-1.9,0.7
		s-0.7,1.1-0.8,2h5.1V218.2z"/>
	<path class="st3" d="M285.8,213.1c0.2-0.1,0.5-0.1,0.7-0.1s0.5,0,0.8,0s0.5,0,0.8,0c0.2,0,0.4,0.1,0.7,0.1c0.1,0.1,0.1,0.2,0.1,0.4
		s0.1,0.3,0.1,0.5s0.1,0.3,0.1,0.5s0,0.3,0.1,0.4c0.1-0.3,0.3-0.5,0.5-0.8s0.5-0.5,0.8-0.7s0.6-0.4,1-0.5s0.8-0.2,1.3-0.2
		c2,0,3.3,0.8,3.9,2.3c0.3-0.6,0.8-1.2,1.4-1.6c0.6-0.5,1.4-0.7,2.3-0.7c1.5,0,2.6,0.4,3.2,1.2c0.7,0.8,1,2.1,1,3.8v8.2
		c-0.6,0.1-1.2,0.2-1.8,0.2c-0.6,0-1.2-0.1-1.8-0.2v-7.3c0-0.9-0.1-1.6-0.3-2.1c-0.2-0.5-0.7-0.7-1.4-0.7c-0.3,0-0.6,0-0.8,0.1
		c-0.3,0.1-0.5,0.2-0.8,0.5c-0.2,0.2-0.4,0.5-0.6,1c-0.1,0.4-0.2,0.9-0.2,1.6v7c-0.6,0.1-1.2,0.2-1.8,0.2c-0.6,0-1.2-0.1-1.8-0.2
		v-7.3c0-0.9-0.1-1.6-0.3-2.1c-0.2-0.5-0.7-0.7-1.4-0.7c-0.3,0-0.6,0-0.9,0.1s-0.5,0.2-0.8,0.5c-0.2,0.2-0.4,0.6-0.5,1
		s-0.2,1-0.2,1.7v6.8c-0.6,0.1-1.2,0.2-1.8,0.2c-0.6,0-1.2-0.1-1.8-0.2v-12.9H285.8z"/>
	<path class="st3" d="M307.7,213.1c0.2-0.1,0.5-0.1,0.7-0.1s0.5,0,0.8,0c0.5,0,0.9,0.1,1.4,0.2c0.1,0.1,0.1,0.2,0.1,0.4
		s0.1,0.3,0.1,0.5s0.1,0.4,0.1,0.5c0,0.2,0,0.3,0.1,0.4c0.2-0.3,0.3-0.5,0.6-0.8c0.2-0.3,0.5-0.5,0.8-0.7s0.7-0.4,1-0.5
		c0.4-0.1,0.8-0.2,1.3-0.2c0.7,0,1.4,0.1,2,0.4c0.6,0.3,1.2,0.7,1.6,1.2c0.5,0.5,0.8,1.2,1.1,2c0.3,0.8,0.4,1.8,0.4,2.9
		c0,1.1-0.2,2.1-0.5,2.9c-0.3,0.9-0.8,1.6-1.4,2.2s-1.3,1.1-2.2,1.4c-0.9,0.3-1.9,0.5-3,0.5c-0.3,0-0.6,0-0.8,0
		c-0.3,0-0.5-0.1-0.7-0.1v5.8c-0.3,0.1-0.6,0.1-0.9,0.1s-0.6,0-0.9,0s-0.6,0-0.9,0s-0.6-0.1-0.9-0.1L307.7,213.1L307.7,213.1z
		 M311.2,223.3c0.5,0.1,1,0.2,1.6,0.2c1,0,1.8-0.3,2.4-1s0.8-1.7,0.8-3c0-0.5,0-1-0.1-1.4s-0.2-0.8-0.4-1.1
		c-0.2-0.3-0.5-0.6-0.8-0.8s-0.7-0.3-1.1-0.3s-0.8,0.1-1.1,0.2c-0.3,0.2-0.5,0.4-0.7,0.7s-0.3,0.6-0.4,1s-0.1,0.8-0.1,1.2
		L311.2,223.3L311.2,223.3z"/>
	<path class="st3" d="M322.6,213.1c0.3-0.1,0.5-0.1,0.7-0.1s0.5,0,0.7,0c0.3,0,0.5,0,0.7,0.1c0.2,0,0.5,0.1,0.7,0.1
		c0.1,0.1,0.1,0.2,0.1,0.4s0.1,0.3,0.1,0.5s0.1,0.4,0.1,0.5c0,0.2,0,0.3,0.1,0.4c0.4-0.5,0.8-1,1.4-1.4c0.5-0.4,1.2-0.6,2-0.6
		c0.2,0,0.4,0,0.6,0s0.4,0,0.5,0.1c0,0.2,0.1,0.4,0.1,0.6c0,0.2,0,0.4,0,0.7s0,0.6,0,0.9c0,0.3-0.1,0.7-0.1,1
		c-0.2,0-0.4-0.1-0.6-0.1s-0.4,0-0.4,0c-0.3,0-0.6,0-1,0.1s-0.7,0.2-1,0.5s-0.6,0.6-0.8,1.1c-0.2,0.5-0.3,1.2-0.3,2.1v6.2
		c-0.3,0.1-0.6,0.1-0.9,0.1s-0.6,0-0.9,0s-0.6,0-0.9,0s-0.6-0.1-0.9-0.1L322.6,213.1L322.6,213.1z"/>
	<path class="st3" d="M335.1,220.7c0.1,1,0.4,1.7,1.1,2.2c0.6,0.5,1.5,0.7,2.5,0.7c0.6,0,1.1-0.1,1.7-0.2c0.6-0.1,1.2-0.3,1.7-0.5
		c0.2,0.3,0.3,0.7,0.5,1.2c0.1,0.5,0.2,1,0.2,1.5c-1.3,0.5-2.8,0.8-4.4,0.8c-1.2,0-2.2-0.2-3.1-0.5s-1.6-0.8-2.1-1.4
		c-0.5-0.6-0.9-1.3-1.2-2.1c-0.3-0.8-0.4-1.7-0.4-2.7s0.1-1.8,0.4-2.7c0.3-0.8,0.7-1.6,1.2-2.2c0.5-0.6,1.2-1.1,2-1.5
		s1.7-0.5,2.7-0.5c0.9,0,1.7,0.2,2.4,0.5c0.7,0.3,1.3,0.8,1.8,1.3c0.5,0.6,0.9,1.2,1.1,2c0.3,0.8,0.4,1.6,0.4,2.4c0,0.3,0,0.6,0,0.9
		c0,0.3-0.1,0.6-0.1,0.7h-8.4V220.7z M340.2,218.2c0-0.8-0.3-1.4-0.7-1.9c-0.4-0.5-1-0.7-1.7-0.7c-0.8,0-1.5,0.2-1.9,0.7
		s-0.7,1.1-0.8,2h5.1V218.2z"/>
	<path class="st3" d="M348.8,220.4c-0.9-0.3-1.7-0.7-2.2-1.2s-0.8-1.3-0.8-2.4c0-1.3,0.5-2.3,1.4-3s2.1-1.1,3.7-1.1
		c0.7,0,1.3,0.1,1.9,0.2c0.6,0.1,1.3,0.3,1.9,0.5c0,0.4-0.1,0.9-0.3,1.4c-0.1,0.5-0.3,0.9-0.5,1.2c-0.4-0.2-0.8-0.3-1.3-0.4
		c-0.5-0.1-1-0.2-1.5-0.2c-0.6,0-1,0.1-1.3,0.3s-0.5,0.5-0.5,0.8c0,0.4,0.1,0.6,0.3,0.8c0.2,0.2,0.5,0.3,1,0.4l1.4,0.4
		c0.5,0.1,0.9,0.3,1.3,0.5s0.7,0.4,1,0.7s0.5,0.6,0.6,1.1c0.2,0.4,0.2,0.9,0.2,1.5s-0.1,1.2-0.4,1.7s-0.6,1-1.1,1.4
		s-1.1,0.7-1.8,0.9c-0.7,0.2-1.5,0.3-2.4,0.3c-0.4,0-0.8,0-1.1,0c-0.3,0-0.7-0.1-1-0.1c-0.3-0.1-0.6-0.1-0.9-0.2
		c-0.3-0.1-0.6-0.2-1-0.3c0-0.5,0.1-0.9,0.2-1.4s0.3-0.9,0.5-1.3c0.6,0.2,1.1,0.4,1.6,0.5s1,0.2,1.5,0.2c0.2,0,0.5,0,0.8-0.1
		c0.3,0,0.5-0.1,0.8-0.2c0.2-0.1,0.4-0.3,0.6-0.4c0.2-0.2,0.2-0.4,0.2-0.7c0-0.4-0.1-0.7-0.4-0.9c-0.2-0.2-0.6-0.3-1-0.5
		L348.8,220.4z"/>
	<path class="st3" d="M364.3,217.5c0-0.4-0.1-0.7-0.2-1s-0.3-0.4-0.6-0.6c-0.2-0.1-0.5-0.2-0.9-0.3s-0.7-0.1-1.1-0.1
		c-0.9,0-1.9,0.2-2.9,0.5c-0.2-0.4-0.4-0.8-0.5-1.2s-0.2-0.8-0.2-1.4c0.7-0.3,1.5-0.4,2.2-0.6c0.7-0.1,1.4-0.2,2.1-0.2
		c1.7,0,3.1,0.4,4.1,1.3c1,0.8,1.5,2.2,1.5,4v7.5c-0.6,0.2-1.3,0.4-2.1,0.5c-0.8,0.2-1.8,0.3-2.8,0.3c-0.9,0-1.6-0.1-2.3-0.2
		c-0.7-0.2-1.3-0.4-1.8-0.8c-0.5-0.4-0.9-0.8-1.2-1.4c-0.3-0.6-0.4-1.2-0.4-2s0.2-1.5,0.5-2s0.8-1,1.3-1.3s1.1-0.6,1.8-0.7
		c0.7-0.1,1.3-0.2,2-0.2c0.5,0,1,0,1.6,0.1v-0.2H364.3z M364.3,220.1c-0.2,0-0.4-0.1-0.7-0.1c-0.2,0-0.4,0-0.6,0
		c-0.8,0-1.5,0.1-1.9,0.4c-0.5,0.3-0.7,0.8-0.7,1.4c0,0.4,0.1,0.8,0.3,1c0.2,0.2,0.4,0.4,0.7,0.5c0.3,0.1,0.5,0.2,0.8,0.2
		s0.5,0,0.8,0s0.5,0,0.8-0.1c0.3,0,0.5-0.1,0.7-0.1v-3.2H364.3z"/>
	<path class="st3" d="M370.9,213.1c0.3-0.1,0.5-0.1,0.7-0.1s0.5,0,0.7,0c0.3,0,0.5,0,0.7,0.1c0.2,0,0.5,0.1,0.7,0.1
		c0.1,0.1,0.1,0.2,0.1,0.4s0.1,0.3,0.1,0.5s0.1,0.4,0.1,0.5c0,0.2,0,0.3,0.1,0.4c0.4-0.5,0.8-1,1.4-1.4c0.5-0.4,1.2-0.6,2-0.6
		c0.2,0,0.4,0,0.6,0s0.4,0,0.5,0.1c0,0.2,0.1,0.4,0.1,0.6c0,0.2,0,0.4,0,0.7s0,0.6,0,0.9c0,0.3-0.1,0.7-0.1,1
		c-0.2,0-0.4-0.1-0.6-0.1s-0.4,0-0.4,0c-0.3,0-0.6,0-1,0.1s-0.7,0.2-1,0.5s-0.6,0.6-0.8,1.1s-0.3,1.2-0.3,2.1v6.2
		c-0.3,0.1-0.6,0.1-0.9,0.1s-0.6,0-0.9,0s-0.6,0-0.9,0s-0.6-0.1-0.9-0.1L370.9,213.1L370.9,213.1z"/>
	<path class="st3" d="M381.7,215.8H380c-0.1-0.2-0.1-0.4-0.1-0.7c0-0.2,0-0.5,0-0.7c0-0.5,0.1-0.9,0.2-1.3h5.2V226
		c-0.6,0.1-1.2,0.2-1.8,0.2c-0.6,0-1.1-0.1-1.7-0.2v-10.2H381.7z M381.2,210.9c-0.1-0.6-0.2-1.1-0.2-1.7c0-0.5,0.1-1.1,0.2-1.7
		c0.3-0.1,0.6-0.1,0.9-0.1s0.6,0,0.9,0s0.6,0,0.9,0s0.6,0.1,0.9,0.1c0.1,0.3,0.1,0.6,0.1,0.8c0,0.3,0,0.6,0,0.8c0,0.3,0,0.5,0,0.8
		s-0.1,0.6-0.1,0.9c-0.3,0.1-0.6,0.1-0.9,0.1s-0.6,0-0.9,0s-0.6,0-0.9,0C381.8,211,381.5,211,381.2,210.9z"/>
	<path class="st3" d="M395.1,217.5c0-0.4-0.1-0.7-0.2-1s-0.3-0.4-0.6-0.6c-0.2-0.1-0.5-0.2-0.9-0.3s-0.7-0.1-1.1-0.1
		c-0.9,0-1.9,0.2-2.9,0.5c-0.2-0.4-0.4-0.8-0.5-1.2s-0.2-0.8-0.2-1.4c0.7-0.3,1.5-0.4,2.2-0.6c0.7-0.1,1.4-0.2,2.1-0.2
		c1.7,0,3.1,0.4,4.1,1.3c1,0.8,1.5,2.2,1.5,4v7.5c-0.6,0.2-1.3,0.4-2.1,0.5c-0.8,0.2-1.8,0.3-2.8,0.3c-0.9,0-1.6-0.1-2.3-0.2
		c-0.7-0.2-1.3-0.4-1.8-0.8c-0.5-0.4-0.9-0.8-1.2-1.4c-0.3-0.6-0.4-1.2-0.4-2s0.2-1.5,0.5-2s0.8-1,1.3-1.3s1.1-0.6,1.8-0.7
		c0.7-0.1,1.3-0.2,2-0.2c0.5,0,1,0,1.6,0.1v-0.2H395.1z M395.1,220.1c-0.2,0-0.4-0.1-0.7-0.1c-0.2,0-0.4,0-0.6,0
		c-0.8,0-1.5,0.1-1.9,0.4c-0.5,0.3-0.7,0.8-0.7,1.4c0,0.4,0.1,0.8,0.3,1c0.2,0.2,0.4,0.4,0.7,0.5c0.3,0.1,0.5,0.2,0.8,0.2
		s0.5,0,0.8,0s0.5,0,0.8-0.1c0.3,0,0.5-0.1,0.7-0.1v-3.2H395.1z"/>
	<path class="st3" d="M401.7,207.7c0.6-0.1,1.2-0.2,1.8-0.2c0.6,0,1.2,0.1,1.8,0.2v13.1c0,0.5,0,0.9,0.1,1.3
		c0.1,0.3,0.2,0.6,0.3,0.7c0.1,0.2,0.3,0.3,0.5,0.4c0.2,0.1,0.5,0.1,0.8,0.1c0.1,0,0.3,0,0.4,0c0.2,0,0.3,0,0.5-0.1
		c0.2,0.7,0.3,1.4,0.3,2c0,0.1,0,0.3,0,0.4s0,0.2-0.1,0.4c-0.3,0.1-0.6,0.1-1,0.2c-0.4,0-0.7,0.1-1,0.1c-1.3,0-2.3-0.4-3.1-1.1
		c-0.8-0.7-1.2-1.9-1.2-3.5L401.7,207.7L401.7,207.7z"/>
</g>
<g>
	<path class="st2" d="M350,165.9v-2.1l2.7-2.6c6.5-6.2,9.4-9.4,9.4-13.3c0-2.6-1.2-5-5-5c-2.3,0-4.2,1.2-5.4,2.1l-1.1-2.4
		c1.8-1.5,4.3-2.6,7.2-2.6c5.5,0,7.8,3.7,7.8,7.4c0,4.7-3.4,8.5-8.7,13.6l-2,1.9v0.1h11.4v2.8H350z"/>
</g>
</svg>
