<?xml version="1.0" encoding="utf-8"?>
<!-- Generator: Adobe Illustrator 23.0.3, SVG Export Plug-In . SVG Version: 6.00 Build 0)  -->
<svg version="1.1" id="Capa_1" xmlns="http://www.w3.org/2000/svg" xmlns:xlink="http://www.w3.org/1999/xlink" x="0px" y="0px"
	 viewBox="0 0 1114.5 83.1" style="enable-background:new 0 0 1114.5 83.1;" xml:space="preserve">
<style type="text/css">
	.st0{fill:#61C1A2;}
</style>
<title>titulo_1</title>
<g>
	<path class="st0" d="M29.9,44.8c0,2.6-0.3,4.4-0.9,5.6c-0.5,1.1-1.7,2.6-3.5,4.4c-1.4,1.8-2.5,3.4-3.2,4.7c-0.7,1.4-1.1,3-1.1,4.9
		c0,2.1,0.4,3.8,1.3,5c0.9,1.2,2.2,1.8,3.9,1.8c1.4,0,2.6-0.5,3.6-1.6c1-1.1,1.5-2.6,1.5-4.6h5.7l0.1,0.2c0,3.3-1,5.9-3,7.8
		c-2,1.9-4.6,2.8-7.8,2.8c-3.5,0-6.2-1-8.2-3c-2-2-2.9-4.8-2.9-8.3c0-2.5,0.6-4.7,1.8-6.8s2.7-4.1,4.7-6.1c0.9-1,1.6-1.9,1.8-2.8
		s0.4-2.2,0.4-4H29.9z M23.9,33h6.1v5.8h-6.1V33z"/>
	<path class="st0" d="M69,51.7l0.1,0.2c0.1,4.2-1.1,7.4-3.5,9.7c-2.4,2.3-5.7,3.5-9.9,3.5c-4.3,0-7.8-1.4-10.4-4.2
		c-2.6-2.8-3.9-6.7-3.9-11.7V37.4c0-5,1.3-8.9,3.8-11.7c2.5-2.8,5.9-4.2,10.2-4.2c4.3,0,7.7,1.1,10.1,3.4c2.4,2.2,3.6,5.5,3.5,9.8
		l-0.1,0.2h-5.7c0-3-0.7-5.2-2-6.7c-1.3-1.4-3.3-2.1-5.9-2.1c-2.6,0-4.6,1-6,2.9s-2.1,4.7-2.1,8.4v11.8c0,3.7,0.7,6.5,2.2,8.4
		s3.5,2.9,6.1,2.9c2.6,0,4.5-0.7,5.7-2.1c1.3-1.4,1.9-3.6,1.9-6.7H69z"/>
	<path class="st0" d="M88.3,37.9l-2.6-0.1c-1.2,0-2.3,0.4-3.1,1.1c-0.8,0.7-1.5,1.8-1.9,3.1v22.4h-5.9V33h5.4l0.4,4.6
		c0.7-1.6,1.6-2.9,2.7-3.8c1.1-0.9,2.3-1.4,3.7-1.4c0.4,0,0.7,0,1,0.1c0.3,0.1,0.6,0.2,0.9,0.2L88.3,37.9z"/>
	<path class="st0" d="M103.9,65c-3.9,0-7-1.4-9.2-4.3c-2.2-2.9-3.3-6.6-3.3-11.2v-1.4c0-4.6,1.1-8.4,3.3-11.3s5.1-4.4,8.6-4.4
		c3.6,0,6.3,1.3,8.2,3.8c1.9,2.5,2.8,5.9,2.8,10.2v3.3h-17c0,3.2,0.6,5.8,1.7,7.8c1.1,2,2.9,3,5.3,3c1.6,0,3.1-0.3,4.3-0.8
		s2.3-1.3,3.4-2.2l1.9,3.7c-1,1.1-2.4,2-4.1,2.7C108,64.6,106.1,65,103.9,65z M103.3,36.9c-1.7,0-3.1,0.8-4.1,2.4
		c-1,1.6-1.6,3.7-1.9,6.3h11.1v-0.7c0-2.4-0.4-4.3-1.3-5.7C106.4,37.7,105.1,36.9,103.3,36.9z"/>
	<path class="st0" d="M135.9,64.4c-0.3-0.9-0.4-1.8-0.6-2.5c-0.1-0.7-0.2-1.5-0.3-2.2c-0.8,1.5-1.9,2.8-3.3,3.8
		c-1.4,1-2.9,1.5-4.7,1.5c-2.8,0-5-0.8-6.5-2.5s-2.2-3.9-2.2-6.8c0-3,1-5.3,3.1-7c2.1-1.7,5-2.6,8.7-2.6h4.8v-3.2
		c0-1.9-0.4-3.4-1.3-4.5c-0.9-1.1-2.1-1.6-3.7-1.6c-1.4,0-2.6,0.5-3.4,1.4c-0.8,0.9-1.3,2.1-1.3,3.6l-5.6,0l-0.1-0.2
		c-0.1-2.4,0.8-4.6,2.8-6.4c2-1.9,4.6-2.8,7.9-2.8c3.1,0,5.6,0.9,7.6,2.7c1.9,1.8,2.9,4.4,2.9,7.8v14.6c0,1.2,0.1,2.4,0.2,3.5
		c0.2,1.1,0.4,2.2,0.7,3.3H135.9z M128.3,60.4c1.6,0,3-0.5,4.3-1.5c1.2-1,2-2.2,2.4-3.6v-5.6h-4.9c-1.8,0-3.2,0.6-4.3,1.7
		c-1,1.2-1.5,2.5-1.5,4.2c0,1.5,0.3,2.6,1,3.5C126.1,60,127,60.4,128.3,60.4z"/>
	<path class="st0" d="M161.1,37.9l-2.6-0.1c-1.2,0-2.3,0.4-3.1,1.1c-0.8,0.7-1.5,1.8-1.9,3.1v22.4h-5.9V33h5.4l0.4,4.6
		c0.7-1.6,1.6-2.9,2.7-3.8c1.1-0.9,2.3-1.4,3.7-1.4c0.4,0,0.7,0,1,0.1c0.3,0.1,0.6,0.2,0.9,0.2L161.1,37.9z"/>
	<path class="st0" d="M197.2,56.6h0.2l10.1-34.5h7.5v42.2h-5.9V33.9l-0.2,0l-9.7,30.5h-4l-9.8-30.9l-0.2,0v30.9h-5.9V22.1h7.7
		L197.2,56.6z"/>
	<path class="st0" d="M221.1,48.3c0-4.7,1.1-8.5,3.3-11.5c2.2-3,5.2-4.5,9.1-4.5s6.9,1.5,9.1,4.5c2.2,3,3.3,6.8,3.3,11.5v0.8
		c0,4.7-1.1,8.5-3.3,11.4c-2.2,2.9-5.2,4.4-9,4.4c-3.9,0-6.9-1.5-9.1-4.4c-2.2-2.9-3.3-6.8-3.3-11.4V48.3z M227.1,49.1
		c0,3.3,0.5,6.1,1.6,8.2s2.7,3.2,4.9,3.2c2.1,0,3.8-1.1,4.8-3.2s1.6-4.9,1.6-8.2v-0.8c0-3.3-0.5-6-1.6-8.2c-1.1-2.2-2.7-3.2-4.9-3.2
		s-3.8,1.1-4.9,3.2c-1.1,2.2-1.6,4.9-1.6,8.2V49.1z"/>
	<path class="st0" d="M250.5,49c0-5,0.9-9.1,2.8-12.1c1.8-3,4.4-4.6,7.7-4.6c1.5,0,2.8,0.3,4,1c1.2,0.7,2.2,1.6,3,2.9V19.1h5.9v45.2
		H269l-0.6-3.8c-0.9,1.4-1.9,2.5-3.2,3.3c-1.3,0.7-2.7,1.1-4.3,1.1c-3.3,0-5.9-1.4-7.7-4.2c-1.8-2.8-2.7-6.5-2.7-11.1V49z
		 M256.3,49.7c0,3.3,0.5,5.9,1.5,7.8s2.5,2.9,4.6,2.9c1.3,0,2.4-0.3,3.4-1c0.9-0.7,1.7-1.7,2.2-3V41.2c-0.6-1.3-1.3-2.3-2.3-3.1
		c-0.9-0.8-2-1.1-3.3-1.1c-2.1,0-3.6,1.1-4.6,3.4c-1,2.2-1.5,5.1-1.5,8.7V49.7z"/>
	<path class="st0" d="M292.1,65c-3.9,0-7-1.4-9.2-4.3c-2.2-2.9-3.3-6.6-3.3-11.2v-1.4c0-4.6,1.1-8.4,3.3-11.3s5.1-4.4,8.6-4.4
		c3.6,0,6.3,1.3,8.2,3.8c1.9,2.5,2.8,5.9,2.8,10.2v3.3h-17c0,3.2,0.6,5.8,1.7,7.8c1.1,2,2.9,3,5.3,3c1.6,0,3.1-0.3,4.3-0.8
		s2.3-1.3,3.4-2.2l1.9,3.7c-1,1.1-2.4,2-4.1,2.7C296.3,64.6,294.3,65,292.1,65z M291.6,36.9c-1.7,0-3.1,0.8-4.1,2.4
		c-1,1.6-1.6,3.7-1.9,6.3h11.1v-0.7c0-2.4-0.4-4.3-1.3-5.7C294.7,37.7,293.4,36.9,291.6,36.9z"/>
	<path class="st0" d="M314.2,64.4h-5.9V19.1h5.9V64.4z"/>
	<path class="st0" d="M320.2,48.3c0-4.7,1.1-8.5,3.3-11.5c2.2-3,5.2-4.5,9.1-4.5s6.9,1.5,9.1,4.5c2.2,3,3.3,6.8,3.3,11.5v0.8
		c0,4.7-1.1,8.5-3.3,11.4c-2.2,2.9-5.2,4.4-9,4.4c-3.9,0-6.9-1.5-9.1-4.4c-2.2-2.9-3.3-6.8-3.3-11.4V48.3z M326.1,49.1
		c0,3.3,0.5,6.1,1.6,8.2s2.7,3.2,4.9,3.2c2.1,0,3.8-1.1,4.8-3.2s1.6-4.9,1.6-8.2v-0.8c0-3.3-0.5-6-1.6-8.2c-1.1-2.2-2.7-3.2-4.9-3.2
		s-3.8,1.1-4.9,3.2c-1.1,2.2-1.6,4.9-1.6,8.2V49.1z"/>
	<path class="st0" d="M365.5,56.4c0-1.2-0.4-2.2-1.2-3.1c-0.8-0.8-2.4-1.7-4.7-2.8c-3.2-1.2-5.6-2.5-7.3-4c-1.6-1.4-2.4-3.3-2.4-5.5
		c0-2.4,1-4.5,2.9-6.2c1.9-1.7,4.5-2.6,7.6-2.6c3.2,0,5.8,0.9,7.8,2.8c2,1.9,2.9,4.1,2.8,6.8l-0.1,0.2h-5.7c0-1.5-0.4-2.8-1.3-3.8
		c-0.9-1.1-2.1-1.6-3.6-1.6s-2.7,0.4-3.5,1.3c-0.8,0.8-1.3,1.8-1.3,2.9c0,1.2,0.4,2.1,1.1,2.8c0.7,0.7,2.3,1.6,4.7,2.7
		c3.3,1.2,5.8,2.5,7.4,4c1.7,1.5,2.5,3.4,2.5,5.7c0,2.6-1,4.7-3,6.4c-2,1.6-4.6,2.5-7.9,2.5c-3.5,0-6.3-1-8.3-2.9
		c-2-2-3-4.3-2.9-6.9l0.1-0.2h5.5c0.1,2,0.7,3.5,1.7,4.4c1.1,0.9,2.4,1.3,4,1.3c1.6,0,2.8-0.4,3.7-1.2
		C365,58.7,365.5,57.7,365.5,56.4z"/>
	<path class="st0" d="M388.7,49c0-5,0.9-9.1,2.8-12.1c1.8-3,4.4-4.6,7.7-4.6c1.5,0,2.8,0.3,4,1c1.2,0.7,2.2,1.6,3,2.9V19.1h5.9v45.2
		h-4.9l-0.6-3.8c-0.9,1.4-1.9,2.5-3.2,3.3c-1.3,0.7-2.7,1.1-4.3,1.1c-3.3,0-5.9-1.4-7.7-4.2c-1.8-2.8-2.7-6.5-2.7-11.1V49z
		 M394.6,49.7c0,3.3,0.5,5.9,1.5,7.8s2.5,2.9,4.6,2.9c1.3,0,2.4-0.3,3.4-1c0.9-0.7,1.7-1.7,2.2-3V41.2c-0.6-1.3-1.3-2.3-2.3-3.1
		c-0.9-0.8-2-1.1-3.3-1.1c-2.1,0-3.6,1.1-4.6,3.4c-1,2.2-1.5,5.1-1.5,8.7V49.7z"/>
	<path class="st0" d="M430.4,65c-3.9,0-7-1.4-9.2-4.3c-2.2-2.9-3.3-6.6-3.3-11.2v-1.4c0-4.6,1.1-8.4,3.3-11.3s5.1-4.4,8.6-4.4
		c3.6,0,6.3,1.3,8.2,3.8c1.9,2.5,2.8,5.9,2.8,10.2v3.3h-17c0,3.2,0.6,5.8,1.7,7.8c1.1,2,2.9,3,5.3,3c1.6,0,3.1-0.3,4.3-0.8
		s2.3-1.3,3.4-2.2l1.9,3.7c-1,1.1-2.4,2-4.1,2.7C434.5,64.6,432.6,65,430.4,65z M429.8,36.9c-1.7,0-3.1,0.8-4.1,2.4
		c-1,1.6-1.6,3.7-1.9,6.3H435v-0.7c0-2.4-0.4-4.3-1.3-5.7C432.9,37.7,431.6,36.9,429.8,36.9z"/>
	<path class="st0" d="M482.7,49.7c0,4.6-0.9,8.4-2.8,11.1c-1.8,2.8-4.4,4.2-7.7,4.2c-1.5,0-2.9-0.3-4.1-0.9c-1.2-0.6-2.2-1.5-3-2.7
		v15.1h-5.9V33h5l0.6,3.8c0.9-1.4,1.9-2.5,3.1-3.2c1.2-0.7,2.7-1.1,4.3-1.1c3.3,0,5.9,1.5,7.8,4.6c1.8,3,2.8,7.1,2.8,12.1V49.7z
		 M476.8,49c0-3.6-0.5-6.5-1.6-8.7c-1-2.2-2.6-3.4-4.7-3.4c-1.3,0-2.4,0.4-3.3,1.1c-0.9,0.7-1.6,1.7-2.2,2.9v15.8
		c0.5,1.2,1.3,2.1,2.2,2.7c0.9,0.6,2,1,3.4,1c2.1,0,3.6-1,4.6-3c1-2,1.5-4.6,1.5-7.9V49z"/>
	<path class="st0" d="M501.9,37.9l-2.6-0.1c-1.2,0-2.3,0.4-3.1,1.1c-0.8,0.7-1.5,1.8-1.9,3.1v22.4h-5.9V33h5.4l0.4,4.6
		c0.7-1.6,1.6-2.9,2.7-3.8c1.1-0.9,2.3-1.4,3.7-1.4c0.4,0,0.7,0,1,0.1c0.3,0.1,0.6,0.2,0.9,0.2L501.9,37.9z"/>
	<path class="st0" d="M504.9,48.3c0-4.7,1.1-8.5,3.3-11.5c2.2-3,5.2-4.5,9.1-4.5s6.9,1.5,9.1,4.5c2.2,3,3.3,6.8,3.3,11.5v0.8
		c0,4.7-1.1,8.5-3.3,11.4c-2.2,2.9-5.2,4.4-9,4.4c-3.9,0-6.9-1.5-9.1-4.4c-2.2-2.9-3.3-6.8-3.3-11.4V48.3z M510.8,49.1
		c0,3.3,0.5,6.1,1.6,8.2s2.7,3.2,4.9,3.2c2.1,0,3.8-1.1,4.8-3.2s1.6-4.9,1.6-8.2v-0.8c0-3.3-0.5-6-1.6-8.2c-1.1-2.2-2.7-3.2-4.9-3.2
		s-3.8,1.1-4.9,3.2c-1.1,2.2-1.6,4.9-1.6,8.2V49.1z"/>
	<path class="st0" d="M543.8,53.5l0.5,2.1h0.2l6.1-22.7h6.5l-11.2,36.3c-0.7,2.1-1.7,4-3,5.5c-1.3,1.5-3.1,2.3-5.5,2.3
		c-0.5,0-1-0.1-1.6-0.2c-0.6-0.1-1.1-0.2-1.7-0.4l0.7-4.4c0.2,0,0.5,0.1,0.9,0.1c0.4,0,0.7,0.1,0.9,0.1c1.2,0,2.1-0.5,2.8-1.5
		c0.7-1,1.2-2.1,1.6-3.5l1.1-3.2L532.1,33h6.4L543.8,53.5z"/>
	<path class="st0" d="M572.1,65c-3.9,0-7-1.4-9.2-4.3c-2.2-2.9-3.3-6.6-3.3-11.2v-1.4c0-4.6,1.1-8.4,3.3-11.3s5.1-4.4,8.6-4.4
		c3.6,0,6.3,1.3,8.2,3.8c1.9,2.5,2.8,5.9,2.8,10.2v3.3h-17c0,3.2,0.6,5.8,1.7,7.8c1.2,2,2.9,3,5.3,3c1.6,0,3.1-0.3,4.3-0.8
		c1.2-0.5,2.3-1.3,3.4-2.2l1.9,3.7c-1,1.1-2.4,2-4.1,2.7C576.2,64.6,574.2,65,572.1,65z M571.5,36.9c-1.7,0-3.1,0.8-4.1,2.4
		c-1,1.6-1.6,3.7-1.9,6.3h11.1v-0.7c0-2.4-0.4-4.3-1.3-5.7C574.6,37.7,573.3,36.9,571.5,36.9z"/>
	<path class="st0" d="M598.7,60.5c1.5,0,2.7-0.6,3.6-1.7c1-1.1,1.5-2.6,1.5-4.6h5.3l0.1,0.2c0.1,3-0.9,5.5-3,7.5s-4.6,3-7.5,3
		c-3.9,0-6.9-1.5-9-4.4c-2.1-2.9-3.2-6.7-3.2-11.3v-1.1c0-4.6,1.1-8.3,3.2-11.3c2.1-3,5.1-4.5,9-4.5c3.1,0,5.7,1.1,7.6,3.2
		c2,2.1,2.9,4.9,2.9,8.3l-0.1,0.1h-5.3c0-2.1-0.5-3.8-1.4-5.1c-0.9-1.3-2.2-2-3.7-2c-2.2,0-3.8,1.1-4.8,3.2c-1,2.1-1.5,4.8-1.5,8
		v1.1c0,3.3,0.5,6,1.5,8.1C594.9,59.5,596.5,60.5,598.7,60.5z"/>
	<path class="st0" d="M625.6,60.5c1.5,0,2.7-0.6,3.6-1.7c1-1.1,1.5-2.6,1.5-4.6h5.3l0.1,0.2c0.1,3-0.9,5.5-3,7.5s-4.6,3-7.5,3
		c-3.9,0-6.9-1.5-9-4.4c-2.1-2.9-3.2-6.7-3.2-11.3v-1.1c0-4.6,1.1-8.3,3.2-11.3c2.1-3,5.1-4.5,9-4.5c3.1,0,5.7,1.1,7.6,3.2
		c2,2.1,2.9,4.9,2.9,8.3L636,44h-5.3c0-2.1-0.5-3.8-1.4-5.1c-0.9-1.3-2.2-2-3.7-2c-2.2,0-3.8,1.1-4.8,3.2c-1,2.1-1.5,4.8-1.5,8v1.1
		c0,3.3,0.5,6,1.5,8.1C621.8,59.5,623.3,60.5,625.6,60.5z"/>
	<path class="st0" d="M647.8,24.7h-5.9v-5.6h5.9V24.7z M647.8,64.4h-5.9V33h5.9V64.4z"/>
	<path class="st0" d="M653.9,48.3c0-4.7,1.1-8.5,3.3-11.5c2.2-3,5.2-4.5,9.1-4.5s6.9,1.5,9.1,4.5c2.2,3,3.3,6.8,3.3,11.5v0.8
		c0,4.7-1.1,8.5-3.3,11.4c-2.2,2.9-5.2,4.4-9,4.4c-3.9,0-6.9-1.5-9.1-4.4c-2.2-2.9-3.3-6.8-3.3-11.4V48.3z M659.8,49.1
		c0,3.3,0.5,6.1,1.6,8.2s2.7,3.2,4.9,3.2c2.1,0,3.8-1.1,4.8-3.2s1.6-4.9,1.6-8.2v-0.8c0-3.3-0.5-6-1.6-8.2c-1.1-2.2-2.7-3.2-4.9-3.2
		s-3.8,1.1-4.9,3.2c-1.1,2.2-1.6,4.9-1.6,8.2V49.1z M668.5,19.6h6.8l0.1,0.1l-7,7.6h-4.9L668.5,19.6z"/>
	<path class="st0" d="M689.6,33l0.3,4.7c0.9-1.7,2-3,3.4-3.9c1.4-0.9,2.9-1.4,4.6-1.4c2.8,0,5,1,6.5,3.1c1.6,2.1,2.3,5.2,2.3,9.6
		v19.3h-5.9V45.1c0-3-0.4-5-1.2-6.3s-2.1-1.8-3.7-1.8c-1.4,0-2.5,0.4-3.5,1.1s-1.7,1.7-2.3,2.9v23.4h-5.9V33H689.6z"/>
	<path class="st0" d="M737.9,65c-3.9,0-7-1.4-9.2-4.3c-2.2-2.9-3.3-6.6-3.3-11.2v-1.4c0-4.6,1.1-8.4,3.3-11.3s5.1-4.4,8.6-4.4
		c3.6,0,6.3,1.3,8.2,3.8c1.9,2.5,2.8,5.9,2.8,10.2v3.3h-17c0,3.2,0.6,5.8,1.7,7.8c1.2,2,2.9,3,5.3,3c1.6,0,3.1-0.3,4.3-0.8
		c1.2-0.5,2.3-1.3,3.4-2.2l1.9,3.7c-1,1.1-2.4,2-4.1,2.7C742,64.6,740.1,65,737.9,65z M737.4,36.9c-1.7,0-3.1,0.8-4.1,2.4
		c-1,1.6-1.6,3.7-1.9,6.3h11.1v-0.7c0-2.4-0.4-4.3-1.3-5.7C740.4,37.7,739.1,36.9,737.4,36.9z"/>
	<path class="st0" d="M768.5,56.4c0-1.2-0.4-2.2-1.2-3.1c-0.8-0.8-2.4-1.7-4.7-2.8c-3.2-1.2-5.6-2.5-7.3-4c-1.6-1.4-2.4-3.3-2.4-5.5
		c0-2.4,1-4.5,2.9-6.2c1.9-1.7,4.5-2.6,7.6-2.6c3.2,0,5.8,0.9,7.8,2.8c2,1.9,2.9,4.1,2.8,6.8l-0.1,0.2h-5.7c0-1.5-0.4-2.8-1.3-3.8
		s-2.1-1.6-3.6-1.6c-1.5,0-2.7,0.4-3.5,1.3c-0.8,0.8-1.3,1.8-1.3,2.9c0,1.2,0.4,2.1,1.1,2.8c0.7,0.7,2.3,1.6,4.7,2.7
		c3.3,1.2,5.8,2.5,7.4,4s2.5,3.4,2.5,5.7c0,2.6-1,4.7-3,6.4c-2,1.6-4.6,2.5-7.9,2.5c-3.5,0-6.3-1-8.3-2.9c-2-2-3-4.3-2.9-6.9
		l0.1-0.2h5.5c0.1,2,0.7,3.5,1.7,4.4c1.1,0.9,2.4,1.3,4,1.3c1.6,0,2.8-0.4,3.7-1.2C768.1,58.7,768.5,57.7,768.5,56.4z"/>
	<path class="st0" d="M807.7,56.4c0-1.2-0.4-2.2-1.2-3.1c-0.8-0.8-2.4-1.7-4.7-2.8c-3.2-1.2-5.6-2.5-7.3-4c-1.6-1.4-2.4-3.3-2.4-5.5
		c0-2.4,1-4.5,2.9-6.2c1.9-1.7,4.5-2.6,7.6-2.6c3.2,0,5.8,0.9,7.8,2.8c2,1.9,2.9,4.1,2.8,6.8l-0.1,0.2h-5.7c0-1.5-0.4-2.8-1.3-3.8
		s-2.1-1.6-3.6-1.6c-1.5,0-2.7,0.4-3.5,1.3c-0.8,0.8-1.3,1.8-1.3,2.9c0,1.2,0.4,2.1,1.1,2.8c0.7,0.7,2.3,1.6,4.7,2.7
		c3.3,1.2,5.8,2.5,7.4,4s2.5,3.4,2.5,5.7c0,2.6-1,4.7-3,6.4c-2,1.6-4.6,2.5-7.9,2.5c-3.5,0-6.3-1-8.3-2.9c-2-2-3-4.3-2.9-6.9
		l0.1-0.2h5.5c0.1,2,0.7,3.5,1.7,4.4c1.1,0.9,2.4,1.3,4,1.3c1.6,0,2.8-0.4,3.7-1.2C807.3,58.7,807.7,57.7,807.7,56.4z"/>
	<path class="st0" d="M835.9,59.8c-0.9,1.7-1.9,2.9-3.2,3.8c-1.3,0.9-2.8,1.3-4.6,1.3c-2.9,0-5.1-1.1-6.8-3.3
		c-1.6-2.2-2.4-5.7-2.4-10.4V33h5.9v18.4c0,3.4,0.4,5.7,1.2,7.1c0.8,1.3,2,2,3.5,2c1.5,0,2.7-0.3,3.7-1c1-0.7,1.8-1.6,2.4-2.9V33
		h5.9v31.4h-5L835.9,59.8z"/>
	<path class="st0" d="M849.8,64.4V37.2h-4.1V33h4.1v-3.2c0-3.6,1-6.3,2.9-8.3c1.9-2,4.6-2.9,8-2.9c1.2,0,2.4,0.1,3.7,0.4
		c1.2,0.3,2.6,0.7,4,1.3l-0.9,4.6c-1-0.4-2-0.8-3-1c-1-0.3-2.1-0.4-3.4-0.4c-1.8,0-3.2,0.5-4,1.6s-1.3,2.7-1.3,4.7V33h5.5v4.2h-5.5
		v27.2H849.8z M871.1,64.4h-5.9V33h5.9V64.4z"/>
	<path class="st0" d="M889.2,60.5c1.5,0,2.7-0.6,3.6-1.7c1-1.1,1.5-2.6,1.5-4.6h5.3l0.1,0.2c0.1,3-0.9,5.5-3,7.5s-4.6,3-7.5,3
		c-3.9,0-6.9-1.5-9-4.4c-2.1-2.9-3.2-6.7-3.2-11.3v-1.1c0-4.6,1.1-8.3,3.2-11.3c2.1-3,5.1-4.5,9-4.5c3.1,0,5.7,1.1,7.6,3.2
		c2,2.1,2.9,4.9,2.9,8.3l-0.1,0.1h-5.3c0-2.1-0.5-3.8-1.4-5.1c-0.9-1.3-2.2-2-3.7-2c-2.2,0-3.8,1.1-4.8,3.2c-1,2.1-1.5,4.8-1.5,8
		v1.1c0,3.3,0.5,6,1.5,8.1C885.4,59.5,887,60.5,889.2,60.5z"/>
	<path class="st0" d="M911.5,24.7h-5.9v-5.6h5.9V24.7z M911.5,64.4h-5.9V33h5.9V64.4z"/>
	<path class="st0" d="M930,65c-3.9,0-7-1.4-9.2-4.3c-2.2-2.9-3.3-6.6-3.3-11.2v-1.4c0-4.6,1.1-8.4,3.3-11.3s5.1-4.4,8.6-4.4
		c3.6,0,6.3,1.3,8.2,3.8c1.9,2.5,2.8,5.9,2.8,10.2v3.3h-17c0,3.2,0.6,5.8,1.7,7.8c1.2,2,2.9,3,5.3,3c1.6,0,3.1-0.3,4.3-0.8
		c1.2-0.5,2.3-1.3,3.4-2.2l1.9,3.7c-1,1.1-2.4,2-4.1,2.7C934.2,64.6,932.2,65,930,65z M929.5,36.9c-1.7,0-3.1,0.8-4.1,2.4
		c-1,1.6-1.6,3.7-1.9,6.3h11.1v-0.7c0-2.4-0.4-4.3-1.3-5.7C932.6,37.7,931.3,36.9,929.5,36.9z"/>
	<path class="st0" d="M951.1,33l0.3,4.7c0.9-1.7,2-3,3.4-3.9c1.4-0.9,2.9-1.4,4.6-1.4c2.8,0,5,1,6.5,3.1c1.6,2.1,2.3,5.2,2.3,9.6
		v19.3h-5.9V45.1c0-3-0.4-5-1.2-6.3s-2.1-1.8-3.7-1.8c-1.4,0-2.5,0.4-3.5,1.1s-1.7,1.7-2.3,2.9v23.4h-5.9V33H951.1z"/>
	<path class="st0" d="M982.6,25.2V33h4.9v4.2h-4.9v18.7c0,1.6,0.2,2.8,0.7,3.5s1.1,1,2,1c0.3,0,0.6,0,0.9-0.1c0.3-0.1,0.6-0.1,1-0.3
		l0.6,4.1c-0.6,0.3-1.2,0.5-1.9,0.7c-0.7,0.2-1.4,0.2-2.1,0.2c-2.3,0-4-0.7-5.3-2.2c-1.3-1.5-1.9-3.8-1.9-6.9V37.2h-4.1V33h4.1v-7.8
		H982.6z"/>
	<path class="st0" d="M1004.2,65c-3.9,0-7-1.4-9.2-4.3c-2.2-2.9-3.3-6.6-3.3-11.2v-1.4c0-4.6,1.1-8.4,3.3-11.3s5.1-4.4,8.6-4.4
		c3.6,0,6.3,1.3,8.2,3.8c1.9,2.5,2.8,5.9,2.8,10.2v3.3h-17c0,3.2,0.6,5.8,1.7,7.8c1.2,2,2.9,3,5.3,3c1.6,0,3.1-0.3,4.3-0.8
		c1.2-0.5,2.3-1.3,3.4-2.2l1.9,3.7c-1,1.1-2.4,2-4.1,2.7C1008.3,64.6,1006.3,65,1004.2,65z M1003.6,36.9c-1.7,0-3.1,0.8-4.1,2.4
		c-1,1.6-1.6,3.7-1.9,6.3h11.1v-0.7c0-2.4-0.4-4.3-1.3-5.7C1006.7,37.7,1005.4,36.9,1003.6,36.9z"/>
	<path class="st0" d="M1025.2,52.5c0-2.6,0.3-4.4,0.8-5.5s1.7-2.6,3.6-4.4c1.4-1.8,2.5-3.3,3.2-4.7c0.7-1.4,1.1-3,1.1-4.9
		c0-2.1-0.4-3.8-1.3-5c-0.9-1.2-2.2-1.8-3.8-1.8c-1.4,0-2.6,0.5-3.6,1.6c-1,1.1-1.5,2.6-1.5,4.5h-5.7l-0.1-0.2
		c-0.1-3.3,0.9-5.9,3-7.8s4.6-2.8,7.8-2.8c3.5,0,6.2,1,8.1,3c2,2,2.9,4.8,2.9,8.3c0,2.5-0.6,4.8-1.8,6.9s-2.7,4.1-4.7,6
		c-1,1-1.6,1.9-1.8,2.8c-0.3,0.9-0.4,2.2-0.4,3.9H1025.2z M1031.2,64.4h-6.1v-5.7h6.1V64.4z"/>
</g>
</svg>
