<?xml version="1.0" encoding="utf-8"?>
<!-- Generator: Adobe Illustrator 22.0.1, SVG Export Plug-In . SVG Version: 6.00 Build 0)  -->
<svg version="1.1" xmlns="http://www.w3.org/2000/svg" xmlns:xlink="http://www.w3.org/1999/xlink" x="0px" y="0px"
	 viewBox="0 0 500 500" style="enable-background:new 0 0 500 500;" xml:space="preserve">
<style type="text/css">
	.st0{fill:#15B0BF;}
	.st1{fill:#1695A4;}
	.st2{fill:#FFFFFF;}
</style>
<g id="Layer_2">
</g>
<g id="Layer_1">
	<path class="st0" d="M248.9,384.5c-36.9-0.3-71.5-15-97.5-41.3c-26-26.4-40.1-61.2-39.8-98.1c0.6-75.7,62.7-137.4,138.4-137.4h1.1
		c36.9,0.3,71.5,15,97.5,41.4c26,26.4,40.1,61.2,39.8,98.1c-0.6,75.7-62.7,137.3-138.4,137.3H248.9z"/>
	<path class="st1" d="M381.4,289.3L267.8,175.7c1.2,1.3,2,3,2,4.9l0,47.9c0,3.9,3.2,7,7,7h22c3.8,0,4.9,2.4,2.4,5.2l-46,51.8
		c-2.4,2.7-6.2,2.9-8.8,0.5l33.4,33.5c-28,0-53.9,0-83.6,0c-4.1,0-7.8-1.6-10.4-4l62,62c0.4,0,0.8,0,1.2,0h1.1
		C311,384.5,363.1,344.5,381.4,289.3z"/>
	<path class="st2" d="M298.8,235.4c3.8,0,4.9,2.4,2.4,5.2l-46,51.8c-2.6,2.9-6.7,2.9-9.3,0l-46-51.8c-2.6-2.9-1.5-5.2,2.4-5.2h22
		c3.9,0,7-3.1,7-7l0-47.9c0-3.9,3.2-7,7-7h5.2c3.8,0,10.1,0,14,0h5.3c3.8,0,7,3.1,7,7l0,47.9c0,3.9,3.2,7,7,7H298.8z M306.4,293.5
		c-1.9,0-3.4,1.3-3.4,3c0,10,0-18.2,0,19v-2.9c-41.9,0-60.4,0-106.1,0v2.9c0-16.2,0,18.8,0-19c0-1.7-1.5-3-3.4-3h-8.1
		c-1.9,0-3.4,1.3-3.4,3c0,49.2,0-14.7,0,17.5c0,6.9,6.3,12.4,14.1,12.4c38,0,69.8,0,107.7,0c7.8,0,14.1-5.6,14.1-12.4
		c0-31.9,0,31.6,0-17.5c0-1.7-1.5-3-3.4-3H306.4z"/>
</g>
</svg>
