<?xml version="1.0" encoding="utf-8"?>
<!-- Generator: Adobe Illustrator 23.0.3, SVG Export Plug-In . SVG Version: 6.00 Build 0)  -->
<svg version="1.1" id="Layer_1" xmlns="http://www.w3.org/2000/svg" xmlns:xlink="http://www.w3.org/1999/xlink" x="0px" y="0px"
	 viewBox="0 0 413.1 429.5" style="enable-background:new 0 0 413.1 429.5;" xml:space="preserve">
<style type="text/css">
	.st0{fill:#093041;}
</style>
<g id="magnifier-graphs_3_">
	<g>
		<g>
			<g>
				<path class="st0" d="M398.8,376.3L333.5,289c-2.2-3-6.5-3.6-9.5-1.4l-7.8,5.8l-5.4-7.2l-6.7-9l3.2-2.4c2.1-1.6,2.5-4.5,1-6.6
					l-6.9-9.3c49.3-48.6,56.4-127.3,13.8-184.3c-46.5-62.3-134.7-75-197-28.5c-31.8,23.7-50.5,58.3-55.3,94.7h27.8
					c4.5-28,19.4-54.3,43.9-72.6c25-18.7,55.3-25.5,84-21.4C247.3,50.9,274.3,66,293,91c18.7,25.1,25.5,55.3,21.3,83.9
					c-4.2,28.7-19.2,55.8-44.3,74.5c-25.1,18.7-55.3,25.5-83.9,21.3c-28.6-4.2-55.7-19.2-74.5-44.3c-9.7-12.9-16-27.2-19.5-41.9
					H64.1C68,205,76.3,225.1,89.6,243c43.3,58,122.9,73.1,184,37.2l6.2,8.3l0.5,0.7c1.5,2.1,4.5,2.5,6.6,0.9l3.2-2.4l6.1,8.2
					l6.1,8.1l-7.8,5.8c-3,2.3-3.6,6.5-1.4,9.5l65.2,87.4c2.3,3,6.5,3.6,9.5,1.4l29.6-22.1C400.4,383.6,401,379.3,398.8,376.3z"/>
			</g>
		</g>
		<path class="st0" d="M259.8,93c-1.3-3.3-4.4-5.4-8.1-5.4c-3.6,0.1-6.8,2.4-7.9,5.7l-24.5,69.2L207,136.3c-1.4-3-4.5-5-8.1-5
			c0,0,0,0,0,0c-3.4,0.2-6.4,2.3-7.6,5.5l-20.6,54.1l-8.4-30.6c-1.1-3.7-4.5-6.3-8.3-6.3H22.6v17.2h124.7l13.7,49.6
			c1,3.6,4.2,6.1,7,6.1l1.3,0.1c3.5,0,6.7-2.2,8-5.5l22.8-59.6l12.5,26.9c1.4,3,4.5,5,8.2,5c0,0,0,0,0,0c3.5-0.2,6.5-2.4,7.7-5.7
			l23.9-67.5l28.5,71.9l8.6-1.6v-22.5L259.8,93z"/>
	</g>
</g>
</svg>
