<?xml version="1.0" encoding="utf-8"?>
<!-- Generator: Adobe Illustrator 22.0.1, SVG Export Plug-In . SVG Version: 6.00 Build 0)  -->
<svg version="1.1" id="Layer_1" xmlns="http://www.w3.org/2000/svg" xmlns:xlink="http://www.w3.org/1999/xlink" x="0px" y="0px"
	 viewBox="0 0 184 207" style="enable-background:new 0 0 184 207;" xml:space="preserve">
<style type="text/css">
	.st0{fill:#FFFFFF;}
	.st1{fill:#E5C465;}
</style>
<g>
	<g>
		<g>
			<path class="st0" d="M153.1,140.5c0,22.6-18.3,40.9-40.9,40.9h-0.6c-22.6,0-40.9-18.3-40.9-40.9V93.8c0-22.6,18.3-40.9,40.9-40.9
				h0.6c22.6,0,40.9,18.3,40.9,40.9V140.5z"/>
		</g>
		<g>
			<path class="st1" d="M111.6,54.4c-22.1,0-40,17.9-40,40V112c10.5-7,24.7-11.4,40.3-11.4V54.4H111.6z"/>
		</g>
		<g>
			<path class="st0" d="M120.2,84c0,4.6-3.7,8.3-8.3,8.3l0,0c-4.6,0-8.3-3.7-8.3-8.3V72.1c0-4.6,3.7-8.3,8.3-8.3l0,0
				c4.6,0,8.3,3.7,8.3,8.3V84z"/>
		</g>
		<path d="M112.2,49.4h-0.6c-24.5,0-44.5,19.9-44.5,44.5v46.7C67.1,165,87,185,111.6,185h0.6c24.5,0,44.5-19.9,44.5-44.5V93.8
			C156.6,69.3,136.7,49.4,112.2,49.4z M109.5,98.2c-12.9,0.4-25.2,3.6-35.3,9.3V93.8c0-5.8,1.3-11.3,3.7-16.1c0,0,0-0.1,0.1-0.1
			c0.1-0.3,0.3-0.6,0.4-0.8c6-11.3,17.6-19.2,31.1-19.9v5c-4.7,1.1-8.3,5.3-8.3,10.4V84c0,5.1,3.6,9.3,8.3,10.4
			C109.5,94.4,109.5,98.2,109.5,98.2z M111.9,89.9c-3.3,0-5.9-2.7-5.9-5.9V72.1c0-3.3,2.7-5.9,5.9-5.9c3.3,0,5.9,2.7,5.9,5.9V84
			C117.8,87.3,115.1,89.9,111.9,89.9z M114.2,94.4c4.7-1.1,8.3-5.3,8.3-10.4V72.1c0-5.1-3.6-9.3-8.3-10.4v-5
			c13.5,0.7,25.1,8.6,31.1,19.9c0.2,0.3,0.3,0.6,0.5,0.9l0,0c2.4,4.9,3.7,10.4,3.7,16.2v13.7c-10.1-5.7-22.4-9-35.3-9.3V94.4z
			 M112.2,177.8h-0.6c-20.6,0-37.4-16.8-37.4-37.4V113c10.4-6.5,23.7-10.1,37.7-10.1s27.3,3.6,37.7,10.1v27.4
			C149.5,161.1,132.8,177.8,112.2,177.8z"/>
		<path d="M70.8,62.2c1.4-1.4,1.4-3.6,0-5L49.3,35.7c-1.4-1.4-3.6-1.4-5,0s-1.4,3.6,0,5l21.5,21.5c0.7,0.7,1.6,1,2.5,1
			C69.2,63.3,70.1,62.9,70.8,62.2z"/>
		<path d="M81.6,46.1c0.3,1.7,1.8,2.9,3.5,2.9c0.2,0,0.4,0,0.6-0.1c1.9-0.3,3.2-2.2,2.9-4.1L84.2,20c-0.3-1.9-2.2-3.2-4.1-2.9
			c-1.9,0.3-3.2,2.2-2.9,4.1L81.6,46.1z"/>
		<path d="M59.6,73.9l-29.8-5.3c-1.9-0.3-3.8,1-4.1,2.9c-0.3,1.9,0.9,3.8,2.9,4.1l29.8,5.3c0.2,0,0.4,0.1,0.6,0.1
			c1.7,0,3.2-1.2,3.5-2.9C62.8,76.1,61.5,74.2,59.6,73.9z"/>
	</g>
</g>
</svg>
