<?xml version="1.0" encoding="utf-8"?>
<!-- Generator: Adobe Illustrator 22.0.1, SVG Export Plug-In . SVG Version: 6.00 Build 0)  -->
<svg version="1.1" id="Capa_1" xmlns="http://www.w3.org/2000/svg" xmlns:xlink="http://www.w3.org/1999/xlink" x="0px" y="0px"
	 viewBox="0 0 810 179.1" style="enable-background:new 0 0 810 179.1;" xml:space="preserve">
<style type="text/css">
	.st0{fill:#FFFFFF;}
</style>
<g>
	<path class="st0" d="M40,137V41h31.3c10,0,17.9,2.2,23.5,6.5c5.7,4.3,8.5,10.8,8.5,19.5c0,4.1-1.3,7.8-3.8,11.1
		c-2.5,3.3-5.9,5.8-10.2,7.5c6.3,0.9,11.3,3.6,14.9,8.2c3.7,4.6,5.5,10,5.5,16.2c0,8.8-2.9,15.5-8.6,20.1c-5.7,4.6-13.4,7-23.2,7H40
		z M53,81.8h21c4.8,0,8.8-1.3,11.8-4s4.5-6.4,4.5-11.1c0-5.2-1.6-9.1-4.9-11.6c-3.3-2.6-8-3.9-14.1-3.9H53V81.8z M53,91.9v34.9h25
		c5.9,0,10.5-1.5,13.8-4.4c3.3-2.9,4.9-7.1,4.9-12.4c0-5.3-1.7-9.6-5-12.9c-3.3-3.3-7.8-5-13.5-5.2h-0.9H53z"/>
	<path class="st0" d="M140.2,137h-13.1V41h13.1V137z"/>
	<path class="st0" d="M216.4,92.5H177v34.3h46.1V137H164V41h58.4v10.2H177v31h39.4V92.5z"/>
	<path class="st0" d="M311,137h-13l-46.2-73.3l-0.4,0.1V137h-13V41h13l46.2,73.2l0.4-0.1V41h13V137z"/>
	<path class="st0" d="M362.7,111.8l2.2,8h0.4l2.2-8L392.2,41h14l-35.7,96h-11.1l-35.7-96h14.1L362.7,111.8z"/>
	<path class="st0" d="M471.3,92.5h-39.4v34.3H478V137h-59.1V41h58.4v10.2h-45.4v31h39.4V92.5z"/>
	<path class="st0" d="M565.9,137h-13l-46.2-73.3l-0.4,0.1V137h-13V41h13l46.2,73.2l0.4-0.1V41h13V137z"/>
	<path class="st0" d="M602.8,137h-13.1V41h13.1V137z"/>
	<path class="st0" d="M626.6,137V41h30.2c12.5,0,22.6,3.9,30.2,11.6c7.6,7.7,11.4,17.7,11.4,29.9v13.1c0,12.3-3.8,22.2-11.4,29.9
		c-7.6,7.7-17.7,11.5-30.2,11.5H626.6z M639.6,51.2v75.6h17.2c8.9,0,15.9-2.9,21-8.8c5.1-5.8,7.7-13.3,7.7-22.5V82.3
		c0-9.1-2.6-16.5-7.7-22.3c-5.1-5.8-12.1-8.8-21-8.8H639.6z"/>
	<path class="st0" d="M791.3,97.5c0,11.7-3.6,21.5-10.9,29.2c-7.3,7.7-16.7,11.6-28.3,11.6c-11.2,0-20.3-3.9-27.3-11.6
		c-7-7.7-10.5-17.5-10.5-29.2V80.5c0-11.7,3.5-21.4,10.5-29.2c7-7.8,16.1-11.7,27.3-11.7c11.6,0,21,3.9,28.3,11.6
		c7.3,7.8,10.9,17.5,10.9,29.2V97.5z M778.3,80.3c0-8.8-2.4-16-7.1-21.6c-4.7-5.6-11.1-8.4-19.1-8.4c-7.6,0-13.6,2.8-18.1,8.4
		c-4.5,5.6-6.8,12.8-6.8,21.6v17.2c0,8.9,2.3,16.1,6.8,21.8c4.5,5.6,10.5,8.4,18.1,8.4c8,0,14.4-2.8,19.1-8.4s7.1-12.9,7.1-21.8
		V80.3z"/>
</g>
</svg>
