<?xml version="1.0" encoding="utf-8"?>
<!-- Generator: Adobe Illustrator 23.0.3, SVG Export Plug-In . SVG Version: 6.00 Build 0)  -->
<svg version="1.1" id="Capa_1" xmlns="http://www.w3.org/2000/svg" xmlns:xlink="http://www.w3.org/1999/xlink" x="0px" y="0px"
	 viewBox="0 0 959.6 226.3" style="enable-background:new 0 0 959.6 226.3;" xml:space="preserve">
<style type="text/css">
	.st0{fill:#61C1A2;}
</style>
<g>
	<path class="st0" d="M49,118.3H33.2V132h18.5v4.1H28V97.7h23.4v4.1H33.2v12.4H49V118.3z"/>
	<path class="st0" d="M62.7,136.1h-5.2V94.9h5.2V136.1z"/>
	<path class="st0" d="M95.4,132.6c1.6,0,3-0.5,4.2-1.6c1.2-1.1,1.8-2.4,1.8-3.9h4.7l0.1,0.2c0.1,2.5-1,4.6-3.2,6.6
		c-2.2,1.9-4.7,2.9-7.6,2.9c-4,0-7.1-1.4-9.3-4.1c-2.2-2.7-3.3-6.1-3.3-10.2v-1.1c0-4,1.1-7.4,3.3-10.1c2.2-2.7,5.3-4.1,9.3-4.1
		c3.2,0,5.8,1,7.8,3c2,2,3,4.4,2.9,7.3l-0.1,0.2h-4.7c0-1.7-0.6-3.2-1.7-4.4c-1.1-1.2-2.6-1.8-4.3-1.8c-2.5,0-4.4,1-5.6,3
		c-1.2,2-1.8,4.4-1.8,7.2v1.1c0,2.9,0.6,5.3,1.7,7.3C91,131.6,92.9,132.6,95.4,132.6z"/>
	<path class="st0" d="M111.2,121.5c0-4.2,1.1-7.7,3.4-10.4c2.3-2.7,5.4-4.1,9.3-4.1c4,0,7.1,1.4,9.4,4.1c2.3,2.7,3.4,6.2,3.4,10.4
		v0.6c0,4.3-1.1,7.7-3.4,10.4c-2.3,2.7-5.4,4.1-9.3,4.1c-3.9,0-7.1-1.4-9.3-4.1c-2.3-2.7-3.4-6.2-3.4-10.4V121.5z M116.3,122.1
		c0,3,0.6,5.5,1.9,7.5c1.3,2,3.2,3,5.7,3c2.5,0,4.4-1,5.6-3c1.3-2,1.9-4.5,1.9-7.5v-0.6c0-3-0.6-5.5-1.9-7.5s-3.2-3-5.7-3
		c-2.5,0-4.4,1-5.6,3c-1.3,2-1.9,4.5-1.9,7.5V122.1z"/>
	<path class="st0" d="M147.7,107.5l0.4,4.2c0.9-1.5,2.1-2.7,3.6-3.5c1.4-0.8,3.1-1.3,4.9-1.3c3.1,0,5.5,0.9,7.1,2.7
		c1.7,1.8,2.5,4.6,2.5,8.3v18H161v-17.9c0-2.5-0.5-4.3-1.5-5.4c-1-1.1-2.5-1.6-4.5-1.6c-1.6,0-3,0.3-4.1,1c-1.1,0.6-2,1.5-2.6,2.7
		v21.2h-5.2v-28.5H147.7z"/>
	<path class="st0" d="M185.1,132.6c1.6,0,3-0.5,4.2-1.6c1.2-1.1,1.8-2.4,1.8-3.9h4.7l0.1,0.2c0.1,2.5-1,4.6-3.2,6.6
		c-2.2,1.9-4.7,2.9-7.6,2.9c-4,0-7.1-1.4-9.3-4.1c-2.2-2.7-3.3-6.1-3.3-10.2v-1.1c0-4,1.1-7.4,3.3-10.1c2.2-2.7,5.3-4.1,9.3-4.1
		c3.2,0,5.8,1,7.8,3c2,2,3,4.4,2.9,7.3l-0.1,0.2h-4.7c0-1.7-0.6-3.2-1.7-4.4c-1.1-1.2-2.6-1.8-4.3-1.8c-2.5,0-4.4,1-5.6,3
		c-1.2,2-1.8,4.4-1.8,7.2v1.1c0,2.9,0.6,5.3,1.7,7.3C180.6,131.6,182.5,132.6,185.1,132.6z"/>
	<path class="st0" d="M213.8,136.6c-4.1,0-7.3-1.3-9.6-3.9s-3.4-6.1-3.4-10.3v-1.2c0-4.1,1.2-7.5,3.5-10.2c2.4-2.7,5.3-4,8.7-4
		c3.8,0,6.7,1.2,8.6,3.6c1.9,2.4,2.9,5.5,2.9,9.5v2.7h-18.2l-0.1,0.1c0,2.9,0.6,5.2,1.9,7c1.3,1.8,3.2,2.7,5.8,2.7
		c1.8,0,3.3-0.3,4.6-0.8c1.3-0.5,2.5-1.2,3.4-2.1l2,3.4c-1,1-2.4,1.8-4,2.5C218.2,136.3,216.2,136.6,213.8,136.6z M213,111.1
		c-1.8,0-3.3,0.7-4.5,2.1c-1.2,1.4-1.9,3.2-2.2,5.4l0.1,0.1h12.9v-0.4c0-2.1-0.5-3.8-1.5-5.1C216.7,111.8,215.1,111.1,213,111.1z"/>
	<path class="st0" d="M254.6,122.9c0,4.1-1,7.4-3,10c-2,2.5-4.7,3.8-8.1,3.8c-1.8,0-3.3-0.3-4.6-0.9c-1.3-0.6-2.5-1.5-3.4-2.6V147
		h-5.2v-39.5h4l0.8,3.7c0.9-1.4,2.1-2.4,3.5-3.1c1.4-0.7,3-1.1,4.9-1.1c3.5,0,6.3,1.4,8.2,4.2c2,2.8,2.9,6.5,2.9,11.1V122.9z
		 M249.4,122.3c0-3.2-0.6-5.9-1.9-8c-1.3-2.1-3.2-3.1-5.6-3.1c-1.5,0-2.8,0.3-3.8,1c-1.1,0.7-1.9,1.6-2.6,2.8v13.8
		c0.6,1.2,1.5,2.1,2.6,2.8c1.1,0.7,2.3,1,3.9,1c2.5,0,4.3-0.9,5.6-2.7c1.3-1.8,1.9-4.1,1.9-7V122.3z"/>
	<path class="st0" d="M268.2,100.7v6.9h5.4v3.8h-5.4v17.3c0,1.3,0.3,2.3,0.8,2.8s1.3,0.8,2.2,0.8c0.3,0,0.6,0,1-0.1
		c0.4-0.1,0.7-0.2,0.9-0.3l0.7,3.6c-0.4,0.3-1,0.6-1.7,0.8c-0.8,0.2-1.5,0.3-2.2,0.3c-2.1,0-3.8-0.6-5-1.9c-1.2-1.3-1.9-3.3-1.9-6
		v-17.3h-4.5v-3.8h4.5v-6.9H268.2z"/>
	<path class="st0" d="M278,121.5c0-4.2,1.1-7.7,3.4-10.4c2.3-2.7,5.4-4.1,9.3-4.1c4,0,7.1,1.4,9.4,4.1c2.3,2.7,3.4,6.2,3.4,10.4v0.6
		c0,4.3-1.1,7.7-3.4,10.4c-2.3,2.7-5.4,4.1-9.3,4.1c-3.9,0-7.1-1.4-9.3-4.1c-2.3-2.7-3.4-6.2-3.4-10.4V121.5z M283.1,122.1
		c0,3,0.6,5.5,1.9,7.5c1.3,2,3.2,3,5.7,3c2.5,0,4.4-1,5.6-3c1.3-2,1.9-4.5,1.9-7.5v-0.6c0-3-0.6-5.5-1.9-7.5s-3.2-3-5.7-3
		c-2.5,0-4.4,1-5.6,3c-1.3,2-1.9,4.5-1.9,7.5V122.1z"/>
	<path class="st0" d="M327.9,107.5l0.4,3.7c0.9-1.4,2.1-2.4,3.5-3.2c1.4-0.7,3.1-1.1,5-1.1s3.5,0.4,4.9,1.3c1.4,0.9,2.4,2.2,3.1,4
		c0.9-1.6,2.1-2.9,3.6-3.9c1.5-0.9,3.2-1.4,5.2-1.4c2.9,0,5.2,1,6.9,3c1.7,2,2.5,5,2.5,9v17.1h-5.2V119c0-2.8-0.5-4.8-1.5-6
		c-1-1.2-2.4-1.8-4.3-1.8c-1.8,0-3.2,0.6-4.3,1.8c-1.1,1.2-1.7,2.8-1.9,4.7v0.2v18.1h-5.2V119c0-2.7-0.5-4.6-1.5-5.9
		c-1-1.2-2.4-1.9-4.3-1.9c-1.6,0-2.9,0.3-3.9,1c-1,0.7-1.8,1.6-2.3,2.7v21.1h-5.2v-28.5H327.9z"/>
	<path class="st0" d="M388,136.1c-0.2-0.9-0.3-1.6-0.4-2.3c-0.1-0.7-0.2-1.3-0.2-2c-1,1.4-2.2,2.5-3.8,3.4c-1.6,0.9-3.2,1.4-5,1.4
		c-3,0-5.2-0.8-6.8-2.3c-1.6-1.5-2.3-3.6-2.3-6.3c0-2.7,1.1-4.9,3.3-6.4c2.2-1.5,5.2-2.3,9-2.3h5.6v-2.8c0-1.7-0.5-3-1.5-4
		c-1-1-2.5-1.5-4.3-1.5c-1.7,0-3,0.4-4.1,1.3c-1,0.8-1.6,1.9-1.6,3l-4.9,0.1l-0.1-0.2c-0.1-2.1,0.8-4,2.9-5.7c2.1-1.7,4.7-2.6,8-2.6
		c3.2,0,5.8,0.8,7.8,2.5c2,1.6,3,4,3,7.1v13.7c0,1,0.1,2,0.2,3s0.3,1.9,0.6,2.8H388z M379.4,132.3c1.9,0,3.6-0.5,5.1-1.5
		c1.5-1,2.5-2.1,3-3.3v-4.6h-5.8c-2.1,0-3.8,0.5-5,1.6c-1.3,1.1-1.9,2.3-1.9,3.7c0,1.3,0.4,2.3,1.2,3S377.8,132.3,379.4,132.3z"/>
	<path class="st0" d="M407.4,100.7v6.9h5.4v3.8h-5.4v17.3c0,1.3,0.3,2.3,0.8,2.8s1.3,0.8,2.2,0.8c0.3,0,0.6,0,1-0.1
		c0.4-0.1,0.7-0.2,0.9-0.3l0.7,3.6c-0.4,0.3-1,0.6-1.7,0.8c-0.8,0.2-1.5,0.3-2.2,0.3c-2.1,0-3.8-0.6-5-1.9c-1.2-1.3-1.9-3.3-1.9-6
		v-17.3h-4.5v-3.8h4.5v-6.9H407.4z"/>
	<path class="st0" d="M430.2,136.6c-4.1,0-7.3-1.3-9.6-3.9s-3.4-6.1-3.4-10.3v-1.2c0-4.1,1.2-7.5,3.5-10.2c2.4-2.7,5.3-4,8.7-4
		c3.8,0,6.7,1.2,8.6,3.6c1.9,2.4,2.9,5.5,2.9,9.5v2.7h-18.2l-0.1,0.1c0,2.9,0.6,5.2,1.9,7c1.3,1.8,3.2,2.7,5.8,2.7
		c1.8,0,3.3-0.3,4.6-0.8c1.3-0.5,2.5-1.2,3.4-2.1l2,3.4c-1,1-2.4,1.8-4,2.5C434.5,136.3,432.5,136.6,430.2,136.6z M429.4,111.1
		c-1.8,0-3.3,0.7-4.5,2.1c-1.2,1.4-1.9,3.2-2.2,5.4l0.1,0.1h12.9v-0.4c0-2.1-0.5-3.8-1.5-5.1C433.1,111.8,431.5,111.1,429.4,111.1z"
		/>
	<path class="st0" d="M451.3,107.5l0.4,3.7c0.9-1.4,2.1-2.4,3.5-3.2c1.4-0.7,3.1-1.1,5-1.1s3.5,0.4,4.9,1.3c1.4,0.9,2.4,2.2,3.1,4
		c0.9-1.6,2.1-2.9,3.6-3.9c1.5-0.9,3.2-1.4,5.2-1.4c2.9,0,5.2,1,6.9,3c1.7,2,2.5,5,2.5,9v17.1h-5.2V119c0-2.8-0.5-4.8-1.5-6
		c-1-1.2-2.4-1.8-4.3-1.8c-1.8,0-3.2,0.6-4.3,1.8c-1.1,1.2-1.7,2.8-1.9,4.7v0.2v18.1h-5.2V119c0-2.7-0.5-4.6-1.5-5.9
		c-1-1.2-2.4-1.9-4.3-1.9c-1.6,0-2.9,0.3-3.9,1c-1,0.7-1.8,1.6-2.3,2.7v21.1h-5.2v-28.5H451.3z"/>
	<path class="st0" d="M511.4,136.1c-0.2-0.9-0.3-1.6-0.4-2.3c-0.1-0.7-0.2-1.3-0.2-2c-1,1.4-2.2,2.5-3.8,3.4c-1.6,0.9-3.2,1.4-5,1.4
		c-3,0-5.2-0.8-6.8-2.3c-1.6-1.5-2.3-3.6-2.3-6.3c0-2.7,1.1-4.9,3.3-6.4c2.2-1.5,5.2-2.3,9-2.3h5.6v-2.8c0-1.7-0.5-3-1.5-4
		c-1-1-2.5-1.5-4.3-1.5c-1.7,0-3,0.4-4.1,1.3s-1.6,1.9-1.6,3l-4.9,0.1l-0.1-0.2c-0.1-2.1,0.8-4,2.9-5.7c2.1-1.7,4.7-2.6,8-2.6
		c3.2,0,5.8,0.8,7.8,2.5c2,1.6,3,4,3,7.1v13.7c0,1,0.1,2,0.2,3s0.3,1.9,0.6,2.8H511.4z M502.7,132.3c1.9,0,3.6-0.5,5.1-1.5
		c1.5-1,2.5-2.1,3-3.3v-4.6h-5.8c-2.1,0-3.8,0.5-5,1.6c-1.3,1.1-1.9,2.3-1.9,3.7c0,1.3,0.4,2.3,1.2,3S501.2,132.3,502.7,132.3z
		 M507.2,95.4h6.1l0.1,0.2l-7.1,6.9h-3.9L507.2,95.4z"/>
	<path class="st0" d="M530.7,100.7v6.9h5.4v3.8h-5.4v17.3c0,1.3,0.3,2.3,0.8,2.8c0.6,0.5,1.3,0.8,2.2,0.8c0.3,0,0.6,0,1-0.1
		c0.4-0.1,0.7-0.2,0.9-0.3l0.7,3.6c-0.4,0.3-1,0.6-1.7,0.8c-0.8,0.2-1.5,0.3-2.2,0.3c-2.1,0-3.8-0.6-5-1.9c-1.2-1.3-1.9-3.3-1.9-6
		v-17.3H521v-3.8h4.5v-6.9H530.7z"/>
	<path class="st0" d="M547.3,100.2h-5.2v-5.3h5.2V100.2z M547.3,136.1h-5.2v-28.5h5.2V136.1z"/>
	<path class="st0" d="M566.6,132.6c1.6,0,3-0.5,4.2-1.6c1.2-1.1,1.8-2.4,1.8-3.9h4.7l0.1,0.2c0.1,2.5-1,4.6-3.2,6.6
		c-2.2,1.9-4.7,2.9-7.6,2.9c-4,0-7.1-1.4-9.3-4.1s-3.3-6.1-3.3-10.2v-1.1c0-4,1.1-7.4,3.3-10.1c2.2-2.7,5.3-4.1,9.3-4.1
		c3.2,0,5.8,1,7.8,3c2,2,3,4.4,2.9,7.3l-0.1,0.2h-4.7c0-1.7-0.6-3.2-1.7-4.4c-1.1-1.2-2.6-1.8-4.3-1.8c-2.5,0-4.4,1-5.6,3
		c-1.2,2-1.8,4.4-1.8,7.2v1.1c0,2.9,0.6,5.3,1.7,7.3C562.2,131.6,564.1,132.6,566.6,132.6z"/>
	<path class="st0" d="M582.4,121.5c0-4.2,1.1-7.7,3.4-10.4c2.3-2.7,5.4-4.1,9.3-4.1c4,0,7.1,1.4,9.4,4.1c2.3,2.7,3.4,6.2,3.4,10.4
		v0.6c0,4.3-1.1,7.7-3.4,10.4c-2.3,2.7-5.4,4.1-9.3,4.1s-7.1-1.4-9.3-4.1c-2.3-2.7-3.4-6.2-3.4-10.4V121.5z M587.6,122.1
		c0,3,0.6,5.5,1.9,7.5c1.3,2,3.2,3,5.7,3c2.5,0,4.4-1,5.6-3c1.3-2,1.9-4.5,1.9-7.5v-0.6c0-3-0.6-5.5-1.9-7.5c-1.3-2-3.2-3-5.7-3
		c-2.5,0-4.4,1-5.6,3c-1.3,2-1.9,4.5-1.9,7.5V122.1z"/>
	<path class="st0" d="M626.5,122.3c0-4.6,1-8.3,2.9-11.1c2-2.8,4.7-4.2,8.2-4.2c1.7,0,3.2,0.3,4.4,0.9c1.3,0.6,2.4,1.5,3.3,2.7V94.9
		h5.2v41.1h-4l-0.8-3.6c-0.9,1.4-2.1,2.4-3.5,3.1s-3,1.1-4.8,1.1c-3.5,0-6.2-1.3-8.2-3.8c-2-2.5-3-5.8-3-10V122.3z M631.7,122.9
		c0,2.9,0.6,5.2,1.8,6.9c1.2,1.7,3,2.6,5.5,2.6c1.5,0,2.8-0.4,3.9-1.1c1.1-0.7,1.9-1.7,2.6-3v-13.3c-0.7-1.2-1.5-2.1-2.6-2.8
		c-1.1-0.7-2.3-1-3.8-1c-2.5,0-4.3,1-5.5,3.1c-1.2,2.1-1.8,4.7-1.8,8V122.9z"/>
	<path class="st0" d="M670.2,136.6c-4.1,0-7.3-1.3-9.6-3.9c-2.3-2.6-3.4-6.1-3.4-10.3v-1.2c0-4.1,1.2-7.5,3.5-10.2s5.3-4,8.7-4
		c3.8,0,6.7,1.2,8.6,3.6s2.9,5.5,2.9,9.5v2.7h-18.2l-0.1,0.1c0,2.9,0.6,5.2,1.9,7c1.3,1.8,3.2,2.7,5.8,2.7c1.8,0,3.3-0.3,4.6-0.8
		c1.3-0.5,2.5-1.2,3.4-2.1l2,3.4c-1,1-2.4,1.8-4,2.5C674.6,136.3,672.5,136.6,670.2,136.6z M669.4,111.1c-1.8,0-3.3,0.7-4.5,2.1
		c-1.2,1.4-1.9,3.2-2.2,5.4l0.1,0.1h12.9v-0.4c0-2.1-0.5-3.8-1.5-5.1S671.5,111.1,669.4,111.1z"/>
	<path class="st0" d="M705.7,136.1h-5.2V94.9h5.2V136.1z"/>
	<path class="st0" d="M731.2,136.1c-0.2-0.9-0.3-1.6-0.4-2.3c-0.1-0.7-0.2-1.3-0.2-2c-1,1.4-2.2,2.5-3.8,3.4c-1.6,0.9-3.2,1.4-5,1.4
		c-3,0-5.2-0.8-6.8-2.3c-1.6-1.5-2.3-3.6-2.3-6.3c0-2.7,1.1-4.9,3.3-6.4c2.2-1.5,5.2-2.3,9-2.3h5.6v-2.8c0-1.7-0.5-3-1.5-4
		c-1-1-2.5-1.5-4.3-1.5c-1.7,0-3,0.4-4.1,1.3s-1.6,1.9-1.6,3l-4.9,0.1l-0.1-0.2c-0.1-2.1,0.8-4,2.9-5.7c2.1-1.7,4.7-2.6,8-2.6
		c3.2,0,5.8,0.8,7.8,2.5c2,1.6,3,4,3,7.1v13.7c0,1,0.1,2,0.2,3s0.3,1.9,0.6,2.8H731.2z M722.6,132.3c1.9,0,3.6-0.5,5.1-1.5
		c1.5-1,2.5-2.1,3-3.3v-4.6h-5.8c-2.1,0-3.8,0.5-5,1.6c-1.3,1.1-1.9,2.3-1.9,3.7c0,1.3,0.4,2.3,1.2,3S721,132.3,722.6,132.3z"/>
	<path class="st0" d="M758.9,136.1v-24.7h-4.5v-3.8h4.5v-3.6c0-3,0.8-5.4,2.4-7.1s3.8-2.5,6.7-2.5c0.6,0,1.2,0,1.8,0.1
		c0.6,0.1,1.3,0.2,2,0.4l-0.6,4c-0.3-0.1-0.7-0.1-1.1-0.2c-0.4-0.1-0.9-0.1-1.4-0.1c-1.5,0-2.6,0.5-3.4,1.4
		c-0.7,0.9-1.1,2.2-1.1,3.9v3.6h5.2v3.8h-5.2v24.7H758.9z"/>
	<path class="st0" d="M792.7,131.9c-0.9,1.5-2,2.7-3.5,3.5s-3,1.2-4.9,1.2c-3.1,0-5.5-1-7.3-3s-2.6-5.1-2.6-9.3v-16.8h5.2v16.9
		c0,3,0.4,5.1,1.3,6.3s2.3,1.7,4.2,1.7c1.8,0,3.4-0.4,4.6-1.1c1.2-0.7,2.1-1.8,2.7-3.2v-20.6h5.2v28.5H793L792.7,131.9z"/>
	<path class="st0" d="M809.9,107.5l0.4,4.2c0.9-1.5,2.1-2.7,3.6-3.5c1.4-0.8,3.1-1.3,4.9-1.3c3.1,0,5.5,0.9,7.1,2.7
		c1.7,1.8,2.5,4.6,2.5,8.3v18h-5.2v-17.9c0-2.5-0.5-4.3-1.5-5.4s-2.5-1.6-4.5-1.6c-1.6,0-3,0.3-4.1,1c-1.1,0.6-2,1.5-2.7,2.7v21.2
		h-5.2v-28.5H809.9z"/>
	<path class="st0" d="M847.3,132.6c1.6,0,3-0.5,4.2-1.6c1.2-1.1,1.8-2.4,1.8-3.9h4.7l0.1,0.2c0.1,2.5-1,4.6-3.2,6.6
		c-2.2,1.9-4.7,2.9-7.6,2.9c-4,0-7.1-1.4-9.3-4.1s-3.3-6.1-3.3-10.2v-1.1c0-4,1.1-7.4,3.3-10.1c2.2-2.7,5.3-4.1,9.3-4.1
		c3.2,0,5.8,1,7.8,3c2,2,3,4.4,2.9,7.3l-0.1,0.2h-4.7c0-1.7-0.6-3.2-1.7-4.4c-1.1-1.2-2.6-1.8-4.3-1.8c-2.5,0-4.4,1-5.6,3
		c-1.2,2-1.8,4.4-1.8,7.2v1.1c0,2.9,0.6,5.3,1.7,7.3C842.8,131.6,844.7,132.6,847.3,132.6z"/>
	<path class="st0" d="M869.8,100.2h-5.2v-5.3h5.2V100.2z M869.8,136.1h-5.2v-28.5h5.2V136.1z"/>
	<path class="st0" d="M876.6,121.5c0-4.2,1.1-7.7,3.4-10.4c2.3-2.7,5.4-4.1,9.3-4.1c4,0,7.1,1.4,9.4,4.1c2.3,2.7,3.4,6.2,3.4,10.4
		v0.6c0,4.3-1.1,7.7-3.4,10.4c-2.3,2.7-5.4,4.1-9.3,4.1s-7.1-1.4-9.3-4.1c-2.3-2.7-3.4-6.2-3.4-10.4V121.5z M881.8,122.1
		c0,3,0.6,5.5,1.9,7.5c1.3,2,3.2,3,5.7,3c2.5,0,4.4-1,5.6-3c1.3-2,1.9-4.5,1.9-7.5v-0.6c0-3-0.6-5.5-1.9-7.5c-1.3-2-3.2-3-5.7-3
		c-2.5,0-4.4,1-5.6,3c-1.3,2-1.9,4.5-1.9,7.5V122.1z M891.9,95.4h6.1l0.1,0.2l-7.1,6.9H887L891.9,95.4z"/>
	<path class="st0" d="M913.1,107.5l0.4,4.2c0.9-1.5,2.1-2.7,3.6-3.5c1.4-0.8,3.1-1.3,4.9-1.3c3.1,0,5.5,0.9,7.1,2.7
		c1.7,1.8,2.5,4.6,2.5,8.3v18h-5.2v-17.9c0-2.5-0.5-4.3-1.5-5.4s-2.5-1.6-4.5-1.6c-1.6,0-3,0.3-4.1,1c-1.1,0.6-2,1.5-2.7,2.7v21.2
		h-5.2v-28.5H913.1z"/>
</g>
</svg>
