<?xml version="1.0" encoding="utf-8"?>
<!-- Generator: Adobe Illustrator 23.0.3, SVG Export Plug-In . SVG Version: 6.00 Build 0)  -->
<svg version="1.1" id="Capa_1" xmlns="http://www.w3.org/2000/svg" xmlns:xlink="http://www.w3.org/1999/xlink" x="0px" y="0px"
	 viewBox="0 0 2242.8 179.1" style="enable-background:new 0 0 2242.8 179.1;" xml:space="preserve">
<style type="text/css">
	.st0{fill:#61C1A2;}
</style>
<g>
	<path class="st0" d="M31.6,84.4v34.9H19.9v-87h33.3c9.3,0,16.5,2.4,21.7,7.2c5.2,4.8,7.7,11.1,7.7,18.9c0,7.9-2.6,14.2-7.7,18.9
		c-5.2,4.7-12.4,7.1-21.7,7.1H31.6z M31.6,75.2h21.5c5.9,0,10.3-1.6,13.2-4.7c2.9-3.2,4.4-7.2,4.4-12c0-4.8-1.5-8.8-4.4-12.1
		c-2.9-3.2-7.3-4.8-13.2-4.8H31.6V75.2z"/>
	<path class="st0" d="M126.6,65.1l-6-0.4c-3.1,0-5.7,0.7-7.9,2.2c-2.1,1.5-3.8,3.5-4.9,6.2v46.2H96V54.7h10.5l1.1,9.4
		c1.8-3.3,4.1-6,6.8-7.8c2.7-1.9,5.8-2.8,9.3-2.8c0.9,0,1.7,0.1,2.5,0.2c0.8,0.1,1.5,0.3,2,0.4L126.6,65.1z"/>
	<path class="st0" d="M134.9,86.4c0-9.6,2.6-17.4,7.8-23.6c5.2-6.2,12.2-9.3,21.1-9.3c9,0,16,3.1,21.2,9.3
		c5.2,6.2,7.8,14.1,7.8,23.7v1.3c0,9.6-2.6,17.5-7.8,23.7c-5.2,6.1-12.2,9.2-21.1,9.2c-8.9,0-16-3.1-21.2-9.2
		c-5.2-6.2-7.8-14-7.8-23.6V86.4z M146.7,87.7c0,6.9,1.4,12.5,4.3,17c2.9,4.5,7.2,6.7,12.9,6.7c5.6,0,9.9-2.2,12.8-6.7
		c2.9-4.5,4.4-10.1,4.4-17v-1.3c0-6.8-1.5-12.4-4.4-16.9c-2.9-4.5-7.2-6.8-12.9-6.8c-5.6,0-9.9,2.3-12.8,6.8
		c-2.9,4.5-4.3,10.1-4.3,16.9V87.7z"/>
	<path class="st0" d="M217.7,54.7l0.8,9.6c2.2-3.4,4.8-6.1,8.1-8c3.2-1.9,6.9-2.8,11.1-2.8c7,0,12.4,2,16.2,6.1
		c3.8,4.1,5.7,10.4,5.7,18.9v40.8h-11.8V78.7c0-5.7-1.1-9.7-3.4-12.1c-2.3-2.4-5.7-3.6-10.3-3.6c-3.6,0-6.7,0.7-9.2,2.2
		c-2.5,1.5-4.5,3.5-6,6.1v48h-11.8V54.7H217.7z"/>
	<path class="st0" d="M274,86.4c0-9.6,2.6-17.4,7.8-23.6c5.2-6.2,12.2-9.3,21.1-9.3c9,0,16,3.1,21.2,9.3c5.2,6.2,7.8,14.1,7.8,23.7
		v1.3c0,9.6-2.6,17.5-7.8,23.7c-5.2,6.1-12.2,9.2-21.1,9.2c-8.9,0-16-3.1-21.2-9.2c-5.2-6.2-7.8-14-7.8-23.6V86.4z M285.8,87.7
		c0,6.9,1.4,12.5,4.3,17c2.9,4.5,7.2,6.7,12.9,6.7c5.6,0,9.9-2.2,12.8-6.7c2.9-4.5,4.4-10.1,4.4-17v-1.3c0-6.8-1.5-12.4-4.4-16.9
		c-2.9-4.5-7.2-6.8-12.9-6.8c-5.6,0-9.9,2.3-12.8,6.8c-2.9,4.5-4.3,10.1-4.3,16.9V87.7z M308.6,27.3h13.7l0.1,0.4l-16.1,15.5h-8.8
		L308.6,27.3z"/>
	<path class="st0" d="M383.9,101.9c0-2.6-1-4.7-3-6.3c-2-1.6-5.7-3.1-11.2-4.3c-7.6-1.6-13.5-3.9-17.5-6.9
		c-4.1-2.9-6.1-6.9-6.1-11.8c0-5.3,2.2-9.8,6.7-13.5c4.5-3.7,10.3-5.6,17.4-5.6c7.3,0,13.3,2,17.8,6c4.5,4,6.7,8.6,6.5,13.9
		l-0.1,0.4h-11.2c0-2.8-1.2-5.3-3.7-7.6c-2.4-2.3-5.5-3.4-9.3-3.4c-4.1,0-7.2,0.9-9.3,2.8c-2.1,1.9-3.1,4.1-3.1,6.7
		c0,2.5,0.9,4.5,2.7,5.9c1.8,1.4,5.4,2.7,11,3.8c7.9,1.7,13.9,4,18,7.1c4.1,3.1,6.2,7.1,6.2,12c0,5.7-2.3,10.4-7,14
		c-4.6,3.6-10.7,5.4-18.2,5.4c-8.2,0-14.7-2.1-19.5-6.3c-4.7-4.2-7-9.1-6.8-14.6l0.1-0.4h11.2c0.2,4.2,1.8,7.2,4.7,9.2
		c2.9,1.9,6.3,2.9,10.2,2.9c4.2,0,7.5-0.9,9.8-2.7C382.7,106.9,383.9,104.7,383.9,101.9z"/>
	<path class="st0" d="M426.6,39.1v15.6h12.2v8.7h-12.2v39.2c0,3,0.6,5.2,1.9,6.4c1.3,1.2,2.9,1.9,5,1.9c0.7,0,1.4-0.1,2.3-0.3
		s1.5-0.4,2.1-0.6l1.6,8.1c-0.9,0.7-2.2,1.3-3.9,1.8c-1.7,0.5-3.4,0.7-5.1,0.7c-4.8,0-8.6-1.4-11.4-4.3c-2.8-2.9-4.2-7.4-4.2-13.6
		V63.4h-10.3v-8.7h10.3V39.1H426.6z"/>
	<path class="st0" d="M464.2,38.1h-11.8v-12h11.8V38.1z M464.2,119.3h-11.8V54.7h11.8V119.3z"/>
	<path class="st0" d="M508,111.4c3.6,0,6.8-1.2,9.5-3.6c2.7-2.4,4.1-5.4,4.1-8.9h10.6l0.2,0.4c0.2,5.6-2.2,10.5-7.2,14.8
		c-4.9,4.3-10.7,6.5-17.2,6.5c-9.1,0-16.1-3.1-21-9.3c-4.9-6.2-7.4-13.9-7.4-23.1v-2.5c0-9.1,2.5-16.8,7.4-23c5-6.2,12-9.3,21-9.3
		c7.2,0,13.1,2.2,17.7,6.7c4.6,4.5,6.8,9.9,6.7,16.4l-0.1,0.4h-10.7c0-3.9-1.3-7.3-3.9-10.1c-2.6-2.8-5.8-4.2-9.7-4.2
		c-5.8,0-10,2.2-12.6,6.7c-2.6,4.5-4,9.9-4,16.3v2.5c0,6.5,1.3,12,3.9,16.4C497.9,109.1,502.1,111.4,508,111.4z"/>
	<path class="st0" d="M543.6,86.4c0-9.6,2.6-17.4,7.8-23.6c5.2-6.2,12.2-9.3,21.1-9.3c9,0,16,3.1,21.2,9.3
		c5.2,6.2,7.8,14.1,7.8,23.7v1.3c0,9.6-2.6,17.5-7.8,23.7c-5.2,6.1-12.2,9.2-21.1,9.2c-8.9,0-16-3.1-21.2-9.2
		c-5.2-6.2-7.8-14-7.8-23.6V86.4z M555.4,87.7c0,6.9,1.4,12.5,4.3,17c2.9,4.5,7.2,6.7,12.9,6.7c5.6,0,9.9-2.2,12.8-6.7
		c2.9-4.5,4.4-10.1,4.4-17v-1.3c0-6.8-1.5-12.4-4.4-16.9c-2.9-4.5-7.2-6.8-12.9-6.8c-5.6,0-9.9,2.3-12.8,6.8
		c-2.9,4.5-4.3,10.1-4.3,16.9V87.7z"/>
	<path class="st0" d="M653.5,101.9c0-2.6-1-4.7-3-6.3c-2-1.6-5.7-3.1-11.2-4.3c-7.6-1.6-13.5-3.9-17.5-6.9
		c-4.1-2.9-6.1-6.9-6.1-11.8c0-5.3,2.2-9.8,6.7-13.5c4.5-3.7,10.3-5.6,17.4-5.6c7.3,0,13.3,2,17.8,6c4.5,4,6.7,8.6,6.5,13.9
		l-0.1,0.4h-11.2c0-2.8-1.2-5.3-3.7-7.6c-2.4-2.3-5.5-3.4-9.3-3.4c-4.1,0-7.2,0.9-9.3,2.8c-2.1,1.9-3.1,4.1-3.1,6.7
		c0,2.5,0.9,4.5,2.7,5.9c1.8,1.4,5.4,2.7,11,3.8c7.9,1.7,13.9,4,18,7.1c4.1,3.1,6.2,7.1,6.2,12c0,5.7-2.3,10.4-7,14
		c-4.6,3.6-10.7,5.4-18.2,5.4c-8.2,0-14.7-2.1-19.5-6.3c-4.7-4.2-7-9.1-6.8-14.6l0.1-0.4h11.2c0.2,4.2,1.8,7.2,4.7,9.2
		c2.9,1.9,6.3,2.9,10.2,2.9c4.2,0,7.5-0.9,9.8-2.7C652.3,106.9,653.5,104.7,653.5,101.9z"/>
	<path class="st0" d="M713.6,119.3V63.4h-10.2v-8.7h10.2v-7c0-7.2,2.1-12.9,6.4-16.8c4.2-4,10.1-6,17.7-6c2.7,0,5.3,0.3,7.9,0.9
		c2.6,0.6,5.6,1.5,9.1,2.7l-2,9.6c-2.1-0.8-4.4-1.6-6.8-2.2S741,35,738.5,35c-4.7,0-8,1-10.1,3.1c-2.1,2.1-3.1,5.3-3.1,9.6v7h12.8
		v8.7h-12.8v55.9H713.6z M760.3,119.3h-11.8V54.7h11.8V119.3z"/>
	<path class="st0" d="M788.9,54.7l0.8,9.6c2.2-3.4,4.8-6.1,8.1-8c3.2-1.9,6.9-2.8,11.1-2.8c7,0,12.4,2,16.2,6.1
		c3.8,4.1,5.7,10.4,5.7,18.9v40.8h-11.8V78.7c0-5.7-1.1-9.7-3.4-12.1c-2.3-2.4-5.7-3.6-10.3-3.6c-3.6,0-6.7,0.7-9.2,2.2
		c-2.5,1.5-4.5,3.5-6,6.1v48h-11.8V54.7H788.9z"/>
	<path class="st0" d="M887.6,119.3c-0.4-2-0.7-3.7-0.9-5.2c-0.2-1.5-0.3-3-0.4-4.5c-2.2,3.1-5,5.7-8.6,7.8
		c-3.5,2.1-7.3,3.1-11.4,3.1c-6.7,0-11.9-1.7-15.4-5.2c-3.5-3.4-5.3-8.2-5.3-14.2c0-6.2,2.5-11,7.5-14.5c5-3.5,11.8-5.2,20.3-5.2
		h12.8V75c0-3.8-1.2-6.8-3.5-9c-2.3-2.2-5.6-3.3-9.8-3.3c-3.8,0-6.9,1-9.3,2.9c-2.4,1.9-3.5,4.2-3.5,6.9l-11.2,0.1l-0.1-0.4
		c-0.3-4.7,1.9-9,6.6-12.9c4.7-3.9,10.7-5.9,18.1-5.9c7.3,0,13.2,1.9,17.7,5.6c4.5,3.7,6.7,9.1,6.7,16.1v31.1c0,2.3,0.1,4.5,0.4,6.7
		c0.2,2.2,0.7,4.3,1.3,6.3H887.6z M868.1,110.7c4.3,0,8.1-1.1,11.5-3.3c3.4-2.2,5.7-4.7,6.7-7.5V89.4h-13.2c-4.7,0-8.5,1.2-11.4,3.6
		c-2.8,2.4-4.3,5.2-4.3,8.4c0,2.9,0.9,5.1,2.7,6.8C861.9,109.9,864.6,110.7,868.1,110.7z"/>
	<path class="st0" d="M925.7,54.7l0.8,9.6c2.2-3.4,4.8-6.1,8.1-8c3.2-1.9,6.9-2.8,11.1-2.8c7,0,12.4,2,16.2,6.1
		c3.8,4.1,5.7,10.4,5.7,18.9v40.8h-11.8V78.7c0-5.7-1.1-9.7-3.4-12.1c-2.3-2.4-5.7-3.6-10.3-3.6c-3.6,0-6.7,0.7-9.2,2.2
		c-2.5,1.5-4.5,3.5-6,6.1v48h-11.8V54.7H925.7z"/>
	<path class="st0" d="M1010.4,111.4c3.6,0,6.8-1.2,9.5-3.6c2.7-2.4,4.1-5.4,4.1-8.9h10.6l0.2,0.4c0.2,5.6-2.2,10.5-7.2,14.8
		c-4.9,4.3-10.7,6.5-17.2,6.5c-9.1,0-16.1-3.1-21-9.3c-4.9-6.2-7.4-13.9-7.4-23.1v-2.5c0-9.1,2.5-16.8,7.4-23c5-6.2,12-9.3,21-9.3
		c7.2,0,13.1,2.2,17.7,6.7c4.6,4.5,6.8,9.9,6.7,16.4l-0.1,0.4H1024c0-3.9-1.3-7.3-3.9-10.1c-2.6-2.8-5.8-4.2-9.7-4.2
		c-5.8,0-10,2.2-12.6,6.7c-2.6,4.5-4,9.9-4,16.3v2.5c0,6.5,1.3,12,3.9,16.4C1000.3,109.1,1004.5,111.4,1010.4,111.4z"/>
	<path class="st0" d="M1061.5,38.1h-11.8v-12h11.8V38.1z M1061.5,119.3h-11.8V54.7h11.8V119.3z"/>
	<path class="st0" d="M1106.3,120.6c-9.3,0-16.5-3-21.7-8.9c-5.2-5.9-7.8-13.7-7.8-23.4v-2.6c0-9.3,2.7-17,8-23
		c5.4-6.1,11.9-9.1,19.6-9.1c8.6,0,15.1,2.7,19.4,8.1c4.3,5.4,6.5,12.5,6.5,21.4v6.2h-41.3l-0.2,0.3c0,6.5,1.4,11.8,4.3,15.8
		c2.9,4,7.2,6.1,13.1,6.1c4,0,7.5-0.6,10.5-1.7c3-1.1,5.6-2.7,7.7-4.7l4.6,7.6c-2.3,2.2-5.4,4.1-9.1,5.6
		C1116.2,119.8,1111.7,120.6,1106.3,120.6z M1104.5,62.7c-4.1,0-7.5,1.6-10.2,4.7c-2.7,3.2-4.3,7.2-4.9,12.2l0.1,0.3h29.2v-1
		c0-4.7-1.2-8.6-3.5-11.6C1112.9,64.3,1109.3,62.7,1104.5,62.7z"/>
	<path class="st0" d="M1174.2,65.1l-6-0.4c-3.1,0-5.7,0.7-7.9,2.2c-2.1,1.5-3.8,3.5-4.9,6.2v46.2h-11.8V54.7h10.5l1.1,9.4
		c1.8-3.3,4.1-6,6.8-7.8c2.7-1.9,5.8-2.8,9.3-2.8c0.9,0,1.7,0.1,2.5,0.2c0.8,0.1,1.5,0.3,2,0.4L1174.2,65.1z"/>
	<path class="st0" d="M1182.5,86.4c0-9.6,2.6-17.4,7.8-23.6c5.2-6.2,12.2-9.3,21.1-9.3c9,0,16,3.1,21.2,9.3
		c5.2,6.2,7.8,14.1,7.8,23.7v1.3c0,9.6-2.6,17.5-7.8,23.7c-5.2,6.1-12.2,9.2-21.1,9.2c-8.9,0-16-3.1-21.2-9.2
		c-5.2-6.2-7.8-14-7.8-23.6V86.4z M1194.3,87.7c0,6.9,1.4,12.5,4.3,17c2.9,4.5,7.2,6.7,12.9,6.7c5.6,0,9.9-2.2,12.8-6.7
		c2.9-4.5,4.4-10.1,4.4-17v-1.3c0-6.8-1.5-12.4-4.4-16.9c-2.9-4.5-7.2-6.8-12.9-6.8c-5.6,0-9.9,2.3-12.8,6.8
		c-2.9,4.5-4.3,10.1-4.3,16.9V87.7z"/>
	<path class="st0" d="M1292.4,101.9c0-2.6-1-4.7-3-6.3c-2-1.6-5.7-3.1-11.2-4.3c-7.6-1.6-13.5-3.9-17.5-6.9
		c-4.1-2.9-6.1-6.9-6.1-11.8c0-5.3,2.2-9.8,6.7-13.5c4.5-3.7,10.3-5.6,17.4-5.6c7.3,0,13.3,2,17.8,6c4.5,4,6.7,8.6,6.5,13.9
		l-0.1,0.4h-11.2c0-2.8-1.2-5.3-3.7-7.6c-2.4-2.3-5.5-3.4-9.3-3.4c-4.1,0-7.2,0.9-9.3,2.8c-2.1,1.9-3.1,4.1-3.1,6.7
		c0,2.5,0.9,4.5,2.7,5.9c1.8,1.4,5.4,2.7,11,3.8c7.9,1.7,13.9,4,18,7.1c4.1,3.1,6.2,7.1,6.2,12c0,5.7-2.3,10.4-7,14
		c-4.6,3.6-10.7,5.4-18.2,5.4c-8.2,0-14.7-2.1-19.5-6.3c-4.7-4.2-7-9.1-6.8-14.6l0.1-0.4h11.2c0.2,4.2,1.8,7.2,4.7,9.2
		c2.9,1.9,6.3,2.9,10.2,2.9c4.2,0,7.5-0.9,9.8-2.7C1291.2,106.9,1292.4,104.7,1292.4,101.9z"/>
	<path class="st0" d="M1368.9,95.4l2.1,8.1h0.4l15.9-48.8h13.1l-27.2,74.6c-1.6,4.3-4,8.1-7,11.4c-3,3.2-7.2,4.8-12.3,4.8
		c-1,0-2.2-0.1-3.6-0.3c-1.5-0.2-2.6-0.4-3.4-0.6l1.2-9.3c-0.2,0,0.5,0,2.1,0.1c1.7,0.1,2.7,0.2,3.1,0.2c2.5,0,4.6-1.1,6.2-3.3
		c1.6-2.2,2.9-4.7,4-7.4l2.8-6.8l-24-63.3h13.1L1368.9,95.4z"/>
	<path class="st0" d="M1478.7,101.9c0-2.6-1-4.7-3-6.3c-2-1.6-5.7-3.1-11.2-4.3c-7.6-1.6-13.5-3.9-17.5-6.9
		c-4.1-2.9-6.1-6.9-6.1-11.8c0-5.3,2.2-9.8,6.7-13.5c4.5-3.7,10.3-5.6,17.4-5.6c7.3,0,13.3,2,17.8,6c4.5,4,6.7,8.6,6.5,13.9
		l-0.1,0.4H1478c0-2.8-1.2-5.3-3.7-7.6c-2.4-2.3-5.5-3.4-9.3-3.4c-4.1,0-7.2,0.9-9.3,2.8c-2.1,1.9-3.1,4.1-3.1,6.7
		c0,2.5,0.9,4.5,2.7,5.9c1.8,1.4,5.4,2.7,11,3.8c7.9,1.7,13.9,4,18,7.1c4.1,3.1,6.2,7.1,6.2,12c0,5.7-2.3,10.4-7,14
		c-4.6,3.6-10.7,5.4-18.2,5.4c-8.2,0-14.7-2.1-19.5-6.3c-4.7-4.2-7-9.1-6.8-14.6l0.1-0.4h11.2c0.2,4.2,1.8,7.2,4.7,9.2
		c2.9,1.9,6.3,2.9,10.2,2.9c4.2,0,7.5-0.9,9.8-2.7C1477.5,106.9,1478.7,104.7,1478.7,101.9z"/>
	<path class="st0" d="M1546.1,109.8c-2,3.5-4.6,6.1-7.8,8c-3.2,1.9-6.9,2.8-11.1,2.8c-7,0-12.5-2.2-16.5-6.8
		c-3.9-4.5-5.9-11.5-5.9-21V54.7h11.8v38.2c0,6.9,1,11.6,3,14.2c2,2.6,5.2,3.9,9.5,3.9c4.2,0,7.6-0.8,10.4-2.5
		c2.7-1.7,4.8-4.1,6.2-7.2V54.7h11.8v64.6h-10.6L1546.1,109.8z"/>
	<path class="st0" d="M1612.2,101.9c0-2.6-1-4.7-3-6.3c-2-1.6-5.7-3.1-11.2-4.3c-7.6-1.6-13.5-3.9-17.5-6.9
		c-4.1-2.9-6.1-6.9-6.1-11.8c0-5.3,2.2-9.8,6.7-13.5c4.5-3.7,10.3-5.6,17.4-5.6c7.3,0,13.3,2,17.8,6c4.5,4,6.7,8.6,6.5,13.9
		l-0.1,0.4h-11.2c0-2.8-1.2-5.3-3.7-7.6c-2.4-2.3-5.5-3.4-9.3-3.4c-4.1,0-7.2,0.9-9.3,2.8c-2.1,1.9-3.1,4.1-3.1,6.7
		c0,2.5,0.9,4.5,2.7,5.9c1.8,1.4,5.4,2.7,11,3.8c7.9,1.7,13.9,4,18,7.1c4.1,3.1,6.2,7.1,6.2,12c0,5.7-2.3,10.4-7,14
		c-4.6,3.6-10.7,5.4-18.2,5.4c-8.2,0-14.7-2.1-19.5-6.3c-4.7-4.2-7-9.1-6.8-14.6l0.1-0.4h11.2c0.2,4.2,1.8,7.2,4.7,9.2
		c2.9,1.9,6.3,2.9,10.2,2.9c4.2,0,7.5-0.9,9.8-2.7C1611,106.9,1612.2,104.7,1612.2,101.9z"/>
	<path class="st0" d="M1706.6,101.9c0-2.6-1-4.7-3-6.3c-2-1.6-5.7-3.1-11.2-4.3c-7.6-1.6-13.5-3.9-17.5-6.9
		c-4.1-2.9-6.1-6.9-6.1-11.8c0-5.3,2.2-9.8,6.7-13.5c4.5-3.7,10.3-5.6,17.4-5.6c7.3,0,13.3,2,17.8,6c4.5,4,6.7,8.6,6.5,13.9
		l-0.1,0.4h-11.2c0-2.8-1.2-5.3-3.7-7.6c-2.4-2.3-5.5-3.4-9.3-3.4c-4.1,0-7.2,0.9-9.3,2.8c-2.1,1.9-3.1,4.1-3.1,6.7
		c0,2.5,0.9,4.5,2.7,5.9c1.8,1.4,5.4,2.7,11,3.8c7.9,1.7,13.9,4,18,7.1c4.1,3.1,6.2,7.1,6.2,12c0,5.7-2.3,10.4-7,14
		c-4.6,3.6-10.7,5.4-18.2,5.4c-8.2,0-14.7-2.1-19.5-6.3c-4.7-4.2-7-9.1-6.8-14.6l0.1-0.4h11.2c0.2,4.2,1.8,7.2,4.7,9.2
		c2.9,1.9,6.3,2.9,10.2,2.9c4.2,0,7.5-0.9,9.8-2.7C1705.4,106.9,1706.6,104.7,1706.6,101.9z"/>
	<path class="st0" d="M1774,109.8c-2,3.5-4.6,6.1-7.8,8c-3.2,1.9-6.9,2.8-11.1,2.8c-7,0-12.5-2.2-16.5-6.8c-3.9-4.5-5.9-11.5-5.9-21
		V54.7h11.8v38.2c0,6.9,1,11.6,3,14.2c2,2.6,5.2,3.9,9.5,3.9c4.2,0,7.6-0.8,10.4-2.5c2.7-1.7,4.8-4.1,6.2-7.2V54.7h11.8v64.6h-10.6
		L1774,109.8z"/>
	<path class="st0" d="M1857.6,89.4c0,9.3-2.2,16.8-6.7,22.6c-4.5,5.7-10.6,8.6-18.5,8.6c-4,0-7.5-0.7-10.5-2c-3-1.3-5.6-3.3-7.7-6
		v31.6h-11.8V54.7h9l1.9,8.4c2.1-3.1,4.7-5.5,7.9-7.1c3.1-1.6,6.8-2.4,11-2.4c8,0,14.2,3.2,18.7,9.5c4.4,6.4,6.7,14.7,6.7,25.2V89.4
		z M1845.8,88.2c0-7.3-1.4-13.4-4.3-18.1c-2.9-4.7-7.1-7.1-12.8-7.1c-3.4,0-6.3,0.8-8.7,2.3c-2.4,1.5-4.3,3.6-5.8,6.3v31.2
		c1.5,2.7,3.4,4.7,5.8,6.2c2.4,1.5,5.3,2.2,8.8,2.2c5.6,0,9.8-2,12.7-6.1c2.9-4.1,4.3-9.3,4.3-15.8V88.2z"/>
	<path class="st0" d="M1913.1,109.8c-2,3.5-4.6,6.1-7.8,8c-3.2,1.9-6.9,2.8-11.1,2.8c-7,0-12.5-2.2-16.5-6.8
		c-3.9-4.5-5.9-11.5-5.9-21V54.7h11.8v38.2c0,6.9,1,11.6,3,14.2c2,2.6,5.2,3.9,9.5,3.9c4.2,0,7.6-0.8,10.4-2.5
		c2.7-1.7,4.8-4.1,6.2-7.2V54.7h11.8v64.6h-10.6L1913.1,109.8z"/>
	<path class="st0" d="M1968.4,120.6c-9.3,0-16.5-3-21.7-8.9c-5.2-5.9-7.8-13.7-7.8-23.4v-2.6c0-9.3,2.7-17,8-23
		c5.4-6.1,11.9-9.1,19.6-9.1c8.6,0,15.1,2.7,19.4,8.1c4.3,5.4,6.5,12.5,6.5,21.4v6.2h-41.3l-0.2,0.3c0,6.5,1.4,11.8,4.3,15.8
		c2.9,4,7.2,6.1,13.1,6.1c4,0,7.5-0.6,10.5-1.7c3-1.1,5.6-2.7,7.7-4.7l4.6,7.6c-2.3,2.2-5.4,4.1-9.1,5.6
		C1978.2,119.8,1973.7,120.6,1968.4,120.6z M1966.5,62.7c-4.1,0-7.5,1.6-10.2,4.7c-2.7,3.2-4.3,7.2-4.9,12.2l0.1,0.3h29.2v-1
		c0-4.7-1.2-8.6-3.5-11.6C1974.9,64.3,1971.3,62.7,1966.5,62.7z"/>
	<path class="st0" d="M2043.2,101.9c0-2.6-1-4.7-3-6.3c-2-1.6-5.7-3.1-11.2-4.3c-7.6-1.6-13.5-3.9-17.5-6.9
		c-4.1-2.9-6.1-6.9-6.1-11.8c0-5.3,2.2-9.8,6.7-13.5c4.5-3.7,10.3-5.6,17.4-5.6c7.3,0,13.3,2,17.8,6c4.5,4,6.7,8.6,6.5,13.9
		l-0.1,0.4h-11.2c0-2.8-1.2-5.3-3.7-7.6c-2.4-2.3-5.5-3.4-9.3-3.4c-4.1,0-7.2,0.9-9.3,2.8c-2.1,1.9-3.1,4.1-3.1,6.7
		c0,2.5,0.9,4.5,2.7,5.9c1.8,1.4,5.4,2.7,11,3.8c7.9,1.7,13.9,4,18,7.1c4.1,3.1,6.2,7.1,6.2,12c0,5.7-2.3,10.4-7,14
		c-4.6,3.6-10.7,5.4-18.2,5.4c-8.2,0-14.7-2.1-19.5-6.3c-4.7-4.2-7-9.1-6.8-14.6l0.1-0.4h11.2c0.2,4.2,1.8,7.2,4.7,9.2
		c2.9,1.9,6.3,2.9,10.2,2.9c4.2,0,7.5-0.9,9.8-2.7C2042,106.9,2043.2,104.7,2043.2,101.9z"/>
	<path class="st0" d="M2086,39.1v15.6h12.2v8.7H2086v39.2c0,3,0.6,5.2,1.9,6.4c1.3,1.2,2.9,1.9,5,1.9c0.7,0,1.4-0.1,2.3-0.3
		c0.8-0.2,1.5-0.4,2.1-0.6l1.6,8.1c-0.9,0.7-2.2,1.3-3.9,1.8c-1.7,0.5-3.4,0.7-5.1,0.7c-4.8,0-8.6-1.4-11.4-4.3
		c-2.8-2.9-4.2-7.4-4.2-13.6V63.4h-10.3v-8.7h10.3V39.1H2086z"/>
	<path class="st0" d="M2108.1,86.4c0-9.6,2.6-17.4,7.8-23.6c5.2-6.2,12.2-9.3,21.1-9.3c9,0,16,3.1,21.2,9.3
		c5.2,6.2,7.8,14.1,7.8,23.7v1.3c0,9.6-2.6,17.5-7.8,23.7c-5.2,6.1-12.2,9.2-21.1,9.2c-8.9,0-16-3.1-21.2-9.2
		c-5.2-6.2-7.8-14-7.8-23.6V86.4z M2119.8,87.7c0,6.9,1.4,12.5,4.3,17c2.9,4.5,7.2,6.7,12.9,6.7c5.6,0,9.9-2.2,12.8-6.7
		c2.9-4.5,4.4-10.1,4.4-17v-1.3c0-6.8-1.5-12.4-4.4-16.9c-2.9-4.5-7.2-6.8-12.9-6.8c-5.6,0-9.9,2.3-12.8,6.8
		c-2.9,4.5-4.3,10.1-4.3,16.9V87.7z"/>
	<path class="st0" d="M2217.9,101.9c0-2.6-1-4.7-3-6.3c-2-1.6-5.7-3.1-11.2-4.3c-7.6-1.6-13.5-3.9-17.5-6.9
		c-4.1-2.9-6.1-6.9-6.1-11.8c0-5.3,2.2-9.8,6.7-13.5c4.5-3.7,10.3-5.6,17.4-5.6c7.3,0,13.3,2,17.8,6c4.5,4,6.7,8.6,6.5,13.9
		l-0.1,0.4h-11.2c0-2.8-1.2-5.3-3.7-7.6c-2.4-2.3-5.5-3.4-9.3-3.4c-4.1,0-7.2,0.9-9.3,2.8c-2.1,1.9-3.1,4.1-3.1,6.7
		c0,2.5,0.9,4.5,2.7,5.9c1.8,1.4,5.4,2.7,11,3.8c7.9,1.7,13.9,4,18,7.1c4.1,3.1,6.2,7.1,6.2,12c0,5.7-2.3,10.4-7,14
		c-4.6,3.6-10.7,5.4-18.2,5.4c-8.2,0-14.7-2.1-19.5-6.3c-4.7-4.2-7-9.1-6.8-14.6l0.1-0.4h11.2c0.2,4.2,1.8,7.2,4.7,9.2
		c2.9,1.9,6.3,2.9,10.2,2.9c4.2,0,7.5-0.9,9.8-2.7C2216.8,106.9,2217.9,104.7,2217.9,101.9z"/>
</g>
</svg>
