<?xml version="1.0" encoding="utf-8"?>
<!-- Generator: Adobe Illustrator 23.0.3, SVG Export Plug-In . SVG Version: 6.00 Build 0)  -->
<svg version="1.1" id="Capa_1" xmlns="http://www.w3.org/2000/svg" xmlns:xlink="http://www.w3.org/1999/xlink" x="0px" y="0px"
	 viewBox="0 0 2325.9 179.1" style="enable-background:new 0 0 2325.9 179.1;" xml:space="preserve">
<style type="text/css">
	.st0{fill:#61C1A2;}
</style>
<g>
	<path class="st0" d="M48,117.7h46.8v10.2H35v-96h13V117.7z"/>
	<path class="st0" d="M151.3,127.9c-0.4-2.2-0.8-4.1-1-5.7c-0.2-1.6-0.4-3.3-0.4-5c-2.4,3.4-5.6,6.3-9.5,8.6
		c-3.9,2.3-8.1,3.5-12.6,3.5c-7.4,0-13.1-1.9-17-5.7c-3.9-3.8-5.8-9-5.8-15.7c0-6.8,2.8-12.1,8.3-16c5.5-3.8,13-5.8,22.4-5.8h14.1
		V79c0-4.2-1.3-7.5-3.8-9.9c-2.5-2.4-6.2-3.7-10.8-3.7c-4.2,0-7.6,1.1-10.2,3.2c-2.6,2.1-3.9,4.6-3.9,7.6l-12.3,0.1l-0.1-0.4
		c-0.3-5.2,2.1-9.9,7.3-14.2c5.2-4.3,11.8-6.5,20-6.5c8.1,0,14.6,2.1,19.5,6.2c4.9,4.1,7.4,10,7.4,17.8v34.3c0,2.5,0.1,5,0.4,7.4
		s0.7,4.7,1.5,7H151.3z M129.7,118.4c4.7,0,8.9-1.2,12.7-3.6c3.8-2.4,6.2-5.2,7.4-8.3V94.9h-14.6c-5.2,0-9.4,1.3-12.6,4
		c-3.1,2.6-4.7,5.7-4.7,9.3c0,3.2,1,5.7,3,7.5S125.8,118.4,129.7,118.4z"/>
	<path class="st0" d="M220.6,127.9V66.2h-11.1v-9.6h11.1v-9c0-7.6,2-13.5,6-17.6c4-4.2,9.5-6.2,16.6-6.2c1.5,0,3,0.1,4.5,0.4
		c1.5,0.2,3.2,0.6,5,1l-1.6,9.9c-0.8-0.2-1.7-0.3-2.9-0.5c-1.1-0.1-2.3-0.2-3.5-0.2c-3.8,0-6.6,1.1-8.4,3.4
		c-1.8,2.3-2.8,5.5-2.8,9.9v9h12.9v9.6h-12.9v61.7H220.6z"/>
	<path class="st0" d="M256.6,91.6c0-10.5,2.9-19.2,8.6-26.1c5.7-6.8,13.5-10.2,23.3-10.2c9.9,0,17.7,3.4,23.4,10.2
		c5.7,6.8,8.6,15.5,8.6,26.1V93c0,10.6-2.9,19.3-8.6,26.1c-5.7,6.8-13.5,10.2-23.3,10.2c-9.8,0-17.6-3.4-23.4-10.2
		c-5.7-6.8-8.6-15.5-8.6-26.1V91.6z M269.6,93c0,7.6,1.6,13.8,4.8,18.7c3.2,4.9,7.9,7.4,14.2,7.4c6.2,0,10.9-2.5,14.1-7.4
		c3.2-4.9,4.8-11.2,4.8-18.7v-1.4c0-7.5-1.6-13.7-4.8-18.7c-3.2-5-8-7.4-14.2-7.4c-6.2,0-10.9,2.5-14.1,7.4
		c-3.2,5-4.8,11.2-4.8,18.7V93z"/>
	<path class="st0" d="M370.1,68l-6.7-0.4c-3.4,0-6.3,0.8-8.7,2.4c-2.4,1.6-4.2,3.9-5.4,6.9v51h-13V56.6H348l1.3,10.4
		c2-3.7,4.5-6.6,7.5-8.6c3-2.1,6.4-3.1,10.3-3.1c1,0,1.9,0.1,2.8,0.2c0.9,0.2,1.6,0.3,2.2,0.5L370.1,68z"/>
	<path class="st0" d="M395.2,56.6l0.9,9.4c2.3-3.4,5.3-6,8.9-7.9c3.6-1.9,7.7-2.8,12.5-2.8s8.8,1.1,12.2,3.3c3.4,2.2,6,5.5,7.7,9.9
		c2.3-4.1,5.3-7.3,8.9-9.7c3.7-2.4,8-3.5,12.9-3.5c7.3,0,13,2.5,17.2,7.5c4.2,5,6.3,12.5,6.3,22.5v42.6h-13V85.1
		c0-7-1.2-12-3.6-14.9c-2.4-2.9-6-4.4-10.8-4.4c-4.4,0-8,1.5-10.8,4.6c-2.7,3.1-4.4,7-4.8,11.7v0.5v45.3h-13.1V85.1
		c0-6.7-1.2-11.6-3.7-14.7c-2.5-3.1-6.1-4.6-10.7-4.6c-4,0-7.2,0.8-9.8,2.4c-2.5,1.6-4.5,3.9-5.9,6.9v52.8h-13V56.6H395.2z"/>
	<path class="st0" d="M546.9,117.3c-2.2,3.8-5.1,6.8-8.6,8.8c-3.5,2.1-7.6,3.1-12.2,3.1c-7.8,0-13.8-2.5-18.2-7.4
		c-4.4-5-6.5-12.7-6.5-23.2V56.6h13v42.2c0,7.6,1.1,12.8,3.4,15.7c2.2,2.9,5.7,4.3,10.5,4.3c4.6,0,8.4-0.9,11.4-2.8
		c3-1.9,5.3-4.5,6.8-7.9V56.6h13v71.3h-11.7L546.9,117.3z"/>
	<path class="st0" d="M592.4,127.9h-13V25.1h13V127.9z"/>
	<path class="st0" d="M656.2,127.9c-0.4-2.2-0.8-4.1-1-5.7c-0.2-1.6-0.4-3.3-0.4-5c-2.4,3.4-5.6,6.3-9.5,8.6
		c-3.9,2.3-8.1,3.5-12.6,3.5c-7.4,0-13.1-1.9-17-5.7c-3.9-3.8-5.8-9-5.8-15.7c0-6.8,2.8-12.1,8.3-16c5.5-3.8,13-5.8,22.4-5.8h14.1
		V79c0-4.2-1.3-7.5-3.8-9.9c-2.5-2.4-6.2-3.7-10.8-3.7c-4.2,0-7.6,1.1-10.2,3.2c-2.6,2.1-3.9,4.6-3.9,7.6l-12.3,0.1l-0.1-0.4
		c-0.3-5.2,2.1-9.9,7.3-14.2c5.2-4.3,11.8-6.5,20-6.5c8.1,0,14.6,2.1,19.5,6.2c4.9,4.1,7.4,10,7.4,17.8v34.3c0,2.5,0.1,5,0.4,7.4
		s0.7,4.7,1.5,7H656.2z M634.6,118.4c4.7,0,8.9-1.2,12.7-3.6s6.2-5.2,7.4-8.3V94.9h-14.6c-5.2,0-9.4,1.3-12.6,4
		c-3.1,2.6-4.7,5.7-4.7,9.3c0,3.2,1,5.7,3,7.5S630.8,118.4,634.6,118.4z"/>
	<path class="st0" d="M714.9,119.1c4,0,7.5-1.3,10.5-4c3-2.7,4.5-5.9,4.5-9.8h11.7l0.2,0.4c0.2,6.2-2.5,11.6-7.9,16.4
		c-5.5,4.8-11.8,7.2-19,7.2c-10,0-17.8-3.4-23.2-10.2c-5.5-6.8-8.2-15.3-8.2-25.4v-2.8c0-10.1,2.7-18.5,8.2-25.3
		c5.5-6.8,13.2-10.2,23.2-10.2c8,0,14.5,2.5,19.5,7.4c5.1,4.9,7.5,11,7.4,18.1l-0.1,0.4h-11.8c0-4.3-1.4-8.1-4.3-11.1
		c-2.8-3.1-6.4-4.6-10.7-4.6c-6.4,0-11,2.5-13.9,7.4c-2.9,4.9-4.4,10.9-4.4,18v2.8c0,7.2,1.4,13.2,4.3,18.1
		C703.8,116.7,708.5,119.1,714.9,119.1z"/>
	<path class="st0" d="M771.3,38.3h-13V25.1h13V38.3z M771.3,127.9h-13V56.6h13V127.9z"/>
	<path class="st0" d="M788.2,91.6c0-10.5,2.9-19.2,8.6-26.1c5.7-6.8,13.5-10.2,23.3-10.2c9.9,0,17.7,3.4,23.4,10.2
		c5.7,6.8,8.6,15.5,8.6,26.1V93c0,10.6-2.9,19.3-8.6,26.1c-5.7,6.8-13.5,10.2-23.3,10.2s-17.6-3.4-23.4-10.2
		c-5.7-6.8-8.6-15.5-8.6-26.1V91.6z M801.2,93c0,7.6,1.6,13.8,4.8,18.7c3.2,4.9,7.9,7.4,14.2,7.4c6.2,0,10.9-2.5,14.1-7.4
		c3.2-4.9,4.8-11.2,4.8-18.7v-1.4c0-7.5-1.6-13.7-4.8-18.7c-3.2-5-8-7.4-14.2-7.4c-6.2,0-10.9,2.5-14.1,7.4
		c-3.2,5-4.8,11.2-4.8,18.7V93z M826.5,26.3h15.2l0.1,0.4L824,43.8h-9.8L826.5,26.3z"/>
	<path class="st0" d="M879.6,56.6l0.9,10.6c2.4-3.8,5.3-6.7,8.9-8.8c3.6-2.1,7.7-3.1,12.2-3.1c7.7,0,13.6,2.3,17.9,6.8
		c4.2,4.5,6.3,11.5,6.3,20.9v45h-13V83.1c0-6.3-1.2-10.7-3.7-13.4s-6.3-4-11.4-4c-4,0-7.4,0.8-10.2,2.4c-2.8,1.6-5,3.9-6.6,6.8v52.9
		h-13V56.6H879.6z"/>
	<path class="st0" d="M975.3,93.5c0-11.5,2.4-20.7,7.3-27.8c4.9-7,11.8-10.5,20.6-10.5c4.2,0,7.9,0.8,11.1,2.3
		c3.2,1.5,6,3.8,8.3,6.7V25.1h13v102.8h-10l-2-9c-2.3,3.4-5.2,6-8.6,7.8c-3.4,1.8-7.4,2.6-11.9,2.6c-8.7,0-15.5-3.2-20.4-9.5
		c-4.9-6.3-7.4-14.6-7.4-24.9V93.5z M988.3,94.9c0,7.2,1.5,13,4.4,17.3c2.9,4.3,7.5,6.5,13.7,6.5c3.9,0,7.1-0.9,9.8-2.6
		s4.8-4.2,6.5-7.4V75.4c-1.7-2.9-3.8-5.3-6.5-7c-2.7-1.7-5.9-2.6-9.6-2.6c-6.2,0-10.8,2.6-13.8,7.7c-3,5.1-4.5,11.8-4.5,20V94.9z"/>
	<path class="st0" d="M1084.5,129.3c-10.2,0-18.2-3.3-24-9.8c-5.7-6.5-8.6-15.2-8.6-25.8v-2.9c0-10.2,3-18.7,8.9-25.4
		c5.9-6.7,13.1-10.1,21.7-10.1c9.5,0,16.7,3,21.5,8.9c4.8,5.9,7.2,13.8,7.2,23.7v6.9h-45.6l-0.2,0.3c0,7.2,1.6,13,4.7,17.4
		c3.2,4.5,8,6.7,14.5,6.7c4.4,0,8.3-0.6,11.6-1.9c3.3-1.3,6.2-3,8.5-5.2l5.1,8.4c-2.5,2.5-5.9,4.5-10.1,6.2
		C1095.5,128.4,1090.4,129.3,1084.5,129.3z M1082.5,65.5c-4.5,0-8.3,1.7-11.2,5.2c-3,3.5-4.8,8-5.4,13.4l0.1,0.3h32.2v-1.1
		c0-5.2-1.3-9.5-3.8-12.9C1091.7,67.2,1087.8,65.5,1082.5,65.5z"/>
	<path class="st0" d="M1139.7,127.9h-13V25.1h13V127.9z"/>
	<path class="st0" d="M1254,94.9c0,10.3-2.5,18.6-7.4,24.9c-4.9,6.3-11.7,9.5-20.4,9.5c-4.4,0-8.3-0.7-11.6-2.2
		c-3.3-1.5-6.1-3.7-8.5-6.6v34.9h-13V56.6h10l2,9.2c2.3-3.4,5.2-6,8.7-7.8c3.5-1.8,7.5-2.7,12.1-2.7c8.8,0,15.7,3.5,20.6,10.5
		c4.9,7,7.4,16.3,7.4,27.8V94.9z M1241,93.5c0-8.1-1.6-14.7-4.8-19.9c-3.2-5.2-7.9-7.8-14.1-7.8c-3.7,0-6.9,0.8-9.6,2.5
		c-2.6,1.7-4.8,4-6.4,7v34.5c1.6,2.9,3.8,5.2,6.4,6.9c2.6,1.6,5.9,2.5,9.7,2.5c6.2,0,10.8-2.3,14-6.8c3.2-4.5,4.7-10.3,4.7-17.4
		V93.5z"/>
	<path class="st0" d="M1303.7,68l-6.7-0.4c-3.4,0-6.3,0.8-8.7,2.4c-2.4,1.6-4.2,3.9-5.4,6.9v51h-13V56.6h11.6l1.3,10.4
		c2-3.7,4.5-6.6,7.5-8.6c3-2.1,6.4-3.1,10.3-3.1c1,0,1.9,0.1,2.8,0.2c0.9,0.2,1.6,0.3,2.2,0.5L1303.7,68z"/>
	<path class="st0" d="M1312.9,91.6c0-10.5,2.9-19.2,8.6-26.1c5.7-6.8,13.5-10.2,23.3-10.2c9.9,0,17.7,3.4,23.4,10.2
		c5.7,6.8,8.6,15.5,8.6,26.1V93c0,10.6-2.9,19.3-8.6,26.1c-5.7,6.8-13.5,10.2-23.3,10.2c-9.8,0-17.6-3.4-23.4-10.2
		c-5.7-6.8-8.6-15.5-8.6-26.1V91.6z M1325.9,93c0,7.6,1.6,13.8,4.8,18.7c3.2,4.9,7.9,7.4,14.2,7.4c6.2,0,10.9-2.5,14.1-7.4
		c3.2-4.9,4.8-11.2,4.8-18.7v-1.4c0-7.5-1.6-13.7-4.8-18.7c-3.2-5-8-7.4-14.2-7.4c-6.2,0-10.9,2.5-14.1,7.4
		c-3.2,5-4.8,11.2-4.8,18.7V93z"/>
	<path class="st0" d="M1453.5,94.9c0,10.3-2.5,18.6-7.4,24.9c-4.9,6.3-11.7,9.5-20.4,9.5c-4.7,0-8.9-0.9-12.4-2.8
		c-3.5-1.9-6.4-4.6-8.7-8.3l-2.1,9.7h-10V25.1h13V65c2.2-3.2,5-5.6,8.3-7.3c3.3-1.7,7.2-2.5,11.6-2.5c8.8,0,15.6,3.5,20.6,10.5
		c4.9,7,7.4,16.3,7.4,27.8V94.9z M1440.6,93.5c0-8.2-1.5-14.8-4.5-20c-3-5.2-7.6-7.7-13.7-7.7c-4,0-7.4,1-10.1,2.9
		c-2.7,2-4.9,4.6-6.6,7.9v30.9c1.7,3.5,3.9,6.3,6.6,8.2c2.7,2,6.1,3,10.3,3c6.1,0,10.7-2.2,13.6-6.5c3-4.4,4.5-10.1,4.5-17.3V93.5z"
		/>
	<path class="st0" d="M1483.4,127.9h-13V25.1h13V127.9z"/>
	<path class="st0" d="M1532.9,129.3c-10.2,0-18.2-3.3-24-9.8c-5.7-6.5-8.6-15.2-8.6-25.8v-2.9c0-10.2,3-18.7,8.9-25.4
		c5.9-6.7,13.1-10.1,21.7-10.1c9.5,0,16.7,3,21.5,8.9c4.8,5.9,7.2,13.8,7.2,23.7v6.9h-45.6l-0.2,0.3c0,7.2,1.6,13,4.7,17.4
		c3.2,4.5,8,6.7,14.5,6.7c4.4,0,8.3-0.6,11.6-1.9c3.3-1.3,6.2-3,8.5-5.2l5.1,8.4c-2.5,2.5-5.9,4.5-10.1,6.2
		C1543.8,128.4,1538.8,129.3,1532.9,129.3z M1530.9,65.5c-4.5,0-8.3,1.7-11.2,5.2c-3,3.5-4.8,8-5.4,13.4l0.1,0.3h32.2v-1.1
		c0-5.2-1.3-9.5-3.8-12.9C1540.1,67.2,1536.2,65.5,1530.9,65.5z"/>
	<path class="st0" d="M1585.6,56.6l0.9,9.4c2.3-3.4,5.3-6,8.9-7.9c3.6-1.9,7.7-2.8,12.5-2.8s8.8,1.1,12.2,3.3c3.4,2.2,6,5.5,7.7,9.9
		c2.3-4.1,5.3-7.3,8.9-9.7c3.7-2.4,8-3.5,12.9-3.5c7.3,0,13,2.5,17.2,7.5c4.2,5,6.3,12.5,6.3,22.5v42.6h-13V85.1
		c0-7-1.2-12-3.6-14.9c-2.4-2.9-6-4.4-10.8-4.4c-4.4,0-8,1.5-10.8,4.6c-2.7,3.1-4.4,7-4.8,11.7v0.5v45.3h-13.1V85.1
		c0-6.7-1.2-11.6-3.7-14.7c-2.5-3.1-6.1-4.6-10.7-4.6c-4,0-7.2,0.8-9.8,2.4c-2.5,1.6-4.5,3.9-5.9,6.9v52.8h-13V56.6H1585.6z"/>
	<path class="st0" d="M1735.9,127.9c-0.4-2.2-0.8-4.1-1-5.7c-0.2-1.6-0.4-3.3-0.4-5c-2.4,3.4-5.6,6.3-9.5,8.6
		c-3.9,2.3-8.1,3.5-12.6,3.5c-7.4,0-13.1-1.9-17-5.7c-3.9-3.8-5.8-9-5.8-15.7c0-6.8,2.8-12.1,8.3-16c5.5-3.8,13-5.8,22.4-5.8h14.1
		V79c0-4.2-1.3-7.5-3.8-9.9c-2.5-2.4-6.2-3.7-10.8-3.7c-4.2,0-7.6,1.1-10.2,3.2c-2.6,2.1-3.9,4.6-3.9,7.6l-12.3,0.1l-0.1-0.4
		c-0.3-5.2,2.1-9.9,7.3-14.2c5.2-4.3,11.8-6.5,20-6.5c8.1,0,14.6,2.1,19.5,6.2c4.9,4.1,7.4,10,7.4,17.8v34.3c0,2.5,0.1,5,0.4,7.4
		s0.7,4.7,1.4,7H1735.9z M1714.3,118.4c4.7,0,8.9-1.2,12.7-3.6c3.8-2.4,6.2-5.2,7.4-8.3V94.9h-14.6c-5.2,0-9.4,1.3-12.6,4
		c-3.1,2.6-4.7,5.7-4.7,9.3c0,3.2,1,5.7,3,7.5S1710.4,118.4,1714.3,118.4z"/>
	<path class="st0" d="M1821.6,101.5l2.3,9h0.4l17.5-53.9h14.4l-30,82.3c-1.8,4.8-4.4,9-7.7,12.5c-3.4,3.6-7.9,5.3-13.6,5.3
		c-1.1,0-2.4-0.1-4-0.4c-1.6-0.2-2.9-0.5-3.8-0.7l1.3-10.2c-0.3,0,0.5,0,2.3,0.1c1.8,0.1,3,0.2,3.5,0.2c2.8,0,5-1.2,6.8-3.7
		c1.8-2.5,3.2-5.2,4.4-8.2l3.1-7.4l-26.5-69.9h14.5L1821.6,101.5z"/>
	<path class="st0" d="M1898.3,93.5c0-11.5,2.4-20.7,7.3-27.8c4.9-7,11.8-10.5,20.6-10.5c4.2,0,7.9,0.8,11.1,2.3
		c3.2,1.5,6,3.8,8.3,6.7V25.1h13v102.8h-10l-2-9c-2.3,3.4-5.2,6-8.6,7.8c-3.4,1.8-7.4,2.6-11.9,2.6c-8.7,0-15.5-3.2-20.4-9.5
		c-4.9-6.3-7.4-14.6-7.4-24.9V93.5z M1911.3,94.9c0,7.2,1.5,13,4.4,17.3c2.9,4.3,7.5,6.5,13.7,6.5c3.9,0,7.1-0.9,9.8-2.6
		s4.8-4.2,6.5-7.4V75.4c-1.7-2.9-3.8-5.3-6.5-7c-2.7-1.7-5.9-2.6-9.6-2.6c-6.2,0-10.8,2.6-13.8,7.7c-3,5.1-4.5,11.8-4.5,20V94.9z"/>
	<path class="st0" d="M1992,38.3h-13V25.1h13V38.3z M1992,127.9h-13V56.6h13V127.9z"/>
	<path class="st0" d="M2053.5,108.7c0-2.9-1.1-5.2-3.3-7c-2.2-1.8-6.3-3.4-12.4-4.7c-8.4-1.8-14.8-4.3-19.3-7.6
		c-4.5-3.3-6.8-7.6-6.8-13.1c0-5.8,2.5-10.8,7.4-14.9c4.9-4.1,11.3-6.2,19.2-6.2c8.1,0,14.6,2.2,19.6,6.6c5,4.4,7.4,9.5,7.2,15.4
		l-0.1,0.4h-12.4c0-3.1-1.4-5.9-4.1-8.4c-2.7-2.5-6.1-3.8-10.3-3.8c-4.6,0-8,1-10.3,3.1c-2.3,2.1-3.4,4.5-3.4,7.4c0,2.8,1,5,2.9,6.5
		c2,1.5,6,2.9,12.1,4.2c8.7,1.8,15.4,4.5,19.9,7.8c4.5,3.4,6.8,7.8,6.8,13.2c0,6.3-2.6,11.5-7.7,15.5c-5.1,4-11.8,6-20.1,6
		c-9.1,0-16.3-2.3-21.5-6.9c-5.2-4.6-7.7-10-7.4-16.2l0.1-0.4h12.4c0.2,4.6,1.9,8,5.1,10.1c3.2,2.1,7,3.2,11.3,3.2
		c4.6,0,8.2-1,10.8-2.9C2052.2,114.2,2053.5,111.7,2053.5,108.7z"/>
	<path class="st0" d="M2112.1,129.3c-10.2,0-18.2-3.3-24-9.8c-5.7-6.5-8.6-15.2-8.6-25.8v-2.9c0-10.2,3-18.7,8.9-25.4
		c5.9-6.7,13.1-10.1,21.7-10.1c9.5,0,16.7,3,21.5,8.9c4.8,5.9,7.2,13.8,7.2,23.7v6.9h-45.6l-0.2,0.3c0,7.2,1.6,13,4.7,17.4
		c3.2,4.5,8,6.7,14.5,6.7c4.4,0,8.3-0.6,11.6-1.9c3.3-1.3,6.2-3,8.5-5.2l5.1,8.4c-2.5,2.5-5.9,4.5-10.1,6.2
		C2123,128.4,2118,129.3,2112.1,129.3z M2110.1,65.5c-4.5,0-8.3,1.7-11.2,5.2c-3,3.5-4.8,8-5.4,13.4l0.1,0.3h32.2v-1.1
		c0-5.2-1.3-9.5-3.8-12.9C2119.3,67.2,2115.4,65.5,2110.1,65.5z"/>
	<path class="st0" d="M2164.9,56.6l0.9,10.6c2.4-3.8,5.3-6.7,8.9-8.8c3.6-2.1,7.7-3.1,12.2-3.1c7.7,0,13.6,2.3,17.9,6.8
		c4.2,4.5,6.3,11.5,6.3,20.9v45h-13V83.1c0-6.3-1.2-10.7-3.7-13.4c-2.5-2.6-6.3-4-11.4-4c-4,0-7.4,0.8-10.2,2.4
		c-2.8,1.6-5,3.9-6.6,6.8v52.9h-13V56.6H2164.9z M2204.8,27.6c0,4.1-1.3,7.6-3.9,10.5c-2.6,2.9-5.9,4.3-9.9,4.3
		c-3.1,0-6.4-1-9.8-3.1c-3.4-2-6.2-3.1-8.4-3.1c-1.9,0-3.5,0.7-4.7,2.1c-1.3,1.4-1.9,3.2-1.9,5.2l-7.1-1.7c0-4.1,1.3-7.6,3.9-10.6
		c2.6-3,5.9-4.5,9.9-4.5c2.5,0,5.5,1,9.2,3.1c3.7,2.1,6.7,3.1,9,3.1c1.8,0,3.4-0.7,4.7-2.1c1.3-1.4,2-3.2,2-5.2L2204.8,27.6z"/>
	<path class="st0" d="M2227,91.6c0-10.5,2.9-19.2,8.6-26.1c5.7-6.8,13.5-10.2,23.3-10.2c9.9,0,17.7,3.4,23.4,10.2
		c5.7,6.8,8.6,15.5,8.6,26.1V93c0,10.6-2.9,19.3-8.6,26.1c-5.7,6.8-13.5,10.2-23.3,10.2c-9.8,0-17.6-3.4-23.4-10.2
		c-5.7-6.8-8.6-15.5-8.6-26.1V91.6z M2239.9,93c0,7.6,1.6,13.8,4.8,18.7c3.2,4.9,7.9,7.4,14.2,7.4c6.2,0,10.9-2.5,14.1-7.4
		c3.2-4.9,4.8-11.2,4.8-18.7v-1.4c0-7.5-1.6-13.7-4.8-18.7c-3.2-5-8-7.4-14.2-7.4c-6.2,0-10.9,2.5-14.1,7.4
		c-3.2,5-4.8,11.2-4.8,18.7V93z"/>
</g>
</svg>
