<?xml version="1.0" encoding="utf-8"?>
<!-- Generator: Adobe Illustrator 23.0.3, SVG Export Plug-In . SVG Version: 6.00 Build 0)  -->
<svg version="1.1" id="Capa_1" xmlns="http://www.w3.org/2000/svg" xmlns:xlink="http://www.w3.org/1999/xlink" x="0px" y="0px"
	 viewBox="0 0 2404.8 179.1" style="enable-background:new 0 0 2404.8 179.1;" xml:space="preserve">
<style type="text/css">
	.st0{fill:#61C1A2;}
</style>
<g>
	<path class="st0" d="M49.3,142.2H36.2v-96h13.1V142.2z"/>
	<path class="st0" d="M82.9,70.9l0.9,10.6c2.4-3.8,5.3-6.7,8.9-8.8c3.6-2.1,7.7-3.1,12.2-3.1c7.7,0,13.6,2.3,17.9,6.8
		c4.2,4.5,6.3,11.5,6.3,20.9v45h-13V97.4c0-6.3-1.2-10.7-3.7-13.4c-2.5-2.6-6.3-4-11.4-4c-4,0-7.4,0.8-10.2,2.4
		c-2.8,1.6-5,3.9-6.6,6.8v52.9h-13V70.9H82.9z"/>
	<path class="st0" d="M171.8,121.2l1.1,5h0.4l1.3-5L191,70.9h13.3L178,142.2h-9.8l-26.6-71.3H155L171.8,121.2z"/>
	<path class="st0" d="M244.6,143.6c-10.2,0-18.2-3.3-24-9.8c-5.7-6.5-8.6-15.2-8.6-25.8V105c0-10.2,3-18.7,8.9-25.4
		c5.9-6.7,13.1-10.1,21.7-10.1c9.5,0,16.7,3,21.5,8.9c4.8,5.9,7.2,13.8,7.2,23.7v6.9h-45.6l-0.2,0.3c0,7.2,1.6,13,4.7,17.4
		c3.2,4.5,8,6.7,14.5,6.7c4.4,0,8.3-0.6,11.6-1.9c3.3-1.3,6.2-3,8.5-5.2l5.1,8.4c-2.5,2.5-5.9,4.5-10.1,6.2S250.5,143.6,244.6,143.6
		z M242.6,79.8c-4.5,0-8.3,1.7-11.2,5.2c-3,3.5-4.8,8-5.4,13.4l0.1,0.3h32.2v-1.1c0-5.2-1.3-9.5-3.8-12.9
		C251.8,81.4,247.9,79.8,242.6,79.8z"/>
	<path class="st0" d="M327.2,123c0-2.9-1.1-5.2-3.3-7c-2.2-1.8-6.3-3.4-12.4-4.7c-8.4-1.8-14.8-4.3-19.3-7.6
		c-4.5-3.3-6.8-7.6-6.8-13.1c0-5.8,2.5-10.8,7.4-14.9c4.9-4.1,11.3-6.2,19.2-6.2c8.1,0,14.6,2.2,19.6,6.6c5,4.4,7.4,9.5,7.2,15.4
		l-0.1,0.4h-12.4c0-3.1-1.4-5.9-4.1-8.4c-2.7-2.5-6.1-3.8-10.3-3.8c-4.6,0-8,1-10.3,3.1c-2.3,2.1-3.4,4.5-3.4,7.4c0,2.8,1,5,2.9,6.5
		c2,1.5,6,2.9,12.1,4.2c8.7,1.8,15.4,4.5,19.9,7.8c4.5,3.4,6.8,7.8,6.8,13.2c0,6.3-2.6,11.5-7.7,15.5c-5.1,4-11.8,6-20.1,6
		c-9.1,0-16.3-2.3-21.5-6.9s-7.7-10-7.4-16.2l0.1-0.4H296c0.2,4.6,1.9,8,5.1,10.1c3.2,2.1,7,3.2,11.3,3.2c4.6,0,8.2-1,10.8-2.9
		C325.9,128.5,327.2,126,327.2,123z"/>
	<path class="st0" d="M374.4,53.7v17.2h13.5v9.6h-13.5v43.3c0,3.3,0.7,5.7,2.1,7.1c1.4,1.4,3.2,2,5.5,2c0.7,0,1.6-0.1,2.5-0.3
		c0.9-0.2,1.7-0.4,2.3-0.6l1.8,8.9c-1,0.8-2.4,1.4-4.3,1.9c-1.9,0.5-3.8,0.8-5.6,0.8c-5.3,0-9.5-1.6-12.6-4.8
		c-3.1-3.2-4.7-8.2-4.7-15V80.5h-11.3v-9.6h11.3V53.7H374.4z"/>
	<path class="st0" d="M415.9,52.6h-13V39.3h13V52.6z M415.9,142.2h-13V70.9h13V142.2z"/>
	<path class="st0" d="M433.5,107.8c0-11.5,2.4-20.7,7.3-27.8c4.9-7,11.7-10.5,20.5-10.5c4.5,0,8.5,0.9,11.9,2.7
		c3.4,1.8,6.3,4.4,8.6,7.9l1.6-9.3h10.3v71.7c0,9.1-2.7,16.2-8,21.1c-5.3,4.9-13,7.4-23,7.4c-3.4,0-7.1-0.5-11.1-1.4
		c-4-0.9-7.5-2.2-10.5-3.9l2-10.1c2.5,1.3,5.5,2.4,9.1,3.2c3.5,0.8,7,1.2,10.4,1.2c6.3,0,10.9-1.4,13.8-4.3
		c2.9-2.9,4.3-7.3,4.3-13.2v-8.1c-2.3,3-5.1,5.3-8.4,6.8c-3.3,1.5-7,2.3-11.3,2.3c-8.7,0-15.5-3.2-20.4-9.5
		c-4.9-6.3-7.3-14.6-7.3-24.9V107.8z M446.5,109.2c0,7.2,1.5,12.9,4.4,17.3c2.9,4.4,7.5,6.5,13.6,6.5c3.9,0,7.2-0.9,9.8-2.7
		c2.6-1.8,4.8-4.3,6.5-7.5V90c-1.7-3-3.8-5.4-6.5-7.2c-2.7-1.8-5.9-2.7-9.7-2.7c-6.2,0-10.8,2.6-13.7,7.7c-3,5.1-4.5,11.8-4.5,20
		V109.2z"/>
	<path class="st0" d="M556.4,142.2c-0.4-2.2-0.8-4.1-1-5.7c-0.2-1.6-0.4-3.3-0.4-5c-2.4,3.4-5.6,6.3-9.5,8.6
		c-3.9,2.3-8.1,3.5-12.6,3.5c-7.4,0-13.1-1.9-17-5.7c-3.9-3.8-5.8-9-5.8-15.7c0-6.8,2.8-12.1,8.3-16c5.5-3.8,13-5.8,22.4-5.8h14.1
		v-7.1c0-4.2-1.3-7.5-3.8-9.9c-2.5-2.4-6.2-3.7-10.8-3.7c-4.2,0-7.6,1.1-10.2,3.2s-3.9,4.6-3.9,7.6l-12.3,0.1l-0.1-0.4
		c-0.3-5.2,2.1-9.9,7.3-14.2c5.2-4.3,11.8-6.5,20-6.5c8.1,0,14.6,2.1,19.5,6.2c4.9,4.1,7.4,10,7.4,17.8v34.3c0,2.5,0.1,5,0.4,7.4
		s0.7,4.7,1.5,7H556.4z M534.8,132.7c4.7,0,8.9-1.2,12.7-3.6c3.8-2.4,6.2-5.2,7.4-8.3v-11.6h-14.6c-5.2,0-9.4,1.3-12.6,4
		c-3.1,2.6-4.7,5.7-4.7,9.3c0,3.2,1,5.7,3,7.5S531,132.7,534.8,132.7z"/>
	<path class="st0" d="M615.1,133.4c4,0,7.5-1.3,10.5-4c3-2.7,4.5-5.9,4.5-9.8h11.7l0.2,0.4c0.2,6.2-2.5,11.6-7.9,16.4
		c-5.4,4.8-11.8,7.2-19,7.2c-10,0-17.8-3.4-23.2-10.2c-5.4-6.8-8.2-15.3-8.2-25.4v-2.8c0-10.1,2.7-18.5,8.2-25.3
		c5.5-6.8,13.2-10.3,23.2-10.3c8,0,14.5,2.5,19.5,7.4c5.1,4.9,7.5,11,7.3,18.1l-0.1,0.4h-11.8c0-4.3-1.4-8.1-4.3-11.1
		c-2.8-3.1-6.4-4.6-10.7-4.6c-6.4,0-11,2.5-13.9,7.4c-2.9,4.9-4.4,10.9-4.4,18v2.8c0,7.2,1.4,13.2,4.3,18.1
		C604,131,608.7,133.4,615.1,133.4z"/>
	<path class="st0" d="M671.5,52.6h-13V39.3h13V52.6z M671.5,142.2h-13V70.9h13V142.2z"/>
	<path class="st0" d="M688.4,105.9c0-10.5,2.9-19.2,8.6-26.1c5.7-6.8,13.5-10.3,23.3-10.3c9.9,0,17.7,3.4,23.4,10.2
		c5.7,6.8,8.6,15.5,8.6,26.1v1.4c0,10.6-2.9,19.3-8.6,26.1c-5.7,6.8-13.5,10.2-23.3,10.2c-9.8,0-17.6-3.4-23.4-10.2
		c-5.7-6.8-8.6-15.5-8.6-26.1V105.9z M701.4,107.3c0,7.6,1.6,13.8,4.8,18.7c3.2,4.9,7.9,7.4,14.2,7.4c6.2,0,10.9-2.5,14.1-7.4
		c3.2-4.9,4.8-11.2,4.8-18.7v-1.4c0-7.5-1.6-13.7-4.8-18.7c-3.2-5-8-7.4-14.2-7.4c-6.2,0-10.9,2.5-14.1,7.4
		c-3.2,5-4.8,11.2-4.8,18.7V107.3z M726.7,40.6h15.2L742,41l-17.7,17.1h-9.8L726.7,40.6z"/>
	<path class="st0" d="M779.8,70.9l0.9,10.6c2.4-3.8,5.3-6.7,8.9-8.8c3.6-2.1,7.7-3.1,12.2-3.1c7.7,0,13.6,2.3,17.9,6.8
		c4.2,4.5,6.3,11.5,6.3,20.9v45h-13V97.4c0-6.3-1.2-10.7-3.7-13.4c-2.5-2.6-6.3-4-11.4-4c-4,0-7.4,0.8-10.2,2.4
		c-2.8,1.6-5,3.9-6.6,6.8v52.9h-13V70.9H779.8z"/>
	<path class="st0" d="M906.8,133.4c4,0,7.5-1.3,10.5-4c3-2.7,4.5-5.9,4.5-9.8h11.7l0.2,0.4c0.2,6.2-2.5,11.6-7.9,16.4
		c-5.5,4.8-11.8,7.2-19,7.2c-10,0-17.8-3.4-23.2-10.2c-5.5-6.8-8.2-15.3-8.2-25.4v-2.8c0-10.1,2.7-18.5,8.2-25.3
		c5.5-6.8,13.2-10.3,23.2-10.3c8,0,14.5,2.5,19.5,7.4c5.1,4.9,7.5,11,7.4,18.1l-0.1,0.4h-11.8c0-4.3-1.4-8.1-4.3-11.1
		c-2.8-3.1-6.4-4.6-10.7-4.6c-6.4,0-11,2.5-13.9,7.4c-2.9,4.9-4.4,10.9-4.4,18v2.8c0,7.2,1.4,13.2,4.3,18.1
		C895.7,131,900.4,133.4,906.8,133.4z"/>
	<path class="st0" d="M994.4,131.6c-2.2,3.8-5.1,6.8-8.6,8.8c-3.5,2.1-7.6,3.1-12.2,3.1c-7.8,0-13.8-2.5-18.2-7.4
		c-4.4-5-6.5-12.7-6.5-23.2V70.9h13V113c0,7.6,1.1,12.8,3.4,15.7c2.2,2.9,5.7,4.3,10.5,4.3c4.6,0,8.4-0.9,11.4-2.8
		c3-1.9,5.3-4.5,6.8-7.9V70.9h13v71.3h-11.7L994.4,131.6z"/>
	<path class="st0" d="M1069.7,142.2c-0.4-2.2-0.8-4.1-1-5.7c-0.2-1.6-0.4-3.3-0.4-5c-2.4,3.4-5.6,6.3-9.5,8.6
		c-3.9,2.3-8.1,3.5-12.6,3.5c-7.4,0-13.1-1.9-17-5.7c-3.9-3.8-5.8-9-5.8-15.7c0-6.8,2.8-12.1,8.3-16c5.5-3.8,13-5.8,22.4-5.8h14.1
		v-7.1c0-4.2-1.3-7.5-3.8-9.9c-2.5-2.4-6.2-3.7-10.8-3.7c-4.2,0-7.6,1.1-10.2,3.2c-2.6,2.1-3.9,4.6-3.9,7.6l-12.3,0.1l-0.1-0.4
		c-0.3-5.2,2.1-9.9,7.3-14.2c5.2-4.3,11.8-6.5,20-6.5c8.1,0,14.6,2.1,19.5,6.2c4.9,4.1,7.4,10,7.4,17.8v34.3c0,2.5,0.1,5,0.4,7.4
		s0.7,4.7,1.5,7H1069.7z M1048.1,132.7c4.7,0,8.9-1.2,12.7-3.6s6.2-5.2,7.4-8.3v-11.6h-14.6c-5.2,0-9.4,1.3-12.6,4
		c-3.1,2.6-4.7,5.7-4.7,9.3c0,3.2,1,5.7,3,7.5S1044.3,132.7,1048.1,132.7z"/>
	<path class="st0" d="M1111.7,70.9l0.9,10.6c2.4-3.8,5.3-6.7,8.9-8.8c3.6-2.1,7.7-3.1,12.2-3.1c7.7,0,13.6,2.3,17.9,6.8
		c4.2,4.5,6.3,11.5,6.3,20.9v45h-13V97.4c0-6.3-1.2-10.7-3.7-13.4s-6.3-4-11.4-4c-4,0-7.4,0.8-10.2,2.4c-2.8,1.6-5,3.9-6.6,6.8v52.9
		h-13V70.9H1111.7z"/>
	<path class="st0" d="M1194.9,53.7v17.2h13.5v9.6h-13.5v43.3c0,3.3,0.7,5.7,2.1,7.1c1.4,1.4,3.2,2,5.5,2c0.7,0,1.6-0.1,2.5-0.3
		c0.9-0.2,1.7-0.4,2.3-0.6l1.8,8.9c-1,0.8-2.4,1.4-4.3,1.9c-1.9,0.5-3.8,0.8-5.6,0.8c-5.3,0-9.5-1.6-12.6-4.8
		c-3.1-3.2-4.7-8.2-4.7-15V80.5h-11.3v-9.6h11.3V53.7H1194.9z"/>
	<path class="st0" d="M1236.3,52.6h-13V39.3h13V52.6z M1236.3,142.2h-13V70.9h13V142.2z"/>
	<path class="st0" d="M1274.4,53.7v17.2h13.5v9.6h-13.5v43.3c0,3.3,0.7,5.7,2.1,7.1c1.4,1.4,3.2,2,5.5,2c0.7,0,1.6-0.1,2.5-0.3
		c0.9-0.2,1.7-0.4,2.3-0.6l1.8,8.9c-1,0.8-2.4,1.4-4.3,1.9c-1.9,0.5-3.8,0.8-5.6,0.8c-5.3,0-9.5-1.6-12.6-4.8
		c-3.1-3.2-4.7-8.2-4.7-15V80.5H1250v-9.6h11.3V53.7H1274.4z"/>
	<path class="st0" d="M1345.6,142.2c-0.4-2.2-0.8-4.1-1-5.7c-0.2-1.6-0.4-3.3-0.4-5c-2.4,3.4-5.6,6.3-9.5,8.6
		c-3.9,2.3-8.1,3.5-12.6,3.5c-7.4,0-13.1-1.9-17-5.7c-3.9-3.8-5.8-9-5.8-15.7c0-6.8,2.8-12.1,8.3-16c5.5-3.8,13-5.8,22.4-5.8h14.1
		v-7.1c0-4.2-1.3-7.5-3.8-9.9c-2.5-2.4-6.2-3.7-10.8-3.7c-4.2,0-7.6,1.1-10.2,3.2c-2.6,2.1-3.9,4.6-3.9,7.6l-12.3,0.1l-0.1-0.4
		c-0.3-5.2,2.1-9.9,7.3-14.2c5.2-4.3,11.8-6.5,20-6.5c8.1,0,14.6,2.1,19.5,6.2c4.9,4.1,7.4,10,7.4,17.8v34.3c0,2.5,0.1,5,0.4,7.4
		s0.7,4.7,1.5,7H1345.6z M1324.1,132.7c4.7,0,8.9-1.2,12.7-3.6s6.2-5.2,7.4-8.3v-11.6h-14.6c-5.2,0-9.4,1.3-12.6,4
		c-3.1,2.6-4.7,5.7-4.7,9.3c0,3.2,1,5.7,3,7.5S1320.2,132.7,1324.1,132.7z"/>
	<path class="st0" d="M1394.1,53.7v17.2h13.5v9.6h-13.5v43.3c0,3.3,0.7,5.7,2.1,7.1c1.4,1.4,3.2,2,5.5,2c0.7,0,1.6-0.1,2.5-0.3
		c0.9-0.2,1.7-0.4,2.3-0.6l1.8,8.9c-1,0.8-2.4,1.4-4.3,1.9c-1.9,0.5-3.8,0.8-5.6,0.8c-5.3,0-9.5-1.6-12.6-4.8
		c-3.1-3.2-4.7-8.2-4.7-15V80.5h-11.3v-9.6h11.3V53.7H1394.1z"/>
	<path class="st0" d="M1435.5,52.6h-13V39.3h13V52.6z M1435.5,142.2h-13V70.9h13V142.2z"/>
	<path class="st0" d="M1479.3,121.2l1.1,5h0.4l1.3-5l16.4-50.3h13.3l-26.2,71.3h-9.8l-26.6-71.3h13.3L1479.3,121.2z"/>
	<path class="st0" d="M1566.3,142.2c-0.4-2.2-0.8-4.1-1-5.7c-0.2-1.6-0.4-3.3-0.4-5c-2.4,3.4-5.6,6.3-9.5,8.6
		c-3.9,2.3-8.1,3.5-12.6,3.5c-7.4,0-13.1-1.9-17-5.7c-3.9-3.8-5.8-9-5.8-15.7c0-6.8,2.8-12.1,8.3-16c5.5-3.8,13-5.8,22.4-5.8h14.1
		v-7.1c0-4.2-1.3-7.5-3.8-9.9c-2.5-2.4-6.2-3.7-10.8-3.7c-4.2,0-7.6,1.1-10.2,3.2c-2.6,2.1-3.9,4.6-3.9,7.6l-12.3,0.1l-0.1-0.4
		c-0.3-5.2,2.1-9.9,7.3-14.2c5.2-4.3,11.8-6.5,20-6.5c8.1,0,14.6,2.1,19.5,6.2c4.9,4.1,7.4,10,7.4,17.8v34.3c0,2.5,0.1,5,0.4,7.4
		s0.7,4.7,1.4,7H1566.3z M1544.7,132.7c4.7,0,8.9-1.2,12.7-3.6c3.8-2.4,6.2-5.2,7.4-8.3v-11.6h-14.6c-5.2,0-9.4,1.3-12.6,4
		c-3.1,2.6-4.7,5.7-4.7,9.3c0,3.2,1,5.7,3,7.5S1540.8,132.7,1544.7,132.7z"/>
	<path class="st0" d="M1652,115.7l2.3,9h0.4l17.5-53.9h14.4l-30,82.3c-1.8,4.8-4.4,9-7.7,12.5c-3.4,3.6-7.9,5.3-13.6,5.3
		c-1.1,0-2.4-0.1-4-0.4c-1.6-0.2-2.9-0.5-3.8-0.7l1.3-10.2c-0.3,0,0.5,0,2.3,0.1c1.8,0.1,3,0.2,3.5,0.2c2.8,0,5-1.2,6.8-3.7
		c1.8-2.5,3.2-5.2,4.4-8.2l3.1-7.4l-26.5-69.9h14.5L1652,115.7z"/>
	<path class="st0" d="M1760,133.4c4,0,7.5-1.3,10.5-4c3-2.7,4.5-5.9,4.5-9.8h11.7l0.2,0.4c0.2,6.2-2.5,11.6-7.9,16.4
		c-5.5,4.8-11.8,7.2-19,7.2c-10,0-17.8-3.4-23.2-10.2c-5.5-6.8-8.2-15.3-8.2-25.4v-2.8c0-10.1,2.7-18.5,8.2-25.3
		c5.5-6.8,13.2-10.3,23.2-10.3c8,0,14.5,2.5,19.5,7.4c5.1,4.9,7.5,11,7.4,18.1l-0.1,0.4H1775c0-4.3-1.4-8.1-4.3-11.1
		c-2.8-3.1-6.4-4.6-10.7-4.6c-6.4,0-11,2.5-13.9,7.4c-2.9,4.9-4.4,10.9-4.4,18v2.8c0,7.2,1.4,13.2,4.3,18.1
		C1748.9,131,1753.5,133.4,1760,133.4z"/>
	<path class="st0" d="M1847.6,131.6c-2.2,3.8-5.1,6.8-8.6,8.8s-7.6,3.1-12.2,3.1c-7.8,0-13.8-2.5-18.2-7.4c-4.4-5-6.5-12.7-6.5-23.2
		V70.9h13V113c0,7.6,1.1,12.8,3.4,15.7c2.2,2.9,5.7,4.3,10.5,4.3c4.6,0,8.4-0.9,11.4-2.8c3-1.9,5.3-4.5,6.8-7.9V70.9h13v71.3h-11.7
		L1847.6,131.6z"/>
	<path class="st0" d="M1922.9,142.2c-0.4-2.2-0.8-4.1-1-5.7c-0.2-1.6-0.4-3.3-0.4-5c-2.4,3.4-5.6,6.3-9.5,8.6
		c-3.9,2.3-8.1,3.5-12.6,3.5c-7.4,0-13.1-1.9-17-5.7c-3.9-3.8-5.8-9-5.8-15.7c0-6.8,2.8-12.1,8.3-16c5.5-3.8,13-5.8,22.4-5.8h14.1
		v-7.1c0-4.2-1.3-7.5-3.8-9.9c-2.5-2.4-6.2-3.7-10.8-3.7c-4.2,0-7.6,1.1-10.2,3.2c-2.6,2.1-3.9,4.6-3.9,7.6l-12.3,0.1l-0.1-0.4
		c-0.3-5.2,2.1-9.9,7.3-14.2c5.2-4.3,11.8-6.5,20-6.5c8.1,0,14.6,2.1,19.5,6.2c4.9,4.1,7.4,10,7.4,17.8v34.3c0,2.5,0.1,5,0.4,7.4
		s0.7,4.7,1.4,7H1922.9z M1901.3,132.7c4.7,0,8.9-1.2,12.7-3.6c3.8-2.4,6.2-5.2,7.4-8.3v-11.6h-14.6c-5.2,0-9.4,1.3-12.6,4
		c-3.1,2.6-4.7,5.7-4.7,9.3c0,3.2,1,5.7,3,7.5S1897.5,132.7,1901.3,132.7z"/>
	<path class="st0" d="M1967.3,142.2h-13V39.3h13V142.2z"/>
	<path class="st0" d="M2001.3,52.6h-13V39.3h13V52.6z M2001.3,142.2h-13V70.9h13V142.2z"/>
	<path class="st0" d="M2039.4,53.7v17.2h13.5v9.6h-13.5v43.3c0,3.3,0.7,5.7,2.1,7.1c1.4,1.4,3.2,2,5.5,2c0.7,0,1.6-0.1,2.5-0.3
		c0.9-0.2,1.7-0.4,2.3-0.6l1.8,8.9c-1,0.8-2.4,1.4-4.3,1.9c-1.9,0.5-3.8,0.8-5.6,0.8c-5.3,0-9.5-1.6-12.6-4.8
		c-3.1-3.2-4.7-8.2-4.7-15V80.5H2015v-9.6h11.3V53.7H2039.4z"/>
	<path class="st0" d="M2110.6,142.2c-0.4-2.2-0.8-4.1-1-5.7c-0.2-1.6-0.4-3.3-0.4-5c-2.4,3.4-5.6,6.3-9.5,8.6
		c-3.9,2.3-8.1,3.5-12.6,3.5c-7.4,0-13.1-1.9-17-5.7c-3.9-3.8-5.8-9-5.8-15.7c0-6.8,2.8-12.1,8.3-16c5.5-3.8,13-5.8,22.4-5.8h14.1
		v-7.1c0-4.2-1.3-7.5-3.8-9.9c-2.5-2.4-6.2-3.7-10.8-3.7c-4.2,0-7.6,1.1-10.2,3.2c-2.6,2.1-3.9,4.6-3.9,7.6l-12.3,0.1l-0.1-0.4
		c-0.3-5.2,2.1-9.9,7.3-14.2c5.2-4.3,11.8-6.5,20-6.5c8.1,0,14.6,2.1,19.5,6.2c4.9,4.1,7.4,10,7.4,17.8v34.3c0,2.5,0.1,5,0.4,7.4
		s0.7,4.7,1.4,7H2110.6z M2089.1,132.7c4.7,0,8.9-1.2,12.7-3.6c3.8-2.4,6.2-5.2,7.4-8.3v-11.6h-14.6c-5.2,0-9.4,1.3-12.6,4
		c-3.1,2.6-4.7,5.7-4.7,9.3c0,3.2,1,5.7,3,7.5S2085.2,132.7,2089.1,132.7z"/>
	<path class="st0" d="M2159.1,53.7v17.2h13.5v9.6h-13.5v43.3c0,3.3,0.7,5.7,2.1,7.1c1.4,1.4,3.2,2,5.5,2c0.7,0,1.6-0.1,2.5-0.3
		c0.9-0.2,1.7-0.4,2.3-0.6l1.8,8.9c-1,0.8-2.4,1.4-4.3,1.9c-1.9,0.5-3.8,0.8-5.6,0.8c-5.3,0-9.5-1.6-12.6-4.8
		c-3.1-3.2-4.7-8.2-4.7-15V80.5h-11.3v-9.6h11.3V53.7H2159.1z"/>
	<path class="st0" d="M2200.5,52.6h-13V39.3h13V52.6z M2200.5,142.2h-13V70.9h13V142.2z"/>
	<path class="st0" d="M2244.3,121.2l1.1,5h0.4l1.3-5l16.4-50.3h13.3l-26.2,71.3h-9.8l-26.6-71.3h13.3L2244.3,121.2z"/>
	<path class="st0" d="M2331.2,142.2c-0.4-2.2-0.8-4.1-1-5.7c-0.2-1.6-0.4-3.3-0.4-5c-2.4,3.4-5.6,6.3-9.5,8.6
		c-3.9,2.3-8.1,3.5-12.6,3.5c-7.4,0-13.1-1.9-17-5.7c-3.9-3.8-5.8-9-5.8-15.7c0-6.8,2.8-12.1,8.3-16c5.5-3.8,13-5.8,22.4-5.8h14.1
		v-7.1c0-4.2-1.3-7.5-3.8-9.9c-2.5-2.4-6.2-3.7-10.8-3.7c-4.2,0-7.6,1.1-10.2,3.2c-2.6,2.1-3.9,4.6-3.9,7.6l-12.3,0.1l-0.1-0.4
		c-0.3-5.2,2.1-9.9,7.3-14.2c5.2-4.3,11.8-6.5,20-6.5c8.1,0,14.6,2.1,19.5,6.2c4.9,4.1,7.4,10,7.4,17.8v34.3c0,2.5,0.1,5,0.4,7.4
		s0.7,4.7,1.4,7H2331.2z M2309.7,132.7c4.7,0,8.9-1.2,12.7-3.6c3.8-2.4,6.2-5.2,7.4-8.3v-11.6h-14.6c-5.2,0-9.4,1.3-12.6,4
		c-3.1,2.6-4.7,5.7-4.7,9.3c0,3.2,1,5.7,3,7.5S2305.8,132.7,2309.7,132.7z"/>
</g>
</svg>
