<?xml version="1.0" encoding="utf-8"?>
<!-- Generator: Adobe Illustrator 23.0.3, SVG Export Plug-In . SVG Version: 6.00 Build 0)  -->
<svg version="1.1" id="Ñëîé_1" xmlns="http://www.w3.org/2000/svg" xmlns:xlink="http://www.w3.org/1999/xlink" x="0px" y="0px"
	 viewBox="0 0 509.14 540" style="enable-background:new 0 0 509.14 540;" xml:space="preserve">
<style type="text/css">
	.st0{fill:#F6F6F6;}
	.st1{fill:#E2E2E2;}
	.st2{fill:#61C1A2;}
</style>
<rect x="-347" y="-326.43" class="st0" width="1200" height="1200"/>
<ellipse class="st1" cx="253" cy="635.33" rx="270.62" ry="29.59"/>
<g>
	<polygon class="st2" points="485.82,382.68 296.78,317.24 362.22,506.28 392.9,443.18 455.56,505.85 485.39,476.02 422.72,413.36 	
		"/>
	<path class="st2" d="M437.41,132.18l0.63-0.35l-12.12-13.53c-2.75-3.08-5.58-6.07-8.48-8.98
		c-43.42-43.58-102.67-68.37-164.45-68.45c-0.1,0-0.2-0.01-0.3-0.01c-0.1,0-0.19,0.01-0.29,0.01
		c-48.11,0.06-94.67,15.12-133.43,42.35c-4.37,3.07-8.66,6.28-12.82,9.66c-0.45,0.36-0.89,0.74-1.33,1.11
		c-5.85,4.82-11.49,9.92-16.88,15.33c-0.59,0.6-1.17,1.21-1.76,1.82c-0.85,0.87-1.7,1.73-2.53,2.61c-1.41,1.5-2.81,3.01-4.19,4.55
		l-12.12,13.54l0.63,0.35c-30.92,40.42-47.79,89.9-47.79,141.19s16.86,100.78,47.79,141.19l-0.63,0.35l12.12,13.54
		c30.3,33.83,69.61,57.74,112.68,69.38c19.57,5.29,39.92,8.05,60.56,8.05c6.19,0,12.35-0.25,18.48-0.74
		c4.08-0.33,8.15-0.76,12.2-1.3c2.02-0.27,4.04-0.57,6.05-0.89c9.61-1.54,19.09-3.7,28.38-6.41c1.04-0.3,2.07-0.62,3.11-0.94
		c2.07-0.64,4.12-1.31,6.17-2l-19.54-56.44c-16.21,25.41-35.66,39.65-54.85,39.65c-22.94,0-46.26-20.34-63.96-55.8
		c-2.81-5.63-5.44-11.55-7.88-17.7c22.91-4.17,47-6.28,71.84-6.28c14.17,0,28.08,0.71,41.68,2.07l-10.41-30.07
		c-10.29-0.71-20.72-1.07-31.27-1.07c-28.07,0-55.3,2.53-81.16,7.52c-7.43-26.64-11.85-56.42-12.9-87.6h97.24h45.02h45.87
		c-0.18,5.24-0.46,10.44-0.82,15.59l28.38,9.83c0.74-8.32,1.25-16.8,1.51-25.42h79.78c-1.22,17.16-4.61,33.98-10.01,50.1l27.47,9.51
		c7.96-23.68,12.12-48.68,12.12-74.14C485.2,222.08,468.34,172.6,437.41,132.18z M252.5,69.93c0.06,0,0.13,0,0.19,0
		c0.07,0,0.13,0,0.2,0c22.88,0.12,46.11,20.44,63.76,55.8c2.81,5.63,5.44,11.55,7.88,17.7c-22.91,4.17-47,6.28-71.85,6.28
		c-24.84,0-48.93-2.11-71.84-6.28c2.44-6.15,5.07-12.07,7.88-17.7C206.39,90.37,229.62,70.05,252.5,69.93z M93.87,146.24
		c14.83,7.26,31.32,13.42,49.31,18.39c-7.78,28.29-12.56,60.15-13.63,94.21H49.77C52.7,217.68,68.05,178.47,93.87,146.24z
		 M49.77,287.91h79.79c1.07,34.06,5.85,65.92,13.63,94.21c-17.98,4.98-34.48,11.13-49.31,18.39
		C68.05,368.28,52.7,329.07,49.77,287.91z M180.95,463.71c-0.08-0.03-0.16-0.06-0.24-0.09c-0.54-0.2-1.08-0.4-1.62-0.61
		c-1.19-0.46-2.37-0.94-3.55-1.42c-0.38-0.15-0.75-0.3-1.13-0.46c-1.57-0.66-3.14-1.33-4.7-2.03c-0.06-0.03-0.12-0.05-0.18-0.08
		c-1.47-0.66-2.94-1.34-4.4-2.03c-0.45-0.21-0.89-0.44-1.34-0.65c-1.07-0.52-2.13-1.04-3.19-1.58c-0.53-0.27-1.07-0.55-1.6-0.83
		c-0.96-0.5-1.93-1.01-2.88-1.52c-0.56-0.3-1.12-0.61-1.68-0.92c-0.93-0.51-1.85-1.03-2.76-1.55c-0.56-0.32-1.12-0.64-1.68-0.97
		c-0.92-0.54-1.83-1.08-2.75-1.64c-0.54-0.33-1.08-0.65-1.61-0.98c-0.95-0.59-1.89-1.19-2.84-1.79c-0.48-0.31-0.96-0.61-1.44-0.92
		c-1.08-0.71-2.16-1.43-3.23-2.16c-0.33-0.22-0.66-0.44-0.98-0.66c-1.4-0.97-2.8-1.95-4.18-2.96c-0.17-0.12-0.33-0.25-0.5-0.37
		c-1.19-0.87-2.37-1.75-3.55-2.65c-0.44-0.34-0.88-0.68-1.31-1.03c-0.9-0.7-1.79-1.4-2.68-2.11c-0.5-0.4-1-0.81-1.49-1.22
		c-0.81-0.67-1.63-1.34-2.43-2.03c-0.52-0.44-1.03-0.88-1.55-1.33c-0.77-0.67-1.54-1.35-2.31-2.03c-0.52-0.46-1.03-0.92-1.54-1.39
		c-0.3-0.27-0.59-0.55-0.88-0.82c11.44-5.01,24.05-9.41,37.42-13.07C160.08,430.7,169.81,448.92,180.95,463.71z M152.16,136.95
		c-13.37-3.66-25.98-8.06-37.42-13.07c0.3-0.27,0.59-0.55,0.88-0.82c0.51-0.47,1.03-0.93,1.54-1.39c0.76-0.68,1.53-1.35,2.3-2.02
		c0.52-0.45,1.04-0.9,1.56-1.34c0.8-0.68,1.6-1.34,2.41-2c0.51-0.42,1.01-0.83,1.52-1.24c0.88-0.71,1.76-1.4,2.65-2.09
		c0.45-0.35,0.89-0.7,1.34-1.05c1.15-0.88,2.3-1.74,3.47-2.59c0.2-0.14,0.39-0.29,0.58-0.43c1.37-1,2.76-1.98,4.16-2.94
		c0.35-0.24,0.7-0.47,1.05-0.71c1.05-0.71,2.1-1.42,3.15-2.11c0.49-0.32,0.99-0.64,1.49-0.96c0.93-0.59,1.85-1.18,2.79-1.76
		c0.55-0.34,1.1-0.67,1.65-1c0.9-0.54,1.8-1.08,2.71-1.61c0.57-0.33,1.14-0.66,1.71-0.99c0.91-0.52,1.82-1.03,2.73-1.53
		c0.57-0.31,1.14-0.63,1.71-0.94c0.94-0.51,1.89-1.01,2.84-1.5c0.55-0.28,1.09-0.57,1.64-0.85c1.04-0.53,2.09-1.04,3.14-1.55
		c0.46-0.22,0.92-0.46,1.39-0.68c1.42-0.68,2.86-1.34,4.3-1.99c0.09-0.04,0.18-0.09,0.28-0.13c1.55-0.69,3.11-1.37,4.68-2.02
		c0.39-0.16,0.79-0.32,1.18-0.48c1.16-0.48,2.33-0.95,3.5-1.4c0.55-0.21,1.1-0.42,1.65-0.62c0.07-0.03,0.15-0.05,0.22-0.08
		C169.8,97.83,160.08,116.05,152.16,136.95z M158.63,258.84c1.05-31.18,5.47-60.95,12.9-87.59c25.86,4.99,53.1,7.53,81.17,7.53
		c28.07,0,55.31-2.53,81.17-7.52c7.43,26.64,11.85,56.41,12.9,87.59H158.63z M324.44,83.05c0.04,0.02,0.08,0.03,0.12,0.05
		c0.59,0.22,1.18,0.44,1.76,0.67c1.11,0.43,2.21,0.88,3.31,1.33c0.45,0.19,0.91,0.36,1.36,0.55c1.55,0.65,3.1,1.31,4.63,2
		c0.19,0.08,0.37,0.17,0.56,0.26c1.34,0.61,2.68,1.22,4.01,1.86c0.51,0.24,1.01,0.5,1.52,0.74c1,0.49,2.01,0.98,3,1.49
		c0.58,0.29,1.15,0.6,1.73,0.9c0.92,0.48,1.83,0.96,2.75,1.45c0.6,0.32,1.2,0.65,1.79,0.98c0.89,0.49,1.77,0.98,2.64,1.48
		c0.6,0.34,1.19,0.68,1.78,1.03c0.88,0.51,1.75,1.04,2.63,1.57c0.57,0.35,1.15,0.69,1.72,1.05c0.91,0.56,1.81,1.13,2.7,1.71
		c0.52,0.33,1.05,0.66,1.56,1c1.02,0.67,2.04,1.35,3.05,2.04c0.38,0.26,0.77,0.51,1.14,0.77c1.39,0.96,2.77,1.93,4.14,2.93
		c0.23,0.17,0.46,0.35,0.69,0.52c1.13,0.83,2.25,1.66,3.36,2.51c0.47,0.36,0.93,0.72,1.39,1.09c0.87,0.68,1.74,1.36,2.6,2.05
		c0.52,0.42,1.03,0.84,1.55,1.27c0.8,0.66,1.59,1.31,2.38,1.98c0.53,0.45,1.05,0.9,1.58,1.36c0.76,0.66,1.53,1.33,2.28,2
		c0.52,0.47,1.04,0.94,1.56,1.41c0.29,0.27,0.58,0.54,0.88,0.81c-11.43,5.01-24.04,9.41-37.42,13.07
		C345.31,116.05,335.59,97.84,324.44,83.05z M375.83,258.84c-1.07-34.06-5.85-65.92-13.63-94.21c17.99-4.98,34.49-11.14,49.3-18.39
		c25.82,32.22,41.17,71.43,44.1,112.6H375.83z"/>
</g>
</svg>
