<?xml version="1.0" encoding="utf-8"?>
<!-- Generator: Adobe Illustrator 25.2.1, SVG Export Plug-In . SVG Version: 6.00 Build 0)  -->
<svg version="1.1" id="Capa_1" xmlns="http://www.w3.org/2000/svg" xmlns:xlink="http://www.w3.org/1999/xlink" x="0px" y="0px"
	 viewBox="0 0 333.2 172.2" style="enable-background:new 0 0 333.2 172.2;" xml:space="preserve">
<style type="text/css">
	.st0{fill:#61C1A2;}
	.st1{fill:#FFFFFF;}
</style>
<path class="st0" d="M313.6,141h-291c-7.2,0-13-5.8-13-13V54c0-7.2,5.8-13,13-13h291c7.2,0,13,5.8,13,13v74
	C326.6,135.2,320.8,141,313.6,141z"/>
<g>
	<path class="st1" d="M88.9,104.4l16.6-39.2h6.9l-23.5,53.2L65.3,65.2h6.9L88.9,104.4z"/>
	<path class="st1" d="M113.5,90.4l-2.8-4.4c1.3-0.9,2.9-1.8,5.1-2.8s4.7-1.4,7.7-1.4c3.8,0,6.9,0.9,9.3,2.6s3.5,4.3,3.5,7.5v23.9
		h-5.8v-4.8c-1,1.8-2.5,3.1-4.6,4.1c-2,0.9-4.3,1.4-6.8,1.4c-2.1,0-4-0.4-5.7-1.2c-1.7-0.8-3.1-1.9-4.2-3.4s-1.6-3.4-1.6-5.7
		c0-3.5,1.3-6.3,3.8-8.2c2.5-2,6-2.9,10.4-2.9c2,0,3.7,0.2,5.1,0.7c1.4,0.5,2.6,1,3.5,1.7V92c0-1.7-0.7-3-2.1-3.8
		c-1.4-0.8-3.1-1.3-4.9-1.3c-2.4,0-4.4,0.4-6.1,1.3C115.6,89.1,114.4,89.8,113.5,90.4z M113.5,106.1c0,1.8,0.7,3.1,2.1,4
		s3,1.3,5,1.3c2.9,0,5.3-0.7,7.1-2c1.9-1.3,2.8-3.5,2.8-6.6v-1.3c-1.3-0.7-2.6-1.2-3.9-1.5c-1.4-0.3-2.8-0.5-4.4-0.5
		c-2.9,0-5.1,0.6-6.5,1.7C114.2,102.5,113.5,104.1,113.5,106.1z"/>
	<path class="st1" d="M146,59.4h5.8v56.4H146V59.4z"/>
	<path class="st1" d="M162.7,68.8c0-1.1,0.4-2.1,1.2-2.8c0.8-0.8,1.7-1.2,2.8-1.2c1.1,0,2.1,0.4,2.8,1.2c0.8,0.8,1.2,1.7,1.2,2.8
		c0,1.1-0.4,2-1.2,2.8s-1.7,1.2-2.8,1.2c-1.1,0-2-0.4-2.8-1.2S162.7,69.9,162.7,68.8z M163.8,82.6h5.8v33.3h-5.8V82.6z"/>
	<path class="st1" d="M178.6,99.2c0-3.6,0.7-6.7,2.2-9.3c1.5-2.6,3.5-4.6,6-6c2.5-1.4,5.3-2.1,8.2-2.1c2.5,0,4.7,0.6,6.6,1.7
		c2,1.1,3.5,2.7,4.7,4.8V59.4h5.8v56.4h-5.8v-5.7c-1.2,2.1-2.8,3.7-4.7,4.8c-2,1.1-4.2,1.7-6.6,1.7c-3,0-5.7-0.7-8.2-2.1
		c-2.5-1.4-4.5-3.4-6-6C179.3,105.9,178.6,102.8,178.6,99.2z M184.4,99.2c0,2.6,0.5,4.7,1.6,6.5s2.4,3.1,4.2,4.1s3.6,1.4,5.6,1.4
		c1.7,0,3.4-0.5,5-1.4c1.6-0.9,3-2.3,4.1-4.1c1.1-1.8,1.6-4,1.6-6.5s-0.5-4.7-1.6-6.5c-1.1-1.8-2.4-3.1-4.1-4.1
		c-1.6-0.9-3.3-1.4-5-1.4c-2,0-3.9,0.5-5.6,1.4c-1.7,0.9-3.1,2.3-4.2,4.1S184.4,96.7,184.4,99.2z"/>
	<path class="st1" d="M225.3,90.4l-2.8-4.4c1.3-0.9,2.9-1.8,5.1-2.8c2.1-0.9,4.7-1.4,7.7-1.4c3.8,0,6.9,0.9,9.3,2.6
		c2.4,1.8,3.5,4.3,3.5,7.5v23.9h-5.8v-4.8c-1,1.8-2.5,3.1-4.6,4.1c-2,0.9-4.3,1.4-6.8,1.4c-2.1,0-4-0.4-5.7-1.2
		c-1.7-0.8-3.1-1.9-4.2-3.4s-1.6-3.4-1.6-5.7c0-3.5,1.3-6.3,3.8-8.2c2.5-2,6-2.9,10.4-2.9c2,0,3.7,0.2,5.1,0.7s2.6,1,3.5,1.7V92
		c0-1.7-0.7-3-2.1-3.8c-1.4-0.8-3.1-1.3-4.9-1.3c-2.4,0-4.4,0.4-6.1,1.3C227.4,89.1,226.2,89.8,225.3,90.4z M225.3,106.1
		c0,1.8,0.7,3.1,2.1,4s3,1.3,5,1.3c2.9,0,5.3-0.7,7.1-2c1.9-1.3,2.8-3.5,2.8-6.6v-1.3c-1.3-0.7-2.6-1.2-3.9-1.5
		c-1.4-0.3-2.8-0.5-4.4-0.5c-2.9,0-5.1,0.6-6.5,1.7C226,102.5,225.3,104.1,225.3,106.1z"/>
	<path class="st1" d="M273.7,89c-0.8-0.6-1.5-1-2.1-1.3c-0.6-0.3-1.4-0.4-2.4-0.4c-2.2,0-3.6,0.8-4.4,2.4s-1.2,3.6-1.2,6v20.3h-5.8
		V82.6h5.8v3.8c1-1.4,2.1-2.5,3.3-3.3c1.2-0.8,2.5-1.2,3.7-1.2c1.2,0,2.3,0.2,3.4,0.5s2,0.9,2.9,1.8L273.7,89z"/>
</g>
</svg>
