<?xml version="1.0" encoding="utf-8"?>
<!-- Generator: Adobe Illustrator 25.2.1, SVG Export Plug-In . SVG Version: 6.00 Build 0)  -->
<svg version="1.1" id="Capa_1" xmlns="http://www.w3.org/2000/svg" xmlns:xlink="http://www.w3.org/1999/xlink" x="0px" y="0px"
	 viewBox="0 0 637.4 425.6" style="enable-background:new 0 0 637.4 425.6;" xml:space="preserve">
<style type="text/css">
	.st0{fill:url(#SVGID_1_);}
</style>
<linearGradient id="SVGID_1_" gradientUnits="userSpaceOnUse" x1="2877.5698" y1="39.0957" x2="2881.1331" y2="345.5361" gradientTransform="matrix(-1 0 0 -1 2904.6174 428)">
	<stop  offset="0" style="stop-color:#00BFE1"/>
	<stop  offset="1" style="stop-color:#00FFB0"/>
</linearGradient>
<circle class="st0" cx="25" cy="212.8" r="238.4"/>
<g>
	<path d="M141.1,166.2h8v46.6h-8V166.2z"/>
	<path d="M178.5,194.1c0-2.2-0.5-3.9-1.4-5.1c-0.9-1.2-2.3-1.8-4.3-1.8s-3.7,0.6-4.9,1.9c-1.2,1.3-1.9,2.9-1.9,5v18.7h-7.3v-30.7
		h7.3v4.7c0.9-1.7,2.1-3,3.7-4c1.6-1,3.4-1.4,5.5-1.4c3.4,0,6.1,1,7.9,3c1.8,2,2.8,5,2.8,8.8v19.5h-7.4L178.5,194.1L178.5,194.1z"/>
	<path d="M196,171.5h7.1v10.7h5.1v6.3h-5.1v24.3H196v-24.3h-5.1v-6.3h5.1V171.5z"/>
	<path d="M218.2,199.1c0.3,2.8,1.2,4.9,2.7,6.3s3.5,2.1,5.9,2.1c2.1,0,3.9-0.4,5.3-1.3s2.6-2.1,3.5-3.6l6.3,2.5
		c-1.5,2.5-3.4,4.5-5.7,6s-5.5,2.3-9.7,2.3c-3.2,0-5.9-0.7-8.3-2.1s-4.2-3.3-5.5-5.7s-1.9-5.2-1.9-8.2c0-0.6,0-1.1,0.1-1.7
		c0-0.5,0.1-1.1,0.2-1.6c0.6-3.8,2.3-6.8,5-9.2s6.3-3.5,10.7-3.5c4.8,0,8.5,1.4,11.2,4.2s4.1,6.6,4.1,11.5c0,0.3,0,0.6,0,0.9
		c0,0.4-0.1,0.7-0.1,1.1H218.2z M218.4,194.1h16c-0.3-2.2-1-3.9-2.2-5.2s-3-2-5.4-2c-2.2,0-4,0.6-5.6,1.9
		C219.6,190.1,218.7,191.9,218.4,194.1z M237.8,167l-12,10l-4.1-2.3l10-10.7L237.8,167z"/>
	<path d="M268.7,194.1c0-2.2-0.5-3.9-1.4-5.1c-0.9-1.2-2.3-1.8-4.3-1.8s-3.7,0.6-4.9,1.9c-1.2,1.3-1.9,2.9-1.9,5v18.7H249v-30.7h7.3
		v4.7c0.9-1.7,2.1-3,3.7-4s3.4-1.4,5.5-1.4c3.4,0,6.1,1,7.9,3s2.8,5,2.8,8.8v19.5h-7.4L268.7,194.1L268.7,194.1z"/>
	<path d="M286.2,171.5h7.1v10.7h5.1v6.3h-5.1v24.3h-7.1v-24.3h-5.1v-6.3h5.1V171.5z"/>
	<path d="M306.4,190.3l-2.9-5.2c1.4-0.8,3.2-1.7,5.3-2.5c2.1-0.8,4.5-1.2,7.3-1.2c3.8,0,6.9,0.8,9.2,2.5c2.4,1.6,3.6,4,3.6,7.1v21.9
		h-7.1v-4.4c-0.9,1.6-2.3,2.9-4.1,3.8s-4,1.3-6.3,1.3c-3.1,0-5.7-0.8-7.7-2.4c-2-1.6-3-3.9-3-6.9c0-3.2,1.2-5.7,3.6-7.5
		s5.6-2.7,9.6-2.7c1.7,0,3.2,0.2,4.6,0.6c1.4,0.4,2.5,0.9,3.4,1.4v-4.3c0-1.4-0.6-2.5-1.8-3.3c-1.2-0.8-2.6-1.2-4.3-1.2
		c-2.2,0-4.1,0.4-5.7,1.1C308.3,189.2,307.1,189.8,306.4,190.3z M307.9,203.7c0,1.4,0.5,2.5,1.6,3.2s2.4,1.1,4,1.1
		c2.4,0,4.3-0.5,5.9-1.6s2.3-3,2.3-5.7v-0.6c-2-1-4.3-1.5-6.9-1.5c-2.3,0-4,0.5-5.2,1.4C308.5,200.9,307.9,202.1,307.9,203.7z"/>
	<path d="M337.2,160.8h7.3v52h-7.3V160.8z"/>
	<path d="M351.3,197.5c0-3.2,0.7-5.9,2.2-8.3c1.4-2.4,3.4-4.3,5.9-5.6s5.3-2,8.4-2c3.2,0,6,0.7,8.5,2c2.5,1.4,4.5,3.2,5.9,5.6
		c1.4,2.4,2.2,5.2,2.2,8.3c0,3.2-0.7,5.9-2.2,8.3c-1.4,2.4-3.4,4.3-5.9,5.6c-2.5,1.4-5.3,2-8.5,2c-3.1,0-5.9-0.7-8.4-2
		c-2.5-1.4-4.5-3.2-5.9-5.6C352,203.4,351.3,200.6,351.3,197.5z M358.7,197.5c0,2.8,0.9,5.2,2.6,7c1.8,1.8,3.9,2.7,6.5,2.7
		s4.8-0.9,6.5-2.7s2.6-4.1,2.6-7s-0.9-5.2-2.6-7s-3.9-2.7-6.5-2.7s-4.7,0.9-6.5,2.7C359.6,192.3,358.7,194.6,358.7,197.5z"/>
	<path d="M408.8,197.5c0-3.4,0.7-6.3,2.1-8.6c1.4-2.4,3.2-4.2,5.5-5.5s4.7-1.9,7.4-1.9c2.2,0,4.2,0.5,6,1.5s3.3,2.4,4.4,4.2v-26.4
		h7.3v52h-7.3v-5.1c-1.2,1.8-2.6,3.2-4.4,4.2s-3.8,1.5-6,1.5c-2.7,0-5.1-0.6-7.4-1.9c-2.3-1.3-4.1-3.1-5.5-5.5
		C409.5,203.7,408.8,200.8,408.8,197.5z M416.2,197.5c0,3.1,0.9,5.5,2.7,7.2c1.8,1.7,4,2.6,6.5,2.6c1.4,0,2.7-0.4,4.1-1.1
		c1.3-0.8,2.4-1.9,3.3-3.3c0.9-1.4,1.3-3.2,1.3-5.3s-0.4-3.9-1.3-5.3c-0.9-1.4-2-2.5-3.3-3.3s-2.7-1.1-4.1-1.1
		c-2.5,0-4.6,0.9-6.5,2.6C417.2,192,416.2,194.4,416.2,197.5z"/>
	<path d="M455.4,199.1c0.3,2.8,1.2,4.9,2.7,6.3s3.5,2.1,5.9,2.1c2.1,0,3.9-0.4,5.3-1.3c1.4-0.9,2.6-2.1,3.5-3.6l6.3,2.5
		c-1.5,2.5-3.5,4.5-6,6s-5.6,2.3-9.4,2.3c-3.2,0-5.9-0.7-8.3-2.1s-4.2-3.3-5.5-5.7s-1.9-5.2-1.9-8.2c0-0.6,0-1.1,0.1-1.7
		c0-0.5,0.1-1.1,0.2-1.6c0.6-3.8,2.3-6.8,5-9.2s6.3-3.5,10.7-3.5c4.8,0,8.5,1.4,11.2,4.2s4.1,6.6,4.1,11.5c0,0.3,0,0.6,0,0.9
		s-0.1,0.7-0.1,1.1H455.4z M455.5,194.1h16c-0.3-2.2-1-4-2.3-5.3c-1.2-1.3-3-1.9-5.3-1.9c-2.2,0-4,0.6-5.6,1.9
		C456.7,190.1,455.8,191.9,455.5,194.1z"/>
	<path d="M255.2,252.1c0-2.2-0.5-3.9-1.4-5.1c-0.9-1.2-2.3-1.8-4.3-1.8s-3.7,0.6-4.9,1.9c-1.2,1.3-1.9,2.9-1.9,5v18.7h-7.3v-30.7
		h7.3v4.7c0.9-1.7,2.1-3,3.7-4c1.6-1,3.4-1.4,5.5-1.4c3.4,0,6.1,1,7.9,3c1.8,2,2.8,5,2.8,8.8v19.5h-7.4L255.2,252.1L255.2,252.1z"/>
	<path d="M279.2,258.8c0,4.6,1.9,6.9,5.7,6.9c2,0,3.7-0.6,4.9-1.9c1.2-1.3,1.9-2.9,1.9-5v-18.7h7.2v30.7h-7.2V266
		c-0.9,1.6-2.2,3-3.8,4c-1.6,1-3.4,1.5-5.5,1.5c-3.4,0-6-1-7.9-3s-2.8-5-2.8-8.8v-19.5h7.4L279.2,258.8L279.2,258.8z"/>
	<path d="M313.2,257.1c0.3,2.8,1.2,4.9,2.7,6.3s3.5,2.1,5.9,2.1c2.1,0,3.9-0.4,5.3-1.3s2.6-2.1,3.5-3.6l6.3,2.5
		c-1.5,2.5-3.5,4.5-6,6s-5.6,2.3-9.4,2.3c-3.2,0-5.9-0.7-8.3-2.1s-4.2-3.3-5.5-5.7c-1.3-2.4-1.9-5.2-1.9-8.2c0-0.6,0-1.1,0.1-1.7
		s0.1-1.1,0.2-1.6c0.6-3.8,2.3-6.8,5-9.2s6.3-3.5,10.7-3.5c4.8,0,8.5,1.4,11.2,4.2s4.1,6.6,4.1,11.5c0,0.3,0,0.6,0,0.9
		s-0.1,0.7-0.1,1.1L313.2,257.1L313.2,257.1z M313.3,252.1h16c-0.3-2.2-1-4-2.3-5.3c-1.2-1.3-3-1.9-5.3-1.9c-2.2,0-4,0.6-5.6,1.9
		C314.5,248.1,313.6,249.9,313.3,252.1z"/>
	<path d="M338.3,240.1h7.9l8,19.8l8-19.8h7.9l-15.9,33.5L338.3,240.1z"/>
	<path d="M371.3,255.5c0-3.2,0.7-5.9,2.2-8.3c1.4-2.4,3.4-4.3,5.9-5.6s5.3-2,8.4-2c3.2,0,6,0.7,8.5,2c2.5,1.4,4.5,3.2,5.9,5.6
		c1.4,2.4,2.2,5.2,2.2,8.3s-0.7,5.9-2.2,8.3c-1.4,2.4-3.4,4.3-5.9,5.6c-2.5,1.4-5.3,2-8.5,2c-3.1,0-5.9-0.7-8.4-2
		c-2.5-1.4-4.5-3.2-5.9-5.6C372,261.4,371.3,258.6,371.3,255.5z M378.7,255.5c0,2.8,0.9,5.2,2.6,7c1.8,1.8,3.9,2.7,6.5,2.7
		s4.8-0.9,6.5-2.7c1.7-1.8,2.6-4.1,2.6-7s-0.9-5.2-2.6-7s-3.9-2.7-6.5-2.7s-4.7,0.9-6.5,2.7C379.5,250.3,378.7,252.6,378.7,255.5z"
		/>
</g>
</svg>
