<?xml version="1.0" encoding="utf-8"?>
<!-- Generator: Adobe Illustrator 25.2.1, SVG Export Plug-In . SVG Version: 6.00 Build 0)  -->
<svg version="1.1" id="Capa_1" xmlns="http://www.w3.org/2000/svg" xmlns:xlink="http://www.w3.org/1999/xlink" x="0px" y="0px"
	 viewBox="0 0 637.4 425.6" style="enable-background:new 0 0 637.4 425.6;" xml:space="preserve">
<style type="text/css">
	.st0{fill:url(#SVGID_1_);}
</style>
<linearGradient id="SVGID_1_" gradientUnits="userSpaceOnUse" x1="2877.5698" y1="39.0957" x2="2881.1331" y2="345.5361" gradientTransform="matrix(-1 0 0 -1 2904.6174 428)">
	<stop  offset="0" style="stop-color:#00BFE1"/>
	<stop  offset="1" style="stop-color:#00FFB0"/>
</linearGradient>
<circle class="st0" cx="25" cy="212.8" r="238.4"/>
<g>
	<path d="M164.4,203.6c0,1.2-0.5,2.3-1.4,3.2s-2,1.3-3.4,1.3c-1.3,0-2.5-0.4-3.4-1.3s-1.4-1.9-1.4-3.2s0.5-2.4,1.4-3.2
		s2-1.3,3.4-1.3c1.3,0,2.5,0.4,3.4,1.3S164.4,202.3,164.4,203.6z M164.1,247h-9l1.7-32.5h5.7L164.1,247z"/>
	<path d="M181.2,207.7c0,3.3,0.7,6.2,2.2,8.7s3.4,4.4,5.8,5.8c2.4,1.4,5.1,2,7.9,2c3.3,0,6.1-0.6,8.6-1.9c2.4-1.2,4.4-2.8,6-4.7v9.3
		c-1.9,1.6-4,2.8-6.3,3.7c-2.3,0.8-5.1,1.3-8.6,1.3s-6.6-0.6-9.5-1.8s-5.5-2.8-7.7-5c-2.2-2.1-3.9-4.7-5.1-7.6s-1.8-6.2-1.8-9.8
		s0.6-6.8,1.8-9.8s2.9-5.5,5.1-7.6c2.2-2.1,4.8-3.8,7.7-5s6.1-1.8,9.5-1.8s6.3,0.4,8.6,1.3c2.3,0.8,4.4,2.1,6.3,3.7v9.3
		c-1.6-1.9-3.6-3.5-6-4.7s-5.3-1.9-8.6-1.9c-2.8,0-5.5,0.7-7.9,2c-2.4,1.4-4.4,3.3-5.8,5.7C182,201.5,181.2,204.4,181.2,207.7z"/>
	<path d="M218.5,215.7c0-3.2,0.7-5.9,2.2-8.3c1.4-2.4,3.4-4.3,5.9-5.6s5.3-2,8.4-2c3.2,0,6,0.7,8.5,2s4.5,3.2,5.9,5.6
		c1.4,2.4,2.2,5.2,2.2,8.3c0,3.2-0.7,5.9-2.2,8.3c-1.4,2.4-3.4,4.3-5.9,5.6c-2.5,1.4-5.3,2-8.5,2c-3.1,0-5.9-0.7-8.4-2
		c-2.5-1.4-4.5-3.2-5.9-5.6C219.2,221.6,218.5,218.9,218.5,215.7z M225.9,215.7c0,2.8,0.9,5.2,2.6,7c1.8,1.8,3.9,2.7,6.5,2.7
		s4.8-0.9,6.5-2.7s2.6-4.1,2.6-7s-0.9-5.2-2.6-7s-3.9-2.7-6.5-2.7s-4.7,0.9-6.5,2.7S225.9,212.8,225.9,215.7z"/>
	<path d="M274.6,208.1c-0.7-0.5-1.3-0.9-1.9-1.2s-1.3-0.4-2.2-0.4c-1.8,0-3.1,0.7-3.9,2s-1.2,3.1-1.2,5.3V231h-7.1v-30.7h7.1v3.7
		c0.9-1.4,2-2.5,3.2-3.2s2.5-1.2,3.8-1.2c1.1,0,2.2,0.2,3.1,0.5c1,0.4,1.8,0.9,2.5,1.7L274.6,208.1z"/>
	<path d="M299.2,208.1c-0.7-0.5-1.3-0.9-1.9-1.2s-1.3-0.4-2.2-0.4c-1.8,0-3.1,0.7-3.9,2s-1.2,3.1-1.2,5.3V231h-7v-30.7h7.1v3.7
		c0.9-1.4,2-2.5,3.2-3.2s2.5-1.2,3.8-1.2c1.1,0,2.2,0.2,3.1,0.5c1,0.4,1.8,0.9,2.5,1.7L299.2,208.1z"/>
	<path d="M311.7,217.4c0.3,2.8,1.2,4.9,2.7,6.3s3.5,2.1,5.9,2.1c2.1,0,3.9-0.4,5.3-1.3c1.4-0.9,2.6-2.1,3.5-3.6l6.3,2.5
		c-1.5,2.5-3.5,4.5-6,6s-5.6,2.3-9.4,2.3c-3.2,0-5.9-0.7-8.3-2.1s-4.2-3.3-5.5-5.7s-1.9-5.2-1.9-8.2c0-0.6,0-1.1,0.1-1.7
		c0-0.5,0.1-1.1,0.2-1.6c0.6-3.8,2.3-6.8,5-9.2s6.3-3.5,10.7-3.5c4.8,0,8.5,1.4,11.2,4.2s4.1,6.6,4.1,11.5c0,0.3,0,0.6,0,0.9
		c0,0.4-0.1,0.7-0.1,1.1H311.7z M311.8,212.4h16c-0.3-2.2-1-4-2.3-5.3c-1.2-1.3-3-1.9-5.3-1.9c-2.2,0-4,0.6-5.6,1.9
		C313.1,208.3,312.1,210.1,311.8,212.4z"/>
	<path d="M347.3,215.7c0,1.9,0.4,3.6,1.3,5.1s2,2.6,3.4,3.5c1.4,0.8,3.1,1.2,4.8,1.2c2.2,0,4.2-0.5,6.1-1.5c1.8-1,3.1-2.2,3.9-3.7
		v7.9c-1.1,1.1-2.5,2-4.3,2.6s-3.8,0.9-6,0.9c-3.2,0-6-0.7-8.5-2c-2.5-1.4-4.5-3.2-5.9-5.6c-1.4-2.4-2.2-5.2-2.2-8.3
		c0-3.2,0.7-5.9,2.2-8.3c1.4-2.4,3.4-4.3,5.9-5.6s5.3-2,8.5-2c2.2,0,4.2,0.3,6,1c1.8,0.6,3.2,1.5,4.3,2.5v7.9
		c-0.8-1.5-2.1-2.7-4-3.7s-3.9-1.5-6-1.5c-1.8,0-3.4,0.4-4.8,1.3c-1.4,0.8-2.6,2-3.4,3.5C347.7,212.1,347.3,213.8,347.3,215.7z"/>
	<path d="M375.6,189.7h7.1v10.7h5.1v6.3h-5.1V231h-7.1v-24.3h-5.1v-6.3h5.1V189.7z"/>
	<path d="M390.4,215.7c0-3.2,0.7-5.9,2.2-8.3c1.4-2.4,3.4-4.3,5.9-5.6s5.3-2,8.4-2c3.2,0,6,0.7,8.5,2s4.5,3.2,5.9,5.6
		c1.4,2.4,2.2,5.2,2.2,8.3c0,3.2-0.7,5.9-2.2,8.3c-1.4,2.4-3.4,4.3-5.9,5.6c-2.5,1.4-5.3,2-8.5,2c-3.1,0-5.9-0.7-8.4-2
		c-2.5-1.4-4.5-3.2-5.9-5.6C391.2,221.6,390.4,218.9,390.4,215.7z M397.8,215.7c0,2.8,0.9,5.2,2.6,7c1.8,1.8,3.9,2.7,6.5,2.7
		s4.8-0.9,6.5-2.7s2.6-4.1,2.6-7s-0.9-5.2-2.6-7s-3.9-2.7-6.5-2.7s-4.7,0.9-6.5,2.7S397.8,212.8,397.8,215.7z"/>
	<path d="M431.6,227.8c0-1.3,0.5-2.4,1.4-3.2s2-1.3,3.4-1.3c1.3,0,2.5,0.4,3.4,1.3c0.9,0.8,1.4,1.9,1.4,3.2c0,1.2-0.5,2.3-1.4,3.2
		s-2,1.3-3.4,1.3c-1.3,0-2.5-0.4-3.4-1.3C432,230.1,431.6,229,431.6,227.8z M431.8,184.4h9l-1.7,32.5h-5.7L431.8,184.4z"/>
</g>
</svg>
