<?xml version="1.0" encoding="utf-8"?>
<!-- Generator: Adobe Illustrator 23.0.3, SVG Export Plug-In . SVG Version: 6.00 Build 0)  -->
<svg version="1.1" id="Capa_1" xmlns="http://www.w3.org/2000/svg" xmlns:xlink="http://www.w3.org/1999/xlink" x="0px" y="0px"
	 viewBox="0 0 565 294.7" style="enable-background:new 0 0 565 294.7;" xml:space="preserve">
<style type="text/css">
	.st0{opacity:0.6;fill:#FFFFFF;enable-background:new    ;}
	.st1{fill:#424242;}
	.st2{fill:#61C1A2;}
	.st3{fill:#294955;}
	.st4{fill:none;stroke:#294955;stroke-width:1.5081;stroke-miterlimit:10;}
	.st5{fill-rule:evenodd;clip-rule:evenodd;fill:#FFFFFF;}
	.st6{fill-rule:evenodd;clip-rule:evenodd;fill:#294955;}
</style>
<g>
	<path class="st0" d="M541.6,279.5H27.9c-8,0-14.5-7-14.5-15.5V33.8C13.4,25,19.9,18,27.9,18h513.5c8,0,14.5,7,14.5,15.5v230.1
		C556,272.4,549.6,279.5,541.6,279.5z"/>
</g>
<g>
	<path class="st1" d="M204.4,100c-7.2,0-13.2-5.9-13.2-13.1c0-3.9,1.7-7.5,4.4-9.8c-1.4-0.2-3-0.5-4.4-0.5
		c-12.9,0-23.5,10.5-23.5,23.5s10.5,23.4,23.5,23.4c12.9,0,23.5-10.5,23.5-23.4c0-1.5-0.1-3-0.5-4.4C211.9,98.1,208.3,100,204.4,100
		z"/>
	<path class="st2" d="M128.6,100c4.3-8.2,17.3-29.6,40.8-38.4C156.1,69.1,147,83.5,147,100c0,7.2,1.8,14.2,5,20.3
		c3-1.7,5.9-3.3,8.8-5.1c-2.3-4.6-3.6-9.7-3.6-15.2c0-18.6,15.2-33.9,34-33.9c6,0,11.6,1.5,16.5,4.3c1.9-2.8,3.8-5.7,5.6-8.5
		c-0.1-0.1-0.2-0.1-0.5-0.2c0.1,0.1,0.5,0.1,0.5,0.2c3-5,5.7-10.1,7.9-15.2c-8.7-3.6-18.6-5.7-29.9-5.7
		c-55.7-0.1-78.9,53.7-79.9,55.9l-1.4,3.3l1.4,3.3c0.5,1.2,6,14.1,17.9,27.1c5.7-1.9,11.3-4.4,16.7-7
		C136.9,114.6,131.2,104.9,128.6,100z"/>
	<path class="st3" d="M271.3,103.1l1.4-3.3l-1.4-3.3c-0.8-2.1-23.1-53.8-76.5-55.9c-2.5,8.1-4.1,16.5-5,25.3c0.5,0,1.1,0,1.5,0
		c18.6,0,34,15.2,34,33.9c0,16.2-11.5,29.9-26.8,33.2c3.1,8.4,6.9,16.5,11.3,24.1C252.3,147.2,270.3,105.2,271.3,103.1z
		 M212.9,138.4c13.4-7.5,22.6-21.9,22.6-38.5s-9-30.9-22.6-38.5c23.9,8.7,36.8,30.2,41.2,38.5C249.7,108.3,236.8,129.7,212.9,138.4z
		"/>
</g>
<g>
	<path class="st2" d="M97.4,178.1v11h-3.8v-27.6h9c2.6,0,4.6,0.8,6.2,2.3c1.4,1.5,2.1,3.6,2.1,6c0,2.6-0.8,4.4-2.1,6
		s-3.4,2.3-6.2,2.3H97.4L97.4,178.1z M97.4,175.1h5.2c1.4,0,2.6-0.5,3.3-1.5c0.8-1,1.2-2.3,1.2-3.8c0-1.5-0.5-3-1.2-3.9
		c-0.8-1-1.8-1.5-3.3-1.5h-5.2V175.1z"/>
	<path class="st2" d="M123.4,171.7l-1.8-0.1c-0.8,0-1.4,0.2-2,0.8c-0.5,0.5-0.8,1.2-1.2,2v14.7h-3.8v-20.6h3.4l0.2,3.1
		c0.5-1.2,1.1-1.9,1.7-2.6c0.6-0.6,1.5-0.8,2.5-0.8c0.2,0,0.5,0,0.8,0.1c0.2,0,0.5,0.1,0.6,0.1L123.4,171.7z"/>
	<path class="st2" d="M125.5,177.5c0-2.6,0.8-5,2.1-6.8s3.3-2.6,5.9-2.6c2.5,0,4.4,0.8,5.9,2.6c1.4,1.8,2.1,3.9,2.1,6.8v2.6
		c0,2.6-0.8,5-2.1,6.8c-1.4,1.8-3.3,2.6-5.9,2.6c-2.6,0-4.4-0.8-5.9-2.6c-1.4-1.8-2.1-3.9-2.1-6.8V177.5z M129.3,180.1
		c0,1.9,0.5,3.4,1.1,4.6c0.6,1.2,1.8,1.8,3.2,1.8c1.4,0,2.5-0.6,3.1-1.8c0.6-1.2,1.1-2.6,1.1-4.6v-2.6c0-1.8-0.5-3.3-1.1-4.6
		c-0.6-1.2-1.7-1.8-3.1-1.8c-1.4,0-2.5,0.6-3.1,1.8c-0.6,1.2-1.1,2.6-1.1,4.6L129.3,180.1L129.3,180.1z"/>
	<path class="st2" d="M154.7,183.9c0-0.8-0.2-1.5-0.8-2c-0.5-0.5-1.5-1.2-3-1.8c-2.1-0.8-3.7-1.7-4.7-2.6c-1.1-0.8-1.5-2.1-1.5-3.6
		s0.6-3,1.9-4.1c1.3-1.2,3-1.7,4.9-1.7c2.1,0,3.8,0.6,5.1,1.8c1.3,1.2,1.9,2.6,1.8,4.4v0.1h-3.7c0-1.1-0.2-1.8-0.8-2.6
		c-0.5-0.6-1.3-1.1-2.3-1.1s-1.7,0.2-2.3,0.8c-0.5,0.5-0.8,1.2-0.8,1.9c0,0.8,0.2,1.4,0.6,1.9c0.5,0.5,1.4,1.1,3,1.8
		c2.1,0.8,3.7,1.7,4.9,2.6c1.1,1.1,1.5,2.1,1.5,3.7c0,1.7-0.6,3.1-1.9,4.1c-1.3,1.1-3,1.5-5.1,1.5c-2.3,0-4.1-0.6-5.4-1.9
		c-1.3-1.3-1.9-2.8-1.9-4.4v-0.1h3.6c0,1.3,0.5,2.3,1.2,2.8c0.6,0.6,1.5,0.8,2.6,0.8s1.8-0.2,2.3-0.8
		C154.4,185.3,154.7,184.7,154.7,183.9z"/>
	<path class="st2" d="M177.3,180.6c0,2.6-0.6,4.9-1.8,6.5c-1.2,1.7-2.8,2.5-5,2.5c-1.1,0-1.9-0.2-2.6-0.6c-0.8-0.5-1.4-1.1-1.9-1.8
		v9.8h-3.8v-28.4h3.4l0.2,2.3c0.5-0.8,1.2-1.5,2-2c0.8-0.5,1.7-0.8,2.6-0.8c2.1,0,3.8,0.8,5,2.6c1.2,1.8,1.8,4.3,1.8,7.2
		L177.3,180.6L177.3,180.6z M173.4,178c0-2-0.5-3.7-1.1-5c-0.6-1.3-1.7-1.9-3-1.9c-0.8,0-1.5,0.2-2,0.6c-0.6,0.5-1.1,1.2-1.4,1.9
		V184c0.5,0.8,0.8,1.4,1.4,1.8c0.6,0.5,1.3,0.6,2.1,0.6c1.3,0,2.3-0.5,3-1.7c0.6-1.2,1.1-2.6,1.1-4.4v-2.5L173.4,178L173.4,178z"/>
	<path class="st2" d="M188.4,189.5c-2.5,0-4.4-0.8-5.9-2.6c-1.4-1.7-2.1-3.8-2.1-6.5v-3c0-2.6,0.8-4.9,2.1-6.6s3.3-2.6,5.6-2.6
		c2.3,0,4.1,0.8,5.4,2.5c1.3,1.5,1.9,3.7,1.9,6.4v2.6h-11v0.8c0,1.8,0.5,3.2,1.2,4.4c0.8,1.2,1.9,1.8,3.3,1.8c1.1,0,1.9-0.1,2.6-0.5
		c0.8-0.5,1.5-0.8,2.1-1.5l1.3,2.5c-0.6,0.8-1.5,1.3-2.6,1.8C190.9,189.2,189.9,189.5,188.4,189.5z M187.9,171.1
		c-1.2,0-2,0.5-2.6,1.7c-0.6,1.2-1.1,2.5-1.2,4.1h7.2v-0.8c0-1.4-0.2-2.6-0.8-3.6C189.9,171.6,189,171.1,187.9,171.1z"/>
	<path class="st2" d="M205.6,186.5c1.1,0,1.8-0.5,2.5-1.2c0.7-0.8,1.1-1.8,1.1-3h3.4v0.1c0,1.9-0.6,3.6-1.9,4.9c-1.4,1.3-3.1,2-5,2
		c-2.6,0-4.4-0.8-5.9-2.6c-1.4-1.8-2-3.9-2-6.6v-2.6c0-2.6,0.6-4.9,2-6.6c1.4-1.8,3.3-2.6,5.9-2.6c2,0,3.7,0.6,5.1,2
		c1.3,1.4,1.9,3.2,1.9,5.4v0.1h-3.6c0-1.4-0.2-2.6-0.8-3.3c-0.6-0.8-1.4-1.3-2.6-1.3c-1.4,0-2.6,0.6-3.1,1.8
		c-0.6,1.2-0.8,2.6-0.8,4.4v2.8c0,1.8,0.2,3.3,0.8,4.6C203.3,185.8,204.3,186.5,205.6,186.5z"/>
	<path class="st2" d="M221,163.4v5.1h3.2v2.8H221v12.4c0,1.1,0.1,1.8,0.5,2.3c0.2,0.5,0.8,0.6,1.3,0.6c0.2,0,0.6,0,0.8,0
		s0.5-0.1,0.8-0.1l0.5,2.6c-0.5,0.1-0.8,0.2-1.4,0.5c-0.5,0.2-1.2,0.1-1.7,0.1c-1.4,0-2.6-0.5-3.4-1.4c-0.8-0.8-1.2-2.5-1.2-4.4
		v-12.3h-2.6v-2.8h2.6v-5.1h3.7L221,163.4L221,163.4z"/>
	<path class="st2" d="M232.2,163.1h-3.8v-3.7h3.8V163.1z M232.2,189.1h-3.8v-20.6h3.8V189.1z"/>
	<path class="st2" d="M242.7,182.8l0.5,1.5h0.1l0.5-1.5l3.4-14.3h3.9l-6.2,20.6h-3.4l-6.2-20.6h3.9L242.7,182.8z"/>
	<path class="st2" d="M263.8,189.1c-0.1-0.5-0.2-0.8-0.5-1.4c-0.1-0.5-0.1-0.8-0.1-1.4c-0.5,0.8-1.3,1.7-2.1,2.3
		c-0.8,0.6-1.8,0.8-2.8,0.8c-1.8,0-3.1-0.5-4.1-1.7s-1.5-2.6-1.5-4.4c0-1.9,0.6-3.4,2-4.6c1.3-1.2,3.2-1.7,5.7-1.7h2.8v-2
		c0-1.3-0.2-2.1-0.8-3c-0.5-0.6-1.4-1.1-2.5-1.1c-0.8,0-1.7,0.2-2.1,0.8c-0.5,0.6-0.8,1.4-0.8,2.3h-3.7v-0.1c0-1.5,0.5-3,1.9-4.3
		c1.3-1.3,3.1-1.9,5.1-1.9c2,0,3.7,0.6,5,1.8c1.3,1.2,1.9,3,1.9,5.1v9.6c0,0.8,0,1.5,0.1,2.3c0.1,0.8,0.2,1.4,0.5,2.1L263.8,189.1
		L263.8,189.1z M259.2,186.5c0.8,0,1.7-0.2,2.5-0.8c0.8-0.5,1.3-1.2,1.7-2v-4.3h-3c-1.2,0-2,0.5-2.6,1.2c-0.6,0.8-1.1,1.7-1.1,2.8
		c0,0.8,0.2,1.7,0.6,2.3C257.9,186.3,258.5,186.5,259.2,186.5z"/>
</g>
<line class="st4" x1="378.5" y1="49.2" x2="378.5" y2="263.1"/>
<g>
	<g>
		<path class="st3" d="M427.9,58.2c0-1.2-0.2-2.3-0.2-3.4c0.5,0,1,0,1.5,0.2c0.5,0,1,0,1.5,0s1,0,1.5,0s1,0,1.5,0
			c0.8,0,1.5,0,2.1,0.2s1.3,0.3,1.8,0.6c0.5,0.3,1,0.6,1.2,1.2c0.3,0.5,0.5,1.2,0.5,1.8c0,1.3-0.5,2.3-1.2,3.1
			c-0.8,0.8-2,1.3-3.3,1.6l0,0c1.6,0,2.8,0.5,3.7,1.2c0.9,0.7,1.3,1.8,1.3,3.3c0,1-0.2,1.8-0.6,2.5c-0.3,0.6-1,1.2-1.6,1.6
			c-0.6,0.5-1.3,0.6-2.1,0.8c-0.9,0.2-1.7,0.2-2.4,0.2c-0.5,0-0.8,0-1.3,0s-0.8,0-1.3,0c-0.5,0-0.8,0-1.3,0c-0.5,0-0.8,0-1.3,0
			c0-1.2,0.2-2.3,0.2-3.4s0-2.3,0-3.4v-4.6C427.9,60.5,427.9,59.3,427.9,58.2z M433.4,62.8c0.6-0.2,1.2-0.3,1.6-0.6
			c0.5-0.3,0.8-0.6,1.2-1.2s0.5-1.2,0.5-1.8s-0.2-1.3-0.3-1.8c-0.3-0.5-0.6-0.8-1-1c-0.3-0.2-0.8-0.3-1.3-0.5
			c-0.5-0.2-1-0.2-1.5-0.2s-0.8,0-1.2,0c-0.4,0-0.6,0-0.8,0.2c0,0.8,0,1.6-0.2,2.5c0,0.8,0,1.6,0,2.5v2h1.5
			C432.1,62.9,432.8,62.9,433.4,62.8z M430.3,69.3c0,0.8,0,1.8,0.2,2.6c0.3,0,0.6,0,1.2,0.2c0.5,0,1,0,1.5,0s1.2-0.2,1.6-0.3
			c0.5-0.2,1-0.5,1.3-0.8c0.3-0.3,0.6-0.8,1-1.5c0.2-0.5,0.3-1.2,0.3-2s-0.2-1.3-0.5-1.8c-0.3-0.5-0.6-0.8-1.2-1.2
			c-0.6-0.4-1.2-0.5-1.8-0.5c-0.6-0.2-1.5-0.2-2.5-0.2H430v2.8C430,67.5,430,68.5,430.3,69.3z"/>
		<path class="st3" d="M443.1,66.7c0-0.6,0-1.3,0-2c0-0.6,0-1.3,0-2c0-0.6,0-1.5,0-2.1c0.5,0.2,0.8,0.2,1.2,0.2s0.6,0,1.2-0.2
			c-0.3,1-0.3,2.3-0.3,3.4c0,1.3,0,2.6,0,3.9c0,1,0,1.6,0.2,2.1s0.3,0.8,0.6,1.2c0.3,0.3,0.5,0.5,1,0.6c0.3,0.2,0.8,0.3,1.3,0.3
			c0.8,0,1.3-0.2,1.8-0.5c0.5-0.3,0.8-0.6,1.2-1.2c0.2-0.3,0.2-0.5,0.3-0.8c0-0.2,0.2-0.5,0.2-0.8c0-0.3,0-0.8,0-1.5
			c0-0.6,0-1.5,0-2.5v-2.3c0-0.3,0-0.8,0-1.2c0-0.4,0-0.6,0-1c0.2,0,0.3,0,0.5,0.2c0.2,0,0.3,0,0.5,0c0.2,0,0.3,0,0.5,0
			s0.3,0,0.5-0.2c-0.2,1.3-0.2,2.6-0.2,3.9c0,1.3,0,2.6,0,4.1c0,0.8,0,1.6,0,2.3c0,0.8,0,1.5,0,2.1c-0.3,0-0.6,0-1,0
			c-0.3,0-0.6,0-1,0c0-0.2,0-0.3,0-0.5s0-0.3,0-0.5v-1l0,0c-0.5,0.8-1,1.5-1.8,1.8c-0.6,0.3-1.5,0.6-2.3,0.6c-1.3,0-2.5-0.3-3.3-1.2
			c-0.8-0.6-1.2-1.8-1.2-3.1C443.1,68.2,443.1,67.3,443.1,66.7z"/>
		<path class="st3" d="M457.3,71.2c0.2,0.2,0.3,0.5,0.6,0.6c0.3,0.2,0.5,0.3,0.8,0.5c0.3,0.2,0.6,0.2,1,0.2c0.3,0,0.6,0,1-0.2
			c0.3-0.2,0.6-0.3,0.8-0.5s0.5-0.5,0.5-0.8c0.2-0.3,0.2-0.6,0.2-1c0-0.5-0.2-1-0.5-1.3c-0.3-0.3-0.6-0.5-1.2-0.6
			c-0.5-0.2-1-0.3-1.5-0.5s-1-0.3-1.5-0.6c-0.5-0.3-0.8-0.6-1.2-1c-0.3-0.5-0.5-1-0.5-1.8c0-0.6,0.2-1.2,0.3-1.6
			c0.1-0.5,0.5-1,0.8-1.3c0.3-0.3,0.8-0.6,1.3-0.8c0.5-0.2,1.2-0.3,1.8-0.3c0.6,0,1.2,0.2,1.6,0.3c0.4,0.1,0.8,0.3,1.3,0.5
			c-0.2,0.3-0.3,0.6-0.3,1c-0.1,0.3-0.1,0.6-0.1,0.8h-0.1c-0.2-0.5-0.5-0.8-0.8-1.2c-0.3-0.4-1-0.5-1.5-0.5c-0.3,0-0.5,0-0.8,0.2
			c-0.3,0.2-0.5,0.2-0.6,0.3c-0.2,0.2-0.3,0.3-0.5,0.6c-0.2,0.3-0.2,0.6-0.2,1c0,0.5,0.2,1,0.5,1.3s0.6,0.5,1.2,0.6
			c0.5,0.2,1,0.3,1.5,0.5s1,0.3,1.5,0.5s0.8,0.5,1.2,1c0.3,0.5,0.5,1,0.5,1.8c0,0.5-0.2,1-0.3,1.5s-0.5,1-1,1.3
			c-0.5,0.3-1,0.6-1.5,1c-0.6,0.2-1.3,0.3-2,0.3c-0.8,0-1.5,0-2-0.2c-0.5-0.2-1-0.3-1.3-0.5c0.2-0.2,0.2-0.5,0.3-1
			c0.2-0.3,0.2-0.6,0.2-1h0.3C457,70.9,457.3,70.9,457.3,71.2z"/>
		<path class="st3" d="M467.6,54.9c0.3-0.3,0.6-0.3,1-0.3c0.3,0,0.6,0.2,1,0.3c0.3,0.3,0.3,0.6,0.3,1c0,0.3-0.2,0.6-0.3,1
			c-0.3,0.3-0.6,0.3-1,0.3c-0.3,0-0.6-0.2-1-0.3c-0.3-0.3-0.3-0.6-0.3-1C467.2,55.5,467.4,55.2,467.6,54.9z M467.6,62.9
			c0-0.8-0.2-1.6-0.2-2.5c0.5,0.2,0.8,0.2,1.2,0.2s0.6,0,1.2-0.2c-0.2,0.8-0.2,1.6-0.2,2.5c0,0.9,0,1.6,0,2.5v2.8c0,0.8,0,1.6,0,2.5
			s0.2,1.6,0.2,2.3c-0.3,0-0.8,0-1.2,0s-0.8,0-1.2,0c0.2-0.6,0.2-1.5,0.2-2.3s0-1.6,0-2.5v-2.8C467.6,64.6,467.6,63.7,467.6,62.9z"
			/>
		<path class="st3" d="M481.5,62.6c-0.5-0.6-1.2-1-2.1-1c-1.3,0-2.1,0.3-2.8,1.2c-0.5,0.8-0.8,1.8-0.8,3.3v2.3c0,0.8,0,1.6,0,2.5
			s0.2,1.6,0.2,2.3c-0.3,0-0.8,0-1.2,0c-0.4,0-0.8,0-1.2,0c0.2-0.6,0.2-1.5,0.2-2.3c0-0.8,0-1.6,0-2.5v-2.8c0-0.8,0-1.6,0-2.5
			s0-1.6-0.2-2.5c0.5,0.2,0.8,0.2,1.2,0.2c0.2,0,0.3,0,0.5,0s0.3,0,0.6-0.2c0,0.6,0,1.5,0,2.1l0,0c0.5-0.8,1.2-1.3,1.8-1.8
			s1.5-0.6,2.5-0.6c0.5,0,1,0,1.5,0.2s1,0.3,1.3,0.6c0.3,0.3,0.8,0.8,1,1.5c0.3,0.6,0.3,1.3,0.3,2.3c0,0.8,0,1.5,0,2.3
			c0,0.8,0,1.6,0,2.6v1.6c0,0.3,0,0.5,0,0.8c0,0.3,0,0.5,0,0.8c-0.3,0-0.6,0-1.2,0c-0.3,0-0.8,0-1.2,0c0-1,0-1.8,0.2-2.8
			c0-1,0-2,0-3v-1.4C482.4,64.2,482.1,63.3,481.5,62.6z"/>
		<path class="st3" d="M488.2,62.1c1-1.3,2.5-1.8,4.6-1.8c1,0,1.8,0.2,2.5,0.5c0.6,0.3,1.3,0.6,1.6,1.2c0.5,0.5,0.8,1,1,1.6
			c0.1,0.6,0.3,1.3,0.3,2.1c0,0.2,0,0.3,0,0.5c0,0.2,0,0.3,0,0.5c-1,0-2,0-2.8,0c-1,0-1.8,0-2.8,0c-0.6,0-1.2,0-1.8,0s-1.2,0-1.8,0
			c0,0.2,0,0.2,0,0.3v0.3c0,0.6,0.2,1.3,0.3,2c0.2,0.6,0.5,1.2,0.8,1.5c0.3,0.5,0.8,0.8,1.5,1c0.5,0.3,1.2,0.3,2,0.3
			c0.3,0,0.6,0,1.2-0.2c0.3-0.2,0.6-0.2,1.2-0.3c0.3-0.2,0.6-0.3,1-0.6c0.3-0.2,0.6-0.5,0.8-0.6h0.2l-0.2,1.3
			c-0.5,0.5-1.2,0.8-2,1.2c-0.8,0.4-1.7,0.5-2.5,0.5c-1,0-1.8-0.2-2.6-0.5c-0.8-0.3-1.5-0.6-2-1.3c-0.6-0.5-1-1.2-1.3-2
			c-0.3-0.8-0.5-1.6-0.5-2.5C486.7,65.1,487.3,63.3,488.2,62.1z M491.3,61.5c-0.5,0.3-0.8,0.6-1.2,1.2s-0.5,1-0.6,1.5
			c-0.2,0.5-0.2,1-0.3,1.5c0.5,0,1.2,0,1.6,0c0.6,0,1.2,0,1.8,0s1.2,0,1.8,0c0.6,0,1.2,0,1.8,0c0-0.5,0-1-0.2-1.5
			c0-0.5-0.2-1-0.5-1.5c-0.2-0.5-0.5-0.8-1-1.2c-0.5-0.3-1-0.5-1.6-0.5C492.2,61.1,491.8,61.1,491.3,61.5z"/>
		<path class="st3" d="M500.8,71.2c0.2,0.2,0.3,0.5,0.6,0.6c0.3,0.2,0.5,0.3,0.8,0.5c0.3,0.2,0.6,0.2,1,0.2c0.3,0,0.6,0,1-0.2
			c0.3-0.2,0.6-0.3,0.8-0.5s0.5-0.5,0.5-0.8c0.2-0.3,0.2-0.6,0.2-1c0-0.5-0.2-1-0.5-1.3c-0.3-0.3-0.6-0.5-1.2-0.6
			c-0.5-0.2-1-0.3-1.5-0.5s-1-0.3-1.5-0.6c-0.5-0.3-0.8-0.6-1.2-1c-0.3-0.5-0.5-1-0.5-1.8c0-0.6,0.2-1.2,0.3-1.6
			c0.2-0.5,0.5-1,0.8-1.3c0.3-0.3,0.8-0.6,1.3-0.8c0.5-0.2,1.2-0.3,1.8-0.3s1.2,0.2,1.6,0.3s0.8,0.3,1.3,0.5c-0.2,0.3-0.3,0.6-0.3,1
			c-0.2,0.3-0.2,0.6-0.2,0.8h-0.3c-0.2-0.5-0.5-0.8-0.8-1.2c-0.3-0.4-1-0.5-1.5-0.5c-0.3,0-0.5,0-0.8,0.2c-0.3,0.2-0.5,0.2-0.6,0.3
			c-0.2,0.2-0.3,0.3-0.5,0.6c-0.2,0.3-0.2,0.6-0.2,1c0,0.5,0.2,1,0.5,1.3s0.6,0.5,1.2,0.6c0.5,0.2,1,0.3,1.5,0.5s1,0.3,1.5,0.5
			s0.8,0.5,1.2,1c0.3,0.5,0.5,1,0.5,1.8c0,0.5-0.2,1-0.3,1.5c-0.1,0.5-0.5,1-1,1.3c-0.5,0.3-1,0.6-1.5,1c-0.6,0.2-1.3,0.3-2,0.3
			c-0.8,0-1.5,0-2-0.2c-0.5-0.2-1-0.3-1.3-0.5c0.2-0.2,0.2-0.5,0.3-1c0.2-0.3,0.2-0.6,0.2-1h0.3C500.5,70.9,500.6,70.9,500.8,71.2z"
			/>
		<path class="st3" d="M510.5,71.2c0.2,0.2,0.3,0.5,0.6,0.6c0.3,0.2,0.5,0.3,0.8,0.5c0.3,0.2,0.6,0.2,1,0.2c0.3,0,0.6,0,1-0.2
			c0.3-0.2,0.6-0.3,0.8-0.5s0.5-0.5,0.5-0.8c0.2-0.3,0.2-0.6,0.2-1c0-0.5-0.2-1-0.5-1.3c-0.3-0.3-0.6-0.5-1.2-0.6
			c-0.5-0.1-1-0.3-1.5-0.5s-1-0.3-1.5-0.6c-0.5-0.3-0.8-0.6-1.2-1c-0.3-0.5-0.5-1-0.5-1.8c0-0.6,0.2-1.2,0.3-1.6
			c0.1-0.5,0.5-1,0.8-1.3c0.3-0.3,0.8-0.6,1.3-0.8c0.5-0.2,1.2-0.3,1.8-0.3c0.6,0,1.2,0.2,1.6,0.3c0.5,0.2,0.8,0.3,1.3,0.5
			c-0.2,0.3-0.3,0.6-0.3,1c-0.2,0.3-0.2,0.6-0.2,0.8h-0.3c-0.2-0.5-0.5-0.8-0.8-1.2c-0.3-0.3-1-0.5-1.5-0.5c-0.3,0-0.5,0-0.8,0.2
			c-0.3,0.2-0.5,0.2-0.6,0.3c-0.2,0.2-0.3,0.3-0.5,0.6c-0.2,0.3-0.2,0.6-0.2,1c0,0.5,0.2,1,0.5,1.3s0.6,0.5,1.2,0.6
			c0.5,0.2,1,0.3,1.5,0.5s1,0.3,1.5,0.5s0.8,0.5,1.2,1c0.3,0.5,0.5,1,0.5,1.8c0,0.5-0.2,1-0.3,1.5c-0.1,0.5-0.5,1-1,1.3
			c-0.5,0.3-1,0.6-1.5,1c-0.6,0.2-1.3,0.3-2,0.3c-0.8,0-1.5,0-2-0.2c-0.5-0.2-1-0.3-1.3-0.5c0.2-0.2,0.2-0.5,0.3-1
			c0.2-0.3,0.2-0.6,0.2-1h0.3C510.2,70.9,510.3,70.9,510.5,71.2z"/>
		<g>
			<path class="st3" d="M429.2,99.4c0.3,0.3,0.6,0.8,1.2,1.2c0.5,0.3,1,0.6,1.5,0.8c0.5,0.2,1.2,0.3,2,0.3c0.6,0,1.3-0.2,2-0.3
				c0.6-0.3,1.2-0.6,1.5-1c0.3-0.5,0.6-1,1-1.5c0.2-0.6,0.3-1.2,0.3-1.8c0-1-0.3-1.8-0.8-2.5c-0.5-0.6-1.2-1.2-2-1.5
				c-0.8-0.3-1.6-0.8-2.5-1.2c-0.8-0.3-1.6-0.6-2.5-1.2c-0.9-0.6-1.5-1.2-2-1.8c-0.5-0.8-0.8-1.8-0.8-3.1c0-1,0.2-1.8,0.5-2.5
				c0.3-0.8,0.8-1.5,1.5-2c0.6-0.5,1.3-1,2.3-1.3c0.8-0.3,1.8-0.5,3-0.5c1,0,2,0.2,2.8,0.3c0.8,0.3,1.5,0.6,2.1,1.2
				c-0.2,0.3-0.3,0.8-0.5,1.2c-0.2,0.5-0.3,1-0.3,1.6h-0.3c-0.2-0.3-0.3-0.6-0.5-1c-0.2-0.4-0.5-0.6-0.8-1c-0.3-0.3-0.6-0.5-1.2-0.8
				c-0.5-0.2-1-0.3-1.6-0.3c-0.6,0-1.2,0.2-1.6,0.3c-0.5,0.2-1,0.5-1.3,0.8c-0.3,0.3-0.6,0.8-0.8,1.3c-0.2,0.5-0.3,1-0.3,1.6
				c0,1,0.3,1.8,0.8,2.5c0.5,0.6,1.2,1.2,2,1.5c0.8,0.3,1.6,0.8,2.5,1.2c0.8,0.3,1.6,0.6,2.5,1.2c0.8,0.5,1.5,1,2,1.8
				c0.5,0.6,0.8,1.6,0.8,3c0,1-0.2,2-0.5,2.8c-0.3,0.8-0.8,1.6-1.6,2.3c-0.6,0.6-1.5,1.2-2.5,1.5c-1,0.3-2.1,0.5-3.4,0.5
				c-1.3,0-2.5-0.2-3.3-0.5c-0.8-0.3-1.5-0.8-2.1-1.2c0.2-0.5,0.3-1,0.3-1.3c0-0.3,0.2-1,0.2-1.5h0.3
				C428.8,98.7,429.1,99.1,429.2,99.4z"/>
			<path class="st3" d="M443.9,91c0.5-1,1.2-1.8,1.8-2.5c0.8-0.6,1.6-1.2,2.6-1.5c1-0.3,2-0.5,3.1-0.5c1.1,0,2.3,0.2,3.3,0.5
				c1,0.3,1.6,0.6,2,1c-0.2,0.3-0.3,0.6-0.3,1c-0.2,0.3-0.2,0.6-0.3,1.2h-0.3c-0.2-0.3-0.3-0.5-0.6-0.8s-0.5-0.5-1-0.8
				c-0.3-0.3-0.8-0.5-1.2-0.6c-0.5-0.2-1-0.2-1.5-0.2c-1,0-1.8,0.2-2.5,0.5c-0.7,0.3-1.3,0.8-1.8,1.5c-0.5,0.6-0.8,1.3-1,2.3
				c-0.2,0.8-0.3,1.8-0.3,2.8c0,2.3,0.5,3.9,1.5,5.1s2.3,1.6,4.3,1.6c0.5,0,0.8,0,1.3-0.2c0.5-0.2,1-0.3,1.3-0.5
				c0.5-0.2,0.8-0.5,1.2-0.6c0.3-0.3,0.6-0.6,1-1l0.2,0.2c-0.2,0.5-0.2,1-0.2,1.6c-0.6,0.5-1.5,1-2.5,1.3c-1,0.3-2,0.5-3,0.5
				c-1,0-1.8-0.2-2.8-0.3c-1-0.3-1.8-0.6-2.6-1.3c-0.8-0.6-1.3-1.5-1.8-2.5s-0.6-2.3-0.6-3.7C443.2,93.3,443.4,92.2,443.9,91z"/>
			<path class="st3" d="M459.4,84.8c0-0.8,0-1.8,0-2.6c0-0.8,0-1.6,0-2.5c0-0.8,0-1.5-0.2-2c0.6,0.2,1.2,0.2,1.5,0.2s0.8,0,1.5-0.2
				c0,0.5-0.2,1.2-0.2,2c0,0.8,0,1.6,0,2.5c0,0.8,0,1.6,0,2.5c0,0.8,0,1.6,0,2.3v2.5l0,0c0.6-1,1.3-1.6,2.1-2.1
				c0.8-0.5,1.8-0.8,3.1-0.8c0.6,0,1.2,0.2,1.8,0.3c0.6,0.2,1.2,0.5,1.6,0.8c0.5,0.5,1,1,1.2,1.8c0.3,0.6,0.5,1.6,0.5,2.8
				c0,1,0,2,0,3s0,2,0,3.1v2.1c0,0.3,0,0.6,0,1c0,0.4,0,0.6,0,1c-0.5,0-1,0-1.3,0c-0.5,0-1,0-1.3,0c0-1.2,0.2-2.3,0.2-3.4
				c0-1.1,0.2-2.5,0.2-3.7v-2c0-1.6-0.3-2.8-1-3.7c-0.6-0.8-1.5-1.3-2.6-1.3c-1.5,0-2.6,0.5-3.3,1.5c-0.6,1-1,2.3-1,3.9
				c0,0.6,0,1.3,0,2.1c0,0.8,0,1.6,0,2.5c0,0.8,0,1.6,0,2.3c0,0.8,0,1.3,0.2,1.8c-0.5,0-1,0-1.5,0s-1,0-1.5,0c0-0.5,0.2-1.2,0.2-2
				c0-0.8,0-1.6,0-2.5c0-0.8,0-1.6,0-2.6c0-0.8,0-1.6,0-2.5v-6C459.4,86.4,459.4,85.7,459.4,84.8z"/>
			<path class="st3" d="M476.1,91c0.5-1,1.2-1.8,1.8-2.5c0.8-0.6,1.6-1.2,2.6-1.5c1-0.3,2-0.5,2.8-0.5c1,0,2,0.2,2.8,0.5
				c1,0.3,1.8,0.8,2.6,1.5c0.8,0.6,1.3,1.5,1.8,2.5s0.6,2.3,0.6,3.7c0,1.5-0.2,2.8-0.6,3.7c-0.5,1-1.2,1.8-1.8,2.5
				c-0.8,0.6-1.6,1.2-2.6,1.3c-1,0.3-1.8,0.3-2.8,0.3c-1,0-1.8-0.2-2.8-0.3c-1-0.3-1.8-0.6-2.6-1.3c-0.8-0.6-1.3-1.5-1.8-2.5
				c-0.5-1-0.6-2.3-0.6-3.7C475.4,93.3,475.7,92,476.1,91z M478.5,97.5c0.2,0.8,0.5,1.6,0.8,2.3c0.3,0.6,1,1.2,1.6,1.6
				c0.6,0.3,1.5,0.6,2.5,0.6c1,0,1.8-0.2,2.5-0.6c0.6-0.3,1.2-1,1.6-1.6c0.3-0.6,0.6-1.5,0.8-2.3c0.2-0.8,0.2-1.8,0.2-2.6
				c0-1-0.2-1.8-0.2-2.6c-0.2-0.8-0.5-1.6-0.8-2.3c-0.3-0.6-1-1.2-1.6-1.6c-0.6-0.3-1.5-0.6-2.5-0.6c-1,0-1.8,0.2-2.5,0.6
				c-0.6,0.3-1.2,1-1.6,1.6c-0.3,0.6-0.6,1.5-0.8,2.3c-0.2,0.8-0.2,1.8-0.2,2.6C478.4,95.7,478.4,96.6,478.5,97.5z"/>
			<path class="st3" d="M493.7,91c0.5-1,1.2-1.8,1.8-2.5c0.8-0.6,1.6-1.2,2.6-1.5c1-0.3,2-0.5,2.8-0.5c1,0,2,0.2,2.8,0.5
				c1,0.3,1.8,0.8,2.6,1.5c0.8,0.6,1.3,1.5,1.8,2.5s0.6,2.3,0.6,3.7c0,1.5-0.2,2.8-0.6,3.7c-0.5,1-1.2,1.8-1.8,2.5
				c-0.8,0.6-1.6,1.2-2.6,1.3c-1,0.3-1.8,0.3-2.8,0.3c-1,0-1.8-0.2-2.8-0.3c-1-0.3-1.8-0.6-2.6-1.3c-0.8-0.6-1.3-1.5-1.8-2.5
				s-0.6-2.3-0.6-3.7C492.9,93.3,493.2,92,493.7,91z M496,97.5c0.2,0.8,0.5,1.6,0.8,2.3c0.3,0.6,1,1.2,1.6,1.6
				c0.6,0.3,1.5,0.6,2.5,0.6c1,0,1.8-0.2,2.5-0.6c0.6-0.5,1.2-1,1.6-1.6c0.3-0.6,0.6-1.5,0.8-2.3c0.2-0.8,0.2-1.8,0.2-2.6
				c0-1-0.2-1.8-0.2-2.6c-0.2-0.8-0.5-1.6-0.8-2.3c-0.3-0.6-1-1.2-1.6-1.6c-0.6-0.5-1.5-0.6-2.5-0.6c-1,0-1.8,0.2-2.5,0.6
				c-0.6,0.3-1.2,1-1.6,1.6c-0.3,0.6-0.6,1.5-0.8,2.3c-0.2,0.8-0.2,1.8-0.2,2.6C495.8,95.7,495.8,96.6,496,97.5z"/>
			<path class="st3" d="M512.7,84.8c0-0.8,0-1.8,0-2.6c0-0.8,0-1.6,0-2.5c0-0.8,0-1.5-0.2-2c0.6,0.2,1.2,0.2,1.5,0.2s0.8,0,1.5-0.2
				c0,0.5-0.2,1.2-0.2,2c0,0.8,0,1.6,0,2.5c0,0.8,0,1.6,0,2.6c0,0.8,0,1.6,0,2.5v6c0,0.8,0,1.5,0,2.5c0,0.8,0,1.8,0,2.6
				c0,0.8,0,1.6,0,2.5s0,1.3,0.2,2c-0.5,0-1,0-1.5,0s-1,0-1.5,0c0-0.5,0.2-1.2,0.2-2s0-1.6,0-2.5c0-0.8,0-1.6,0-2.6
				c0-0.8,0-1.6,0-2.5v-6C512.7,86.4,512.7,85.7,512.7,84.8z"/>
		</g>
	</g>
	<path class="st3" d="M529.6,205.5c0-0.3,0-0.6,0-1.2c0-0.3,0-0.6,0-1.2V116H413.8v87.3c0,0.3,0,0.6,0,0.8c0,0.3,0,0.6,0,1v0.8l0,0
		c0.8,31.2,26.5,56.3,57.9,56.3s56.9-25,57.9-56.3l0,0V205.5L529.6,205.5z"/>
	<g>
		<path class="st5" d="M441.6,144c-1.6,1.5-4.1,2.6-6.4,2.6c-5.4,0-8.5-4.1-8.5-10c0-5.1,2.3-10.6,8.2-10.6c2.3,0,4.6,1.3,6,3.1h0.5
			c0.3-1.2,0.5-2.5,0.8-3.6c-2.1-1.2-4.9-1.6-7.2-1.6c-7.8,0-14.2,4.1-14.2,13.1c0,7,5.7,11.8,13.6,11.8c2.5,0,4.9-0.5,7-1.5l0.8-3
			L441.6,144L441.6,144z M448.3,124.5l0.2,23.7h13.6c0-0.5-0.2-1-0.2-1.5c0-0.5,0.2-1,0.2-1.5c-2.1,0.3-4.6,0.5-8.2,0.5v-8.9h3.6
			c1.6,0,3.1,0.2,4.4,0.3c0-0.5-0.2-1-0.2-1.5c0-0.5,0.2-1,0.2-1.5c-1.3,0.2-2.8,0.3-4.4,0.3h-3.6V127c3.6,0,6.1,0.2,8.2,0.5
			c0-0.5-0.2-1-0.2-1.5s0.2-1,0.2-1.5H448.3L448.3,124.5z M469.9,148.1c0.8,0,1.8-0.2,2.6-0.2c0.8,0,1.8,0.2,2.6,0.2l-0.2-23.9
			c-0.8,0-1.8,0.2-2.6,0.2c-0.8,0-1.8-0.2-2.6-0.2L469.9,148.1L469.9,148.1z M489,137.6c6.4,0,11-1.3,11-7.5c0-3.9-2.6-6-7.5-5.7
			h-8.8l0.2,23.7c0.8,0,1.8-0.2,2.6-0.2c0.8,0,1.8,0.2,2.6,0.2L489,137.6L489,137.6z M489,126.3h2.1c1.8,0,3.3,1.8,3.3,4.6
			c0,2.1-0.8,4.1-3.1,4.8c-0.8,0.2-1.5,0.2-2.3,0.3L489,126.3L489,126.3z M514,140.7c1,2.3,1.8,4.6,2.6,7.2c1,0,2-0.2,3.1-0.2
			c1,0,2,0.2,3.1,0.2l-10-24c-0.5,0-0.8,0.2-1.3,0.2s-0.8,0-1.3-0.2l-10,24c0.6,0,1.2-0.2,1.6-0.2c0.5,0,1.2,0,1.6,0.2
			c0.6-2.5,1.5-4.6,2.5-7.2H514L514,140.7z M506.6,138.6l3.3-8.1l3.1,8.1H506.6L506.6,138.6z"/>
	</g>
	<path class="st5" d="M520.2,199.9c0-14.9,0.2-29.7,0.2-44.6c-16.4,0.2-33,0.2-49.7,0.3c-16.7,0-33,0.2-49.7,0.2
		c0,14.9,0.2,29.9,0.2,44.9s5.6,28.4,14.5,38.2c9,9.7,21.6,15.5,35.1,15.5c13.6,0,26-6.1,34.8-15.8
		C514.8,228.5,520.4,215.1,520.2,199.9L520.2,199.9z"/>
	<g>
		<path class="st6" d="M467.1,186.4c-1-0.5-1.2-0.8-2.3-1.3c1-2,2-4.4,2.8-6.4c-1.5,0.6-4.4,1.6-5.7,2.3c-0.6-1-0.6-1.3-1.2-2.3
			c1.3-0.6,3.9-1.6,5.6-2.1c-1-1.2-2.1-2-2.8-2.5l2-1.6c0.8,0.6,2.3,2.3,3.3,3.1c0.3-0.3,1.3-3.9,1.5-4.6c1.2,0.3,1.5,0.5,2.6,0.8
			c-0.5,1.2-0.8,2.8-1,3.4c1.2-0.3,3.6-1,4.9-1.3l0.6,2.5c-3.4,0.8-4.8,1.3-5.6,1.5c0.8,0.8,2.8,2.3,3.7,3l-1.6,2
			c-0.6-0.5-3.3-2.8-3.9-3C468.9,182.1,468.1,184.5,467.1,186.4L467.1,186.4z M491.8,206.4c-1-0.5-1.2-0.8-2.3-1.3
			c1-2,2-4.4,2.8-6.3c-1.5,0.5-4.4,1.6-5.7,2.3c-0.6-1-0.6-1.3-1.2-2.3c1.3-0.6,3.9-1.6,5.6-2.1c-1-1-2.1-2-2.8-2.5l2-1.6
			c0.8,0.6,2.3,2.3,3.3,3.1c0.3-0.3,1.3-3.9,1.3-4.8c1.2,0.3,1.5,0.5,2.6,0.8c-0.3,1.2-0.8,2.8-1,3.4c1.2-0.3,3.7-1,4.9-1.3l0.6,2.5
			c-3.4,0.8-4.8,1.3-5.6,1.5c1,0.6,2.8,2.3,3.7,3l-1.6,2c-0.6-0.5-3.3-2.8-3.9-3C493.6,201.8,492.9,204.2,491.8,206.4L491.8,206.4z
			 M461.8,212.6c0,0,0.6,3.4,1.6,4.9c0.5,0.8,3.1,3,6,3.4c4.3,0.5,7.5-0.2,11.2-2.1c1.2-0.6,3.1-1.6,3.9-2
			c-2.1,4.9-4.6,11.8-10.9,13.1c-4.1,1-8.7-1.2-11-4.6c-2-3.1-2.3-4.8-2.3-8.4C460.6,215.2,460.9,214,461.8,212.6L461.8,212.6z
			 M463,220.6c4.6,3.7,11.8,3.7,16.7,1.2c0.5,0.2-6.1,10.3-13.6,3.6C464.5,223.4,464,222.9,463,220.6L463,220.6z M452.7,185.7
			c0,0-3,2.1-3.9,3.6c-0.6,0.8-1.6,3.9-1,6.7c1.6,6.6,5.4,8.8,9,12.4c-3,0.3-5.6-0.2-7.8-0.5C432.7,204.5,438,184.9,452.7,185.7
			L452.7,185.7z M445.7,189.7c-2,5.4,0.6,11.8,3.9,15.2C446,206.1,435.8,198.4,445.7,189.7L445.7,189.7z"/>
		<path class="st6" d="M501.2,234.3c0-0.6-0.2-0.8,0-2c0.2,0,1.3-0.2,4.6,0c-1.5-1.2-4.6-4.4-6.1-6.1c-4.3,4.3-9.6,7.8-15.2,10
			c-1,0.3-2,0.6-3.1,1c-3.1,1-6.3,1.5-9.4,2c-3.6,0.3-6.9,0.2-10.3-0.3c-1.5-0.3-2.8-0.6-4.1-1c-1.8-0.6-3.4-1.3-3.7-1.5
			c0,0,0,0,0-0.2c-0.6,0-2-0.8-2.3-1c-2.6-1.6-5.1-3.3-7.4-5.4c-0.8-0.8-1.8-1.8-2.6-2.6c-2.1,1.5-3.1,2.1-5.1,3.9
			c1.5-0.2,4.1-0.5,5.4-0.5c0,0.6,0,1.5,0.2,2.3c-1.2-0.3-11,1.3-12.4,0.8c0.2-3.1,4.9-6,4.8-10.3c3.6,0.2,2.1-0.2,2.3,0
			c-0.2,0.6-0.3,2.3-0.5,3c1-0.6,2-1.2,3.1-2.1c-3.1-4.4-5.2-9.2-6.6-14.3c-0.2-1-0.5-2.1-0.6-3c-0.5-3.6-0.6-6.9-0.5-10.6
			c0.2-1.6,0-1.6,0.3-3.3c0.2-0.6,0.2-1.6,0.3-2.3c1-3.6,2.1-6.9,3.7-10.3c1.6-2.6,3.3-5.4,5.2-7.8c-2.1-2.1-5.2-5.6-7.4-7.8
			c1,4.9,1.3,6,1.3,6c-1.2,0.2-1.2,0.3-2.3,0.5c-0.8-3.9-1.5-6.7-2.3-10.6c0,0-0.2,0,0,0c5.4-0.2,7.2,0,11,0c0,1.2-0.2,1.3-0.2,2.5
			c-1,0-3-0.2-4.1-0.2c0.6,0.5,6.4,6.7,6.6,6.7c1.2-1.2,3-2.8,4.3-3.7c4.1-2.8,7.5-4.4,12.7-5.6c6.6-0.5,12.4-0.3,19.1,1.3
			c4.9,1,10.6,3.6,15.5,7.2c1.3-1.6,3.4-4.4,4.8-6.1c-1.3,0.3-3.6,0.8-5.1,1.2c-0.3-1.2-0.3-1-0.6-2.1c3.4-0.8,8.5-2,12.1-2.8
			l-1,4.9c-0.8,3.3-0.8,3.6-1.6,7c-0.8-0.2-1.5-0.3-2.5-0.5c0.2-1.2,0.8-2.5,1.3-4.8c-1.2,1.3-3.3,3.9-4.3,5.2
			c0.2,0.3,2.6,3.1,3,3.6c1.3,1.5,2.1,3.1,3.4,4.8c1.3,2.1,2.3,4.4,3.3,6.7c0.6,1.6,0.6,1.6,1.2,3.4c1.2,4.6,1.5,9,1,13.7
			c-0.3,2.6-1,4.8-1.6,7.4c-0.3,0.8-0.8,1.8-1,2.3c-1.3,2.8-2.5,5.1-4.3,7.9c-0.5,0.6-0.8,1.2-1.3,1.8c1.8,2.3,5.2,5.7,7.4,7.8
			c-0.5-1.8-0.8-2.8-1.2-4.3c0-0.6-0.3-1.6-0.3-2.3c0.6,0,1.3-0.2,2.1-0.2c0,1.5,1.6,7.5,2,10.6
			C510.9,234.6,507.3,234.6,501.2,234.3L501.2,234.3z M444.4,225.2c0,0,7.8-6.1,8.8-7.2c1.2-1.2,7-5.7,7.9-6.9
			c0.8-1,3.6-3.1,5.1-4.3c1.5-1.3,6.4-6.6,6.4-6.6l6.7,5.6c0,0,6.3,5.2,6.9,5.7c0.6,0.5,3.3,2.5,6,5.6l3.7,4.4l1.5,1.8
			c0,0-1,1.2-1.6,1.6c-0.6,0.6-2.8,2.1-4.1,3.3c-1.3,1.2-5.4,3.1-7,3.9c-1.6,0.8-5.7,2-6.9,2.3c-1.2,0.3-6.3,1.2-8.8,1.3
			c-2.6,0.2-7.5-0.5-10.3-1.3c-2.6-0.8-6.6-3-8.1-3.9C449.3,230.3,444.4,225.2,444.4,225.2L444.4,225.2z M444.2,175.4
			c0,0,5.6,5.2,6.7,6.4c1.2,1.2,4.8,4.4,6,5.2c1,0.8,3.7,3.6,5.4,4.6c1.6,1,7.9,6.6,7.9,6.6l-5.7,5.6c0,0-7.2,6.6-7.9,7
			c-0.6,0.5-6.4,5.2-6.4,5.2l-6.1,4.8l-2,1.5c0,0-0.8-1-1.2-1.6c-0.3-0.6-1.6-3.4-2.3-4.6c-0.5-1.2-2.3-6.4-2.6-7.5
			c-0.2-1.2-0.6-5.4-1-6.6c-0.2-1.2,0-6.1,0.5-8.5c0.5-2.5,1.6-6.6,2.6-8.8c1-2.3,2.1-3.6,3-5.1
			C441.9,177.8,444.2,175.4,444.2,175.4L444.2,175.4z M446.5,172.8c0,0,6.6,6,7.5,6.9c1,1.2,6.4,5.4,7.2,6.4c0.8,1,3.4,2.8,4.8,3.9
			c1.5,1.2,6.4,5.6,6.4,5.6l5.1-5.2c0,0,3.9-4.1,4.4-4.6c0.5-0.5,3.9-4.8,6.6-7.8l3.6-4.1l1.3-1.6c0,0-1-1-1.6-1.6
			c-0.6-0.5-2.3-1.2-3.9-2.1s-5.1-2.1-6.7-2.6c-1.6-0.6-5.6-1.2-6.7-1.3c-1.2-0.2-3.3-0.3-5.7-0.5c-2.5,0-6.3-0.2-9.7,0.8
			c-3.4,1-6,2.6-7.2,3.6C450.6,168.8,446.5,172.8,446.5,172.8L446.5,172.8z M496.5,174.2c0,0-3.7,4.9-4.8,6c-1,1.2-4.1,4.8-5.1,5.6
			c-1,0.8-3.1,3.9-4.6,4.9c-1.5,1-6.4,7-6.4,7l6.4,5.1c0,0,7.2,6.1,7.8,6.6c4.6,3.7,7.2,7.2,10.3,11c1.5-1.3,2.1-2.5,3.7-5.7
			c0.6-1.2,2.6-6.3,2.8-7.4c0.2-1.2,0.8-5.1,0.8-6.6s0.2-4.8-0.6-8.5c-0.6-3.7-2-6.4-3-8.7c-1-2.1-2.1-3.4-3-4.9
			C500.1,177.8,496.5,174.2,496.5,174.2L496.5,174.2z"/>
	</g>
</g>
<g>
	<path class="st3" d="M121.6,212.1c-0.6-0.2-1.2-0.5-1.6-0.8c-0.5-0.3-0.8-0.6-1.3-1c-0.3-0.5-0.6-0.8-0.8-1.4
		c-0.2-0.5-0.3-1.2-0.3-1.9c0-1,0.1-1.7,0.5-2.5c0.3-0.8,0.8-1.3,1.3-1.7c0.5-0.5,1.3-0.8,2-1.1c0.8-0.2,1.7-0.3,2.6-0.3
		c0.9,0,1.7,0.1,2.6,0.2c0.8,0.2,1.6,0.5,2.5,0.8c-0.1,1.1-0.5,2-0.8,3.1c-0.3-0.1-0.5-0.2-0.8-0.3c-0.3-0.1-0.5-0.2-0.8-0.3
		c-0.3-0.1-0.6-0.1-1.1-0.2c-0.5,0-0.8-0.1-1.4-0.1c-0.3,0-0.6,0-1,0.1c-0.3,0.1-0.6,0.1-0.8,0.3c-0.2,0.1-0.5,0.3-0.6,0.6
		c-0.2,0.3-0.2,0.6-0.2,1.1c0,0.3,0.1,0.6,0.2,0.8c0.1,0.2,0.3,0.5,0.5,0.6c0.2,0.2,0.5,0.3,0.8,0.5c0.3,0.1,0.5,0.2,0.8,0.3
		l1.6,0.6c0.6,0.3,1.3,0.5,1.8,0.8c0.5,0.3,1.1,0.6,1.4,1.1c0.5,0.5,0.6,1,0.8,1.5c0.2,0.6,0.3,1.3,0.3,2.3s-0.2,1.7-0.5,2.5
		c-0.3,0.8-0.8,1.4-1.4,1.9c-0.6,0.5-1.4,1-2.3,1.3c-1,0.3-1.9,0.5-3.2,0.5c-0.6,0-1.1,0-1.6-0.1c-0.5,0-0.8-0.1-1.3-0.2
		c-0.5-0.1-0.8-0.2-1.3-0.3c-0.5-0.1-0.8-0.3-1.3-0.5c0.1-0.5,0.1-1.1,0.3-1.6c0.1-0.5,0.3-1.2,0.5-1.7c0.8,0.3,1.5,0.5,2.1,0.6
		s1.4,0.2,2.1,0.2c1.2,0,2-0.2,2.6-0.6c0.6-0.5,1-1.1,1-1.9c0-0.5-0.1-0.8-0.2-1.1c-0.1-0.3-0.3-0.5-0.6-0.8
		c-0.2-0.2-0.5-0.3-0.8-0.5c-0.3-0.1-0.6-0.2-1-0.5L121.6,212.1z"/>
	<path class="st3" d="M133.5,210h-1.8c-0.1-0.2-0.1-0.5-0.1-0.8c0-0.2,0-0.5,0-0.8c0-0.5,0.1-1,0.2-1.4h5.6v13.7
		c-0.6,0.1-1.3,0.2-1.9,0.2c-0.6,0-1.2-0.1-1.8-0.2L133.5,210L133.5,210z M132.9,204.8c-0.1-0.6-0.2-1.2-0.2-1.8
		c0-0.5,0.1-1.2,0.2-1.8c0.3-0.1,0.6-0.1,1-0.1c0.3,0,0.6,0,1,0c0.3,0,0.6,0,1,0c0.3,0,0.6,0.1,1,0.1c0.1,0.3,0.1,0.6,0.1,0.8
		c0,0.3,0,0.6,0,0.8c0,0.3,0,0.5,0,0.8c0,0.3-0.1,0.6-0.1,1c-0.3,0.1-0.6,0.1-1,0.1c-0.3,0-0.6,0-1,0c-0.3,0-0.6,0-1,0
		C133.5,205,133.2,204.8,132.9,204.8z"/>
	<path class="st3" d="M140.9,207.2c0.2-0.1,0.5-0.1,0.8-0.1c0.2,0,0.5,0,0.8,0c0.3,0,0.5,0,0.8,0c0.2,0,0.5,0.1,0.8,0.1
		c0.1,0.1,0.1,0.2,0.1,0.5s0.1,0.3,0.1,0.5s0.1,0.3,0.1,0.5c0,0.2,0,0.3,0.1,0.5c0.1-0.3,0.3-0.5,0.5-0.8c0.2-0.3,0.5-0.5,0.8-0.8
		s0.6-0.5,1.1-0.5c0.5-0.1,0.8-0.2,1.4-0.2c2.1,0,3.5,0.8,4.1,2.5c0.3-0.6,0.8-1.3,1.5-1.7c0.6-0.5,1.5-0.8,2.5-0.8
		c1.6,0,2.8,0.5,3.4,1.3c0.8,0.8,1.1,2.3,1.1,4.1v8.7c-0.6,0.1-1.3,0.2-1.9,0.2c-0.6,0-1.3-0.1-1.9-0.2v-7.8c0-1-0.1-1.7-0.3-2.3
		c-0.2-0.5-0.8-0.8-1.5-0.8c-0.3,0-0.6,0-0.8,0.1c-0.3,0.1-0.5,0.2-0.8,0.5c-0.2,0.2-0.5,0.5-0.6,1.1c-0.1,0.5-0.2,1-0.2,1.7v7.5
		c-0.6,0.1-1.3,0.2-1.9,0.2c-0.6,0-1.3-0.1-1.9-0.2v-7.8c0-1-0.1-1.7-0.3-2.3c-0.2-0.5-0.8-0.8-1.5-0.8c-0.3,0-0.6,0-1,0.1
		c-0.3,0.1-0.5,0.2-0.8,0.5c-0.2,0.2-0.5,0.6-0.5,1.1c-0.1,0.5-0.2,1.1-0.2,1.8v7.2c-0.6,0.1-1.3,0.2-1.9,0.2
		c-0.6,0-1.3-0.1-1.9-0.2v-13.7H140.9L140.9,207.2z"/>
	<path class="st3" d="M164.2,207.2c0.6-0.1,1.3-0.2,1.9-0.2c0.6,0,1.3,0.1,1.9,0.2v7.4c0,0.8,0.1,1.3,0.2,1.8
		c0.1,0.5,0.3,0.8,0.5,1.2c0.2,0.3,0.5,0.5,0.8,0.6c0.3,0.1,0.8,0.2,1.3,0.2c0.6,0,1.2-0.1,1.7-0.2v-10.8c0.6-0.1,1.3-0.2,1.9-0.2
		c0.6,0,1.3,0.1,1.9,0.2v13.2c-0.5,0.2-1.3,0.5-2.3,0.5c-1,0.2-1.9,0.3-2.9,0.3c-1,0-1.8-0.1-2.6-0.2c-0.8-0.1-1.6-0.5-2.3-1
		c-0.6-0.5-1.2-1.2-1.5-2c-0.3-0.8-0.5-2-0.5-3.5L164.2,207.2L164.2,207.2L164.2,207.2z"/>
	<path class="st3" d="M179.5,201.5c0.6-0.1,1.3-0.2,1.9-0.2c0.6,0,1.3,0.1,1.9,0.2v13.9c0,0.5,0,1,0.1,1.4c0.1,0.3,0.2,0.6,0.3,0.8
		c0.1,0.2,0.3,0.3,0.5,0.5c0.2,0.1,0.5,0.1,0.8,0.1c0.1,0,0.3,0,0.5,0c0.2,0,0.3,0,0.5-0.1c0.2,0.8,0.3,1.5,0.3,2.1
		c0,0.1,0,0.3,0,0.5c0,0.1,0,0.2-0.1,0.5c-0.3,0.1-0.6,0.1-1.1,0.2c-0.5,0-0.8,0.1-1.1,0.1c-1.4,0-2.5-0.5-3.3-1.2
		c-0.8-0.8-1.3-2-1.3-3.7L179.5,201.5L179.5,201.5z"/>
	<path class="st3" d="M195.2,211.9c0-0.5-0.1-0.8-0.2-1.1c-0.1-0.3-0.3-0.5-0.6-0.6c-0.2-0.1-0.5-0.2-1-0.3
		c-0.3-0.1-0.8-0.1-1.2-0.1c-1,0-2,0.2-3.1,0.5c-0.2-0.5-0.5-0.8-0.5-1.3c-0.1-0.5-0.2-0.8-0.2-1.5c0.8-0.3,1.6-0.5,2.3-0.6
		c0.8-0.1,1.5-0.2,2.3-0.2c1.8,0,3.3,0.5,4.4,1.4c1.1,0.8,1.6,2.3,1.6,4.3v8c-0.6,0.2-1.4,0.5-2.3,0.5c-0.8,0.2-1.9,0.3-3,0.3
		c-1,0-1.7-0.1-2.5-0.2c-0.8-0.2-1.4-0.5-1.9-0.8c-0.5-0.5-1-0.8-1.3-1.5c-0.3-0.6-0.5-1.3-0.5-2.1c0-0.8,0.2-1.6,0.5-2.1
		c0.3-0.5,0.8-1.1,1.4-1.4c0.5-0.3,1.2-0.6,1.9-0.8c0.8-0.1,1.4-0.2,2.1-0.2c0.5,0,1.1,0,1.7,0.1L195.2,211.9L195.2,211.9
		L195.2,211.9z M195.2,214.6c-0.2,0-0.5-0.1-0.8-0.1c-0.2,0-0.5,0-0.6,0c-0.8,0-1.6,0.1-2,0.5c-0.5,0.3-0.8,0.8-0.8,1.5
		c0,0.5,0.1,0.8,0.3,1.1c0.2,0.2,0.5,0.5,0.8,0.5c0.3,0.1,0.5,0.2,0.8,0.2s0.5,0,0.8,0c0.3,0,0.5,0,0.8-0.1c0.3,0,0.5-0.1,0.8-0.1
		v-3.4L195.2,214.6L195.2,214.6z"/>
	<path class="st3" d="M211.5,217.7c0.2,0.3,0.5,0.8,0.5,1.3c0.1,0.5,0.2,1.1,0.2,1.7c-0.8,0.3-1.4,0.5-2,0.5
		c-0.7,0.1-1.3,0.1-1.9,0.1c-1.2,0-2.1-0.2-3-0.5c-0.8-0.3-1.6-0.8-2.1-1.5c-0.5-0.6-1-1.4-1.3-2.3c-0.3-0.8-0.5-1.8-0.5-2.9
		c0-1.1,0.1-1.9,0.5-2.9c0.3-0.8,0.8-1.6,1.3-2.3c0.5-0.6,1.3-1.2,2.1-1.6c0.8-0.4,1.8-0.5,2.9-0.5c0.5,0,0.8,0,1.1,0s0.6,0.1,1,0.1
		c0.3,0.1,0.6,0.1,1,0.2c0.3,0.1,0.6,0.2,1.1,0.3c0,0.5-0.1,0.8-0.2,1.4c-0.2,0.5-0.3,1-0.5,1.5c-0.5-0.2-1-0.3-1.4-0.3
		c-0.5-0.1-0.8-0.1-1.4-0.1c-1.1,0-1.9,0.3-2.5,1.1c-0.5,0.8-0.8,1.7-0.8,3.1c0,1.5,0.3,2.5,1,3.2c0.6,0.6,1.4,1,2.5,1
		c0.3,0,0.5,0,0.8,0c0.2,0,0.5,0,0.6-0.1c0.2,0,0.5-0.1,0.6-0.2C211,217.9,211.2,217.7,211.5,217.7z"/>
	<path class="st3" d="M215.7,210h-1.8c-0.1-0.2-0.1-0.5-0.1-0.8c0-0.2,0-0.5,0-0.8c0-0.5,0.1-1,0.2-1.4h5.6v13.7
		c-0.6,0.1-1.3,0.2-1.9,0.2c-0.6,0-1.2-0.1-1.8-0.2V210H215.7z M215.1,204.8c-0.1-0.6-0.2-1.2-0.2-1.8c0-0.5,0.1-1.2,0.2-1.8
		c0.3-0.1,0.6-0.1,1-0.1c0.4,0,0.6,0,1,0s0.6,0,1,0c0.4,0,0.6,0.1,1,0.1c0.1,0.3,0.1,0.6,0.1,0.8c0,0.3,0,0.6,0,0.8
		c0,0.3,0,0.5,0,0.8c0,0.3-0.1,0.6-0.1,1c-0.3,0.1-0.6,0.1-1,0.1c-0.4,0-0.6,0-1,0s-0.6,0-1,0C215.7,205,215.4,204.8,215.1,204.8z"
		/>
	<path class="st3" d="M229,221.3c-1.2,0-2.1-0.2-2.9-0.5c-0.8-0.3-1.5-0.8-2-1.5c-0.5-0.6-1-1.4-1.3-2.3c-0.3-0.8-0.5-1.8-0.5-2.9
		c0-1.1,0.1-1.9,0.5-2.9c0.3-0.8,0.6-1.7,1.3-2.3c0.5-0.6,1.3-1.2,2-1.5c0.8-0.3,1.8-0.5,2.9-0.5c1.2,0,2.1,0.2,3,0.5
		c0.8,0.5,1.5,0.8,2.1,1.5c0.5,0.6,1,1.4,1.3,2.3c0.3,0.8,0.5,1.8,0.5,2.9c0,1.1-0.1,1.9-0.5,2.9c-0.3,0.8-0.6,1.6-1.3,2.3
		c-0.5,0.6-1.3,1.2-2.1,1.5C231,221.1,230.1,221.3,229,221.3z M229,218.4c1,0,1.7-0.3,2.1-1.1c0.5-0.8,0.6-1.8,0.6-3.2
		s-0.2-2.5-0.6-3.2c-0.5-0.8-1.2-1.1-2.1-1.1s-1.7,0.3-2.1,1.1c-0.5,0.8-0.6,1.8-0.6,3.2s0.2,2.5,0.6,3.2
		C227.3,218,228,218.4,229,218.4z M229.2,201.8c0.8-0.1,1.5-0.2,2.5-0.2c0.5,0,0.8,0,1.2,0c0.3,0,0.6,0.1,1.1,0.1l-4.1,3.3
		c-0.2,0-0.5,0.1-0.8,0.1s-0.6,0.1-1.1,0.1c-0.5,0-1.2-0.1-1.7-0.2L229.2,201.8z"/>
	<path class="st3" d="M238.6,207.2c0.2-0.1,0.5-0.1,0.8-0.1s0.5,0,0.8,0c0.3,0,0.5,0,0.8,0c0.2,0,0.5,0.1,0.8,0.1
		c0.1,0.1,0.1,0.2,0.1,0.5s0.1,0.3,0.1,0.5s0.1,0.3,0.1,0.5c0,0.2,0,0.3,0.1,0.5c0.2-0.3,0.5-0.5,0.6-0.8c0.2-0.3,0.5-0.5,0.8-0.8
		c0.3-0.2,0.8-0.5,1.1-0.5c0.5-0.1,0.8-0.2,1.4-0.2c1.6,0,2.8,0.5,3.5,1.3c0.8,0.8,1.2,2.3,1.2,4.1v8.8c-0.6,0.1-1.3,0.2-1.9,0.2
		c-0.6,0-1.3-0.1-1.9-0.2v-7.8c0-1-0.1-1.7-0.5-2.3c-0.3-0.5-0.8-0.8-1.5-0.8c-0.3,0-0.6,0-1,0.1c-0.3,0.1-0.6,0.2-0.8,0.5
		c-0.2,0.2-0.5,0.6-0.6,1.1c-0.2,0.5-0.2,1.1-0.2,1.8v7.2c-0.6,0.1-1.3,0.2-1.9,0.2c-0.6,0-1.3-0.1-1.9-0.2L238.6,207.2L238.6,207.2
		z"/>
	<path class="st3" d="M258.5,207.2c0.5-0.1,0.8-0.1,1.1-0.1c0.3,0,0.6,0,0.8,0c0.3,0,0.8,0,1.1,0c0.5,0,0.8,0.1,1.1,0.1l2.9,12.1
		l3.3-12.1c0.6-0.1,1.2-0.2,1.8-0.2c0.3,0,0.5,0,0.8,0s0.6,0.1,1.2,0.1l-5.1,17c-0.2,0.6-0.5,1.3-0.8,1.7s-0.6,0.8-1,1.1
		c-0.5,0.2-0.8,0.5-1.3,0.5c-0.5,0.1-1,0.1-1.5,0.1s-1,0-1.4-0.1c-0.5-0.1-0.8-0.1-1.2-0.2c0-0.1,0-0.2,0-0.2s0-0.1,0-0.2
		c0-0.5,0-0.8,0.1-1.2c0.1-0.5,0.2-0.8,0.3-1.1c0.2,0.1,0.5,0.1,0.6,0.1c0.3,0,0.5,0.1,0.8,0.1c0.2,0,0.5,0,0.6,0s0.5-0.1,0.6-0.2
		c0.2-0.1,0.5-0.3,0.5-0.6c0.2-0.3,0.3-0.6,0.5-1.2l0.5-1.7c-0.2,0-0.5,0-0.6,0s-0.5,0-0.8,0s-0.5,0-0.5,0c-0.2,0-0.3,0-0.5-0.1
		L258.5,207.2z"/>
	<path class="st3" d="M47.5,239.2c0.2-0.1,0.5-0.1,0.8-0.1s0.5,0,0.8,0c0.3,0,0.5,0,0.8,0c0.2,0,0.5,0.1,0.8,0.1
		c0.2,0.2,0.2,0.2,0.2,0.5s0.1,0.3,0.1,0.5s0.1,0.3,0.1,0.5c0,0.2,0,0.3,0.1,0.5c0.1-0.3,0.3-0.5,0.5-0.8c0.2-0.3,0.5-0.5,0.8-0.8
		c0.3-0.2,0.6-0.5,1.1-0.5c0.5-0.1,0.8-0.2,1.4-0.2c2.1,0,3.5,0.8,4.1,2.5c0.3-0.6,0.8-1.3,1.5-1.7c0.6-0.5,1.5-0.8,2.5-0.8
		c1.6,0,2.8,0.5,3.4,1.3c0.8,0.8,1.1,2.3,1.1,4.1v8.7c-0.6,0.1-1.3,0.2-1.9,0.2c-0.6,0-1.3-0.1-1.9-0.2v-7.8c0-1-0.1-1.7-0.3-2.3
		c-0.2-0.5-0.8-0.8-1.5-0.8c-0.3,0-0.6,0-0.8,0.1c-0.3,0.1-0.5,0.2-0.8,0.5c-0.2,0.2-0.5,0.5-0.6,1.1c-0.1,0.5-0.2,1-0.2,1.7v7.5
		c-0.6,0.1-1.3,0.2-1.9,0.2s-1.3-0.1-1.9-0.2v-7.8c0-1-0.1-1.7-0.3-2.3c-0.2-0.5-0.8-0.8-1.5-0.8c-0.3,0-0.6,0-1,0.1
		c-0.3,0.1-0.5,0.2-0.8,0.5c-0.2,0.2-0.5,0.6-0.5,1.1c-0.1,0.5-0.2,1.1-0.2,1.8v7.2c-0.6,0.1-1.3,0.2-1.9,0.2s-1.3-0.1-1.9-0.2
		L47.5,239.2L47.5,239.2L47.5,239.2z"/>
	<path class="st3" d="M76.8,253.3c-1.2,0-2.1-0.2-2.9-0.5c-0.8-0.3-1.5-0.8-2-1.5c-0.5-0.6-1-1.4-1.3-2.3c-0.3-0.9-0.5-1.8-0.5-2.9
		c0-1.1,0.1-1.9,0.5-2.9c0.3-0.8,0.6-1.7,1.3-2.3c0.5-0.6,1.3-1.2,2-1.5c0.8-0.3,1.8-0.5,2.9-0.5c1.2,0,2.1,0.2,3,0.5
		c0.8,0.3,1.5,0.8,2.1,1.5c0.5,0.6,1,1.4,1.3,2.3c0.3,0.8,0.5,1.8,0.5,2.9c0,1.1-0.1,1.9-0.5,2.9c-0.3,0.8-0.6,1.6-1.3,2.3
		c-0.5,0.6-1.3,1.2-2.1,1.5C79,253.2,78,253.3,76.8,253.3z M76.8,250.5c1,0,1.7-0.3,2.1-1.1c0.5-0.8,0.6-1.8,0.6-3.2
		s-0.2-2.5-0.6-3.2c-0.5-0.8-1.2-1.1-2.1-1.1s-1.7,0.3-2.1,1.1c-0.5,0.8-0.6,1.8-0.6,3.2s0.2,2.5,0.6,3.2
		C75.2,250.1,75.9,250.5,76.8,250.5z"/>
	<path class="st3" d="M94.8,233.4c0.3-0.1,0.6-0.1,1-0.1c0.3,0,0.6,0,1,0c0.3,0,0.6,0,1,0c0.3,0,0.6,0.1,1,0.1v19.1
		c-0.8,0.2-1.7,0.5-2.6,0.5c-0.8,0.1-1.9,0.2-3.1,0.2c-1,0-1.8-0.1-2.6-0.5c-0.8-0.2-1.6-0.6-2.3-1.3c-0.6-0.5-1.2-1.3-1.6-2.1
		c-0.5-0.8-0.5-2-0.5-3.3c0-1.1,0.2-1.9,0.5-2.9c0.3-0.8,0.8-1.7,1.4-2.3c0.6-0.6,1.4-1.2,2.3-1.6c0.8-0.5,1.8-0.5,2.9-0.5
		c0.3,0,0.6,0,1,0c0.3,0,0.6,0.1,1,0.2L94.8,233.4L94.8,233.4z M94.8,242.1c-0.3-0.1-0.6-0.1-0.8-0.2c-0.2,0-0.5,0-0.8,0
		c-0.6,0-1.1,0.1-1.5,0.3c-0.5,0.2-0.8,0.5-1.1,1c-0.3,0.5-0.5,0.8-0.6,1.4c-0.1,0.5-0.2,1.1-0.2,1.7c0,0.8,0.1,1.4,0.3,1.8
		c0.2,0.5,0.5,1,0.8,1.2c0.3,0.3,0.6,0.5,1.1,0.6s0.8,0.2,1.4,0.2c0.3,0,0.5,0,0.8,0c0.2,0,0.5-0.1,0.8-0.2L94.8,242.1L94.8,242.1
		L94.8,242.1z"/>
	<path class="st3" d="M105.2,247.3c0.1,1.1,0.5,1.8,1.2,2.3c0.6,0.5,1.6,0.8,2.6,0.8c0.6,0,1.2-0.1,1.8-0.2c0.6-0.1,1.3-0.3,1.8-0.5
		c0.2,0.3,0.3,0.8,0.5,1.3c0.1,0.5,0.2,1.1,0.2,1.6c-1.4,0.5-3,0.8-4.7,0.8c-1.3,0-2.3-0.2-3.3-0.5c-1-0.3-1.7-0.8-2.3-1.5
		c-0.5-0.6-1-1.4-1.3-2.3c-0.3-0.9-0.5-1.8-0.5-2.9c0-1.1,0.1-1.9,0.5-2.9c0.3-0.8,0.8-1.7,1.3-2.3c0.5-0.6,1.3-1.2,2.1-1.6
		c0.8-0.4,1.8-0.5,2.9-0.5c1,0,1.8,0.2,2.6,0.5c0.8,0.3,1.4,0.8,1.9,1.4c0.5,0.6,1,1.3,1.2,2.1c0.3,0.8,0.5,1.7,0.5,2.6
		c0,0.3,0,0.6,0,1c0,0.3-0.1,0.6-0.1,0.8h-9V247.3L105.2,247.3z M110.6,244.6c0-0.8-0.3-1.5-0.8-2c-0.5-0.5-1.1-0.8-1.8-0.8
		c-0.8,0-1.6,0.2-2,0.8c-0.5,0.5-0.8,1.2-0.8,2.1L110.6,244.6L110.6,244.6L110.6,244.6z"/>
	<path class="st3" d="M117.2,233.4c0.6-0.1,1.3-0.2,1.9-0.2s1.3,0.1,1.9,0.2v13.9c0,0.5,0,1,0.1,1.4c0.1,0.3,0.2,0.6,0.3,0.8
		c0.1,0.2,0.3,0.3,0.5,0.5c0.2,0.1,0.5,0.1,0.8,0.1c0.1,0,0.3,0,0.5,0c0.2,0,0.3,0,0.5-0.1c0.2,0.8,0.3,1.5,0.3,2.1
		c0,0.1,0,0.3,0,0.5c0,0.1,0,0.2-0.1,0.5c-0.3,0.1-0.6,0.1-1.1,0.2c-0.5,0-0.8,0.1-1.1,0.1c-1.4,0-2.5-0.5-3.3-1.2
		c-0.8-0.8-1.3-2-1.3-3.7V233.4L117.2,233.4L117.2,233.4z"/>
	<path class="st3" d="M132.7,243.9c0-0.5-0.1-0.8-0.2-1.1c-0.1-0.3-0.3-0.5-0.6-0.6c-0.2-0.1-0.5-0.2-1-0.3
		c-0.3-0.1-0.8-0.1-1.2-0.1c-1,0-2,0.2-3.1,0.5c-0.2-0.5-0.5-0.8-0.5-1.3c-0.1-0.5-0.2-0.8-0.2-1.5c0.8-0.3,1.6-0.5,2.3-0.6
		c0.8-0.1,1.5-0.2,2.3-0.2c1.8,0,3.3,0.5,4.4,1.4c1.1,0.8,1.6,2.3,1.6,4.3v8c-0.6,0.2-1.4,0.5-2.3,0.5c-0.8,0.2-1.9,0.3-3,0.3
		c-1,0-1.7-0.1-2.5-0.2c-0.8-0.2-1.4-0.5-1.9-0.8c-0.5-0.5-1-0.8-1.3-1.5c-0.3-0.6-0.5-1.3-0.5-2.1c0-0.8,0.2-1.6,0.5-2.1
		c0.3-0.5,0.8-1.1,1.4-1.4c0.5-0.3,1.2-0.6,1.9-0.8c0.8-0.1,1.4-0.2,2.1-0.2c0.5,0,1.1,0,1.7,0.1L132.7,243.9L132.7,243.9
		L132.7,243.9z M132.7,246.6c-0.2,0-0.5-0.1-0.8-0.1c-0.2,0-0.5,0-0.6,0c-0.8,0-1.6,0.1-2,0.5c-0.5,0.3-0.8,0.8-0.8,1.5
		c0,0.5,0.1,0.8,0.3,1.1c0.2,0.2,0.5,0.5,0.8,0.5c0.3,0.1,0.5,0.2,0.8,0.2c0.3,0,0.5,0,0.8,0c0.3,0,0.5,0,0.8-0.1
		c0.3,0,0.5-0.1,0.8-0.1v-3.4L132.7,246.6L132.7,246.6z"/>
	<path class="st3" d="M149,249.7c0.2,0.3,0.5,0.8,0.5,1.3c0.1,0.5,0.2,1.1,0.2,1.7c-0.8,0.3-1.4,0.5-2,0.5c-0.6,0.1-1.3,0.1-1.9,0.1
		c-1.2,0-2.1-0.2-3-0.5c-0.8-0.3-1.6-0.8-2.1-1.5c-0.5-0.6-1-1.4-1.3-2.3c-0.3-0.8-0.5-1.8-0.5-2.9c0-1.1,0.1-1.9,0.5-2.9
		c0.3-0.8,0.8-1.6,1.3-2.3c0.5-0.6,1.3-1.2,2.1-1.6c0.8-0.5,1.8-0.5,2.9-0.5c0.5,0,0.8,0,1.1,0c0.3,0,0.6,0.1,1,0.1
		c0.3,0.1,0.6,0.1,1,0.2c0.3,0.1,0.6,0.2,1.1,0.3c0,0.5-0.1,0.8-0.2,1.4c-0.2,0.5-0.3,1-0.5,1.5c-0.5-0.2-1-0.3-1.4-0.3
		c-0.5-0.1-0.8-0.1-1.4-0.1c-1.1,0-1.9,0.3-2.5,1.1c-0.5,0.8-0.8,1.7-0.8,3.1c0,1.5,0.3,2.5,1,3.2c0.6,0.6,1.4,1,2.5,1
		c0.3,0,0.5,0,0.8,0s0.5,0,0.6-0.1c0.2,0,0.5-0.1,0.6-0.2C148.5,249.9,148.9,249.9,149,249.7z"/>
	<path class="st3" d="M153.3,242.1h-1.8c-0.1-0.2-0.1-0.5-0.1-0.8c0-0.2,0-0.5,0-0.8c0-0.5,0.1-1,0.2-1.4h5.6V253
		c-0.6,0.1-1.3,0.2-1.9,0.2c-0.6,0-1.2-0.1-1.8-0.2L153.3,242.1L153.3,242.1z M152.6,236.8c-0.1-0.6-0.2-1.2-0.2-1.8
		c0-0.5,0.1-1.2,0.2-1.8c0.3-0.1,0.6-0.1,1-0.1c0.3,0,0.6,0,1,0c0.3,0,0.6,0,1,0c0.3,0,0.6,0.1,1,0.1c0.1,0.3,0.1,0.6,0.1,0.8
		c0,0.3,0,0.6,0,0.8c0,0.3,0,0.5,0,0.8s-0.1,0.6-0.1,1c-0.3,0.1-0.6,0.1-1,0.1c-0.3,0-0.6,0-1,0c-0.3,0-0.6,0-1,0
		C153.3,237,153,237,152.6,236.8z"/>
	<path class="st3" d="M166.5,253.3c-1.2,0-2.1-0.2-2.9-0.5c-0.8-0.3-1.5-0.8-2-1.5c-0.5-0.6-1-1.4-1.3-2.3c-0.3-0.9-0.5-1.8-0.5-2.9
		c0-1.1,0.1-1.9,0.5-2.9c0.3-0.8,0.6-1.7,1.3-2.3c0.5-0.6,1.3-1.2,2-1.5c0.8-0.3,1.8-0.5,2.9-0.5c1.2,0,2.1,0.2,3,0.5
		c0.8,0.3,1.5,0.8,2.1,1.5c0.5,0.6,1,1.4,1.3,2.3c0.3,0.8,0.5,1.8,0.5,2.9c0,1.1-0.1,1.9-0.5,2.9c-0.3,0.8-0.6,1.6-1.3,2.3
		c-0.5,0.6-1.3,1.2-2.1,1.5C168.6,253.2,167.7,253.3,166.5,253.3z M166.5,250.5c1,0,1.7-0.3,2.1-1.1c0.5-0.8,0.6-1.8,0.6-3.2
		s-0.2-2.5-0.6-3.2c-0.5-0.8-1.2-1.1-2.1-1.1s-1.7,0.3-2.1,1.1c-0.5,0.8-0.6,1.8-0.6,3.2s0.2,2.5,0.6,3.2
		C164.8,250.1,165.5,250.5,166.5,250.5z M166.8,233.7c0.8-0.1,1.5-0.2,2.5-0.2c0.5,0,0.8,0,1.2,0c0.3,0,0.6,0.1,1.1,0.1l-4.1,3.3
		c-0.2,0-0.5,0.1-0.8,0.1c-0.3,0-0.6,0.1-1.1,0.1c-0.5,0-1.2-0.1-1.7-0.2L166.8,233.7z"/>
	<path class="st3" d="M176.2,239.2c0.2-0.1,0.5-0.1,0.8-0.1s0.5,0,0.8,0s0.5,0,0.8,0c0.2,0,0.5,0.1,0.8,0.1c0.1,0.1,0.1,0.2,0.1,0.5
		c0,0.2,0.1,0.3,0.1,0.5s0.1,0.3,0.1,0.5s0,0.3,0.1,0.5c0.2-0.3,0.5-0.5,0.6-0.8c0.2-0.3,0.5-0.5,0.8-0.8c0.3-0.2,0.8-0.5,1.1-0.5
		c0.5-0.1,0.8-0.2,1.4-0.2c1.6,0,2.8,0.5,3.5,1.3c0.8,0.8,1.2,2.3,1.2,4.1v8.8c-0.6,0.1-1.3,0.2-1.9,0.2c-0.6,0-1.3-0.1-1.9-0.2
		v-7.8c0-1-0.1-1.7-0.5-2.3c-0.4-0.5-0.8-0.8-1.5-0.8c-0.3,0-0.6,0-1,0.1c-0.4,0.1-0.6,0.2-0.8,0.5c-0.2,0.2-0.5,0.6-0.6,1.1
		c-0.2,0.5-0.2,1.1-0.2,1.8v7.2c-0.6,0.1-1.3,0.2-1.9,0.2c-0.6,0-1.3-0.1-1.9-0.2L176.2,239.2L176.2,239.2z"/>
	<path class="st3" d="M200.7,247.3c0.1,1.1,0.5,1.8,1.2,2.3c0.6,0.5,1.6,0.8,2.6,0.8c0.6,0,1.2-0.1,1.8-0.2c0.6-0.1,1.3-0.3,1.8-0.5
		c0.2,0.3,0.3,0.8,0.5,1.3c0.1,0.5,0.2,1.1,0.2,1.6c-1.4,0.5-3,0.8-4.7,0.8c-1.3,0-2.3-0.2-3.3-0.5c-1-0.3-1.7-0.8-2.3-1.5
		c-0.5-0.6-1-1.4-1.3-2.3c-0.3-0.8-0.5-1.8-0.5-2.9c0-1.1,0.1-1.9,0.5-2.9c0.3-0.8,0.8-1.7,1.3-2.3c0.5-0.6,1.3-1.2,2.1-1.6
		c0.8-0.4,1.8-0.5,2.9-0.5c1,0,1.8,0.2,2.6,0.5c0.8,0.3,1.4,0.8,1.9,1.4c0.5,0.6,1,1.3,1.2,2.1c0.3,0.8,0.5,1.7,0.5,2.6
		c0,0.3,0,0.6,0,1c0,0.3-0.1,0.6-0.1,0.8h-9V247.3L200.7,247.3z M206.2,244.6c0-0.8-0.3-1.5-0.8-2c-0.5-0.5-1.1-0.8-1.8-0.8
		c-0.8,0-1.6,0.2-2,0.8c-0.5,0.5-0.8,1.2-0.8,2.1L206.2,244.6L206.2,244.6z"/>
	<path class="st3" d="M212.8,239.2c0.2-0.1,0.5-0.1,0.8-0.1s0.5,0,0.8,0s0.5,0,0.8,0c0.2,0,0.5,0.1,0.8,0.1c0.1,0.1,0.1,0.2,0.1,0.5
		c0,0.2,0.1,0.3,0.1,0.5s0.1,0.3,0.1,0.5s0,0.3,0.1,0.5c0.1-0.3,0.3-0.5,0.5-0.8c0.2-0.3,0.5-0.5,0.8-0.8c0.3-0.2,0.6-0.5,1.1-0.5
		c0.5-0.1,0.8-0.2,1.4-0.2c2.1,0,3.5,0.8,4.1,2.5c0.3-0.6,0.8-1.3,1.5-1.7c0.6-0.5,1.5-0.8,2.5-0.8c1.6,0,2.8,0.5,3.4,1.3
		c0.8,0.8,1.1,2.3,1.1,4.1v8.7c-0.6,0.1-1.3,0.2-1.9,0.2c-0.6,0-1.3-0.1-1.9-0.2v-7.8c0-1-0.1-1.7-0.3-2.3c-0.2-0.5-0.8-0.8-1.5-0.8
		c-0.3,0-0.6,0-0.8,0.1c-0.3,0.1-0.5,0.2-0.8,0.5c-0.2,0.2-0.5,0.5-0.6,1.1c-0.1,0.5-0.2,1-0.2,1.7v7.5c-0.6,0.1-1.3,0.2-1.9,0.2
		c-0.6,0-1.3-0.1-1.9-0.2v-7.8c0-1-0.1-1.7-0.3-2.3c-0.2-0.5-0.8-0.8-1.5-0.8c-0.3,0-0.6,0-1,0.1c-0.4,0.1-0.5,0.2-0.8,0.5
		c-0.2,0.2-0.5,0.6-0.5,1.1c-0.1,0.5-0.2,1.1-0.2,1.8v7.2c-0.6,0.1-1.3,0.2-1.9,0.2c-0.6,0-1.3-0.1-1.9-0.2v-13.7L212.8,239.2
		L212.8,239.2z"/>
	<path class="st3" d="M236.1,239.2c0.2-0.1,0.5-0.1,0.8-0.1s0.5,0,0.8,0c0.5,0,1,0.1,1.5,0.2c0.1,0.1,0.1,0.2,0.1,0.5
		c0,0.2,0.1,0.3,0.1,0.5s0.1,0.5,0.1,0.5c0,0.2,0,0.3,0.1,0.5c0.2-0.3,0.3-0.5,0.6-0.8c0.2-0.3,0.5-0.5,0.8-0.8
		c0.3-0.2,0.8-0.5,1.1-0.5c0.5-0.1,0.8-0.2,1.4-0.2c0.8,0,1.5,0.1,2.1,0.5c0.6,0.3,1.3,0.8,1.7,1.3c0.5,0.5,0.8,1.3,1.2,2.1
		c0.3,0.8,0.5,1.9,0.5,3.1s-0.2,2.3-0.5,3.1c-0.3,1-0.8,1.7-1.5,2.3c-0.6,0.6-1.4,1.2-2.3,1.5c-1,0.3-2,0.5-3.2,0.5
		c-0.3,0-0.6,0-0.8,0c-0.3,0-0.5-0.1-0.8-0.1v6.2c-0.3,0.1-0.6,0.1-1,0.1c-0.4,0-0.6,0-1,0s-0.6,0-1,0c-0.4,0-0.6-0.1-1-0.1
		L236.1,239.2L236.1,239.2z M239.9,250.1c0.5,0.1,1.1,0.2,1.7,0.2c1.1,0,1.9-0.3,2.6-1.1c0.6-0.8,0.8-1.8,0.8-3.2
		c0-0.5,0-1.1-0.1-1.5s-0.2-0.8-0.5-1.2c-0.2-0.3-0.5-0.6-0.8-0.8s-0.8-0.3-1.2-0.3c-0.5,0-0.8,0.1-1.2,0.2
		c-0.3,0.2-0.5,0.5-0.8,0.8s-0.3,0.6-0.5,1.1c-0.1,0.5-0.1,0.8-0.1,1.3L239.9,250.1L239.9,250.1z"/>
	<path class="st3" d="M252,239.2c0.3-0.1,0.5-0.1,0.8-0.1s0.5,0,0.8,0c0.3,0,0.5,0,0.8,0.1c0.2,0,0.5,0.1,0.8,0.1
		c0.1,0.1,0.1,0.2,0.1,0.5c0,0.2,0.1,0.3,0.1,0.5s0.1,0.5,0.1,0.5c0,0.2,0,0.3,0.1,0.5c0.5-0.5,0.8-1.1,1.5-1.5
		c0.5-0.5,1.3-0.6,2.1-0.6c0.2,0,0.5,0,0.6,0c0.2,0,0.5,0,0.5,0.1c0,0.2,0.1,0.5,0.1,0.6c0,0.2,0,0.5,0,0.8s0,0.6,0,1
		c0,0.3-0.1,0.8-0.1,1.1c-0.2,0-0.5-0.1-0.6-0.1s-0.5,0-0.5,0c-0.3,0-0.6,0-1.1,0.1c-0.5,0.1-0.8,0.2-1.1,0.5s-0.6,0.6-0.8,1.2
		c-0.2,0.5-0.3,1.3-0.3,2.3v6.6c-0.3,0.1-0.6,0.1-1,0.1c-0.3,0-0.6,0-1,0c-0.3,0-0.6,0-1,0c-0.3,0-0.6-0.1-1-0.1L252,239.2
		L252,239.2z"/>
	<path class="st3" d="M265.4,247.3c0.1,1.1,0.5,1.8,1.2,2.3c0.6,0.5,1.6,0.8,2.6,0.8c0.6,0,1.2-0.1,1.8-0.2c0.6-0.1,1.3-0.3,1.8-0.5
		c0.2,0.3,0.3,0.8,0.5,1.3c0.1,0.5,0.2,1.1,0.2,1.6c-1.4,0.5-3,0.8-4.7,0.8c-1.3,0-2.3-0.2-3.3-0.5c-1-0.3-1.7-0.8-2.3-1.5
		c-0.5-0.6-1-1.4-1.3-2.3c-0.3-0.8-0.5-1.8-0.5-2.9c0-1.1,0.1-1.9,0.5-2.9c0.3-0.8,0.8-1.7,1.3-2.3c0.5-0.6,1.3-1.2,2.1-1.6
		c0.8-0.4,1.8-0.5,2.9-0.5c1,0,1.8,0.2,2.6,0.5c0.8,0.3,1.4,0.8,1.9,1.4c0.5,0.6,1,1.3,1.2,2.1c0.3,0.8,0.5,1.7,0.5,2.6
		c0,0.3,0,0.6,0,1c0,0.3-0.1,0.6-0.1,0.8h-9L265.4,247.3L265.4,247.3z M270.8,244.6c0-0.8-0.3-1.5-0.8-2c-0.5-0.5-1.1-0.8-1.8-0.8
		c-0.8,0-1.6,0.2-2,0.8c-0.5,0.5-0.8,1.2-0.8,2.1L270.8,244.6L270.8,244.6z"/>
	<path class="st3" d="M279.9,247c-1-0.3-1.8-0.8-2.3-1.3c-0.5-0.5-0.8-1.4-0.8-2.6c0-1.4,0.5-2.5,1.5-3.2c1-0.8,2.3-1.2,3.9-1.2
		c0.8,0,1.4,0.1,2,0.2c0.6,0.1,1.4,0.3,2,0.5c0,0.5-0.1,1-0.3,1.5c-0.1,0.5-0.3,1-0.5,1.3c-0.5-0.2-0.8-0.3-1.4-0.5
		c-0.5-0.1-1.1-0.2-1.6-0.2c-0.6,0-1.1,0.1-1.4,0.3s-0.5,0.5-0.5,0.8c0,0.5,0.1,0.6,0.3,0.8c0.2,0.2,0.5,0.3,1.1,0.5l1.5,0.5
		c0.5,0.1,1,0.3,1.4,0.5c0.5,0.2,0.8,0.5,1.1,0.8c0.3,0.3,0.5,0.6,0.6,1.2c0.2,0.5,0.2,1,0.2,1.6s-0.1,1.3-0.5,1.8
		c-0.3,0.5-0.6,1.1-1.2,1.5c-0.5,0.5-1.2,0.8-1.9,1c-0.8,0.2-1.6,0.3-2.6,0.3c-0.5,0-0.8,0-1.2,0c-0.3,0-0.8-0.1-1.1-0.1
		c-0.3-0.1-0.6-0.1-1-0.2c-0.3-0.1-0.6-0.2-1.1-0.3c0-0.5,0.1-1,0.2-1.5c0.2-0.5,0.3-1,0.5-1.4c0.6,0.2,1.2,0.5,1.7,0.5
		c0.5,0.1,1.1,0.2,1.6,0.2c0.2,0,0.5,0,0.8-0.1c0.3,0,0.5-0.1,0.8-0.2c0.2-0.1,0.5-0.3,0.6-0.5c0.2-0.2,0.2-0.5,0.2-0.8
		c0-0.5-0.1-0.8-0.5-1c-0.2-0.2-0.6-0.3-1.1-0.5L279.9,247z"/>
	<path class="st3" d="M296.5,243.9c0-0.5-0.1-0.8-0.2-1.1c-0.1-0.3-0.3-0.5-0.6-0.6c-0.2-0.1-0.5-0.2-1-0.3
		c-0.5-0.1-0.8-0.1-1.2-0.1c-1,0-2,0.2-3.1,0.5c-0.2-0.5-0.5-0.8-0.5-1.3c-0.1-0.5-0.2-0.8-0.2-1.5c0.8-0.3,1.6-0.5,2.3-0.6
		c0.8-0.1,1.5-0.2,2.3-0.2c1.8,0,3.3,0.5,4.4,1.4c1.1,0.8,1.6,2.3,1.6,4.3v8c-0.6,0.2-1.4,0.5-2.3,0.5c-0.8,0.2-1.9,0.3-3,0.3
		c-1,0-1.7-0.1-2.5-0.2c-0.8-0.2-1.4-0.5-1.9-0.8c-0.5-0.5-1-0.8-1.3-1.5c-0.3-0.6-0.5-1.3-0.5-2.1c0-0.8,0.2-1.6,0.5-2.1
		s0.8-1.1,1.4-1.4c0.5-0.3,1.2-0.6,1.9-0.8c0.8-0.1,1.4-0.2,2.1-0.2c0.5,0,1.1,0,1.7,0.1L296.5,243.9L296.5,243.9L296.5,243.9z
		 M296.5,246.6c-0.2,0-0.5-0.1-0.8-0.1c-0.2,0-0.5,0-0.6,0c-0.8,0-1.6,0.1-2,0.5c-0.5,0.3-0.8,0.8-0.8,1.5c0,0.5,0.1,0.8,0.3,1.1
		c0.2,0.2,0.5,0.5,0.8,0.5s0.5,0.2,0.8,0.2c0.3,0,0.5,0,0.8,0s0.5,0,0.8-0.1c0.3,0,0.5-0.1,0.8-0.1v-3.4L296.5,246.6L296.5,246.6z"
		/>
	<path class="st3" d="M303.5,239.2c0.3-0.1,0.5-0.1,0.8-0.1s0.5,0,0.8,0c0.3,0,0.5,0,0.8,0.1c0.2,0,0.5,0.1,0.8,0.1
		c0.1,0.1,0.1,0.2,0.1,0.5c0,0.2,0.1,0.3,0.1,0.5s0.1,0.5,0.1,0.5c0,0.2,0,0.3,0.1,0.5c0.5-0.5,0.8-1.1,1.5-1.5
		c0.5-0.5,1.3-0.6,2.1-0.6c0.2,0,0.5,0,0.6,0c0.2,0,0.5,0,0.5,0.1c0,0.2,0.1,0.5,0.1,0.6c0,0.2,0,0.5,0,0.8s0,0.6,0,1
		c0,0.3-0.1,0.8-0.1,1.1c-0.2,0-0.5-0.1-0.6-0.1c-0.2,0-0.5,0-0.5,0c-0.3,0-0.6,0-1.1,0.1c-0.5,0.1-0.8,0.2-1.1,0.5
		c-0.3,0.3-0.6,0.6-0.8,1.2c-0.2,0.5-0.3,1.3-0.3,2.3v6.6c-0.3,0.1-0.6,0.1-1,0.1c-0.3,0-0.6,0-1,0c-0.3,0-0.6,0-1,0
		c-0.3,0-0.6-0.1-1-0.1L303.5,239.2L303.5,239.2z"/>
	<path class="st3" d="M315,242.1h-1.8c-0.1-0.2-0.1-0.5-0.1-0.8c0-0.2,0-0.5,0-0.8c0-0.5,0.1-1,0.2-1.4h5.6V253
		c-0.6,0.1-1.3,0.2-1.9,0.2s-1.2-0.1-1.8-0.2v-10.9H315z M314.5,236.8c-0.1-0.6-0.2-1.2-0.2-1.8c0-0.5,0.1-1.2,0.2-1.8
		c0.3-0.1,0.6-0.1,1-0.1c0.3,0,0.6,0,1,0c0.3,0,0.6,0,1,0c0.3,0,0.6,0.1,1,0.1c0.1,0.3,0.1,0.6,0.1,0.8c0,0.3,0,0.6,0,0.8
		c0,0.3,0,0.5,0,0.8s-0.1,0.6-0.1,1c-0.3,0.1-0.6,0.1-1,0.1c-0.3,0-0.6,0-1,0c-0.3,0-0.6,0-1,0C315.1,237,314.8,237,314.5,236.8z"/>
	<path class="st3" d="M329.3,243.9c0-0.5-0.1-0.8-0.2-1.1c-0.1-0.3-0.3-0.5-0.6-0.6c-0.2-0.1-0.5-0.2-1-0.3
		c-0.5-0.1-0.8-0.1-1.2-0.1c-1,0-2,0.2-3.1,0.5c-0.2-0.5-0.5-0.8-0.5-1.3c-0.1-0.5-0.2-0.8-0.2-1.5c0.8-0.3,1.6-0.5,2.3-0.6
		c0.8-0.1,1.5-0.2,2.3-0.2c1.8,0,3.3,0.5,4.4,1.4c1.1,0.8,1.6,2.3,1.6,4.3v8c-0.6,0.2-1.4,0.5-2.3,0.5c-0.8,0.2-1.9,0.3-3,0.3
		c-1,0-1.7-0.1-2.5-0.2c-0.8-0.2-1.4-0.5-1.9-0.8c-0.5-0.5-1-0.8-1.3-1.5c-0.3-0.6-0.5-1.3-0.5-2.1c0-0.8,0.2-1.6,0.5-2.1
		c0.3-0.5,0.8-1.1,1.4-1.4c0.5-0.3,1.2-0.6,1.9-0.8c0.8-0.1,1.4-0.2,2.1-0.2c0.5,0,1.1,0,1.7,0.1L329.3,243.9L329.3,243.9
		L329.3,243.9z M329.3,246.6c-0.2,0-0.5-0.1-0.8-0.1c-0.2,0-0.5,0-0.6,0c-0.8,0-1.6,0.1-2,0.5c-0.5,0.3-0.8,0.8-0.8,1.5
		c0,0.5,0.1,0.8,0.3,1.1c0.2,0.2,0.5,0.5,0.8,0.5c0.3,0.1,0.5,0.2,0.8,0.2s0.5,0,0.8,0s0.5,0,0.8-0.1c0.3,0,0.5-0.1,0.8-0.1v-3.4
		L329.3,246.6L329.3,246.6z"/>
	<path class="st3" d="M336.3,233.4c0.6-0.1,1.3-0.2,1.9-0.2c0.6,0,1.3,0.1,1.9,0.2v13.9c0,0.5,0,1,0.1,1.4c0.1,0.3,0.2,0.6,0.3,0.8
		c0.1,0.2,0.3,0.3,0.5,0.5c0.2,0.1,0.5,0.1,0.8,0.1c0.1,0,0.3,0,0.5,0c0.2,0,0.3,0,0.5-0.1c0.2,0.8,0.3,1.5,0.3,2.1
		c0,0.1,0,0.3,0,0.5c0,0.1,0,0.2-0.1,0.5c-0.3,0.1-0.6,0.1-1.1,0.2c-0.5,0-0.8,0.1-1.1,0.1c-1.4,0-2.5-0.5-3.3-1.2
		c-0.8-0.8-1.3-2-1.3-3.7L336.3,233.4L336.3,233.4z"/>
</g>
<g>
	<path class="st2" d="M281.2,188.9v-2.3l2.9-2.8c6.9-6.6,10-10,10-14.2c0-2.8-1.3-5.4-5.4-5.4c-2.5,0-4.4,1.3-5.7,2.3l-1.2-2.6
		c1.9-1.6,4.6-2.8,7.7-2.8c5.9,0,8.3,3.9,8.3,7.9c0,5-3.6,9-9.3,14.5l-2.1,2v0.1h12.1v3h-17.3V188.9z"/>
</g>
</svg>
