<?xml version="1.0" encoding="utf-8"?>
<!-- Generator: Adobe Illustrator 23.0.0, SVG Export Plug-In . SVG Version: 6.00 Build 0)  -->
<svg version="1.1" id="Capa_1" xmlns="http://www.w3.org/2000/svg" xmlns:xlink="http://www.w3.org/1999/xlink" x="0px" y="0px"
	 viewBox="0 0 905.5 434.8" style="enable-background:new 0 0 905.5 434.8;" xml:space="preserve">
<style type="text/css">
	.st0{opacity:0.5;fill:#A5B8C4;}
	.st1{fill:#61C1A2;}
	.st2{fill:#294955;}
	.st3{fill:#424242;}
	.st4{clip-path:url(#SVGID_2_);}
	.st5{fill:#00ADC2;}
	.st6{fill:#FFFFFF;}
	.st7{fill:#FFB300;}
	.st8{fill:url(#SVGID_3_);}
	.st9{fill:url(#SVGID_4_);}
	.st10{fill:url(#SVGID_5_);}
	.st11{opacity:0.36;fill:#006D6D;}
	.st12{fill:url(#SVGID_6_);}
	.st13{fill:url(#SVGID_7_);}
	.st14{fill:url(#SVGID_8_);}
	.st15{fill:url(#SVGID_9_);}
	.st16{fill:url(#SVGID_10_);}
	.st17{fill:url(#SVGID_11_);}
	.st18{opacity:0.36;fill:#006663;}
	.st19{fill:url(#SVGID_12_);}
	.st20{fill:url(#SVGID_13_);}
	.st21{opacity:0.8;fill:url(#SVGID_14_);}
	.st22{fill:url(#SVGID_15_);}
	.st23{fill:#FFF8C2;}
	.st24{filter:url(#Adobe_OpacityMaskFilter);}
	.st25{filter:url(#Adobe_OpacityMaskFilter_1_);}
	.st26{mask:url(#SVGID_16_);fill:url(#SVGID_17_);}
	.st27{opacity:0.35;fill:url(#SVGID_18_);}
	.st28{filter:url(#Adobe_OpacityMaskFilter_2_);}
	.st29{filter:url(#Adobe_OpacityMaskFilter_3_);}
	.st30{mask:url(#SVGID_19_);fill:url(#SVGID_20_);}
	.st31{opacity:0.35;fill:url(#SVGID_21_);}
	.st32{fill:url(#SVGID_22_);}
	.st33{fill:url(#SVGID_23_);}
	.st34{fill:url(#SVGID_24_);}
	.st35{fill:url(#SVGID_25_);}
	.st36{fill:url(#SVGID_26_);}
	.st37{fill:url(#SVGID_27_);}
	.st38{fill:url(#SVGID_28_);}
	.st39{fill:url(#SVGID_29_);}
	.st40{fill:url(#SVGID_30_);}
	.st41{fill:url(#SVGID_31_);}
	.st42{fill:url(#SVGID_32_);}
	.st43{opacity:0.8;fill:url(#SVGID_33_);}
	.st44{fill:url(#SVGID_34_);}
	.st45{filter:url(#Adobe_OpacityMaskFilter_4_);}
	.st46{filter:url(#Adobe_OpacityMaskFilter_5_);}
	.st47{mask:url(#SVGID_35_);fill:url(#SVGID_36_);}
	.st48{opacity:0.35;fill:url(#SVGID_37_);}
	.st49{filter:url(#Adobe_OpacityMaskFilter_6_);}
	.st50{filter:url(#Adobe_OpacityMaskFilter_7_);}
	.st51{mask:url(#SVGID_38_);fill:url(#SVGID_39_);}
	.st52{opacity:0.35;fill:url(#SVGID_40_);}
	.st53{clip-path:url(#SVGID_42_);}
	.st54{fill:#ADB403;}
	.st55{fill:#FFCA00;}
	.st56{fill:#FF5012;}
	.st57{fill:none;stroke:#1D1D16;stroke-width:2;stroke-miterlimit:10;}
	.st58{fill:#010101;}
	.st59{fill-rule:evenodd;clip-rule:evenodd;fill:#010101;}
</style>
<g>
	<path class="st3" d="M331.5,139.3c-14.1,0-25.6-11.4-25.6-25.6c0-7.6,3.3-14.5,8.6-19.1c-2.8-0.5-5.7-0.8-8.6-0.8
		c-25.1,0-45.5,20.4-45.5,45.5c0,25.1,20.4,45.6,45.5,45.6c25.1,0,45.5-20.4,45.5-45.6c0-2.9-0.3-5.8-0.8-8.6
		C345.9,136,339.1,139.3,331.5,139.3z"/>
	<path class="st1" d="M184,139.4c8.3-15.9,33.7-57.5,79.5-74.7c-25.9,14.8-43.5,42.7-43.5,74.6c0,14.2,3.5,27.6,9.6,39.4
		c5.7-3.1,11.4-6.5,17.1-10.1c-4.4-8.8-6.9-18.8-6.9-29.3c0-36.4,29.6-66.1,66.1-66.1c11.6,0,22.5,3,32,8.3
		c3.8-5.5,7.4-11,10.7-16.6c-0.3-0.2-0.6-0.4-0.9-0.5c0.3,0.1,0.7,0.3,1,0.4c5.8-9.7,11-19.7,15.4-29.7
		C347.2,28.3,327.9,24,305.9,24c-108.5,0-153.7,104.5-155.5,108.9l-2.7,6.4l2.7,6.4c0.9,2.1,11.8,27.3,34.8,52.9
		c11-3.8,21.9-8.4,32.7-13.7C200,167.8,189,149,184,139.4z"/>
	<path class="st2" d="M461.5,145.7l2.7-6.4l-2.7-6.4c-1.8-4.4-45.1-104.5-148.7-108.8c-4.8,15.6-8.1,32.1-9.8,49.2c1,0,2-0.1,3-0.1
		c36.5,0,66.1,29.6,66.1,66.1c0,31.6-22.3,58.1-52,64.6c6.1,16.5,13.4,32.2,21.9,46.7C424.6,231.2,459.8,149.7,461.5,145.7z
		 M347.8,214.3c26.2-14.7,44-42.8,44-74.9c0-32.2-17.8-60.2-44-74.9c46.4,16.9,71.8,58.8,80.1,74.9
		C419.5,155.5,394.2,197.3,347.8,214.3z"/>
</g>
<g>
	<path class="st1" d="M126.6,291.5v21.3h-7.5V259h17.7c5,0,9,1.5,11.8,4.5c2.9,3,4.3,6.9,4.3,11.8c0,4.9-1.4,8.8-4.3,11.8
		c-2.9,3-6.8,4.5-11.8,4.5H126.6z M126.6,285.9h10.2c2.8,0,5-1,6.4-3c1.5-2,2.2-4.5,2.2-7.5c0-3.1-0.7-5.6-2.2-7.6
		c-1.4-2-3.6-3-6.5-3h-10.2V285.9z"/>
	<path class="st1" d="M177.2,279.2l-3.5-0.2c-1.6,0-2.8,0.5-3.9,1.4c-1,0.9-1.8,2.3-2.3,4v28.5H160v-40h6.8l0.6,6
		c0.8-2.1,1.9-3.8,3.3-5c1.4-1.2,2.9-1.8,4.7-1.8c0.5,0,1,0,1.5,0.1c0.5,0.1,0.9,0.2,1.2,0.3L177.2,279.2z"/>
	<path class="st1" d="M181.2,290.3c0-5.3,1.4-9.7,4.2-13.1c2.8-3.4,6.6-5.1,11.4-5.1c4.8,0,8.6,1.7,11.4,5.1
		c2.8,3.4,4.2,7.8,4.2,13.1v5.1c0,5.3-1.4,9.7-4.2,13.1c-2.8,3.4-6.6,5.1-11.4,5.1c-4.9,0-8.7-1.7-11.4-5.1
		c-2.8-3.4-4.2-7.8-4.2-13.1V290.3z M188.7,295.4c0,3.7,0.7,6.7,2,9c1.3,2.3,3.4,3.5,6.1,3.5c2.7,0,4.7-1.2,6-3.5c1.3-2.3,2-5.3,2-9
		v-5.1c0-3.6-0.7-6.6-2-8.9c-1.3-2.4-3.4-3.5-6-3.5c-2.7,0-4.7,1.2-6.1,3.5c-1.3,2.3-2,5.3-2,9V295.4z"/>
	<path class="st1" d="M238.1,302.8c0-1.6-0.5-2.9-1.5-3.9c-1-1.1-3-2.2-5.8-3.5c-4.1-1.6-7.2-3.3-9.1-5.1c-2-1.8-3-4.2-3-7
		c0-3.1,1.2-5.7,3.6-7.9s5.6-3.2,9.6-3.2c4.1,0,7.4,1.2,9.8,3.5c2.4,2.3,3.6,5.2,3.5,8.7l-0.1,0.2h-7.2c0-1.9-0.5-3.5-1.6-4.9
		c-1.1-1.4-2.6-2.1-4.5-2.1c-1.9,0-3.3,0.5-4.4,1.6c-1,1.1-1.6,2.3-1.6,3.7c0,1.5,0.4,2.7,1.3,3.6c0.9,0.9,2.8,2,5.8,3.5
		c4.2,1.5,7.3,3.2,9.3,5.1s3,4.4,3,7.3c0,3.3-1.3,6-3.8,8.1c-2.5,2.1-5.8,3.1-9.9,3.1c-4.4,0-7.9-1.3-10.4-3.8
		c-2.5-2.5-3.7-5.4-3.6-8.8l0.1-0.2h7c0.1,2.6,0.8,4.5,2.1,5.6c1.3,1.1,3,1.7,5,1.7c1.9,0,3.5-0.5,4.6-1.5
		C237.5,305.7,238.1,304.4,238.1,302.8z"/>
	<path class="st1" d="M281.9,296.2c0,5.3-1.2,9.5-3.5,12.7c-2.3,3.2-5.5,4.8-9.6,4.8c-1.9,0-3.7-0.4-5.1-1.1
		c-1.5-0.8-2.7-1.9-3.8-3.4v19.1h-7.5v-55.4h6.7l0.5,4.6c1.1-1.7,2.4-3,3.9-3.9c1.5-0.9,3.3-1.4,5.3-1.4c4.2,0,7.4,1.8,9.7,5.3
		c2.3,3.5,3.5,8.1,3.5,13.9V296.2z M274.4,291.2c0-3.9-0.6-7.1-1.9-9.6c-1.3-2.5-3.2-3.7-5.8-3.7c-1.6,0-3,0.5-4.1,1.4
		c-1.1,0.9-2,2.2-2.7,3.7v20.2c0.7,1.5,1.6,2.7,2.7,3.5c1.1,0.8,2.5,1.2,4.2,1.2c2.6,0,4.5-1.1,5.8-3.2c1.3-2.2,1.9-5,1.9-8.5V291.2
		z"/>
	<path class="st1" d="M303.6,313.6c-4.8,0-8.6-1.7-11.4-5c-2.9-3.3-4.3-7.5-4.3-12.7v-5.8c0-5.2,1.4-9.5,4.2-12.9
		c2.8-3.4,6.4-5.1,10.7-5.1c4.5,0,8,1.5,10.5,4.6c2.4,3.1,3.7,7.3,3.7,12.5v5.2h-21.5v1.6c0,3.5,0.8,6.3,2.3,8.6s3.7,3.4,6.5,3.4
		c2.1,0,3.8-0.3,5.3-1c1.5-0.7,2.9-1.6,4.2-2.9l2.4,4.7c-1.3,1.4-2.9,2.6-5.1,3.5C308.8,313.2,306.4,313.6,303.6,313.6z
		 M302.8,277.8c-2.2,0-3.9,1.1-5.2,3.2c-1.3,2.1-2,4.8-2.2,8.1h14.1v-1.5c0-2.9-0.6-5.2-1.7-7C306.6,278.7,304.9,277.8,302.8,277.8z
		"/>
	<path class="st1" d="M337.4,307.9c1.9,0,3.5-0.7,4.7-2.2c1.3-1.4,1.9-3.4,1.9-5.8h6.7l0.1,0.2c0.1,3.8-1.2,7-3.8,9.5
		c-2.6,2.6-5.9,3.9-9.6,3.9c-5,0-8.8-1.7-11.4-5.1c-2.6-3.4-4-7.7-4-12.9v-5.5c0-5.2,1.3-9.5,4-12.9c2.6-3.4,6.5-5.1,11.4-5.1
		c4,0,7.3,1.3,9.9,4c2.5,2.7,3.8,6.2,3.7,10.5l-0.1,0.2h-6.7c0-2.7-0.6-4.9-1.8-6.5c-1.2-1.7-2.8-2.5-4.9-2.5
		c-2.9,0-4.9,1.2-6.1,3.5s-1.8,5.3-1.8,8.8v5.5c0,3.6,0.6,6.6,1.8,8.9S334.5,307.9,337.4,307.9z"/>
	<path class="st1" d="M367.1,262.9v9.9h6.2v5.4h-6.2V302c0,2.1,0.3,3.5,0.9,4.4s1.4,1.3,2.4,1.3c0.6,0,1.1,0,1.6-0.1
		c0.5-0.1,1.1-0.2,1.8-0.3l0.8,5.2c-0.8,0.3-1.8,0.6-2.8,0.8c-1,0.2-2.1,0.3-3.2,0.3c-2.8,0-5-0.9-6.6-2.8c-1.6-1.9-2.3-4.8-2.3-8.8
		v-23.8h-5.2v-5.4h5.2v-9.9H367.1z"/>
	<path class="st1" d="M388.8,262.3h-7.5v-7.2h7.5V262.3z M388.8,312.8h-7.5v-40h7.5V312.8z"/>
	<path class="st1" d="M409.5,300.8l0.6,3.1h0.2l0.6-3.1l6.8-28h7.7l-12,40h-6.6l-12.1-40h7.8L409.5,300.8z"/>
	<path class="st1" d="M450.7,312.8c-0.3-0.9-0.5-1.8-0.7-2.7s-0.3-1.8-0.3-2.6c-1.1,1.8-2.5,3.3-4.2,4.4c-1.7,1.1-3.5,1.7-5.6,1.7
		c-3.4,0-6-1.1-7.9-3.2s-2.9-5-2.9-8.6c0-3.8,1.3-6.8,3.9-9c2.6-2.2,6.3-3.3,11-3.3h5.6v-4.1c0-2.4-0.5-4.3-1.6-5.7
		c-1.1-1.4-2.6-2-4.6-2c-1.8,0-3.2,0.6-4.3,1.8c-1.1,1.2-1.6,2.8-1.6,4.6l-7.1,0l-0.1-0.2c-0.1-3.1,1.1-5.8,3.7-8.2
		c2.6-2.4,5.9-3.6,10-3.6c3.9,0,7.1,1.2,9.6,3.5c2.5,2.3,3.7,5.6,3.7,10v18.6c0,1.6,0.1,3,0.3,4.5s0.5,2.9,0.9,4.2H450.7z
		 M441.6,307.9c1.7,0,3.3-0.5,4.8-1.6c1.4-1,2.5-2.3,3.2-3.9v-8.2h-5.7c-2.3,0-4.1,0.7-5.3,2.2c-1.3,1.5-1.9,3.3-1.9,5.4
		c0,1.8,0.4,3.3,1.3,4.4C438.8,307.4,440,307.9,441.6,307.9z"/>
</g>
<g>
	<path class="st2" d="M169.3,352.6c-1.1-0.4-2.1-0.9-2.9-1.4c-0.9-0.5-1.6-1.1-2.2-1.8c-0.6-0.7-1.1-1.5-1.4-2.5
		c-0.3-1-0.5-2.1-0.5-3.5c0-1.6,0.3-3.1,0.8-4.3c0.6-1.3,1.4-2.3,2.4-3.2c1-0.8,2.3-1.5,3.7-1.9c1.4-0.4,3.1-0.6,4.9-0.6
		c1.6,0,3.2,0.1,4.6,0.4c1.4,0.3,2.9,0.7,4.5,1.3c-0.2,1.9-0.7,3.7-1.5,5.5c-0.5-0.2-1-0.4-1.5-0.6s-1-0.4-1.6-0.5
		c-0.6-0.1-1.2-0.2-1.9-0.3c-0.7-0.1-1.5-0.1-2.4-0.1c-0.5,0-1.1,0-1.7,0.1c-0.6,0.1-1.1,0.3-1.5,0.5c-0.4,0.3-0.8,0.6-1.1,1.1
		c-0.3,0.5-0.4,1.1-0.4,1.9c0,0.6,0.1,1.2,0.3,1.6c0.2,0.4,0.5,0.8,0.9,1.1c0.4,0.3,0.8,0.6,1.3,0.8c0.5,0.2,1,0.4,1.4,0.6l2.9,1.1
		c1.2,0.5,2.3,1,3.3,1.5c1,0.5,1.8,1.1,2.5,1.9c0.7,0.8,1.2,1.7,1.6,2.7c0.4,1.1,0.6,2.4,0.6,4c0,1.6-0.3,3.1-0.9,4.5
		c-0.6,1.3-1.5,2.5-2.6,3.5c-1.1,1-2.5,1.7-4.2,2.3s-3.6,0.8-5.7,0.8c-1.1,0-2,0-2.8-0.1c-0.8-0.1-1.6-0.2-2.4-0.3
		c-0.8-0.1-1.5-0.3-2.2-0.6c-0.7-0.2-1.5-0.5-2.3-0.8c0.1-0.9,0.3-1.9,0.5-2.9c0.3-1,0.6-2,0.9-3.1c1.3,0.5,2.6,1,3.8,1.2
		c1.2,0.3,2.5,0.4,3.8,0.4c2,0,3.6-0.4,4.8-1.1c1.2-0.8,1.7-1.9,1.7-3.4c0-0.8-0.1-1.4-0.4-1.9c-0.3-0.5-0.6-0.9-1.1-1.3
		c-0.4-0.4-0.9-0.6-1.5-0.9c-0.5-0.2-1.1-0.5-1.7-0.7L169.3,352.6z"/>
	<path class="st2" d="M190.8,348.9h-3.2c-0.1-0.4-0.2-0.9-0.2-1.3c0-0.5-0.1-0.9-0.1-1.3c0-0.9,0.1-1.7,0.3-2.5h9.9v24.9
		c-1.2,0.2-2.3,0.3-3.4,0.3c-1.1,0-2.2-0.1-3.3-0.3V348.9z M189.8,339.5c-0.2-1.1-0.3-2.2-0.3-3.2c0-1,0.1-2.1,0.3-3.2
		c0.5-0.1,1.1-0.2,1.8-0.2c0.6,0,1.2-0.1,1.7-0.1c0.5,0,1.1,0,1.8,0.1c0.6,0,1.2,0.1,1.8,0.2c0.1,0.5,0.2,1.1,0.2,1.6
		c0,0.5,0,1.1,0,1.6c0,0.5,0,1,0,1.6c0,0.5-0.1,1.1-0.2,1.6c-0.5,0.1-1.1,0.2-1.8,0.2c-0.6,0-1.2,0-1.8,0c-0.5,0-1.1,0-1.7,0
		C190.9,339.7,190.3,339.6,189.8,339.5z"/>
	<path class="st2" d="M204.2,343.7c0.4-0.1,0.9-0.2,1.3-0.2c0.4,0,0.9-0.1,1.5-0.1s1,0,1.4,0.1s0.8,0.1,1.3,0.2
		c0.1,0.2,0.2,0.4,0.3,0.7c0.1,0.3,0.2,0.6,0.2,1c0.1,0.3,0.1,0.7,0.2,1c0,0.3,0.1,0.6,0.1,0.8c0.3-0.5,0.6-1,1-1.4
		c0.4-0.5,0.9-0.9,1.5-1.3s1.2-0.7,1.9-0.9c0.7-0.2,1.5-0.4,2.4-0.4c3.9,0,6.4,1.5,7.5,4.4c0.6-1.2,1.5-2.2,2.7-3.1
		c1.2-0.9,2.7-1.3,4.4-1.3c2.8,0,4.9,0.8,6.2,2.3c1.3,1.6,2,4,2,7.3v15.8c-1.2,0.2-2.3,0.3-3.4,0.3s-2.3-0.1-3.4-0.3v-14
		c0-1.7-0.2-3.1-0.6-4c-0.4-0.9-1.3-1.4-2.6-1.4c-0.5,0-1.1,0.1-1.6,0.2c-0.5,0.2-1,0.5-1.4,0.9s-0.8,1-1.1,1.8
		c-0.3,0.8-0.4,1.8-0.4,3.1v13.4c-1.2,0.2-2.3,0.3-3.4,0.3s-2.3-0.1-3.4-0.3v-14c0-1.7-0.2-3.1-0.6-4c-0.4-0.9-1.3-1.4-2.6-1.4
		c-0.5,0-1.1,0.1-1.6,0.2c-0.5,0.2-1,0.5-1.5,0.9c-0.4,0.5-0.8,1.1-1,1.9c-0.3,0.8-0.4,1.9-0.4,3.3v13c-1.2,0.2-2.3,0.3-3.4,0.3
		s-2.3-0.1-3.4-0.3V343.7z"/>
	<path class="st2" d="M246,343.7c1.2-0.2,2.3-0.3,3.4-0.3c1.1,0,2.3,0.1,3.4,0.3v13.2c0,1.3,0.1,2.4,0.3,3.2c0.2,0.8,0.5,1.5,1,2
		c0.4,0.5,1,0.9,1.6,1.1c0.6,0.2,1.4,0.3,2.3,0.3c1.2,0,2.2-0.1,3-0.3v-19.5c1.2-0.2,2.3-0.3,3.4-0.3c1.1,0,2.3,0.1,3.4,0.3v23.9
		c-1,0.4-2.4,0.7-4.1,1c-1.7,0.3-3.4,0.5-5.3,0.5c-1.6,0-3.2-0.1-4.7-0.4s-2.8-0.8-4-1.6c-1.1-0.8-2-2.1-2.7-3.7
		c-0.7-1.6-1-3.7-1-6.4V343.7z"/>
	<path class="st2" d="M273.8,333.4c1.2-0.2,2.3-0.3,3.4-0.3c1.1,0,2.2,0.1,3.4,0.3v25.2c0,1,0.1,1.8,0.2,2.4
		c0.1,0.6,0.3,1.1,0.5,1.4s0.6,0.6,0.9,0.7c0.4,0.1,0.9,0.2,1.4,0.2c0.3,0,0.5,0,0.8,0s0.6-0.1,0.9-0.1c0.4,1.3,0.5,2.6,0.5,3.8
		c0,0.3,0,0.5,0,0.7c0,0.2,0,0.4-0.1,0.7c-0.5,0.2-1.1,0.3-1.9,0.3c-0.7,0.1-1.4,0.1-2,0.1c-2.5,0-4.4-0.7-5.9-2
		c-1.5-1.4-2.2-3.6-2.2-6.7V333.4z"/>
	<path class="st2" d="M302,352.2c0-0.8-0.1-1.4-0.4-1.9c-0.3-0.5-0.6-0.9-1.1-1.1c-0.4-0.3-1-0.5-1.7-0.6c-0.7-0.1-1.4-0.1-2.2-0.1
		c-1.7,0-3.6,0.3-5.5,1c-0.4-0.8-0.8-1.6-1-2.4c-0.2-0.7-0.3-1.6-0.3-2.6c1.4-0.5,2.8-0.8,4.2-1.1c1.4-0.2,2.7-0.3,3.9-0.3
		c3.3,0,5.9,0.8,7.8,2.4c1.9,1.6,2.8,4.2,2.8,7.7v14.4c-1.1,0.4-2.5,0.7-4.1,1c-1.6,0.3-3.4,0.5-5.4,0.5c-1.6,0-3.1-0.1-4.5-0.4
		c-1.4-0.3-2.5-0.8-3.5-1.4c-1-0.7-1.7-1.5-2.3-2.6c-0.5-1.1-0.8-2.4-0.8-3.9s0.3-2.8,1-3.9c0.7-1,1.5-1.9,2.5-2.5
		c1-0.6,2.2-1.1,3.5-1.3s2.6-0.4,3.8-0.4c0.9,0,2,0,3.1,0.1V352.2z M302,357.2c-0.4-0.1-0.8-0.1-1.3-0.2c-0.4,0-0.8-0.1-1.2-0.1
		c-1.6,0-2.8,0.3-3.7,0.8c-0.9,0.6-1.4,1.5-1.4,2.7c0,0.8,0.2,1.5,0.5,1.9c0.4,0.4,0.8,0.8,1.3,1c0.5,0.2,1,0.3,1.6,0.4
		c0.6,0,1,0.1,1.5,0.1c0.5,0,1,0,1.4-0.1c0.5-0.1,0.9-0.2,1.3-0.2V357.2z"/>
	<path class="st2" d="M331.3,362.7c0.4,0.6,0.7,1.4,1,2.2c0.3,0.8,0.4,1.9,0.4,3c-1.3,0.5-2.5,0.8-3.6,1c-1.1,0.1-2.3,0.2-3.5,0.2
		c-2.1,0-3.9-0.3-5.4-1c-1.5-0.7-2.8-1.6-3.8-2.7c-1-1.2-1.8-2.5-2.3-4.1c-0.5-1.6-0.8-3.3-0.8-5.2c0-1.8,0.2-3.5,0.7-5.1
		c0.5-1.6,1.3-2.9,2.3-4.1c1-1.2,2.3-2.1,3.8-2.8c1.5-0.7,3.3-1,5.2-1c0.7,0,1.4,0,1.9,0s1.2,0.1,1.7,0.2c0.5,0.1,1.1,0.2,1.6,0.4
		c0.5,0.2,1.2,0.4,1.8,0.6c0,0.7-0.1,1.6-0.3,2.5c-0.2,0.9-0.5,1.8-0.9,2.6c-1-0.3-1.8-0.5-2.5-0.6c-0.7-0.1-1.5-0.2-2.5-0.2
		c-2,0-3.5,0.6-4.5,1.9c-1,1.3-1.5,3.1-1.5,5.6c0,2.6,0.5,4.5,1.6,5.7c1.1,1.2,2.6,1.8,4.4,1.8c0.5,0,0.9,0,1.3,0
		c0.4,0,0.8-0.1,1.2-0.1c0.4-0.1,0.8-0.2,1.2-0.3C330.3,363.1,330.8,362.9,331.3,362.7z"/>
	<path class="st2" d="M338.8,348.9h-3.2c-0.1-0.4-0.2-0.9-0.2-1.3c0-0.5-0.1-0.9-0.1-1.3c0-0.9,0.1-1.7,0.3-2.5h9.9v24.9
		c-1.2,0.2-2.3,0.3-3.4,0.3c-1.1,0-2.2-0.1-3.3-0.3V348.9z M337.8,339.5c-0.2-1.1-0.3-2.2-0.3-3.2c0-1,0.1-2.1,0.3-3.2
		c0.5-0.1,1.1-0.2,1.8-0.2c0.6,0,1.2-0.1,1.7-0.1c0.5,0,1.1,0,1.8,0.1c0.6,0,1.2,0.1,1.8,0.2c0.1,0.5,0.2,1.1,0.2,1.6
		c0,0.5,0,1.1,0,1.6c0,0.5,0,1,0,1.6c0,0.5-0.1,1.1-0.2,1.6c-0.5,0.1-1.1,0.2-1.8,0.2c-0.6,0-1.2,0-1.8,0c-0.5,0-1.1,0-1.7,0
		C339,339.7,338.4,339.6,337.8,339.5z"/>
	<path class="st2" d="M362.8,369.2c-2,0-3.8-0.3-5.3-1c-1.5-0.7-2.7-1.6-3.7-2.7c-1-1.2-1.7-2.5-2.2-4.1s-0.7-3.3-0.7-5.1
		s0.2-3.5,0.7-5.1c0.5-1.6,1.2-3,2.2-4.2c1-1.2,2.2-2.1,3.7-2.8c1.5-0.7,3.2-1,5.3-1s3.8,0.3,5.3,1c1.5,0.7,2.8,1.6,3.8,2.8
		c1,1.2,1.7,2.6,2.2,4.2c0.5,1.6,0.7,3.3,0.7,5.1s-0.2,3.5-0.7,5.1s-1.2,2.9-2.2,4.1c-1,1.2-2.2,2.1-3.8,2.7
		C366.6,368.8,364.8,369.2,362.8,369.2z M362.8,364c1.8,0,3.1-0.7,3.9-2c0.8-1.3,1.2-3.2,1.2-5.7c0-2.5-0.4-4.4-1.2-5.7
		c-0.8-1.3-2.1-2-3.9-2c-1.8,0-3,0.7-3.8,2c-0.8,1.3-1.2,3.2-1.2,5.7c0,2.5,0.4,4.4,1.2,5.7C359.7,363.3,361,364,362.8,364z
		 M363.3,334c1.3-0.2,2.7-0.3,4.3-0.3c0.8,0,1.5,0,2.1,0.1c0.6,0,1.2,0.1,1.9,0.2l-7.3,5.9c-0.4,0.1-0.9,0.1-1.5,0.2
		c-0.6,0.1-1.2,0.1-1.8,0.1c-1,0-2.1-0.1-3.1-0.3L363.3,334z"/>
	<path class="st2" d="M380.1,343.7c0.4-0.1,0.9-0.2,1.3-0.2c0.4,0,0.9-0.1,1.5-0.1s1,0,1.4,0.1s0.8,0.1,1.3,0.2
		c0.1,0.2,0.2,0.4,0.3,0.7c0.1,0.3,0.2,0.6,0.2,1c0.1,0.3,0.1,0.7,0.2,1c0,0.3,0.1,0.6,0.1,0.8c0.3-0.5,0.7-1,1.2-1.4
		c0.4-0.5,1-0.9,1.6-1.3c0.6-0.4,1.3-0.7,2-0.9s1.6-0.4,2.5-0.4c2.8,0,4.9,0.8,6.4,2.3c1.4,1.5,2.1,4,2.1,7.3v15.9
		c-1.2,0.2-2.3,0.3-3.4,0.3s-2.3-0.1-3.4-0.3v-14c0-1.7-0.3-3.1-0.8-4c-0.5-0.9-1.5-1.4-2.8-1.4c-0.5,0-1.1,0.1-1.7,0.2
		c-0.6,0.2-1.1,0.5-1.6,0.9c-0.5,0.5-0.8,1.1-1.1,1.9c-0.3,0.8-0.4,1.9-0.4,3.3v13c-1.2,0.2-2.3,0.3-3.4,0.3s-2.3-0.1-3.4-0.3V343.7
		z"/>
	<path class="st2" d="M416.1,343.7c0.7-0.2,1.4-0.2,1.9-0.3c0.6,0,1.1,0,1.6,0c0.6,0,1.3,0,2,0c0.7,0,1.3,0.1,1.8,0.2l5.2,21.7
		l5.9-21.7c1.1-0.2,2.1-0.3,3.3-0.3c0.5,0,1,0,1.5,0c0.5,0,1.2,0.1,2,0.3l-9.3,30.7c-0.4,1.2-0.8,2.2-1.4,3
		c-0.5,0.8-1.1,1.4-1.8,1.9c-0.7,0.4-1.4,0.8-2.3,0.9c-0.8,0.2-1.7,0.3-2.7,0.3c-0.9,0-1.7-0.1-2.4-0.2c-0.7-0.1-1.4-0.3-2.1-0.5
		c0-0.2,0-0.3,0-0.4s0-0.2,0-0.4c0-0.8,0.1-1.5,0.3-2.2c0.2-0.7,0.4-1.4,0.6-2c0.3,0.1,0.7,0.2,1.2,0.3c0.5,0.1,1,0.1,1.4,0.1
		c0.4,0,0.8,0,1.2-0.1s0.8-0.2,1.1-0.4c0.4-0.2,0.7-0.6,1-1.1c0.3-0.5,0.6-1.2,0.9-2.2l0.8-3c-0.4,0-0.7,0.1-1.2,0.1
		c-0.4,0-0.9,0-1.3,0c-0.4,0-0.7,0-1,0s-0.6,0-0.9-0.1L416.1,343.7z"/>
	<path class="st2" d="M41.4,388.7c0.4-0.1,0.9-0.2,1.3-0.2c0.4,0,0.9-0.1,1.5-0.1c0.5,0,1,0,1.4,0.1c0.4,0,0.8,0.1,1.3,0.2
		c0.1,0.2,0.2,0.4,0.3,0.7c0.1,0.3,0.2,0.6,0.2,1c0.1,0.3,0.1,0.7,0.2,1c0,0.3,0.1,0.6,0.1,0.8c0.3-0.5,0.6-1,1-1.4
		c0.4-0.5,0.9-0.9,1.5-1.3c0.6-0.4,1.2-0.7,1.9-0.9s1.5-0.4,2.4-0.4c3.9,0,6.4,1.5,7.5,4.4c0.6-1.2,1.5-2.2,2.7-3.1
		c1.2-0.9,2.7-1.3,4.4-1.3c2.8,0,4.9,0.8,6.2,2.3c1.3,1.6,2,4,2,7.3v15.8c-1.2,0.2-2.3,0.3-3.4,0.3c-1.1,0-2.3-0.1-3.4-0.3v-14
		c0-1.7-0.2-3.1-0.6-4c-0.4-0.9-1.3-1.4-2.6-1.4c-0.5,0-1.1,0.1-1.6,0.2c-0.5,0.2-1,0.5-1.4,0.9c-0.4,0.4-0.8,1-1.1,1.8
		c-0.3,0.8-0.4,1.8-0.4,3.1v13.4c-1.2,0.2-2.3,0.3-3.4,0.3c-1.1,0-2.3-0.1-3.4-0.3v-14c0-1.7-0.2-3.1-0.6-4
		c-0.4-0.9-1.3-1.4-2.6-1.4c-0.5,0-1.1,0.1-1.6,0.2c-0.5,0.2-1,0.5-1.5,0.9c-0.4,0.5-0.8,1.1-1,1.9c-0.3,0.8-0.4,1.9-0.4,3.3v13
		c-1.2,0.2-2.3,0.3-3.4,0.3c-1.1,0-2.3-0.1-3.4-0.3V388.7z"/>
	<path class="st2" d="M94.2,414.2c-2,0-3.8-0.3-5.3-1c-1.5-0.7-2.7-1.6-3.7-2.7c-1-1.2-1.7-2.5-2.2-4.1c-0.5-1.6-0.7-3.3-0.7-5.1
		s0.2-3.5,0.7-5.1c0.5-1.6,1.2-3,2.2-4.2c1-1.2,2.2-2.1,3.7-2.8c1.5-0.7,3.2-1,5.3-1s3.8,0.3,5.3,1c1.5,0.7,2.8,1.6,3.8,2.8
		c1,1.2,1.7,2.6,2.2,4.2c0.5,1.6,0.7,3.3,0.7,5.1s-0.2,3.5-0.7,5.1s-1.2,2.9-2.2,4.1c-1,1.2-2.2,2.1-3.8,2.7
		C98,413.8,96.2,414.2,94.2,414.2z M94.2,409c1.8,0,3.1-0.7,3.9-2c0.8-1.3,1.2-3.2,1.2-5.7c0-2.5-0.4-4.4-1.2-5.7
		c-0.8-1.3-2.1-2-3.9-2c-1.8,0-3,0.7-3.8,2c-0.8,1.3-1.2,3.2-1.2,5.7c0,2.5,0.4,4.4,1.2,5.7C91.2,408.3,92.4,409,94.2,409z"/>
	<path class="st2" d="M126.5,378.4c0.6-0.1,1.1-0.2,1.7-0.2c0.6,0,1.1,0,1.7,0c0.5,0,1.1,0,1.7,0c0.6,0,1.2,0.1,1.7,0.2v34.3
		c-1.5,0.4-3,0.8-4.6,1c-1.6,0.2-3.4,0.4-5.7,0.4c-1.7,0-3.3-0.2-4.9-0.7c-1.6-0.5-2.9-1.2-4.1-2.2c-1.2-1-2.1-2.3-2.8-3.9
		c-0.7-1.6-1-3.6-1-5.9c0-1.8,0.3-3.5,0.9-5.2c0.6-1.6,1.4-3,2.5-4.2c1.1-1.2,2.4-2.1,4-2.8c1.6-0.7,3.3-1,5.2-1
		c0.6,0,1.2,0,1.8,0.1s1.2,0.2,1.8,0.3V378.4z M126.5,393.9c-0.6-0.2-1.2-0.3-1.6-0.3s-0.9-0.1-1.5-0.1c-1.1,0-2,0.2-2.8,0.6
		c-0.8,0.4-1.4,1-1.9,1.7c-0.5,0.7-0.9,1.6-1.1,2.5c-0.2,1-0.4,2-0.4,3.1c0,1.3,0.2,2.4,0.5,3.3c0.3,0.9,0.8,1.6,1.3,2.2
		c0.6,0.5,1.2,0.9,2,1.2c0.8,0.2,1.6,0.4,2.5,0.4c0.5,0,1,0,1.5-0.1c0.4,0,0.9-0.2,1.5-0.3V393.9z"/>
	<path class="st2" d="M145.3,403.2c0.1,1.9,0.8,3.3,2,4.2c1.2,0.9,2.8,1.3,4.8,1.3c1.1,0,2.2-0.1,3.3-0.3c1.1-0.2,2.2-0.5,3.2-0.9
		c0.4,0.6,0.7,1.4,0.9,2.3c0.3,0.9,0.4,1.9,0.4,2.9c-2.5,1-5.3,1.4-8.5,1.4c-2.3,0-4.3-0.3-5.9-1c-1.7-0.6-3-1.5-4-2.7
		c-1-1.1-1.8-2.5-2.3-4.1c-0.5-1.6-0.7-3.3-0.7-5.1c0-1.8,0.3-3.5,0.8-5.1c0.5-1.6,1.3-3,2.3-4.2c1-1.2,2.3-2.1,3.8-2.8
		c1.5-0.7,3.2-1,5.2-1c1.7,0,3.3,0.3,4.6,0.9c1.3,0.6,2.5,1.4,3.4,2.5c0.9,1.1,1.7,2.3,2.1,3.8c0.5,1.5,0.7,3,0.7,4.7
		c0,0.6,0,1.2-0.1,1.8c0,0.6-0.1,1.1-0.2,1.4H145.3z M155,398.5c-0.1-1.5-0.5-2.8-1.3-3.7c-0.8-0.9-1.9-1.4-3.3-1.4
		c-1.6,0-2.8,0.4-3.7,1.3c-0.8,0.9-1.3,2.2-1.5,3.8H155z"/>
	<path class="st2" d="M166.7,378.4c1.2-0.2,2.3-0.3,3.4-0.3c1.1,0,2.2,0.1,3.4,0.3v25.2c0,1,0.1,1.8,0.2,2.4
		c0.1,0.6,0.3,1.1,0.5,1.4s0.6,0.6,0.9,0.7c0.4,0.1,0.9,0.2,1.4,0.2c0.3,0,0.5,0,0.8,0s0.6-0.1,0.9-0.1c0.4,1.3,0.5,2.6,0.5,3.8
		c0,0.3,0,0.5,0,0.7c0,0.2,0,0.4-0.1,0.7c-0.5,0.2-1.1,0.3-1.9,0.3c-0.7,0.1-1.4,0.1-2,0.1c-2.5,0-4.4-0.7-5.9-2
		c-1.5-1.4-2.2-3.6-2.2-6.7V378.4z"/>
	<path class="st2" d="M194.8,397.2c0-0.8-0.1-1.4-0.4-1.9c-0.3-0.5-0.6-0.9-1.1-1.1c-0.4-0.3-1-0.5-1.7-0.6
		c-0.7-0.1-1.4-0.1-2.2-0.1c-1.7,0-3.6,0.3-5.5,1c-0.4-0.8-0.8-1.6-1-2.4c-0.2-0.7-0.3-1.6-0.3-2.6c1.4-0.5,2.8-0.8,4.2-1.1
		c1.4-0.2,2.7-0.3,3.9-0.3c3.3,0,5.9,0.8,7.8,2.4c1.9,1.6,2.8,4.2,2.8,7.7v14.4c-1.1,0.4-2.5,0.7-4.1,1c-1.6,0.3-3.4,0.5-5.4,0.5
		c-1.6,0-3.1-0.1-4.5-0.4c-1.4-0.3-2.5-0.8-3.5-1.4c-1-0.7-1.7-1.5-2.3-2.6c-0.5-1.1-0.8-2.4-0.8-3.9s0.3-2.8,1-3.9
		c0.7-1,1.5-1.9,2.5-2.5c1-0.6,2.2-1.1,3.5-1.3s2.6-0.4,3.8-0.4c0.9,0,2,0,3.1,0.1V397.2z M194.8,402.2c-0.4-0.1-0.8-0.1-1.3-0.2
		c-0.4,0-0.8-0.1-1.2-0.1c-1.6,0-2.8,0.3-3.7,0.8c-0.9,0.6-1.4,1.5-1.4,2.7c0,0.8,0.2,1.5,0.5,1.9c0.4,0.4,0.8,0.8,1.3,1
		c0.5,0.2,1,0.3,1.6,0.4c0.6,0,1,0.1,1.5,0.1c0.5,0,1,0,1.4-0.1c0.5-0.1,0.9-0.2,1.3-0.2V402.2z"/>
	<path class="st2" d="M224.2,407.7c0.4,0.6,0.7,1.4,1,2.2c0.3,0.8,0.4,1.9,0.4,3c-1.3,0.5-2.5,0.8-3.6,1c-1.1,0.1-2.3,0.2-3.5,0.2
		c-2.1,0-3.9-0.3-5.4-1c-1.5-0.7-2.8-1.6-3.8-2.7c-1-1.2-1.8-2.5-2.3-4.1c-0.5-1.6-0.8-3.3-0.8-5.2c0-1.8,0.2-3.5,0.7-5.1
		c0.5-1.6,1.3-2.9,2.3-4.1c1-1.2,2.3-2.1,3.8-2.8c1.5-0.7,3.3-1,5.2-1c0.7,0,1.4,0,1.9,0s1.2,0.1,1.7,0.2c0.5,0.1,1.1,0.2,1.6,0.4
		c0.5,0.2,1.2,0.4,1.8,0.6c0,0.7-0.1,1.6-0.3,2.5c-0.2,0.9-0.5,1.8-0.9,2.6c-1-0.3-1.8-0.5-2.5-0.6c-0.7-0.1-1.5-0.2-2.5-0.2
		c-2,0-3.5,0.6-4.5,1.9c-1,1.3-1.5,3.1-1.5,5.6c0,2.6,0.5,4.5,1.6,5.7c1.1,1.2,2.6,1.8,4.4,1.8c0.5,0,0.9,0,1.3,0
		c0.4,0,0.8-0.1,1.2-0.1c0.4-0.1,0.8-0.2,1.2-0.3C223.2,408.1,223.7,407.9,224.2,407.7z"/>
	<path class="st2" d="M231.7,393.9h-3.2c-0.1-0.4-0.2-0.9-0.2-1.3c0-0.5-0.1-0.9-0.1-1.3c0-0.9,0.1-1.7,0.3-2.5h9.9v24.9
		c-1.2,0.2-2.3,0.3-3.4,0.3c-1.1,0-2.2-0.1-3.3-0.3V393.9z M230.7,384.5c-0.2-1.1-0.3-2.2-0.3-3.2c0-1,0.1-2.1,0.3-3.2
		c0.5-0.1,1.1-0.2,1.8-0.2c0.6,0,1.2-0.1,1.7-0.1c0.5,0,1.1,0,1.8,0.1c0.6,0,1.2,0.1,1.8,0.2c0.1,0.5,0.2,1.1,0.2,1.6
		c0,0.5,0,1.1,0,1.6c0,0.5,0,1,0,1.6c0,0.5-0.1,1.1-0.2,1.6c-0.5,0.1-1.1,0.2-1.8,0.2c-0.6,0-1.2,0-1.8,0c-0.5,0-1.1,0-1.7,0
		C231.9,384.7,231.3,384.6,230.7,384.5z"/>
	<path class="st2" d="M255.7,414.2c-2,0-3.8-0.3-5.3-1c-1.5-0.7-2.7-1.6-3.7-2.7c-1-1.2-1.7-2.5-2.2-4.1s-0.7-3.3-0.7-5.1
		s0.2-3.5,0.7-5.1c0.5-1.6,1.2-3,2.2-4.2c1-1.2,2.2-2.1,3.7-2.8c1.5-0.7,3.2-1,5.3-1s3.8,0.3,5.3,1c1.5,0.7,2.8,1.6,3.8,2.8
		c1,1.2,1.7,2.6,2.2,4.2c0.5,1.6,0.7,3.3,0.7,5.1s-0.2,3.5-0.7,5.1s-1.2,2.9-2.2,4.1c-1,1.2-2.2,2.1-3.8,2.7
		C259.5,413.8,257.7,414.2,255.7,414.2z M255.7,409c1.8,0,3.1-0.7,3.9-2c0.8-1.3,1.2-3.2,1.2-5.7c0-2.5-0.4-4.4-1.2-5.7
		c-0.8-1.3-2.1-2-3.9-2c-1.8,0-3,0.7-3.8,2c-0.8,1.3-1.2,3.2-1.2,5.7c0,2.5,0.4,4.4,1.2,5.7C252.6,408.3,253.9,409,255.7,409z
		 M256.2,379c1.3-0.2,2.7-0.3,4.3-0.3c0.8,0,1.5,0,2.1,0.1c0.6,0,1.2,0.1,1.9,0.2l-7.3,5.9c-0.4,0.1-0.9,0.1-1.5,0.2
		c-0.6,0.1-1.2,0.1-1.8,0.1c-1,0-2.1-0.1-3.1-0.3L256.2,379z"/>
	<path class="st2" d="M273,388.7c0.4-0.1,0.9-0.2,1.3-0.2c0.4,0,0.9-0.1,1.5-0.1s1,0,1.4,0.1s0.8,0.1,1.3,0.2
		c0.1,0.2,0.2,0.4,0.3,0.7c0.1,0.3,0.2,0.6,0.2,1c0.1,0.3,0.1,0.7,0.2,1c0,0.3,0.1,0.6,0.1,0.8c0.3-0.5,0.7-1,1.2-1.4
		c0.4-0.5,1-0.9,1.6-1.3c0.6-0.4,1.3-0.7,2-0.9s1.6-0.4,2.5-0.4c2.8,0,4.9,0.8,6.4,2.3c1.4,1.5,2.1,4,2.1,7.3v15.9
		c-1.2,0.2-2.3,0.3-3.4,0.3s-2.3-0.1-3.4-0.3v-14c0-1.7-0.3-3.1-0.8-4c-0.5-0.9-1.5-1.4-2.8-1.4c-0.5,0-1.1,0.1-1.7,0.2
		c-0.6,0.2-1.1,0.5-1.6,0.9c-0.5,0.5-0.8,1.1-1.1,1.9c-0.3,0.8-0.4,1.9-0.4,3.3v13c-1.2,0.2-2.3,0.3-3.4,0.3s-2.3-0.1-3.4-0.3V388.7
		z"/>
	<path class="st2" d="M317.3,403.2c0.1,1.9,0.8,3.3,2,4.2c1.2,0.9,2.8,1.3,4.8,1.3c1.1,0,2.2-0.1,3.3-0.3c1.1-0.2,2.2-0.5,3.2-0.9
		c0.4,0.6,0.7,1.4,0.9,2.3c0.3,0.9,0.4,1.9,0.4,2.9c-2.5,1-5.3,1.4-8.5,1.4c-2.3,0-4.3-0.3-5.9-1s-3-1.5-4-2.7
		c-1-1.1-1.8-2.5-2.3-4.1c-0.5-1.6-0.7-3.3-0.7-5.1c0-1.8,0.3-3.5,0.8-5.1c0.5-1.6,1.3-3,2.3-4.2c1-1.2,2.3-2.1,3.8-2.8
		c1.5-0.7,3.2-1,5.2-1c1.7,0,3.3,0.3,4.6,0.9c1.3,0.6,2.5,1.4,3.4,2.5c0.9,1.1,1.7,2.3,2.1,3.8c0.5,1.5,0.7,3,0.7,4.7
		c0,0.6,0,1.2-0.1,1.8c0,0.6-0.1,1.1-0.2,1.4H317.3z M327,398.5c-0.1-1.5-0.5-2.8-1.3-3.7c-0.8-0.9-1.9-1.4-3.3-1.4
		c-1.6,0-2.8,0.4-3.7,1.3c-0.8,0.9-1.3,2.2-1.5,3.8H327z"/>
	<path class="st2" d="M338.9,388.7c0.4-0.1,0.9-0.2,1.3-0.2c0.4,0,0.9-0.1,1.5-0.1s1,0,1.4,0.1s0.8,0.1,1.3,0.2
		c0.1,0.2,0.2,0.4,0.3,0.7c0.1,0.3,0.2,0.6,0.2,1c0.1,0.3,0.1,0.7,0.2,1c0,0.3,0.1,0.6,0.1,0.8c0.3-0.5,0.6-1,1-1.4
		c0.4-0.5,0.9-0.9,1.5-1.3s1.2-0.7,1.9-0.9c0.7-0.2,1.5-0.4,2.4-0.4c3.9,0,6.4,1.5,7.5,4.4c0.6-1.2,1.5-2.2,2.7-3.1
		c1.2-0.9,2.7-1.3,4.4-1.3c2.8,0,4.9,0.8,6.2,2.3c1.3,1.6,2,4,2,7.3v15.8c-1.2,0.2-2.3,0.3-3.4,0.3s-2.3-0.1-3.4-0.3v-14
		c0-1.7-0.2-3.1-0.6-4c-0.4-0.9-1.3-1.4-2.6-1.4c-0.5,0-1.1,0.1-1.6,0.2c-0.5,0.2-1,0.5-1.4,0.9s-0.8,1-1.1,1.8
		c-0.3,0.8-0.4,1.8-0.4,3.1v13.4c-1.2,0.2-2.3,0.3-3.4,0.3s-2.3-0.1-3.4-0.3v-14c0-1.7-0.2-3.1-0.6-4c-0.4-0.9-1.3-1.4-2.6-1.4
		c-0.5,0-1.1,0.1-1.6,0.2c-0.5,0.2-1,0.5-1.5,0.9c-0.4,0.5-0.8,1.1-1,1.9c-0.3,0.8-0.4,1.9-0.4,3.3v13c-1.2,0.2-2.3,0.3-3.4,0.3
		s-2.3-0.1-3.4-0.3V388.7z"/>
	<path class="st2" d="M381,388.7c0.4-0.1,0.9-0.2,1.3-0.2c0.4,0,0.9,0,1.5,0c0.9,0,1.8,0.1,2.7,0.3c0.1,0.2,0.2,0.4,0.3,0.7
		c0.1,0.3,0.2,0.6,0.2,1c0.1,0.4,0.1,0.7,0.2,1c0,0.3,0.1,0.6,0.1,0.8c0.3-0.5,0.6-1,1.1-1.5c0.4-0.5,0.9-0.9,1.5-1.3s1.3-0.7,2-0.9
		c0.7-0.2,1.6-0.4,2.5-0.4c1.4,0,2.7,0.3,3.9,0.8c1.2,0.5,2.3,1.3,3.1,2.3s1.6,2.3,2.1,3.9c0.5,1.6,0.7,3.4,0.7,5.6
		c0,2.1-0.3,4-0.9,5.6c-0.6,1.7-1.5,3.1-2.6,4.2c-1.2,1.2-2.6,2-4.2,2.7s-3.6,0.9-5.7,0.9c-0.5,0-1.1,0-1.6-0.1
		c-0.5,0-1-0.1-1.3-0.2V425c-0.6,0.1-1.2,0.2-1.8,0.2c-0.6,0-1.1,0-1.7,0s-1.1,0-1.7,0c-0.6,0-1.1-0.1-1.8-0.2V388.7z M387.8,408.3
		c0.9,0.3,1.9,0.4,3,0.4c2,0,3.5-0.6,4.6-1.9s1.6-3.2,1.6-5.8c0-1-0.1-1.9-0.2-2.8c-0.2-0.8-0.4-1.6-0.8-2.2
		c-0.4-0.6-0.9-1.1-1.5-1.4c-0.6-0.4-1.3-0.5-2.2-0.5c-0.8,0-1.5,0.2-2,0.5c-0.6,0.3-1,0.7-1.4,1.3s-0.6,1.1-0.8,1.9
		c-0.2,0.7-0.2,1.5-0.2,2.3V408.3z"/>
	<path class="st2" d="M409.5,388.7c0.5-0.1,0.9-0.2,1.4-0.2s0.9-0.1,1.4-0.1c0.5,0,1,0,1.4,0.1c0.5,0.1,0.9,0.1,1.4,0.2
		c0.1,0.2,0.2,0.4,0.3,0.7c0.1,0.3,0.2,0.6,0.2,1c0.1,0.3,0.1,0.7,0.2,1c0,0.3,0.1,0.6,0.1,0.8c0.7-1,1.6-1.9,2.6-2.7
		c1-0.8,2.3-1.2,3.8-1.2c0.3,0,0.7,0,1.1,0c0.4,0,0.7,0.1,0.9,0.1c0.1,0.3,0.1,0.7,0.1,1.1c0,0.4,0,0.9,0,1.3c0,0.5,0,1.1-0.1,1.8
		c0,0.6-0.1,1.3-0.3,1.8c-0.4-0.1-0.7-0.1-1.2-0.1s-0.7,0-0.8,0c-0.5,0-1.2,0.1-1.8,0.2c-0.7,0.1-1.3,0.4-1.9,0.9
		c-0.6,0.5-1.1,1.2-1.5,2.2c-0.4,1-0.6,2.3-0.6,4v11.8c-0.6,0.1-1.2,0.2-1.7,0.2c-0.6,0-1.1,0-1.7,0c-0.5,0-1.1,0-1.7,0
		c-0.6,0-1.1-0.1-1.8-0.2V388.7z"/>
	<path class="st2" d="M433.6,403.2c0.1,1.9,0.8,3.3,2,4.2c1.2,0.9,2.8,1.3,4.8,1.3c1.1,0,2.2-0.1,3.3-0.3c1.1-0.2,2.2-0.5,3.2-0.9
		c0.4,0.6,0.7,1.4,0.9,2.3c0.3,0.9,0.4,1.9,0.4,2.9c-2.5,1-5.3,1.4-8.5,1.4c-2.3,0-4.3-0.3-5.9-1s-3-1.5-4-2.7
		c-1-1.1-1.8-2.5-2.3-4.1c-0.5-1.6-0.7-3.3-0.7-5.1c0-1.8,0.3-3.5,0.8-5.1c0.5-1.6,1.3-3,2.3-4.2c1-1.2,2.3-2.1,3.8-2.8
		c1.5-0.7,3.2-1,5.2-1c1.7,0,3.3,0.3,4.6,0.9c1.3,0.6,2.5,1.4,3.4,2.5c0.9,1.1,1.7,2.3,2.1,3.8c0.5,1.5,0.7,3,0.7,4.7
		c0,0.6,0,1.2-0.1,1.8c0,0.6-0.1,1.1-0.2,1.4H433.6z M443.4,398.5c-0.1-1.5-0.5-2.8-1.3-3.7c-0.8-0.9-1.9-1.4-3.3-1.4
		c-1.6,0-2.8,0.4-3.7,1.3c-0.8,0.9-1.3,2.2-1.5,3.8H443.4z"/>
	<path class="st2" d="M460,402.8c-1.8-0.5-3.2-1.3-4.2-2.3s-1.5-2.5-1.5-4.5c0-2.4,0.9-4.3,2.6-5.7c1.7-1.4,4.1-2.1,7.1-2.1
		c1.3,0,2.5,0.1,3.7,0.3c1.2,0.2,2.5,0.6,3.7,1c-0.1,0.8-0.2,1.7-0.5,2.6c-0.3,0.9-0.6,1.7-0.9,2.4c-0.8-0.3-1.6-0.6-2.5-0.8
		c-0.9-0.2-1.9-0.4-2.9-0.4c-1.1,0-1.9,0.2-2.5,0.5c-0.6,0.3-0.9,0.9-0.9,1.6c0,0.7,0.2,1.2,0.6,1.5c0.4,0.3,1,0.6,1.9,0.8l2.7,0.8
		c0.9,0.3,1.7,0.6,2.4,0.9c0.7,0.4,1.3,0.8,1.9,1.4s0.9,1.2,1.2,2c0.3,0.8,0.4,1.8,0.4,2.9c0,1.2-0.2,2.3-0.7,3.3
		c-0.5,1-1.2,1.9-2.2,2.7c-0.9,0.8-2.1,1.3-3.4,1.8c-1.3,0.4-2.9,0.6-4.6,0.6c-0.8,0-1.5,0-2.1-0.1c-0.6,0-1.3-0.1-1.9-0.2
		c-0.6-0.1-1.2-0.2-1.8-0.4s-1.2-0.4-1.9-0.6c0.1-0.9,0.2-1.7,0.5-2.6c0.2-0.9,0.6-1.7,0.9-2.6c1.1,0.4,2.1,0.7,3,0.9
		c0.9,0.2,1.9,0.3,3,0.3c0.4,0,0.9,0,1.5-0.1c0.5-0.1,1-0.2,1.5-0.4c0.4-0.2,0.8-0.5,1.1-0.8s0.5-0.8,0.5-1.3c0-0.8-0.2-1.3-0.7-1.7
		s-1.1-0.6-1.9-0.9L460,402.8z"/>
	<path class="st2" d="M489.7,397.2c0-0.8-0.1-1.4-0.4-1.9c-0.3-0.5-0.6-0.9-1.1-1.1c-0.4-0.3-1-0.5-1.7-0.6
		c-0.7-0.1-1.4-0.1-2.2-0.1c-1.7,0-3.6,0.3-5.5,1c-0.4-0.8-0.8-1.6-1-2.4c-0.2-0.7-0.3-1.6-0.3-2.6c1.4-0.5,2.8-0.8,4.2-1.1
		c1.4-0.2,2.7-0.3,3.9-0.3c3.3,0,5.9,0.8,7.8,2.4c1.9,1.6,2.8,4.2,2.8,7.7v14.4c-1.1,0.4-2.5,0.7-4.1,1c-1.6,0.3-3.4,0.5-5.4,0.5
		c-1.6,0-3.1-0.1-4.5-0.4c-1.4-0.3-2.5-0.8-3.5-1.4c-1-0.7-1.7-1.5-2.3-2.6c-0.5-1.1-0.8-2.4-0.8-3.9s0.3-2.8,1-3.9
		c0.7-1,1.5-1.9,2.5-2.5c1-0.6,2.2-1.1,3.5-1.3s2.6-0.4,3.8-0.4c0.9,0,2,0,3.1,0.1V397.2z M489.7,402.2c-0.4-0.1-0.8-0.1-1.3-0.2
		c-0.4,0-0.8-0.1-1.2-0.1c-1.6,0-2.8,0.3-3.7,0.8c-0.9,0.6-1.4,1.5-1.4,2.7c0,0.8,0.2,1.5,0.5,1.9c0.4,0.4,0.8,0.8,1.3,1
		c0.5,0.2,1,0.3,1.6,0.4c0.6,0,1,0.1,1.5,0.1c0.5,0,1,0,1.4-0.1c0.5-0.1,0.9-0.2,1.3-0.2V402.2z"/>
	<path class="st2" d="M502.4,388.7c0.5-0.1,0.9-0.2,1.4-0.2s0.9-0.1,1.4-0.1c0.5,0,1,0,1.4,0.1c0.5,0.1,0.9,0.1,1.4,0.2
		c0.1,0.2,0.2,0.4,0.3,0.7c0.1,0.3,0.2,0.6,0.2,1c0.1,0.3,0.1,0.7,0.2,1c0,0.3,0.1,0.6,0.1,0.8c0.7-1,1.6-1.9,2.6-2.7
		c1-0.8,2.3-1.2,3.8-1.2c0.3,0,0.7,0,1.1,0c0.4,0,0.7,0.1,0.9,0.1c0.1,0.3,0.1,0.7,0.1,1.1c0,0.4,0,0.9,0,1.3c0,0.5,0,1.1-0.1,1.8
		c0,0.6-0.1,1.3-0.3,1.8c-0.4-0.1-0.7-0.1-1.2-0.1s-0.7,0-0.8,0c-0.5,0-1.2,0.1-1.8,0.2c-0.7,0.1-1.3,0.4-1.9,0.9
		c-0.6,0.5-1.1,1.2-1.5,2.2c-0.4,1-0.6,2.3-0.6,4v11.8c-0.6,0.1-1.2,0.2-1.7,0.2c-0.6,0-1.1,0-1.7,0c-0.5,0-1.1,0-1.7,0
		c-0.6,0-1.1-0.1-1.8-0.2V388.7z"/>
	<path class="st2" d="M523.1,393.9h-3.2c-0.1-0.4-0.2-0.9-0.2-1.3c0-0.5-0.1-0.9-0.1-1.3c0-0.9,0.1-1.7,0.3-2.5h9.9v24.9
		c-1.2,0.2-2.3,0.3-3.4,0.3c-1.1,0-2.2-0.1-3.3-0.3V393.9z M522.1,384.5c-0.2-1.1-0.3-2.2-0.3-3.2c0-1,0.1-2.1,0.3-3.2
		c0.5-0.1,1.1-0.2,1.8-0.2c0.6,0,1.2-0.1,1.7-0.1c0.5,0,1.1,0,1.8,0.1c0.6,0,1.2,0.1,1.8,0.2c0.1,0.5,0.2,1.1,0.2,1.6
		c0,0.5,0,1.1,0,1.6c0,0.5,0,1,0,1.6c0,0.5-0.1,1.1-0.2,1.6c-0.5,0.1-1.1,0.2-1.8,0.2c-0.6,0-1.2,0-1.8,0c-0.5,0-1.1,0-1.7,0
		C523.2,384.7,522.6,384.6,522.1,384.5z"/>
	<path class="st2" d="M548.9,397.2c0-0.8-0.1-1.4-0.4-1.9c-0.3-0.5-0.6-0.9-1.1-1.1c-0.4-0.3-1-0.5-1.7-0.6
		c-0.7-0.1-1.4-0.1-2.2-0.1c-1.7,0-3.6,0.3-5.5,1c-0.4-0.8-0.8-1.6-1-2.4c-0.2-0.7-0.3-1.6-0.3-2.6c1.4-0.5,2.8-0.8,4.2-1.1
		c1.4-0.2,2.7-0.3,3.9-0.3c3.3,0,5.9,0.8,7.8,2.4c1.9,1.6,2.8,4.2,2.8,7.7v14.4c-1.1,0.4-2.5,0.7-4.1,1c-1.6,0.3-3.4,0.5-5.4,0.5
		c-1.6,0-3.1-0.1-4.5-0.4c-1.4-0.3-2.5-0.8-3.5-1.4c-1-0.7-1.7-1.5-2.3-2.6c-0.5-1.1-0.8-2.4-0.8-3.9s0.3-2.8,1-3.9
		c0.7-1,1.5-1.9,2.5-2.5c1-0.6,2.2-1.1,3.5-1.3s2.6-0.4,3.8-0.4c0.9,0,2,0,3.1,0.1V397.2z M548.9,402.2c-0.4-0.1-0.8-0.1-1.3-0.2
		c-0.4,0-0.8-0.1-1.2-0.1c-1.6,0-2.8,0.3-3.7,0.8c-0.9,0.6-1.4,1.5-1.4,2.7c0,0.8,0.2,1.5,0.5,1.9c0.4,0.4,0.8,0.8,1.3,1
		c0.5,0.2,1,0.3,1.6,0.4c0.6,0,1,0.1,1.5,0.1c0.5,0,1,0,1.4-0.1c0.5-0.1,0.9-0.2,1.3-0.2V402.2z"/>
	<path class="st2" d="M561.4,378.4c1.2-0.2,2.3-0.3,3.4-0.3c1.1,0,2.2,0.1,3.4,0.3v25.2c0,1,0.1,1.8,0.2,2.4
		c0.1,0.6,0.3,1.1,0.5,1.4s0.6,0.6,0.9,0.7c0.4,0.1,0.9,0.2,1.4,0.2c0.3,0,0.5,0,0.8,0s0.6-0.1,0.9-0.1c0.4,1.3,0.5,2.6,0.5,3.8
		c0,0.3,0,0.5,0,0.7c0,0.2,0,0.4-0.1,0.7c-0.5,0.2-1.1,0.3-1.9,0.3c-0.7,0.1-1.4,0.1-2,0.1c-2.5,0-4.4-0.7-5.9-2
		c-1.5-1.4-2.2-3.6-2.2-6.7V378.4z"/>
</g>
<line class="st57" x1="603.7" y1="15.5" x2="603.7" y2="424"/>
<g>
	<path class="st1" d="M482.7,304.7l14.6-27.5c1.4-2.8,1.4-4.4,1.4-7.4c0-2.8,0-6.3-4-6.3c-2.4,0-4,1.4-4,4v4.6h-8.1v-4.4
		c0-6.7,5.4-12.3,12.1-12.3c8.4,0,12,6.6,12,14.2c0,5.5-0.2,6.9-2.7,11.7l-11.9,22.9h14.6v8.1h-24.1V304.7z"/>
</g>
<g>
	<g>
		<path class="st58" d="M677.3,53.4c-0.1-1.9-0.2-3.8-0.2-5.7c0.8,0.1,1.6,0.1,2.4,0.2c0.8,0,1.6,0.1,2.4,0.1s1.6,0,2.4-0.1
			c0.8-0.1,1.6-0.1,2.4-0.1c1.3,0,2.5,0.1,3.6,0.3c1.1,0.2,2.1,0.5,3,1c0.9,0.5,1.6,1.1,2.1,2c0.5,0.8,0.8,1.9,0.8,3.1
			c0,2.2-0.7,3.9-2.1,5.2c-1.4,1.2-3.2,2.1-5.4,2.6v0.1c2.6,0.1,4.7,0.8,6.3,1.9c1.5,1.2,2.3,3,2.3,5.6c0,1.7-0.3,3.1-1,4.2
			c-0.7,1.1-1.6,2-2.7,2.7c-1.1,0.7-2.3,1.2-3.6,1.5c-1.3,0.3-2.6,0.4-3.9,0.4c-0.7,0-1.4,0-2.1,0c-0.7,0-1.5,0-2.2,0
			c-0.7,0-1.5,0-2.2,0c-0.7,0-1.4,0-2.1,0.1c0.1-1.9,0.2-3.8,0.2-5.7c0.1-1.9,0.1-3.8,0.1-5.8v-7.7
			C677.4,57.3,677.3,55.3,677.3,53.4z M686.5,61.1c1-0.2,1.9-0.6,2.7-1.1c0.8-0.5,1.5-1.1,2-2c0.5-0.8,0.7-1.9,0.7-3.1
			c0-1.2-0.2-2.2-0.7-2.9c-0.4-0.7-1-1.3-1.7-1.7c-0.7-0.4-1.5-0.7-2.3-0.8c-0.9-0.1-1.7-0.2-2.6-0.2c-0.8,0-1.4,0-2,0.1
			c-0.5,0-1,0.1-1.4,0.2c0,1.4-0.1,2.8-0.2,4.2c-0.1,1.4-0.1,2.8-0.1,4.2v3.3h2.4C684.5,61.4,685.5,61.3,686.5,61.1z M681.1,72.1
			c0.1,1.5,0.1,3,0.2,4.5c0.6,0.1,1.2,0.1,2,0.2c0.8,0,1.6,0.1,2.4,0.1c0.9,0,1.9-0.2,2.7-0.5c0.9-0.3,1.6-0.8,2.3-1.5
			c0.7-0.6,1.2-1.4,1.6-2.4c0.4-0.9,0.6-2,0.6-3.2c0-1.3-0.2-2.3-0.7-3.1c-0.5-0.8-1.1-1.5-2-1.9c-0.8-0.5-1.9-0.8-3.1-1
			c-1.2-0.2-2.6-0.3-4-0.3h-2v4.5C681,69.1,681.1,70.6,681.1,72.1z"/>
		<path class="st58" d="M702.7,67.6c0-1.1,0.1-2.2,0.1-3.3c0-1.1,0-2.2,0-3.4c0-1.2,0-2.5-0.1-3.7c0.7,0.2,1.4,0.2,1.9,0.2
			c0.5,0,1.1-0.1,1.8-0.2c-0.2,1.8-0.3,3.7-0.3,5.9c-0.1,2.1-0.1,4.3-0.1,6.5c0,1.5,0.1,2.7,0.4,3.5c0.3,0.8,0.6,1.4,1,1.9
			c0.4,0.5,0.9,0.9,1.6,1.2c0.6,0.3,1.4,0.5,2.2,0.5c1.2,0,2.3-0.3,3.1-0.8c0.8-0.6,1.4-1.2,1.8-2c0.2-0.5,0.4-0.9,0.5-1.3
			c0.1-0.4,0.2-0.8,0.3-1.4c0.1-0.6,0.1-1.4,0.1-2.4c0-1,0-2.4,0-4.1v-3.7c0-0.7,0-1.3,0-1.9c0-0.6,0-1.2-0.1-1.7
			c0.3,0.1,0.6,0.1,0.9,0.2c0.3,0,0.6,0.1,0.9,0.1s0.7,0,0.9-0.1c0.3-0.1,0.6-0.1,0.9-0.2c-0.2,2.3-0.2,4.5-0.3,6.7
			c0,2.2,0,4.4,0,6.8c0,1.3,0,2.7,0,3.9c0,1.3,0.1,2.5,0.1,3.7c-0.6-0.1-1.2-0.1-1.7-0.1s-1.1,0-1.7,0.1c0-0.3,0-0.6,0.1-0.9
			c0-0.3,0-0.6,0-0.9v-1.9h-0.1c-0.8,1.4-1.8,2.5-3,3.1c-1.2,0.7-2.5,1-4,1c-2.3,0-4.1-0.6-5.4-1.8c-1.3-1.2-2-3-2-5.3
			C702.7,70.1,702.7,68.7,702.7,67.6z"/>
		<path class="st58" d="M726.9,75.2c0.3,0.3,0.7,0.7,1.1,1c0.4,0.3,0.9,0.6,1.5,0.8c0.5,0.2,1.1,0.3,1.7,0.3c0.6,0,1.1-0.1,1.6-0.3
			c0.5-0.2,1-0.4,1.4-0.8c0.4-0.3,0.7-0.8,1-1.3c0.2-0.5,0.4-1.1,0.4-1.7c0-0.9-0.3-1.6-0.8-2.1c-0.5-0.5-1.2-0.9-2-1.2
			c-0.8-0.3-1.6-0.6-2.5-0.8c-0.9-0.2-1.8-0.6-2.5-1c-0.8-0.4-1.4-1-2-1.7c-0.5-0.7-0.8-1.7-0.8-2.9c0-1,0.2-1.9,0.5-2.7
			c0.3-0.8,0.8-1.5,1.4-2.1c0.6-0.6,1.4-1.1,2.3-1.4c0.9-0.3,2-0.5,3.2-0.5c1.1,0,2,0.2,2.8,0.4c0.8,0.3,1.5,0.6,2.2,0.8
			c-0.2,0.4-0.5,1-0.7,1.6c-0.2,0.7-0.4,1.2-0.4,1.5h-0.5c-0.2-0.7-0.7-1.4-1.4-1.9c-0.7-0.6-1.5-0.8-2.5-0.8
			c-0.4,0-0.9,0.1-1.3,0.2c-0.5,0.2-0.9,0.4-1.2,0.7c-0.4,0.3-0.7,0.7-0.9,1.1c-0.2,0.5-0.3,1-0.3,1.7c0,0.9,0.3,1.7,0.8,2.2
			s1.2,0.9,1.9,1.2c0.8,0.3,1.6,0.6,2.6,0.8c0.9,0.2,1.8,0.5,2.5,0.9c0.8,0.4,1.4,1,1.9,1.7c0.5,0.7,0.8,1.7,0.8,2.9
			c0,0.9-0.2,1.7-0.6,2.5c-0.4,0.8-0.9,1.6-1.6,2.3c-0.7,0.7-1.5,1.2-2.5,1.5c-1,0.4-2.1,0.6-3.3,0.6c-1.4,0-2.5-0.1-3.4-0.4
			c-0.9-0.3-1.7-0.6-2.3-0.9c0.2-0.4,0.3-0.9,0.6-1.6c0.2-0.7,0.3-1.2,0.3-1.7h0.5C726.3,74.5,726.6,74.8,726.9,75.2z"/>
		<path class="st58" d="M744,47.8c0.4-0.4,1-0.7,1.6-0.7c0.6,0,1.2,0.2,1.6,0.7c0.4,0.5,0.7,1,0.7,1.6c0,0.6-0.2,1.2-0.7,1.6
			c-0.4,0.4-1,0.7-1.6,0.7c-0.6,0-1.2-0.2-1.6-0.7c-0.5-0.4-0.7-1-0.7-1.6C743.3,48.8,743.5,48.3,744,47.8z M743.9,61.3
			c0-1.5-0.1-2.8-0.3-4.1c0.8,0.2,1.5,0.2,2,0.2c0.5,0,1.2-0.1,2-0.2c-0.1,1.3-0.2,2.7-0.3,4.1c0,1.5-0.1,2.9-0.1,4.2v4.6
			c0,1.3,0,2.7,0.1,4.2c0.1,1.5,0.2,2.8,0.3,4c-0.7-0.1-1.4-0.1-2-0.1c-0.6,0-1.3,0-2,0.1c0.1-1.2,0.2-2.5,0.3-4
			c0.1-1.5,0.1-2.9,0.1-4.2v-4.6C743.9,64.2,743.9,62.8,743.9,61.3z"/>
		<path class="st58" d="M767.4,60.8c-0.9-1.1-2.1-1.7-3.6-1.7c-2.1,0-3.6,0.6-4.6,1.9c-1,1.3-1.4,3.1-1.4,5.4v3.8c0,1.3,0,2.7,0,4.2
			c0.1,1.5,0.2,2.8,0.3,4c-0.7-0.1-1.4-0.1-2-0.1c-0.6,0-1.3,0-2,0.1c0.2-1.2,0.2-2.5,0.3-4c0-1.5,0.1-2.9,0.1-4.2v-4.6
			c0-1.3,0-2.7-0.1-4.2c0-1.5-0.1-2.8-0.3-4.1c0.8,0.2,1.5,0.2,2,0.2c0.3,0,0.5,0,0.8-0.1c0.3-0.1,0.6-0.1,1-0.2
			c-0.1,1.2-0.1,2.4-0.1,3.6h0.1c0.8-1.3,1.8-2.3,3-3c1.2-0.7,2.6-1.1,4.2-1.1c0.8,0,1.7,0.1,2.5,0.3c0.9,0.2,1.6,0.6,2.3,1.2
			c0.7,0.6,1.2,1.4,1.7,2.4c0.4,1,0.6,2.3,0.6,3.8c0,1.3,0,2.6-0.1,3.9c-0.1,1.4-0.1,2.8-0.1,4.3v2.9c0,0.5,0,0.9,0,1.4
			c0,0.5,0,0.9,0.1,1.3c-0.6-0.1-1.2-0.1-1.9-0.1c-0.6,0-1.2,0-1.8,0.1c0.1-1.5,0.1-3.1,0.2-4.8c0.1-1.6,0.1-3.3,0.1-5v-2.7
			C768.7,63.6,768.3,61.9,767.4,60.8z"/>
		<path class="st58" d="M778.7,59.9c1.7-2.1,4.3-3.1,7.6-3.1c1.6,0,2.9,0.2,4.1,0.7c1.1,0.5,2.1,1.1,2.9,2c0.8,0.8,1.3,1.8,1.7,2.9
			c0.4,1.1,0.6,2.3,0.6,3.5c0,0.3,0,0.6,0,0.9c0,0.3,0,0.6-0.1,0.9c-1.6,0-3.2-0.1-4.8-0.1c-1.6,0-3.2,0-4.8,0c-1,0-1.9,0-2.9,0
			c-1,0-1.9,0.1-2.9,0.1c0,0.1-0.1,0.4-0.1,0.7v0.6c0,1.2,0.2,2.2,0.5,3.3c0.3,1,0.8,1.9,1.5,2.6c0.7,0.7,1.5,1.3,2.4,1.7
			c1,0.4,2.1,0.6,3.3,0.6c0.6,0,1.2-0.1,1.8-0.2c0.6-0.2,1.2-0.4,1.8-0.7s1.2-0.6,1.7-1c0.5-0.4,1-0.8,1.4-1.2l0.2,0.1l-0.3,2.2
			c-0.9,0.7-2,1.3-3.3,1.8c-1.3,0.5-2.7,0.8-4.1,0.8c-1.6,0-3.1-0.2-4.4-0.7c-1.3-0.5-2.5-1.2-3.4-2.1c-1-0.9-1.7-2-2.2-3.3
			c-0.5-1.3-0.8-2.7-0.8-4.2C776.1,64.8,777,61.9,778.7,59.9z M783.7,58.9c-0.8,0.5-1.4,1.1-1.9,1.9c-0.5,0.8-0.9,1.6-1.1,2.5
			c-0.3,0.9-0.4,1.8-0.5,2.6c0.9,0,1.9,0.1,2.9,0.1c1,0,2,0,2.9,0c1,0,2,0,3,0c1,0,2-0.1,2.9-0.1c0-0.8-0.1-1.6-0.2-2.5
			c-0.1-0.9-0.4-1.7-0.8-2.5c-0.4-0.8-1-1.4-1.7-1.9c-0.7-0.5-1.7-0.8-2.8-0.8C785.3,58.2,784.4,58.4,783.7,58.9z"/>
		<path class="st58" d="M799.7,75.2c0.3,0.3,0.7,0.7,1.1,1c0.4,0.3,0.9,0.6,1.5,0.8c0.6,0.2,1.1,0.3,1.7,0.3c0.6,0,1.1-0.1,1.6-0.3
			c0.5-0.2,1-0.4,1.4-0.8c0.4-0.3,0.7-0.8,1-1.3c0.2-0.5,0.3-1.1,0.3-1.7c0-0.9-0.3-1.6-0.8-2.1c-0.5-0.5-1.2-0.9-1.9-1.2
			c-0.8-0.3-1.6-0.6-2.6-0.8c-0.9-0.2-1.8-0.6-2.5-1c-0.8-0.4-1.4-1-1.9-1.7c-0.5-0.7-0.8-1.7-0.8-2.9c0-1,0.2-1.9,0.5-2.7
			c0.3-0.8,0.8-1.5,1.4-2.1c0.6-0.6,1.4-1.1,2.3-1.4c0.9-0.3,2-0.5,3.2-0.5c1.1,0,2,0.2,2.8,0.4c0.8,0.3,1.5,0.6,2.2,0.8
			c-0.2,0.4-0.5,1-0.7,1.6c-0.2,0.7-0.3,1.2-0.4,1.5h-0.5c-0.2-0.7-0.7-1.4-1.4-1.9c-0.7-0.6-1.5-0.8-2.6-0.8
			c-0.4,0-0.9,0.1-1.3,0.2c-0.4,0.2-0.8,0.4-1.2,0.7c-0.4,0.3-0.7,0.7-0.9,1.1c-0.2,0.5-0.4,1-0.4,1.7c0,0.9,0.3,1.7,0.8,2.2
			c0.5,0.5,1.2,0.9,1.9,1.2c0.8,0.3,1.6,0.6,2.6,0.8c0.9,0.2,1.8,0.5,2.5,0.9c0.8,0.4,1.4,1,1.9,1.7c0.5,0.7,0.8,1.7,0.8,2.9
			c0,0.9-0.2,1.7-0.6,2.5c-0.3,0.8-0.9,1.6-1.6,2.3c-0.7,0.7-1.5,1.2-2.5,1.5c-1,0.4-2.1,0.6-3.4,0.6c-1.4,0-2.5-0.1-3.4-0.4
			c-0.9-0.3-1.7-0.6-2.3-0.9c0.2-0.4,0.4-0.9,0.6-1.6c0.2-0.7,0.3-1.2,0.3-1.7h0.5C799.2,74.5,799.4,74.8,799.7,75.2z"/>
		<path class="st58" d="M816.1,75.2c0.3,0.3,0.7,0.7,1.1,1c0.4,0.3,0.9,0.6,1.5,0.8c0.5,0.2,1.1,0.3,1.8,0.3c0.6,0,1.1-0.1,1.6-0.3
			c0.5-0.2,1-0.4,1.4-0.8c0.4-0.3,0.7-0.8,0.9-1.3c0.2-0.5,0.3-1.1,0.3-1.7c0-0.9-0.2-1.6-0.8-2.1c-0.5-0.5-1.2-0.9-1.9-1.2
			c-0.8-0.3-1.6-0.6-2.6-0.8c-0.9-0.2-1.8-0.6-2.5-1c-0.8-0.4-1.4-1-1.9-1.7c-0.5-0.7-0.8-1.7-0.8-2.9c0-1,0.2-1.9,0.5-2.7
			c0.3-0.8,0.8-1.5,1.4-2.1c0.6-0.6,1.4-1.1,2.3-1.4c0.9-0.3,2-0.5,3.2-0.5c1.1,0,2,0.2,2.8,0.4c0.8,0.3,1.5,0.6,2.2,0.8
			c-0.2,0.4-0.5,1-0.7,1.6c-0.2,0.7-0.3,1.2-0.4,1.5H825c-0.2-0.7-0.7-1.4-1.4-1.9c-0.7-0.6-1.5-0.8-2.5-0.8c-0.4,0-0.9,0.1-1.3,0.2
			c-0.4,0.2-0.8,0.4-1.2,0.7c-0.4,0.3-0.6,0.7-0.9,1.1c-0.2,0.5-0.4,1-0.4,1.7c0,0.9,0.3,1.7,0.8,2.2c0.5,0.5,1.1,0.9,1.9,1.2
			c0.8,0.3,1.6,0.6,2.6,0.8c0.9,0.2,1.8,0.5,2.5,0.9c0.8,0.4,1.4,1,1.9,1.7c0.5,0.7,0.8,1.7,0.8,2.9c0,0.9-0.2,1.7-0.6,2.5
			c-0.4,0.8-0.9,1.6-1.6,2.3c-0.7,0.7-1.5,1.2-2.5,1.5c-1,0.4-2.1,0.6-3.3,0.6c-1.4,0-2.5-0.1-3.4-0.4c-0.9-0.3-1.7-0.6-2.3-0.9
			c0.2-0.4,0.4-0.9,0.6-1.6c0.2-0.7,0.3-1.2,0.3-1.7h0.6C815.6,74.5,815.8,74.8,816.1,75.2z"/>
	</g>
	<g>
		<path class="st58" d="M678.2,129c0.5,0.7,1.1,1.3,1.8,1.9c0.7,0.6,1.6,1,2.5,1.4c1,0.3,2,0.5,3.2,0.5c1.2,0,2.3-0.2,3.3-0.6
			c1-0.4,1.8-1,2.5-1.7c0.7-0.7,1.2-1.6,1.6-2.6c0.4-1,0.6-2,0.6-3.1c0-1.7-0.4-3-1.3-4c-0.9-1-2-1.8-3.3-2.5
			c-1.3-0.7-2.7-1.3-4.2-1.8c-1.5-0.6-2.9-1.2-4.2-2.1c-1.3-0.9-2.4-1.9-3.2-3.2c-0.9-1.3-1.3-3-1.3-5.2c0-1.5,0.3-3,0.8-4.2
			c0.6-1.3,1.3-2.4,2.4-3.3c1.1-0.9,2.3-1.7,3.8-2.2c1.5-0.5,3.1-0.8,5-0.8c1.8,0,3.3,0.2,4.6,0.6c1.3,0.4,2.5,1.1,3.6,2
			c-0.3,0.6-0.6,1.3-0.8,2c-0.2,0.7-0.5,1.6-0.7,2.7h-0.7c-0.2-0.5-0.4-1.1-0.7-1.7c-0.3-0.6-0.7-1.2-1.3-1.7
			c-0.5-0.5-1.2-1-1.9-1.3c-0.7-0.3-1.6-0.5-2.7-0.5c-1,0-2,0.2-2.9,0.5c-0.9,0.3-1.6,0.8-2.3,1.4c-0.6,0.6-1.1,1.3-1.5,2.2
			c-0.3,0.9-0.5,1.8-0.5,2.8c0,1.7,0.4,3.1,1.3,4.1c0.9,1,2,1.8,3.3,2.5c1.3,0.7,2.7,1.3,4.2,1.8c1.5,0.5,2.9,1.2,4.2,2
			c1.3,0.8,2.4,1.8,3.2,3c0.9,1.2,1.3,2.9,1.3,4.9c0,1.7-0.3,3.3-0.9,4.8c-0.6,1.5-1.5,2.8-2.7,4c-1.2,1.1-2.6,2-4.3,2.6
			c-1.7,0.6-3.6,0.9-5.7,0.9c-2.3,0-4.1-0.3-5.6-0.9c-1.4-0.6-2.6-1.3-3.6-2.1c0.3-0.8,0.6-1.6,0.7-2.3c0.1-0.7,0.3-1.6,0.4-2.6h0.7
			C677.3,127.7,677.7,128.3,678.2,129z"/>
		<path class="st58" d="M702.9,114.9c0.8-1.7,1.9-3.2,3.2-4.3c1.3-1.1,2.8-2,4.5-2.5c1.7-0.5,3.4-0.8,5.2-0.8c2,0,3.9,0.3,5.5,0.8
			c1.6,0.5,2.8,1.1,3.5,1.7c-0.3,0.6-0.5,1.1-0.7,1.7c-0.2,0.6-0.4,1.2-0.5,1.9h-0.4c-0.3-0.5-0.6-1-1.1-1.5c-0.4-0.5-1-1-1.6-1.4
			c-0.6-0.4-1.3-0.8-2-1c-0.7-0.3-1.6-0.4-2.4-0.4c-1.7,0-3.1,0.3-4.3,0.9c-1.2,0.6-2.2,1.5-2.9,2.5c-0.8,1.1-1.3,2.3-1.7,3.8
			c-0.4,1.5-0.5,3-0.5,4.7c0,3.8,0.8,6.7,2.4,8.6c1.6,1.9,4,2.9,7.2,2.9c0.7,0,1.5-0.1,2.3-0.3c0.8-0.2,1.5-0.5,2.3-0.8
			c0.7-0.3,1.4-0.8,2.1-1.2c0.6-0.5,1.2-1,1.7-1.6l0.3,0.2c-0.2,0.9-0.3,1.8-0.3,2.7c-1.1,0.9-2.5,1.7-4.1,2.3
			c-1.6,0.6-3.4,0.9-5.1,0.9c-1.6,0-3.2-0.2-4.8-0.7c-1.6-0.5-3.1-1.2-4.4-2.3c-1.3-1.1-2.3-2.5-3.1-4.2c-0.8-1.7-1.2-3.9-1.2-6.4
			C701.7,118.7,702.1,116.6,702.9,114.9z"/>
		<path class="st58" d="M729.4,104.2c0-1.5,0-2.9-0.1-4.4c0-1.4-0.1-2.8-0.1-4.1c0-1.3-0.1-2.4-0.2-3.4c1,0.2,1.8,0.3,2.5,0.3
			c0.6,0,1.5-0.1,2.5-0.3c-0.1,0.9-0.1,2-0.2,3.3c-0.1,1.3-0.1,2.7-0.1,4.1c0,1.4-0.1,2.9-0.1,4.3c0,1.5,0,2.8,0,4v4.2h0.1
			c1-1.6,2.3-2.8,3.7-3.7c1.4-0.9,3.2-1.3,5.2-1.3c1,0,2.1,0.2,3.1,0.4c1.1,0.3,2,0.8,2.9,1.5c0.9,0.7,1.6,1.7,2.1,2.9
			c0.5,1.2,0.8,2.8,0.8,4.7c0,1.6,0,3.2-0.1,4.9c-0.1,1.7-0.1,3.5-0.1,5.4v3.6c0,0.6,0,1.2,0,1.8c0,0.6,0,1.1,0.1,1.7
			c-0.7-0.1-1.5-0.1-2.3-0.1c-0.8,0-1.6,0-2.3,0.1c0.1-1.9,0.2-3.9,0.2-6c0.1-2,0.2-4.1,0.2-6.3v-3.4c0-2.8-0.5-4.9-1.6-6.3
			c-1.1-1.4-2.6-2.1-4.4-2.1c-2.6,0-4.5,0.8-5.7,2.4c-1.2,1.6-1.8,3.8-1.8,6.7c0,1,0,2.2,0,3.6c0,1.4,0,2.7,0.1,4.1
			c0,1.4,0.1,2.7,0.1,4c0.1,1.3,0.1,2.4,0.2,3.2c-0.9-0.1-1.7-0.1-2.5-0.1c-0.8,0-1.7,0-2.5,0.1c0.1-0.9,0.1-1.9,0.2-3.2
			c0.1-1.3,0.1-2.7,0.1-4.1c0-1.5,0.1-2.9,0.1-4.4c0-1.5,0-2.9,0-4.1v-10C729.5,107.1,729.5,105.7,729.4,104.2z"/>
		<path class="st58" d="M757.6,114.7c0.8-1.8,1.8-3.2,3.1-4.3c1.3-1.1,2.7-1.9,4.4-2.4c1.6-0.5,3.2-0.8,4.8-0.8
			c1.6,0,3.2,0.3,4.8,0.8c1.6,0.5,3,1.3,4.3,2.4c1.3,1.1,2.3,2.5,3.2,4.3c0.8,1.8,1.2,3.9,1.2,6.4c0,2.5-0.4,4.7-1.2,6.4
			c-0.8,1.8-1.8,3.2-3.2,4.3c-1.3,1.1-2.7,1.9-4.3,2.3c-1.6,0.4-3.2,0.7-4.8,0.7c-1.6,0-3.2-0.2-4.8-0.7c-1.6-0.4-3-1.2-4.4-2.3
			c-1.3-1.1-2.3-2.5-3.1-4.3c-0.8-1.8-1.2-3.9-1.2-6.4C756.4,118.6,756.8,116.5,757.6,114.7z M761.7,125.6c0.3,1.5,0.8,2.7,1.4,3.8
			c0.7,1.1,1.6,2,2.7,2.7c1.1,0.7,2.5,1,4.1,1c1.6,0,3-0.3,4.1-1c1.1-0.7,2-1.6,2.7-2.7c0.7-1.1,1.1-2.4,1.4-3.8
			c0.3-1.4,0.4-2.9,0.4-4.5c0-1.6-0.1-3-0.4-4.5c-0.3-1.4-0.7-2.7-1.4-3.9c-0.7-1.1-1.6-2-2.7-2.7c-1.1-0.7-2.5-1-4.1-1
			c-1.6,0-3,0.3-4.1,1c-1.1,0.7-2,1.6-2.7,2.7c-0.7,1.1-1.1,2.4-1.4,3.9c-0.3,1.4-0.4,2.9-0.4,4.5
			C761.3,122.7,761.4,124.2,761.7,125.6z"/>
		<path class="st58" d="M787.2,114.7c0.8-1.8,1.8-3.2,3.1-4.3c1.3-1.1,2.7-1.9,4.4-2.4c1.6-0.5,3.2-0.8,4.8-0.8
			c1.6,0,3.2,0.3,4.8,0.8c1.6,0.5,3,1.3,4.3,2.4c1.3,1.1,2.3,2.5,3.1,4.3c0.8,1.8,1.2,3.9,1.2,6.4c0,2.5-0.4,4.7-1.2,6.4
			c-0.8,1.8-1.8,3.2-3.1,4.3c-1.3,1.1-2.7,1.9-4.3,2.3c-1.6,0.4-3.2,0.7-4.8,0.7c-1.6,0-3.2-0.2-4.8-0.7c-1.6-0.4-3.1-1.2-4.4-2.3
			c-1.3-1.1-2.3-2.5-3.1-4.3c-0.8-1.8-1.2-3.9-1.2-6.4C786,118.6,786.4,116.5,787.2,114.7z M791.3,125.6c0.3,1.5,0.7,2.7,1.4,3.8
			c0.7,1.1,1.6,2,2.7,2.7c1.1,0.7,2.5,1,4.1,1c1.6,0,3-0.3,4.1-1c1.1-0.7,2-1.6,2.7-2.7c0.7-1.1,1.1-2.4,1.4-3.8
			c0.3-1.4,0.4-2.9,0.4-4.5c0-1.6-0.1-3-0.4-4.5c-0.3-1.4-0.7-2.7-1.4-3.9c-0.7-1.1-1.5-2-2.7-2.7c-1.1-0.7-2.5-1-4.1-1
			c-1.6,0-3,0.3-4.1,1c-1.1,0.7-2,1.6-2.7,2.7c-0.7,1.1-1.1,2.4-1.4,3.9c-0.3,1.4-0.4,2.9-0.4,4.5
			C790.9,122.7,791,124.2,791.3,125.6z"/>
		<path class="st58" d="M819.3,104.2c0-1.5,0-2.9-0.1-4.4c0-1.4-0.1-2.8-0.1-4.1c-0.1-1.3-0.1-2.4-0.2-3.4c1,0.2,1.9,0.3,2.5,0.3
			c0.6,0,1.5-0.1,2.5-0.3c-0.1,0.9-0.1,2-0.2,3.4c0,1.3-0.1,2.7-0.1,4.1c0,1.5-0.1,2.9-0.1,4.4c0,1.5,0,2.8,0,4.1v10
			c0,1.2,0,2.6,0,4.1c0,1.5,0,2.9,0.1,4.4c0,1.4,0.1,2.8,0.1,4.1c0.1,1.3,0.1,2.4,0.2,3.2c-0.8-0.1-1.7-0.1-2.5-0.1s-1.7,0-2.5,0.1
			c0.1-0.9,0.1-1.9,0.2-3.2c0.1-1.3,0.1-2.7,0.1-4.1c0-1.5,0.1-2.9,0.1-4.4c0-1.5,0-2.9,0-4.1v-10
			C819.3,107.1,819.3,105.7,819.3,104.2z"/>
	</g>
	<path class="st59" d="M702.3,200.4c-2.6,2.7-6.8,4.7-10.3,4.7c-8.9,0-13.7-7.4-13.8-18.1c0-9.1,3.8-19,13.4-19.1
		c3.7,0,7.4,2.4,9.6,5.7h0.8c0.4-2.2,0.8-4.3,1.3-6.4c-3.3-2-8-3-11.8-3c-12.6,0.1-22.9,7.5-22.9,23.8c0.1,12.8,9.5,20.9,21.8,20.8
		c3.9,0,7.9-0.8,11.4-2.7l1.2-5.3L702.3,200.4z M713.3,165.3l0.2,42.4l22-0.1c-0.1-0.9-0.3-1.8-0.3-2.7c0-0.9,0.2-1.8,0.3-2.6
		c-3.5,0.5-7.4,0.8-13.3,0.9l-0.1-15.8l6,0c2.6,0,5,0.3,7.1,0.5c-0.1-0.9-0.3-1.8-0.3-2.7c0-0.9,0.2-1.8,0.3-2.7
		c-2.1,0.3-4.5,0.6-7.1,0.6l-6,0l-0.1-13.4c5.9-0.1,9.8,0.3,13.3,0.8c-0.1-0.9-0.3-1.8-0.3-2.7c0-0.9,0.2-1.8,0.3-2.7L713.3,165.3z
		 M748.1,207.8c1.5-0.1,2.9-0.3,4.4-0.3c1.4,0,2.9,0.2,4.3,0.3l-0.2-42.7c-1.4,0.2-2.9,0.3-4.3,0.3c-1.4,0-2.9-0.2-4.3-0.3
		L748.1,207.8z M779.2,189c10.4,0,17.9-2.5,17.8-13.5c0-7-4.4-10.5-12.4-10.5l-14.2,0.1l0.2,42.7c1.5-0.1,2.9-0.3,4.3-0.3
		c1.4,0,2.9,0.2,4.3,0.3L779.2,189z M779.2,168.4h3.5c3,0,5.4,3.3,5.4,8.2c0,3.8-1.4,7.4-5.1,8.5c-1.2,0.3-2.5,0.4-3.8,0.5
		L779.2,168.4z M819.5,194.5c1.6,4.2,2.8,8.3,4.2,12.9c1.7-0.1,3.3-0.3,5-0.3c1.7,0,3.3,0.2,5,0.3l-16.3-43.1
		c-0.7,0.1-1.4,0.2-2.2,0.2c-0.8,0-1.4,0-2.2-0.1l-16.3,43.2c0.9-0.1,1.9-0.2,2.8-0.2c0.9,0,1.8,0.1,2.7,0.2c1.1-4.3,2.5-8.1,4-12.9
		L819.5,194.5z M807.6,190.7l5.4-14.5l5.2,14.5L807.6,190.7z"/>
	<path class="st58" d="M751.1,414.1c-25.5,0-49.4-11.8-67.4-33.3c-17.8-21.3-27.7-49.6-27.8-79.6V150.6h190.3v149.8
		c0.1,15.6-2.5,30.7-7.6,45c-14.9,41.6-49.1,68.5-87.1,68.7H751.1z M658.7,153.6v147.5c0.3,60.6,41.7,110,92.4,110h0.4
		c36.9-0.2,70-26.4,84.5-66.7c5-13.9,7.4-28.7,7.4-43.9V153.6H658.7z"/>
	<path class="st58" d="M750.6,400.9c-21.6,0-41.9-10.1-57.2-28.3c-15.4-18.4-23.9-43.1-23.8-69.5c0-10.2,0-20.4-0.1-30.7
		c0-16.6-0.1-33.2-0.2-49.8l0-1.5l1.4,0c10.6,0,21.1-0.1,31.7-0.2c16.2-0.1,32.4-0.2,48.7-0.2c26.8-0.2,53.6-0.4,80.4-0.5h1.4v1.5
		c0,12.9-0.1,25.7-0.1,38.6c0,13.8-0.1,27.6-0.1,41.4c0.1,26.4-8.4,51.3-23.9,70.1c-15.4,18.6-35.9,28.9-57.6,29H750.6z
		 M672.1,224.2c0,16.1,0.1,32.2,0.1,48.3c0,10.2,0,20.5,0.1,30.7c-0.1,25.6,8.1,49.6,23.1,67.5c14.8,17.6,34.4,27.3,55.1,27.3h0.5
		c20.9-0.1,40.6-10,55.5-28c15-18.2,23.3-42.5,23.2-68.1c0.1-13.8,0.1-27.6,0.1-41.4c0-12.4,0.1-24.7,0.1-37.1
		c-26.2,0.2-52.6,0.3-79,0.5c-16.2,0.1-32.4,0.1-48.6,0.2C692.3,224.1,682.2,224.1,672.1,224.2"/>
	<path class="st58" d="M713.3,165.3l0.2,42.4l21.9-0.1c-0.1-0.9-0.3-1.8-0.3-2.7c0-0.9,0.2-1.8,0.3-2.7c-3.5,0.5-7.4,0.8-13.3,0.9
		l-0.1-15.8l6,0c2.6,0,4.9,0.2,7.1,0.5c-0.1-0.9-0.3-1.8-0.3-2.7c0-0.9,0.2-1.8,0.2-2.7c-2.1,0.3-4.5,0.6-7.1,0.6l-6,0l-0.1-13.3
		c5.9-0.2,9.8,0.3,13.3,0.8c-0.1-0.9-0.3-1.8-0.3-2.7c0-0.9,0.2-1.8,0.3-2.7L713.3,165.3z M752.2,165.4c-1.4,0-2.9-0.2-4.3-0.3
		l0.2,42.7c1.4-0.1,2.9-0.3,4.3-0.3c1.5,0,2.9,0.2,4.3,0.3l-0.2-42.7C755.1,165.3,753.7,165.4,752.2,165.4 M779.1,168.3h3.6
		c3,0,5.4,3.3,5.4,8.2c0,3.8-1.3,7.4-5.1,8.5c-1.2,0.3-2.5,0.4-3.8,0.4L779.1,168.3z M784.7,165l-14.2,0.1l0.2,42.6
		c1.5-0.1,2.9-0.3,4.3-0.3c1.5,0,2.9,0.2,4.3,0.3l-0.1-18.7c10.4-0.1,17.9-2.4,17.8-13.5c0-7-4.3-10.4-12.2-10.4L784.7,165
		L784.7,165z M691.5,164.3c-12.6,0-22.9,7.5-22.8,23.7c0,12.8,9.4,20.9,21.7,20.9c3.9,0,8-0.8,11.4-2.7l1.3-5.4l-0.7-0.4
		c-2.6,2.7-6.8,4.7-10.3,4.7c-8.9,0-13.7-7.4-13.8-18.1c0-9.1,3.8-19,13.4-19.1c3.7,0,7.4,2.3,9.6,5.7l0.8,0
		c0.5-2.2,0.8-4.3,1.3-6.4c-3.3-2-7.9-3-11.6-3L691.5,164.3 M812.9,176.2l5.2,14.5l-10.6,0L812.9,176.2z M815.1,164.4
		c-0.7,0-1.5,0-2.2-0.2l-16.3,43.2c0.9-0.1,1.8-0.2,2.7-0.2c0.9,0,1.8,0.1,2.7,0.2c1.1-4.3,2.5-8.2,4-12.9l13.4,0
		c1.6,4.2,2.8,8.4,4.1,13c1.7-0.1,3.3-0.3,5-0.3c1.7,0,3.3,0.2,5,0.3l-16.3-43.1C816.5,164.4,815.9,164.4,815.1,164.4"/>
	<path class="st58" d="M695.6,343.3c0,0.1,0,0.1,0,0.2c0.2,0,0.3-0.1,0.3-0.1C695.8,343.4,695.6,343.3,695.6,343.3L695.6,343.3
		 M742.7,346.3c-2.5-3.4-3.3-4.3-4.8-8.5c7.4,6.8,18.9,6.9,26.9,2c0.6,0.1-5.3,10.5-13.5,10.5C748.5,350.3,745.6,349.2,742.7,346.3
		 M733.7,331.2c0,6.5,0.5,9.5,3.7,15.1c3.7,6.2,11.1,10.1,17.8,8.4c10.1-2.5,14.2-14.6,17.6-23.6c-1.3,0.6-4.6,2.6-6.4,3.6
		c-6.1,3.4-11.2,4.7-18.2,3.7c-4.6-0.8-8.7-4.8-9.6-6.2c-1.7-2.5-2.7-8.8-2.7-8.8C734.4,326.2,734.2,328,733.7,331.2 M787.2,292.7
		c-1.4-1.3-3.8-4.2-5.2-5.5l-3.3,3.1c1.1,0.9,2.7,2.5,4.4,4.4c-2.5,1.1-6.8,2.7-9,3.9c0.9,1.8,0.9,2.3,1.9,4
		c2.1-1.3,6.9-3.2,9.4-4.2c-1.3,3.4-3,7.9-4.5,11.4c1.6,0.9,1.9,1.3,3.6,2.3c1.8-3.7,2.9-8.1,4.7-12c0.9,0.3,5.3,4.4,6.3,5.3
		l2.5-3.5c-1.5-1.3-4.5-4-6-5.3c1.5-0.5,3.6-1.2,9.1-2.8l-1.2-4.4c-2,0.5-6,1.8-8,2.4c0.1-1.2,0.9-4,1.5-6.1
		c-1.8-0.5-2.3-0.9-4.1-1.4C789.1,285.6,787.6,292.3,787.2,292.7 M709.7,282.5c-3.3,9.8,1.1,21.4,6.4,27.1c-0.4,0.1-0.8,0.2-1.2,0.2
		C708.3,309.8,694.8,297,709.7,282.5 M715.1,314.7c3.6,0.8,7.8,1.6,12.6,1c-6-6.1-12-10.1-14.7-22c-0.9-4.9,0.7-10.7,1.7-12.1
		c1.6-2.5,6.5-6.4,6.5-6.4c-0.4,0-0.9,0-1.3,0C697,275.1,689.2,309,715.1,314.7 M747.1,257.1c-1.5-1.3-3.8-4.3-5.3-5.6l-3.3,3.1
		c1.1,0.9,2.7,2.5,4.4,4.4c-2.5,1.1-6.7,2.7-9,3.9c1,1.8,1,2.2,2,4c2.2-1.3,6.9-3.2,9.4-4.2c-1.3,3.4-3,7.9-4.5,11.4
		c1.6,0.9,1.9,1.4,3.6,2.3c1.8-3.7,2.9-8.1,4.7-11.9c0.8,0.2,5.3,4.4,6.3,5.3l2.6-3.5c-1.5-1.3-4.6-4-6-5.3c1.5-0.5,3.6-1.2,9.1-2.8
		l-1.1-4.5c-2,0.5-6,1.8-8,2.4c0.2-1.2,0.9-4,1.6-6.2c-1.8-0.5-2.4-0.9-4.2-1.4C749,250,747.5,256.6,747.1,257.1 M686.1,231.1
		L686.1,231.1C686,231.1,686,231.1,686.1,231.1C686,231.2,686,231.2,686.1,231.1L686.1,231.1L686.1,231.1
		C686.1,231.1,686.1,231.1,686.1,231.1 M731.2,363.7c-4.2-1.4-10.8-5.4-13.1-7.2c-2.5-1.5-10.4-10.2-10.4-10.2s12.6-10.8,14.4-12.9
		c1.8-2.1,11.4-10.4,12.8-12.3c1.4-1.9,5.9-5.5,8.4-7.8c2.5-2.3,10.4-11.7,10.4-11.7l10.8,10.1c0,0,10.1,9.4,11.1,10.3
		c1,0.9,5.2,4.5,9.7,10.1l6.2,7.9l2.4,3.3c0,0-1.7,2-2.8,3.1c-1.1,1.2-4.4,3.9-6.5,5.9c-2.1,2-8.8,5.6-11.4,7.2
		c-2.6,1.6-9.2,3.6-11.3,4.1c-2,0.5-10.2,2.1-14.5,2.3c-0.4,0-0.9,0.1-1.4,0.1C741.8,365.9,735,365,731.2,363.7 M702.1,338.1
		c-0.6-1.2-2.8-6.2-3.8-8.4c-0.9-2.2-3.8-11.6-4.1-13.6c-0.4-2-1.2-9.6-1.6-11.8c-0.4-2.2,0-10.8,0.7-15.3
		c0.8-4.4,2.5-11.8,4.2-16.1c1.7-4.2,3.4-6.5,4.8-9.1c1.5-2.6,5-7.3,5-7.3s9.1,9.4,11,11.4c1.8,2,7.9,8,9.5,9.6
		c1.7,1.6,6.1,6.5,8.8,8.3c2.6,1.8,12.7,11.8,12.7,11.8l-9.2,10c0,0-11.9,11.7-12.8,12.7c-0.9,1-10.4,9.5-10.4,9.5l-9.8,8.4
		l-3.2,2.6C703.9,341.2,702.6,339.3,702.1,338.1 M781.2,318.3c-0.9-0.8-12.6-11.8-12.6-11.8l-10.3-9.2c0,0,8-11,10.4-12.8
		c2.4-1.8,6-7.3,7.5-8.9c1.5-1.6,6.5-8.1,8.2-10.1c1.7-2,7.8-10.8,7.8-10.8s5.8,6.1,7.2,8.7c1.4,2.6,3.1,4.8,4.8,8.7
		c1.8,3.9,3.7,8.8,4.9,15.5c1.2,6.8,1,12.5,1,15.2c0,2.8-1,9.8-1.3,11.9c-0.3,2-3.6,11-4.5,13.2c-2.7,5.8-3.8,7.8-6.2,10.3
		C792.8,331.3,788.7,325.3,781.2,318.3 M743.1,283.1c-2.4-2.1-6.5-5.4-7.9-7.2c-1.3-1.8-10-9.5-11.7-11.5
		c-1.7-1.9-12.3-12.5-12.3-12.5s6.7-6.9,9-8.3c2.1-1.7,6.2-4.6,11.7-6.3c5.6-1.7,11.6-1.5,15.6-1.4c4,0.2,7.4,0.4,9.3,0.9
		c1.9,0.5,8.2,1.3,10.9,2.4c2.7,1.1,8.3,3,10.9,4.8c2.6,1.9,5.3,3,6.3,4c1,1.1,2.6,2.9,2.6,2.9l-2.2,3.1l-5.7,7.4
		c-4.2,5.2-9.7,13.1-10.5,13.9c-0.9,0.9-7.3,8.4-7.3,8.4l-8.2,9.4C753.6,293.1,745.4,285.2,743.1,283.1 M789.7,233.3
		c0.5,2,0.4,1.8,1,3.9c2.2-0.6,5.9-1.4,8.1-2c-2.1,2.9-5.5,7.9-7.7,10.8c-8-6.5-17.4-11.3-25.3-12.9c-10.6-3-20.2-3.3-30.8-2.4
		c-8.2,1.8-13.9,4.8-20.6,9.9c-2,1.9-5,4.9-6.9,6.8c-0.2,0-9.8-10.9-10.7-12c1.8,0.1,4.8,0.2,6.6,0.2c0.1-2.2,0.2-2.3,0.3-4.4
		c-6-0.1-9-0.3-17.7-0.1c1.3,6.9,2.3,12.1,3.7,19c1.9-0.5,1.8-0.5,3.7-0.9c0.1-0.2-0.4-2-2.1-10.7c3.4,3.9,8.3,10,11.8,13.9
		c-3.2,4.2-6,9.3-8.5,13.9c-2.8,6-4.6,11.8-6.2,18.5c-0.3,1.2-0.3,2.9-0.5,4.1c-0.4,2.9-0.1,2.9-0.4,6c-0.3,6.4-0.1,12.4,0.8,18.9
		c0.3,1.7,0.8,3.7,1.1,5.4c2.1,9.2,5.6,17.7,10.6,25.7c-2,1.7-3.6,2.8-5.1,3.9c0.2-1.2,0.5-4,0.7-5.3c-0.4,0-1.5,0-3.7-0.1
		c0.2,8-7.5,13.1-7.7,18.6c1.4,0.5,6.6-0.1,11.4-0.7c4.2-0.5,8.1-1.1,8.9-0.8c-0.2-1.4-0.2-3.1-0.3-4.1c-2.1-0.1-6.4,0.7-8.7,0.9
		c3.2-3.4,4.7-4.6,8.3-7.2c1.3,1.6,2.8,3.2,4.1,4.8c3.6,3.6,7.5,6.7,11.9,9.7c0.7,0.4,2.7,1.6,3.8,1.7c0,0.1,0,0.1,0.1,0.2
		c0.4,0.1,3.2,1.4,6,2.5c2,0.6,4.2,1.2,6.5,1.8c5.6,1,10.8,1.1,16.6,0.6c5.2-0.7,10.1-1.8,15.3-3.5c1.7-0.6,3.3-1.2,4.9-1.9
		c9-4.1,17.7-10.2,24.5-18c2.2,3,7.2,8.7,9.8,10.9c-5.5-0.3-7.3,0-7.5,0.1c-0.1,2.1,0.1,2.2,0,3.5c9.6,0.7,15.2,0.7,18,0.9
		c-0.6-5.1-3.1-16-3.2-18.8c-1.1,0.1-2.4,0.3-3.4,0.3c0.1,1.3,0.5,2.9,0.6,4.2c0.4,2.4,1,4.3,1.8,7.6c-3.4-3.4-9.1-9.7-11.9-13.8
		c0.8-1.1,1.4-2.2,2.2-3.2c3.1-4.9,4.9-9.1,7-14.2c0.3-0.8,1-2.6,1.5-4.2c1.2-4.6,2.1-8.4,2.7-13.2c0.6-8.5,0.1-16.5-1.7-24.6
		c-0.8-3.2-0.8-3.2-1.8-6.2c-1.7-4.3-3.2-8.4-5.3-12.2c-1.9-3.1-3.5-5.8-5.5-8.6c-0.8-1-4.7-5.9-4.9-6.6c1.7-2.4,5.3-7.1,7-9.4
		c-0.9,4.2-1.9,6.5-2.2,8.5c1.7,0.2,2.7,0.6,4.1,0.8c1.3-6,1.2-6.8,2.6-12.6c0-0.1,1.7-8.9,1.6-9
		C803.6,229.7,795.3,231.7,789.7,233.3"/>
</g>
</svg>
