<?xml version="1.0" encoding="utf-8"?>
<!-- Generator: Adobe Illustrator 25.2.1, SVG Export Plug-In . SVG Version: 6.00 Build 0)  -->
<svg version="1.1" id="Capa_1" xmlns="http://www.w3.org/2000/svg" xmlns:xlink="http://www.w3.org/1999/xlink" x="0px" y="0px"
	 viewBox="0 0 1296 868" style="enable-background:new 0 0 1296 868;" xml:space="preserve">
<style type="text/css">
	.st0{opacity:0.44;clip-path:url(#SVGID_2_);}
	.st1{fill:#D5D5D6;}
	.st2{fill:#7D7F80;}
	.st3{fill:#B7B7B8;}
	.st4{fill:#FAFAFB;}
	.st5{fill:#FCFCFD;}
	.st6{fill:#464748;}
</style>
<g>
	<g>
		<defs>
			<rect id="SVGID_1_" x="-1" y="1" width="1300" height="866"/>
		</defs>
		<clipPath id="SVGID_2_">
			<use xlink:href="#SVGID_1_"  style="overflow:visible;"/>
		</clipPath>
		<g class="st0">
			<g>
				<path class="st1" d="M1731.6,182.9c0.1,0.2,0.4,0.3,0.6,0.2l169.8-69.7v-1.1l-167.9,69L1902,6V4.5l-170.4,177.8
					C1731.4,182.5,1731.4,182.7,1731.6,182.9z"/>
			</g>
			<g>
				<path class="st1" d="M1663.9-65.3L1663.9-65.3c0.3,0.1,0.4,0.2,0.4,0.4l68.2,247.4c0,0.2,0,0.4-0.1,0.5s-0.3,0.2-0.4,0.2
					l-352.6-15.6c-0.2,0-0.4-0.2-0.5-0.4s0-0.4,0.2-0.6l284.4-231.8C1663.6-65.3,1663.7-65.3,1663.9-65.3z M1731.3,182.1
					l-67.8-245.9l-282.7,230.4L1731.3,182.1z"/>
			</g>
			<g>
				<path class="st1" d="M1663.3-64.5l68.2,247.3c0.1,0.2,0.3,0.4,0.5,0.4l170-5.5v-1.1l-169.6,5.5l-67.7-245.6L1902,108.4v-1.3
					L1664.1-65.2c-0.1-0.1-0.1-0.1-0.2-0.1l0,0c-0.4-0.1-0.6,0.2-0.6,0.4C1663.2-64.7,1663.2-64.6,1663.3-64.5z"/>
			</g>
			<g>
				<path class="st1" d="M1732.1,182.1c0.2,0,0.3,0.1,0.4,0.3s0.1,0.5-0.1,0.6l-309.6,318.1c-0.2,0.2-0.4,0.2-0.6,0.1
					c-0.2-0.1-0.3-0.3-0.3-0.5l17.1-232.6c0-0.2,0.2-0.4,0.4-0.5l292.5-85.5C1731.9,182.1,1732,182.1,1732.1,182.1z M1423.1,499.3
					l307.1-315.6l-290.1,84.8L1423.1,499.3z"/>
			</g>
			<g>
				<path class="st1" d="M1732.1,182.1c0.2,0,0.4,0.2,0.4,0.4l43.4,211.7c0,0.2,0,0.4-0.2,0.5c-0.2,0.1-0.4,0.2-0.6,0l-396-227.4
					c-0.2-0.1-0.3-0.4-0.3-0.6c0.1-0.2,0.3-0.4,0.5-0.4L1732.1,182.1C1732,182.1,1732,182.1,1732.1,182.1z M1774.7,393.3
					l-43.1-210.1l-350-15.5L1774.7,393.3z"/>
			</g>
			<g>
				<path class="st1" d="M1731.5,182.7l43.4,211.7c0,0.1,0.1,0.2,0.2,0.3l126.9,94.4v-1.3L1775.9,394L1733,185l169,233.7v-1.8
					l-169.6-234.5c-0.1-0.1-0.2-0.2-0.4-0.2c-0.1,0-0.2,0-0.3,0C1731.6,182.3,1731.4,182.5,1731.5,182.7z"/>
			</g>
			<g>
				<path class="st1" d="M1249.9,95.3c0.1,0,0.1,0,0.2,0.1l129.5,71.1c0.2,0.1,0.3,0.3,0.3,0.6c-0.1,0.2-0.3,0.4-0.5,0.4
					l-310.7,17.1c-0.3,0-0.5-0.1-0.5-0.4c-0.1-0.2,0-0.5,0.2-0.6l181.2-88.2C1249.7,95.3,1249.8,95.3,1249.9,95.3z M1377.5,166.5
					l-127.6-70.1l-178.5,86.9L1377.5,166.5z"/>
			</g>
			<g>
				<path class="st1" d="M1249.9,95.3c0.1,0,0.1,0,0.2,0.1l129.5,71.1c0.2,0.1,0.3,0.3,0.3,0.4c0,0.2-0.1,0.4-0.2,0.5l-271.4,183.5
					c-0.2,0.2-0.5,0.1-0.7-0.1c-0.2-0.2-0.2-0.4-0.1-0.6l141.9-254.6C1249.5,95.4,1249.8,95.3,1249.9,95.3z M1378.4,167l-128.3-70.4
					l-140.5,252.1L1378.4,167z"/>
			</g>
			<g>
				<path class="st1" d="M1000.1,27.9c0.2,0,0.3,0.2,0.4,0.3l68.7,155.6c0.1,0.2,0,0.5-0.1,0.6c-0.2,0.2-0.4,0.2-0.6,0.1L818,28.3
					c-0.2-0.1-0.3-0.4-0.2-0.6c0.1-0.2,0.3-0.4,0.5-0.4L1000.1,27.9L1000.1,27.9z M1067.5,182.7L999.7,29l-179.6-0.6L1067.5,182.7z"
					/>
			</g>
			<g>
				<path class="st1" d="M748.4-180.8c0.2,0,0.4,0.2,0.4,0.4l69.9,208.1c0.1,0.2,0,0.3-0.1,0.5s-0.3,0.2-0.4,0.2l-139-0.5
					c-0.2,0-0.3-0.1-0.4-0.2c-0.1-0.1-0.1-0.3-0.1-0.5l69.1-207.7C747.9-180.7,748.1-180.9,748.4-180.8
					C748.4-180.8,748.4-180.8,748.4-180.8z M817.5,27.3l-69.2-205.9L680,26.9L817.5,27.3z"/>
			</g>
			<g>
				<path class="st1" d="M572.7-106.8C572.7-106.8,572.8-106.8,572.7-106.8l427.5,134.7c0.3,0.1,0.4,0.3,0.4,0.6s-0.3,0.4-0.5,0.4
					l-320.8-1c-0.2,0-0.3-0.1-0.4-0.2L572.3-106c-0.1-0.2-0.1-0.4,0-0.6C572.3-106.7,572.5-106.8,572.7-106.8z M996.6,27.9
					L574.2-105.2L679.5,26.9L996.6,27.9z"/>
			</g>
			<g>
				<path class="st1" d="M578.5-269.2c0.2,0,0.3,0.1,0.4,0.2L709.6-63.5c0.1,0.2,0.1,0.4,0,0.6c-0.2,0.2-0.4,0.2-0.6,0.2l-136.5-43
					c-0.2-0.1-0.4-0.3-0.4-0.5l5.8-162.3c0-0.1,0-0.1,0-0.2C577.9-269.1,578.2-269.3,578.5-269.2L578.5-269.2z M707.9-64.2
					L578.9-267l-5.7,160.4L707.9-64.2z"/>
			</g>
			<g>
				<path class="st1" d="M1212.7-190.1c0.2,0,0.4,0.2,0.4,0.5l37.3,285.4c0,0.2-0.1,0.5-0.3,0.6c-0.2,0.1-0.5,0.1-0.6-0.1
					l-103.2-107c-0.2-0.1-0.2-0.4-0.1-0.6l66-178.5C1212.2-190,1212.5-190.1,1212.7-190.1L1212.7-190.1z M1249.1,94.3l-36.8-281.7
					l-65.1,176.1L1249.1,94.3z"/>
			</g>
			<g>
				<path class="st1" d="M709.2-63.7c0.2,0,0.4,0.2,0.5,0.4l22.1,152.2c0,0.2-0.1,0.5-0.3,0.6s-0.5,0-0.6-0.2l-52-61.6
					c-0.1-0.2-0.2-0.3-0.1-0.5l29.9-90.6C708.7-63.7,708.9-63.8,709.2-63.7L709.2-63.7z M730.5,87.2L709-60.9l-29.1,88.2L730.5,87.2
					z"/>
			</g>
			<g>
				<path class="st1" d="M1439.6,267.6c0.2,0,0.4,0.2,0.4,0.4l107.4,340.4c0.1,0.2,0,0.5-0.2,0.6c-0.2,0.1-0.5,0.1-0.6,0
					l-124.5-107.7c-0.1-0.1-0.2-0.3-0.2-0.5l17.1-232.6c0,0,0-0.1,0-0.2C1439,267.7,1439.3,267.5,1439.6,267.6L1439.6,267.6z
					 M1545.9,606.9l-106-335.9L1423,500.6L1545.9,606.9z"/>
			</g>
			<g>
				<path class="st1" d="M638.8,75.8c0.1,0,0.3,0.1,0.3,0.2c0.1,0.2,0.1,0.4,0,0.5l-30.4,67.9c-0.1,0.2-0.3,0.3-0.5,0.3
					c-0.3,0-0.4-0.2-0.5-0.4l-12.4-62.5c0-0.2,0-0.3,0.1-0.4c0.1-0.1,0.2-0.2,0.4-0.2l42.9-5.3C638.7,75.8,638.8,75.8,638.8,75.8z
					 M608.5,142.4L637.9,77l-41.4,5.1L608.5,142.4z"/>
			</g>
			<g>
				<path class="st1" d="M937.8,146.8c0,0,0.1,0,0.2,0l50,22.5c0.2,0.1,0.3,0.3,0.3,0.5s-0.1,0.4-0.3,0.5l-108.8,62.4
					c-0.2,0.1-0.5,0.1-0.7-0.1c-0.2-0.2-0.2-0.5,0-0.7l58.8-84.9C937.5,146.9,937.6,146.8,937.8,146.8z M986.6,169.9L938,148
					l-57.2,82.6L986.6,169.9z"/>
			</g>
			<g>
				<path class="st1" d="M1242.4-79.7C1242.5-79.7,1242.5-79.7,1242.4-79.7c0.3,0.1,0.4,0.2,0.4,0.4l16,81.6c0,0.2,0,0.4-0.2,0.5
					c-0.1,0.1-0.3,0.2-0.5,0.1l-70.9-16.8c-0.2,0-0.3-0.2-0.4-0.3c-0.1-0.2,0-0.4,0.1-0.5l55.1-64.8
					C1242.1-79.6,1242.2-79.7,1242.4-79.7z M1257.7,1.8L1242-77.9l-53.6,63.3L1257.7,1.8z"/>
			</g>
			<path class="st2" d="M1104.9,350c0.2-1.7,1.8-3,3.6-2.7c1.7,0.2,2.9,1.8,2.7,3.6c-0.2,1.7-1.8,2.9-3.6,2.7
				C1105.9,353.3,1104.7,351.7,1104.9,350z"/>
			<path class="st2" d="M1065.6,183.6c0.2-1.7,1.8-3,3.6-2.7c1.8,0.2,3,1.8,2.7,3.6c-0.2,1.7-1.8,2.9-3.6,2.7
				C1066.5,187,1065.4,185.4,1065.6,183.6z"/>
			<path class="st2" d="M1208.6-190.1c0.2-1.7,1.8-2.9,3.6-2.7c1.7,0.2,2.9,1.8,2.7,3.6c-0.2,1.7-1.8,2.9-3.6,2.7
				C1209.5-186.8,1208.3-188.4,1208.6-190.1z"/>
			<path class="st2" d="M569.5-106.7c0.2-1.7,1.8-2.9,3.6-2.7c1.7,0.2,3,1.9,2.7,3.6c-0.2,1.7-1.8,2.9-3.6,2.7
				C570.5-103.4,569.3-104.9,569.5-106.7z"/>
			<path class="st2" d="M674.9,26.8c0.3-2.4,2.5-4.1,4.9-3.7c2.4,0.3,4.1,2.5,3.8,4.9s-2.6,4.1-5,3.7
				C676.3,31.4,674.6,29.2,674.9,26.8z"/>
			<path class="st2" d="M813.8,27.9c0.3-2.4,2.6-4.1,4.9-3.7c2.4,0.3,4.1,2.5,3.8,4.9c-0.3,2.4-2.5,4.1-5,3.7
				C815.2,32.5,813.5,30.3,813.8,27.9z"/>
			<path class="st2" d="M1245.5,95.3c0.3-2.4,2.6-4.1,4.9-3.7c2.4,0.3,4.1,2.6,3.8,4.9c-0.3,2.4-2.5,4.1-5,3.7
				C1246.9,99.9,1245.2,97.7,1245.5,95.3z"/>
			<path class="st2" d="M1659.5-65.4c0.3-2.4,2.5-4.1,4.9-3.7c2.4,0.3,4.1,2.6,3.8,4.9c-0.3,2.4-2.5,4.1-5,3.8
				C1660.8-60.7,1659.1-63,1659.5-65.4z"/>
			<path class="st2" d="M1542.6,607.9c0.3-2.4,2.6-4.1,5-3.8s4.1,2.5,3.7,4.9c-0.3,2.4-2.5,4.1-4.9,3.7
				C1543.9,612.5,1542.3,610.3,1542.6,607.9z"/>
			<path class="st2" d="M725.5,88.2c0.4-3.2,3.4-5.4,6.5-4.9c3.2,0.4,5.4,3.3,4.9,6.5c-0.4,3.2-3.4,5.4-6.5,5
				C727.3,94.3,725.1,91.4,725.5,88.2z"/>
			<path class="st2" d="M1433.8,267.3c0.4-3.2,3.4-5.4,6.5-4.9c3.2,0.4,5.4,3.3,4.9,6.5c-0.4,3.2-3.4,5.4-6.5,4.9
				C1435.6,273.4,1433.4,270.5,1433.8,267.3z"/>
			<path class="st2" d="M1769.7,393.6c0.4-3.2,3.4-5.4,6.5-4.9c3.2,0.4,5.4,3.3,4.9,6.5c-0.4,3.2-3.4,5.4-6.5,5
				S1769.2,396.7,1769.7,393.6z"/>
			<path class="st2" d="M989.7,504.6c0.4-3.2,3.3-5.4,6.5-4.9c3.2,0.4,5.4,3.3,4.9,6.5c-0.4,3.2-3.4,5.4-6.5,4.9
				C991.5,510.7,989.2,507.8,989.7,504.6z"/>
			<path class="st2" d="M572.7-269.5c0.4-3.2,3.4-5.4,6.5-4.9c3.2,0.4,5.4,3.4,5,6.5c-0.4,3.2-3.4,5.4-6.5,4.9
				C574.5-263.4,572.3-266.3,572.7-269.5z"/>
			<path class="st2" d="M703.4-64c0.4-3.2,3.4-5.3,6.5-4.9c3.2,0.4,5.4,3.3,4.9,6.5c-0.4,3.2-3.4,5.4-6.5,4.9
				C705.2-57.9,703-60.9,703.4-64z"/>
			<path class="st2" d="M539.6,152.9c0.4-3.2,3.4-5.4,6.5-4.9c3.2,0.4,5.4,3.4,4.9,6.5c-0.4,3.2-3.4,5.3-6.5,4.9
				C541.4,158.9,539.2,156,539.6,152.9z"/>
			<path class="st2" d="M740.8-180.3c0.5-3.8,4-6.5,7.9-5.9c3.8,0.5,6.5,4,6,7.8s-4,6.5-7.9,6C742.9-173,740.2-176.5,740.8-180.3z"
				/>
			<path class="st2" d="M993.2,27.5c0.5-3.8,4-6.5,7.9-5.9c3.8,0.5,6.5,4,6,7.8s-4.1,6.5-7.9,6C995.3,34.8,992.6,31.3,993.2,27.5z"
				/>
			<path class="st2" d="M1139.4-9.5c0.5-3.8,4-6.5,7.9-6c3.8,0.5,6.5,4,6,7.9c-0.5,3.8-4,6.5-7.9,6
				C1141.5-2.2,1138.8-5.8,1139.4-9.5z"/>
			<path class="st2" d="M1372.5,166c0.5-3.8,4-6.5,7.9-5.9c3.8,0.5,6.5,4,6,7.8s-4,6.5-7.9,6C1374.6,173.4,1372,169.8,1372.5,166z"
				/>
			<path class="st2" d="M1416.3,499.9c0.5-3.8,4.1-6.5,7.9-6c3.8,0.5,6.5,4,6,7.9c-0.5,3.8-4,6.5-7.9,6
				C1418.5,507.3,1415.8,503.8,1416.3,499.9z"/>
			<path class="st2" d="M1725.1,181.7c0.5-3.8,4.1-6.5,7.9-6s6.5,4,6,7.9c-0.5,3.8-4.1,6.5-7.9,6
				C1727.2,189,1724.5,185.5,1725.1,181.7z"/>
			<path class="st2" d="M636.4,76c0.2-1.3,1.3-2.1,2.6-2c1.3,0.2,2.1,1.3,2,2.6c-0.2,1.3-1.3,2.2-2.6,2
				C637.1,78.4,636.3,77.3,636.4,76z"/>
			<path class="st2" d="M592.2,81.2c0.3-2,2.2-3.5,4.2-3.2s3.5,2.2,3.2,4.2s-2.2,3.5-4.2,3.2C593.3,85.1,591.9,83.2,592.2,81.2z"/>
			<path class="st2" d="M1244.7-78.9c-0.1,1.3-1.3,2.2-2.6,2c-1.3-0.2-2.2-1.3-2.1-2.6c0.2-1.3,1.3-2.2,2.6-2.1
				C1243.9-81.3,1244.8-80.2,1244.7-78.9z"/>
			<path class="st2" d="M1288.8-85.2c-0.2,2.1-2.1,3.5-4.1,3.3c-2.1-0.2-3.5-2.1-3.3-4.1c0.2-2,2.1-3.5,4.1-3.3
				S1289-87.3,1288.8-85.2z"/>
			<path class="st2" d="M1201.2-145.7c-0.1,1.4-1.4,2.4-2.8,2.3c-1.4-0.2-2.4-1.4-2.3-2.8c0.2-1.4,1.4-2.4,2.8-2.3
				C1200.4-148.4,1201.4-147.1,1201.2-145.7z"/>
			<path class="st2" d="M1261.2,2.8c-0.2,1.6-1.6,2.7-3.2,2.6s-2.8-1.6-2.6-3.2c0.2-1.6,1.6-2.8,3.2-2.5
				C1260.3-0.2,1261.4,1.2,1261.2,2.8z"/>
			<path class="st2" d="M1189.7-14c-0.1,1.2-1.2,2.1-2.5,2c-1.2-0.1-2.1-1.2-2-2.5c0.1-1.2,1.2-2.1,2.5-2
				C1189-16.4,1189.9-15.3,1189.7-14z"/>
			<path class="st2" d="M597.3,163.8c0.1-1.1,1.1-1.8,2.2-1.7c1.1,0.2,1.8,1.1,1.7,2.2c-0.2,1.1-1.1,1.9-2.2,1.7
				C597.9,165.8,597.1,164.8,597.3,163.8z"/>
			<path class="st2" d="M933.4,146.7c0.3-2.4,2.5-4.1,4.9-3.7c2.4,0.3,4.1,2.5,3.8,4.9c-0.3,2.4-2.6,4.1-5,3.7
				C934.8,151.4,933.1,149.1,933.4,146.7z"/>
			<path class="st2" d="M875.8,231.8c0.2-1.7,1.9-2.9,3.6-2.7c1.7,0.2,3,1.9,2.7,3.6c-0.2,1.7-1.8,2.9-3.6,2.7
				C876.8,235.1,875.6,233.5,875.8,231.8z"/>
			<path class="st2" d="M961,246.7c0.1-1.1,1.1-1.8,2.2-1.6s1.8,1.1,1.6,2.2c-0.1,1.1-1.1,1.8-2.2,1.7
				C961.5,248.7,960.8,247.8,961,246.7z"/>
			<path class="st2" d="M985.7,169.5c0.1-1.1,1.1-1.8,2.2-1.6s1.8,1.1,1.6,2.2c-0.2,1.1-1.1,1.8-2.2,1.6
				C986.3,171.5,985.6,170.5,985.7,169.5z"/>
			<path class="st2" d="M1030.2,75.7c0.1-1.1,1.1-1.8,2.2-1.6s1.8,1.1,1.6,2.2c-0.1,1.1-1.1,1.8-2.2,1.6
				C1030.8,77.7,1030.1,76.7,1030.2,75.7z"/>
			<path class="st2" d="M838,133.6c0.1-1.1,1.1-1.8,2.2-1.6c1,0.2,1.8,1.1,1.6,2.2c-0.1,1.1-1.1,1.8-2.2,1.7
				C838.6,135.7,837.9,134.7,838,133.6z"/>
			<g>
				<path class="st3" d="M1614.7-318.5c0.1,0,0.2,0.1,0.3,0.1c0.4,0.2,0.6,0.6,0.5,1l-6.1,46.9c0,0.3-0.3,0.7-0.6,0.8l-76.3,32.3
					c-0.4,0.2-0.9,0-1.2-0.4c-0.3-0.4-0.2-0.9,0.1-1.2l82.4-79.2C1614.1-318.5,1614.4-318.6,1614.7-318.5z M1607.5-271.3l5.7-43.6
					l-76.6,73.6L1607.5-271.3z"/>
			</g>
			<g>
				<path class="st3" d="M1388.6-306.9L1388.6-306.9l219.9,35.3c0.4,0.1,0.8,0.4,0.8,0.8c0.1,0.4-0.2,0.8-0.6,1l-76.3,32.3
					c-0.3,0.1-0.5,0.1-0.8,0L1388-305.1c-0.4-0.2-0.6-0.7-0.5-1.1C1387.7-306.7,1388.2-307,1388.6-306.9z M1604.9-270.3l-209.8-33.6
					l137,64.5L1604.9-270.3z"/>
			</g>
			<path class="st3" d="M323.4-191.4c0.2,0,0.3,0.1,0.4,0.2c0.2,0.2,0.2,0.5,0,0.7l-56,80.6c-0.1,0.2-0.3,0.2-0.5,0.2
				s-0.4-0.1-0.5-0.2l-29.9-39c-0.1-0.1-0.1-0.3-0.1-0.5c0-0.1,0.2-0.3,0.3-0.4l85.9-41.5C323.2-191.4,323.3-191.4,323.4-191.4z
				 M267.3-111.2l54.3-78.1L238.4-149L267.3-111.2z"/>
			<path class="st3" d="M237.6-149.9c0.1,0,0.3,0.1,0.4,0.2l29.9,39c0.1,0.2,0.2,0.5,0,0.7s-0.4,0.3-0.7,0.2L143.3-156
				c-0.3-0.1-0.4-0.4-0.4-0.7c0.1-0.3,0.3-0.4,0.6-0.4L237.6-149.9C237.5-149.9,237.5-149.9,237.6-149.9z M265.7-111.5l-28.5-37.2
				l-89.7-6.9L265.7-111.5z"/>
			<path class="st3" d="M1715.3-37.1c0.1,0,0.3,0.1,0.4,0.2l86.3,75.2c0.2,0.2,0.3,0.5,0.2,0.8c-0.1,0.3-0.3,0.5-0.6,0.5l-67.9,2.9
				c-0.3,0-0.7-0.2-0.7-0.5l-18.4-78c-0.1-0.3,0.1-0.6,0.3-0.8C1715-37.1,1715.2-37.2,1715.3-37.1z M1799.7,38.1l-83.2-72.5
				l17.7,75.3L1799.7,38.1z"/>
			<path class="st3" d="M1767.9-78.6c0.1,0,0.2,0,0.3,0.1c0.2,0.2,0.3,0.4,0.2,0.7l-21.3,60.6c-0.1,0.2-0.3,0.4-0.6,0.4
				c-0.2,0-0.5-0.1-0.6-0.3l-16.3-33.7c-0.1-0.2-0.1-0.6,0.2-0.8l37.6-27C1767.6-78.6,1767.7-78.7,1767.9-78.6z M1746.4-19
				l20.2-57.4L1731-50.9L1746.4-19z"/>
			<g>
				<path class="st3" d="M1273.7,671.2c0.1,0.1,0.2,0.3,0.2,0.5l1.9,60.6c0,0.2-0.1,0.4-0.2,0.6c-0.2,0.1-0.4,0.2-0.6,0.2
					l-116.2-19.9c-0.3,0-0.6-0.3-0.6-0.6s0.2-0.6,0.5-0.7l114.3-40.8C1273.2,671,1273.4,671.1,1273.7,671.2
					C1273.6,671.2,1273.7,671.2,1273.7,671.2z M1274.3,731.6l-1.8-58.9l-110.8,39.6L1274.3,731.6z"/>
			</g>
			<g>
				<path class="st3" d="M1273.7,671.2l0.1,0.1l91.2,135.5c0.2,0.3,0.2,0.7-0.1,0.9c-0.3,0.2-0.7,0.2-1,0l-89.3-74.7
					c-0.2-0.2-0.2-0.3-0.3-0.5l-1.9-60.5c-0.1-0.2,0-0.5,0.2-0.7C1272.9,671,1273.4,670.9,1273.7,671.2L1273.7,671.2z M1361,803.4
					l-87-129.2l1.8,57.9L1361,803.4z"/>
			</g>
			<polygon class="st4" points="1902,24.7 1640.6,10.3 1804,330.4 1902,63.4 			"/>
			<path class="st3" d="M1639.6,10.8L1803,330.9c0.2,0.4,0.6,0.6,1,0.6s0.8-0.3,0.9-0.7l97-264.2v-6.2l-98.2,267.4L1642.2,11.5
				L1902,25.8v-2.1L1640.6,9.3c-0.4,0-0.7,0.2-0.9,0.5C1639.5,10,1639.4,10.4,1639.6,10.8z"/>
			<path class="st3" d="M680.8-366h-1.5l29.3,114.3l-42.5-55.6l7.2-58.8h-1.4l-7.2,58.9c0,0.2,0,0.4,0.1,0.5l44.8,58.5
				c0.2,0.2,0.5,0.3,0.9,0.2c0.3-0.2,0.5-0.5,0.4-0.8L680.8-366z"/>
			<path class="st3" d="M665.4-307.7C665.5-307.7,665.5-307.7,665.4-307.7l135.7,28.6c0.3,0.1,0.5,0.3,0.6,0.7
				c0,0.3-0.2,0.6-0.5,0.7l-90.9,30c-0.3,0.1-0.6,0-0.8-0.2l-44.8-58.5c-0.2-0.2-0.2-0.6,0-0.8C664.9-307.6,665.2-307.7,665.4-307.7
				z M798.3-278.3l-131.2-27.6l43.4,56.6L798.3-278.3z"/>
			<polygon class="st4" points="1902,749.9 1902,543.4 1775.2,550.5 			"/>
			<path class="st3" d="M1774.3,551.1L1902,751.9v-4l-125-196.4l125-6.9v-2.1l-126.9,7c-0.4,0-0.7,0.2-0.9,0.6
				C1774,550.3,1774.1,550.7,1774.3,551.1z"/>
			<path class="st3" d="M1434.5,216.6L1774.7,551c0.2,0.2,0.6,0.3,0.8,0.1l126.5-71.3v-1.6l-126.7,71.4l-337.7-332l464.4,144v-1.5
				l-466.8-144.6h-0.1c-0.3,0-0.6,0.1-0.7,0.3C1434.2,216,1434.3,216.4,1434.5,216.6z"/>
			<polygon class="st4" points="1775.2,550.5 1641.6,570.6 1435,216.1 			"/>
			<path class="st3" d="M1435.2,215c0.2,0,0.4,0.1,0.6,0.3l340.1,334.4c0.3,0.3,0.4,0.7,0.3,1.1c-0.1,0.4-0.5,0.6-0.8,0.7
				l-133.6,20.1c-0.4,0.1-0.9-0.2-1.1-0.5l-206.5-354.3c-0.2-0.2-0.3-0.5-0.3-0.9C1434,215.4,1434.6,215,1435.2,215L1435.2,215z
				 M1772.9,549.7l-333-327.3l202.2,347L1772.9,549.7z"/>
			<path class="st3" d="M1775.3,549.8c0.2,0,0.5,0.2,0.6,0.4c0.1,0.3,0,0.6-0.2,0.8l-275.2,209.1c-0.3,0.2-0.7,0.2-0.9-0.1
				c-0.2-0.2-0.3-0.6-0.1-0.9l141.6-189c0.1-0.1,0.3-0.2,0.5-0.3l133.6-20.1C1775.1,549.8,1775.2,549.8,1775.3,549.8z M1503.6,756
				l268.9-204.4L1642,571.3L1503.6,756z"/>
			<path class="st3" d="M1641.2,571.2L1902,761.5v-1.8l-257.1-187.6l257.1,61.3v-1.5l-260.2-62c0,0,0,0-0.1,0
				c-0.3-0.1-0.6,0.1-0.7,0.4C1640.8,570.6,1640.9,570.9,1641.2,571.2z"/>
			<path class="st3" d="M1803.8,331.1l98.2,30.4V360l-96.3-29.8l96.3-56.7v-1.7l-98.4,57.9c-0.2,0.2-0.4,0.4-0.3,0.7
				C1803.3,330.8,1803.5,331,1803.8,331.1z"/>
			<path class="st3" d="M1085.6,79.6L1085.6,79.6l349.7,135.8c0.3,0.1,0.5,0.5,0.4,0.8c-0.1,0.4-0.5,0.5-0.8,0.5L839,122.5
				c-0.4,0-0.6-0.4-0.6-0.7s0.3-0.6,0.6-0.7l246.4-41.5C1085.4,79.6,1085.5,79.6,1085.6,79.6z M1428.6,214.4L1085.4,81l-241.9,40.8
				L1428.6,214.4z"/>
			<path class="st3" d="M1144-15.6c0.1,0,0.2,0.1,0.4,0.2l291.1,230.9c0.1,0.1,0.2,0.3,0.3,0.5l65,543.5c0,0.4-0.2,0.7-0.5,0.8
				c-0.3,0.1-0.7-0.1-0.8-0.4L1143.4-14.5c-0.1-0.3,0-0.6,0.2-0.9C1143.7-15.6,1143.8-15.6,1144-15.6z M1434.3,216.5L1145.8-12.4
				l353,767.7L1434.3,216.5z"/>
			<polygon class="st4" points="1143.9,-14.9 1116.6,-214.6 1358.3,-298.2 			"/>
			<path class="st3" d="M1358.4-299.6c0.4,0.1,0.7,0.2,1,0.6c0.4,0.5,0.4,1.2,0,1.7L1145.1-14c-0.3,0.4-0.9,0.7-1.5,0.5
				c-0.5-0.2-1-0.6-1.1-1.2l-27.3-199.7c-0.1-0.6,0.3-1.3,0.9-1.5l241.6-83.6C1358-299.6,1358.2-299.6,1358.4-299.6z M1144.9-18.5
				l209.4-276.9l-236.1,81.7L1144.9-18.5z"/>
			<path class="st3" d="M1116.7-215.3c0.2,0,0.5,0.2,0.6,0.5c0.1,0.2,0,0.5-0.1,0.7l-149.6,179c-0.2,0.2-0.4,0.3-0.7,0.2
				c-0.2-0.1-0.5-0.2-0.6-0.5l-72.4-209c-0.1-0.2,0-0.5,0.1-0.7c0.1-0.2,0.4-0.3,0.6-0.3L1116.7-215.3L1116.7-215.3z M967.2-37
				l148-177l-219.6-29.8L967.2-37z"/>
			<path class="st3" d="M1116.7-215.3C1116.8-215.3,1116.8-215.3,1116.7-215.3c0.4,0.1,0.6,0.3,0.6,0.6L1144.6-15
				c0,0.2,0,0.4-0.2,0.6c-0.2,0.2-0.4,0.2-0.6,0.2L966.8-35c-0.2,0-0.5-0.2-0.6-0.5c-0.1-0.2-0.1-0.5,0.1-0.7l149.7-179
				C1116.2-215.2,1116.5-215.3,1116.7-215.3z M1143.1-15.7l-27-197.2L968.3-36.2L1143.1-15.7z"/>
			<path class="st3" d="M967.1-36.3c0.1,0,0.3,0.1,0.4,0.2L1086,79.8c0.2,0.2,0.3,0.5,0.2,0.7c-0.1,0.3-0.3,0.5-0.6,0.5l-246.4,41.5
				c-0.3,0-0.6-0.1-0.7-0.4c-0.1-0.3-0.1-0.6,0.1-0.8L966.4-36.1c0.1-0.2,0.3-0.2,0.5-0.2C967-36.3,967-36.4,967.1-36.3z M1084,79.8
				L967-34.6L840.8,120.8L1084,79.8z"/>
			<polygon class="st5" points="894.6,-244.7 839.1,121.8 967,-35.6 			"/>
			<path class="st3" d="M894.7-245.4c0.3,0,0.5,0.2,0.6,0.5l72.4,209c0.1,0.2,0,0.5-0.1,0.7L839.7,122.3c-0.2,0.2-0.6,0.3-0.8,0.2
				c-0.3-0.2-0.5-0.4-0.4-0.8L894-244.8C894-245.1,894.3-245.4,894.7-245.4C894.6-245.4,894.6-245.4,894.7-245.4z M966.2-35.8
				l-71.3-206l-54.7,361.1L966.2-35.8z"/>
			<polygon class="st5" points="1018.5,-366 894.6,-244.7 1116.6,-214.6 1104.1,-366 			"/>
			<path class="st3" d="M1103-366l12.4,150.2l-218.6-29.6L1020-366h-3L893.9-245.4c-0.3,0.3-0.4,0.7-0.3,1.1
				c0.1,0.4,0.5,0.6,0.9,0.7l222.1,30.1c0.3,0,0.6-0.1,0.9-0.3c0.2-0.2,0.4-0.5,0.3-0.9L1105.3-366L1103-366L1103-366z"/>
			<polygon class="st4" points="1381.6,-32.5 1402,74.2 1143.9,-14.9 			"/>
			<path class="st3" d="M1381.8-33.6c0.4,0.1,0.8,0.4,0.9,0.8L1403.1,74c0.1,0.4-0.1,0.8-0.4,1c-0.3,0.3-0.7,0.3-1,0.2l-258.1-89.1
				c-0.5-0.2-0.8-0.6-0.7-1.1s0.5-0.9,1-0.9l237.7-17.7C1381.6-33.6,1381.7-33.6,1381.8-33.6z M1400.6,72.6l-19.9-104l-231.6,17.2
				L1400.6,72.6z"/>
			<path class="st3" d="M1402.1,73.6c0.1,0,0.2,0,0.3,0.1l402,256.2c0.3,0.2,0.4,0.6,0.3,0.9c-0.2,0.3-0.5,0.5-0.9,0.4l-369-114.3
				c-0.2-0.1-0.4-0.3-0.5-0.5l-33-141.9c-0.1-0.3,0-0.6,0.3-0.8C1401.8,73.6,1401.9,73.5,1402.1,73.6z M1799.1,328.2l-396-252.4
				l32.5,139.8L1799.1,328.2z"/>
			<path class="st3" d="M1803.5,331c0.2,0.2,0.6,0.2,0.8,0.1l97.7-57.5v-1.7l-96.7,56.9L1902,65.5v-4.1l-98.7,268.8
				C1803.2,330.5,1803.3,330.8,1803.5,331z"/>
			<path class="st3" d="M1435.1,215.4c0.3,0,0.6,0.3,0.6,0.6s-0.2,0.7-0.5,0.8l-243.3,56.7c-0.1,0-0.2,0-0.4,0l-225.4-67.1
				c-0.3-0.1-0.5-0.4-0.5-0.8c0-0.3,0.4-0.6,0.7-0.6L1435.1,215.4L1435.1,215.4z M1191.8,272.1l237.6-55.4l-457.7-10.1L1191.8,272.1
				z"/>
			<path class="st3" d="M1435.1,215.4c0.2,0,0.4,0.2,0.5,0.3l206.6,354.5c0.2,0.3,0.1,0.6-0.1,0.9c-0.3,0.2-0.6,0.2-0.9,0.1
				l-449.8-297.8c-0.2-0.2-0.3-0.5-0.3-0.7c0.1-0.3,0.3-0.5,0.5-0.6l243.3-56.7C1434.9,215.4,1435,215.4,1435.1,215.4z
				 M1639.4,568.3l-204.8-351.4l-241.1,56.2L1639.4,568.3z"/>
			<path class="st3" d="M-54,219.1L84.9,196L-54,393.7v2.3L86.9,195.4c0.2-0.3,0.1-0.6,0-0.8s-0.3-0.3-0.5-0.3c0,0-0.1,0-0.2,0
				l-140.1,23.3v1.5H-54z"/>
			<path class="st3" d="M577.4-167L245.3-366h-2.8l334.1,200.2c0.3,0.2,0.8,0.1,1-0.2C577.9-166.4,577.8-166.8,577.4-167z"/>
			<path class="st3" d="M1499.3,759.8c0.1,0.3,0.4,0.5,0.7,0.5l402,10v-1.4l-399.9-9.9L1775,551.5l127,199.7v-2.7l-126.2-198.4
				c-0.1-0.2-0.3-0.3-0.5-0.3l0,0c-0.2,0-0.4,0-0.5,0.2l-275.2,209C1499.4,759.2,1499.2,759.5,1499.3,759.8z"/>
			<path class="st3" d="M1401.4,74.5c0.1,0.3,0.5,0.5,0.8,0.4L1640.8,11c0.1,0,0.2-0.1,0.3-0.2L1902-241.7v-2L1640.2,9.7
				l-234.1,62.8l495.9-327v-1.7l-500.4,330C1401.3,73.8,1401.2,74.2,1401.4,74.5z"/>
			<path class="st3" d="M1640.7,9.6c0.2,0,0.4,0.2,0.5,0.4l163.4,320.2c0.2,0.3,0.1,0.6-0.1,0.8s-0.6,0.2-0.9,0.1l-402-256.2
				c-0.2-0.2-0.4-0.4-0.3-0.7c0-0.3,0.2-0.5,0.5-0.6l238.6-63.9C1640.5,9.6,1640.6,9.6,1640.7,9.6z M1802.2,328.4l-162-317.3
				l-236.4,63.4L1802.2,328.4z"/>
			<path class="st3" d="M1639.9,10.6c0.1,0.3,0.3,0.4,0.6,0.5L1902,25.5v-1.4L1642.2,9.8L1902-241.7v-2L1640.1,9.8
				C1639.9,10,1639.8,10.3,1639.9,10.6z"/>
			<polygon class="st3" points="1875.2,-366 1902,-332.8 1902,-335 1877,-366 			"/>
			<path class="st3" d="M1191.9,272.1c0.1,0,0.2,0.1,0.3,0.1c0.3,0.2,0.4,0.6,0.3,0.9l-174.7,370.5c-0.1,0.3-0.4,0.4-0.7,0.4l0,0
				c-0.3,0-0.6-0.3-0.6-0.6l-22.2-141.8c0-0.2,0-0.4,0.2-0.6l196.7-228.7C1191.4,272.1,1191.6,272.1,1191.9,272.1z M1017.5,640.9
				l171.4-363.7L995.6,501.7L1017.5,640.9z"/>
			<path class="st3" d="M678.1-67.5c0.2,0,0.4,0.2,0.6,0.4c0.1,0.2,0.1,0.5-0.1,0.7L524.7,116.7c-0.2,0.3-0.7,0.3-1,0.1L281-62.4
				c-0.2-0.2-0.3-0.5-0.3-0.8c0.1-0.3,0.4-0.5,0.7-0.5L678.1-67.5L678.1-67.5z M524,115.3L676.5-66.1l-392.9,3.7L524,115.3z"/>
			<path class="st3" d="M678.1-67.5c0.2,0,0.3,0.1,0.5,0.2l161,188.6c0.2,0.2,0.2,0.5,0.1,0.8c-0.1,0.2-0.4,0.4-0.6,0.4l-315-5.6
				c-0.3,0-0.5-0.2-0.6-0.4s-0.1-0.5,0.1-0.7l153.9-183C677.6-67.4,677.8-67.5,678.1-67.5L678.1-67.5z M837.5,121.1L678-65.7
				L525.6,115.6L837.5,121.1z"/>
			<path class="st3" d="M894.7-245.4c0.1,0,0.2,0,0.3,0.1c0.3,0.1,0.4,0.4,0.4,0.7l-55.5,366.5c0,0.3-0.2,0.5-0.5,0.6
				c-0.3,0.1-0.6,0-0.7-0.2L677.6-66.3c-0.1-0.1-0.2-0.3-0.1-0.5c0-0.2,0.1-0.4,0.2-0.5l216.5-177.9
				C894.3-245.4,894.5-245.4,894.7-245.4z M838.6,120.2l54.9-363.1L679-66.7L838.6,120.2z"/>
			<path class="st3" d="M894.7-245.4c0.2,0,0.4,0.2,0.5,0.4c0.2,0.3,0.1,0.6-0.2,0.9L678.5-66.2c-0.3,0.2-0.7,0.2-1,0l-101-99.6
				c-0.2-0.2-0.2-0.5-0.2-0.7c0.1-0.2,0.3-0.4,0.5-0.5l317.5-78.2C894.5-245.4,894.6-245.4,894.7-245.4z M678.1-67.7l213.6-175.5
				L578.5-166L678.1-67.7z"/>
			<path class="st3" d="M894.7-245.4c0.2,0,0.5,0.2,0.6,0.5l72.4,209c0.1,0.2,0,0.5-0.2,0.7s-0.5,0.2-0.7,0.1L576.9-165.9
				c-0.3-0.1-0.5-0.4-0.5-0.7c0-0.3,0.2-0.6,0.5-0.7l317.5-78.2C894.5-245.4,894.6-245.4,894.7-245.4z M965.8-36.8l-71.7-207.1
				l-314.5,77.5L965.8-36.8z"/>
			<path class="st3" d="M514.8-318.9L514.8-318.9L514.8-318.9l379.9,73.5c0.3,0,0.5,0.2,0.6,0.5s0,0.6-0.2,0.7L678.6-66.3
				c-0.2,0.1-0.4,0.2-0.6,0.1c-0.2,0-0.4-0.1-0.5-0.3L514.3-317.8c-0.2-0.2-0.2-0.4-0.2-0.6C514-318.7,514.4-318.9,514.8-318.9z
				 M892.9-244.3l-376.7-72.9l162,249.3L892.9-244.3z"/>
			<path class="st3" d="M1356.7-296.3L1234.8-366h-2.9l122.2,69.9l-457.5,50.5l123-120.4h-2.1L894.1-245.2c-0.2,0.2-0.3,0.5-0.1,0.8
				c0.1,0.3,0.4,0.5,0.7,0.4l461.8-51c0.3,0,0.5-0.2,0.6-0.6C1357.1-295.8,1356.9-296.1,1356.7-296.3z"/>
			<path class="st3" d="M1184.5-366l-67.4,148.7L1104.8-366h-1.4l12.5,151.5c0,0.3,0.3,0.6,0.6,0.6c0.4,0,0.7-0.1,0.8-0.4
				l68.8-151.7H1184.5z"/>
			<polygon class="st4" points="577.1,-166.4 281.5,-63 678,-66.8 			"/>
			<path class="st3" d="M577.2-167.1c0.1,0,0.3,0.1,0.4,0.2l101,99.6c0.2,0.2,0.2,0.5,0.1,0.8c-0.1,0.3-0.4,0.4-0.6,0.4l-396.6,3.8
				c-0.4,0-0.7-0.3-0.7-0.6c0-0.4,0.1-0.7,0.5-0.8l295.6-103.4C576.9-167.1,577.1-167.1,577.2-167.1z M676.3-67.5l-99.5-98.1
				L285.7-63.7L676.3-67.5z"/>
			<path class="st3" d="M1358.4-298.9L1358.4-298.9c0.4,0.1,0.6,0.3,0.6,0.6l23.4,265.7c0,0.2,0,0.4-0.2,0.5
				c-0.1,0.1-0.3,0.2-0.5,0.2L1144-14.1c-0.3,0-0.5-0.1-0.7-0.4c-0.1-0.3-0.1-0.6,0.1-0.8l214.3-283.4
				C1357.8-298.9,1358.1-299,1358.4-298.9z M1380.9-33.2l-23.2-263.1L1145.4-15.7L1380.9-33.2z"/>
			<path class="st3" d="M1116.7-215.3c0.1,0,0.2,0.1,0.3,0.2c0.2,0.2,0.3,0.4,0.3,0.6l-31.2,294.9c0,0.2-0.1,0.4-0.3,0.5
				c-0.2,0.1-0.4,0.2-0.6,0.1L677.8-66.1c-0.3-0.1-0.5-0.4-0.5-0.7s0.2-0.6,0.5-0.6l438.6-147.8
				C1116.5-215.3,1116.6-215.3,1116.7-215.3z M1084.9,79.3l30.9-292.8L680.2-66.7L1084.9,79.3z"/>
			<path class="st3" d="M1540-366L1381-32.8c-0.2,0.4,0,0.8,0.3,1c0.4,0.2,0.8,0,1-0.3L1541.6-366H1540z"/>
			<path class="st3" d="M1144-15.6c0.2,0,0.4,0.2,0.5,0.4s0.1,0.5,0,0.7L1086,80.6c-0.1,0.2-0.3,0.3-0.5,0.3s-0.4,0-0.6-0.2
				L966.4-35.2c-0.2-0.2-0.3-0.5-0.1-0.8c0.1-0.2,0.4-0.4,0.7-0.4L1144-15.6L1144-15.6z M1085.3,79.2l57.4-93.5L969-34.7
				L1085.3,79.2z"/>
			<path class="st3" d="M-54-13.1l335.3-49.2l240.1,177.4L-54,25v1.4L524,117c0.3,0.1,0.6-0.1,0.8-0.4c0.1-0.3,0-0.7-0.2-0.8
				L281.9-63.5c-0.1-0.1-0.2-0.1-0.3-0.2c-0.1,0-0.1,0-0.2,0L-54-14.5V-13.1z"/>
			<polygon class="st5" points="1017.1,643.2 1285.2,614.3 994.9,501.5 			"/>
			<path class="st3" d="M995,500.8L995,500.8l290.4,112.8c0.3,0.1,0.5,0.4,0.5,0.7s-0.3,0.6-0.6,0.6l-268.1,29
				c-0.4,0.1-0.7-0.2-0.8-0.6l-22.2-141.8c0-0.2,0.1-0.5,0.2-0.7C994.6,500.8,994.8,500.8,995,500.8z M1282.2,613.9L995.8,502.6
				l21.9,139.9L1282.2,613.9z"/>
			<path class="st3" d="M281.6-63.7c0.1,0,0.2,0.1,0.3,0.2l242.7,179.2c0.2,0.2,0.3,0.5,0.2,0.7c0,0.3-0.3,0.5-0.6,0.6L86.3,195.8
				c-0.3,0.1-0.6-0.1-0.7-0.3s-0.1-0.6,0-0.8l195.2-258C281.1-63.6,281.3-63.7,281.6-63.7z M522.4,115.9L281.6-62L87.9,194
				L522.4,115.9z"/>
			<path class="st3" d="M1579.8,902.1h1.6l-80.8-142.8c-0.1-0.2-0.3-0.3-0.5-0.4c-0.1,0-0.3,0-0.4,0.1c-0.3,0.2-0.5,0.6-0.3,1
				L1579.8,902.1z"/>
			<polygon class="st5" points="-54,156.3 86.2,195.1 -1,120.9 -54,115.9 			"/>
			<path class="st3" d="M-54,116.6l52.7,5.1l84.6,71.9l-137.3-38v1.4l140,38.7c0.3,0.1,0.7-0.1,0.8-0.3c0.1-0.3,0.1-0.6-0.2-0.9
				l-87.3-74.1c-0.1-0.1-0.2-0.2-0.3-0.2l0,0l-53-5.1L-54,116.6L-54,116.6z"/>
			<polygon class="st4" points="86.2,195.1 281.5,-63 -1,120.9 			"/>
			<path class="st3" d="M281.6-63.7c0.2,0,0.3,0.1,0.4,0.2c0.2,0.2,0.3,0.6,0,0.9L86.8,195.5c-0.1,0.2-0.3,0.3-0.5,0.3
				s-0.4-0.1-0.6-0.2l-87.3-74.1c-0.2-0.1-0.3-0.4-0.2-0.6c0-0.2,0.1-0.4,0.3-0.5L281-63.6C281.2-63.7,281.4-63.7,281.6-63.7z
				 M86.1,194L278.4-60.2L0.1,121L86.1,194z"/>
			<g>
				<path class="st3" d="M455-98.3c0.1,0,0.2,0,0.2,0.1L524-45.9c0.2,0.1,0.2,0.4,0.2,0.6c-0.1,0.2-0.3,0.3-0.5,0.3l-65.2-8.9l0,0
					c-0.2,0-0.4-0.2-0.4-0.4l-3.6-43.4c0-0.2,0.1-0.4,0.3-0.5C454.8-98.3,454.9-98.3,455-98.3z M522-46.3l-66.4-50.4l3.5,41.9
					L522-46.3z"/>
			</g>
			<g>
				<path class="st3" d="M69.7,16.1c0.2,0,0.3,0.1,0.4,0.2l73.7,73.9c0.2,0.2,0.3,0.6,0.1,0.8c-0.1,0.3-0.4,0.4-0.7,0.4l-64-6.7
					c-0.3,0-0.6-0.3-0.6-0.6l-9.6-67c-0.1-0.1-0.1-0.2,0-0.4C69,16.3,69.3,16,69.7,16.1L69.7,16.1z M141.4,89.8l-70.7-71l9.2,64.5
					L141.4,89.8z"/>
			</g>
			<g>
				<path class="st3" d="M143.4,90L143.4,90l137.5,23.9c0.3,0.1,0.5,0.3,0.6,0.6s-0.1,0.6-0.4,0.7l-98.9,48.1
					c-0.3,0.2-0.7,0-0.9-0.3l-38.5-71.8c-0.1-0.1-0.2-0.4-0.2-0.6C142.6,90.2,143,90,143.4,90L143.4,90z M278.5,114.9L144.6,91.6
					l37.6,70L278.5,114.9z"/>
			</g>
			<path class="st6" d="M1537.6-234.7c2.1-3,1.3-7.1-1.7-9.1s-7.1-1.3-9.2,1.7c-2.1,3-1.3,7.1,1.7,9.1
				C1531.4-230.9,1535.5-231.7,1537.6-234.7z"/>
			<path class="st6" d="M1617.6-315.5c1.2-1.8,0.7-4.1-1-5.3c-1.8-1.2-4.2-0.7-5.3,1c-1.2,1.8-0.8,4.2,1,5.4
				C1614-313.3,1616.4-313.7,1617.6-315.5z"/>
			<path class="st6" d="M1441.3-230.9c-0.2-2,1.3-3.7,3.2-3.8c2-0.2,3.7,1.3,3.8,3.2c0.2,1.9-1.3,3.7-3.2,3.8
				C1443.2-227.5,1441.4-228.9,1441.3-230.9z"/>
			<path class="st6" d="M262.2-109.8c-0.2-2.8,1.9-5.3,4.7-5.6c2.8-0.2,5.3,1.9,5.6,4.7c0.3,2.8-1.9,5.3-4.7,5.5
				C264.9-104.9,262.5-107,262.2-109.8z"/>
			<path class="st6" d="M371.6-212.1c-0.1-1.6,1.1-2.9,2.6-3.1c1.6-0.2,3,1,3.1,2.6s-1,2.9-2.6,3.1
				C373.2-209.4,371.8-210.5,371.6-212.1z"/>
			<path class="st6" d="M233.7-149.4c-0.2-2.1,1.4-3.9,3.4-4.1c2.1-0.2,3.9,1.4,4.1,3.5s-1.4,3.9-3.4,4.1
				C235.7-145.7,233.8-147.3,233.7-149.4z"/>
			<path class="st6" d="M93.8-147.4c-0.1-1.1,0.7-2,1.8-2.1c1.1-0.1,2,0.7,2.1,1.8c0.1,1-0.7,1.9-1.7,2.1
				C94.8-145.6,93.9-146.4,93.8-147.4z"/>
			<path class="st6" d="M1729.5,41.8c-0.2-2.3,1.5-4.4,3.9-4.6c2.3-0.2,4.4,1.5,4.6,3.9c0.2,2.3-1.5,4.4-3.9,4.6
				C1731.7,45.8,1729.7,44.1,1729.5,41.8z"/>
			<path class="st6" d="M1726.5-50.8c-0.2-2,1.3-3.8,3.4-4c2-0.2,3.8,1.4,4,3.4c0.2,2-1.3,3.8-3.4,4
				C1728.5-47.2,1726.7-48.7,1726.5-50.8z"/>
			<path class="st6" d="M1710.2-108.2c-0.1-1.1,0.7-2,1.8-2.1s2,0.7,2.1,1.7c0.1,1.1-0.7,2-1.8,2.1
				C1711.2-106.3,1710.3-107.1,1710.2-108.2z"/>
			<path class="st6" d="M1269.2,669.4c1.3-2.2,4.2-3,6.5-1.6c2.2,1.3,3,4.2,1.6,6.4c-1.3,2.3-4.2,3-6.5,1.6
				C1268.5,674.5,1267.8,671.6,1269.2,669.4z"/>
			<path class="st6" d="M1283.7,772.2c1.6-2.7,5.1-3.6,7.8-2c2.7,1.6,3.6,5.1,2,7.8s-5.1,3.5-7.8,1.9
				C1283,778.4,1282.1,774.9,1283.7,772.2z"/>
			<path class="st6" d="M1182.9,672.4c1-1.7,3.2-2.2,4.9-1.2c1.7,1,2.2,3.2,1.2,4.9s-3.2,2.2-4.9,1.2
				C1182.5,676.3,1181.9,674.1,1182.9,672.4z"/>
			<path class="st6" d="M702.4-247.8c-0.3-4.3,2.8-8,7.1-8.4c4.3-0.3,8,2.8,8.4,7.1c0.4,4.3-2.8,8-7.1,8.3
				C706.5-240.4,702.8-243.6,702.4-247.8z"/>
			<path class="st6" d="M-8.7,121.6c-0.4-4.3,2.8-8,7.1-8.3c4.3-0.4,8,2.8,8.4,7.1c0.4,4.2-2.8,8-7.1,8.3
				C-4.7,129-8.4,125.8-8.7,121.6z"/>
			<path class="st6" d="M508.1-317.5c-0.4-4.3,2.8-8,7.1-8.3c4.3-0.4,8,2.8,8.3,7.1c0.4,4.2-2.8,8-7.1,8.3
				C512.2-310.1,508.4-313.3,508.1-317.5z"/>
			<path class="st6" d="M520.6-45.3c-0.2-2,1.3-3.8,3.4-4c2-0.2,3.8,1.3,4,3.4c0.2,2-1.3,3.8-3.4,4
				C522.5-41.8,520.7-43.3,520.6-45.3z"/>
			<path class="st6" d="M452.2-97.6c-0.1-1.5,1-2.8,2.5-2.9c1.5-0.1,2.8,1,2.9,2.5c0.1,1.5-1,2.8-2.4,2.9
				C453.7-95,452.4-96.1,452.2-97.6z"/>
			<path class="st6" d="M579.8-181.4c7.3,1,13.1,7.1,13.7,14.5c0.7,8.8-5.8,16.5-14.6,17.2c-1.2,0.1-2.3,0.1-3.5-0.1
				c-7.3-1-13.1-7.1-13.7-14.5c-0.4-4.2,1-8.3,3.7-11.6c2.8-3.2,6.6-5.2,10.9-5.6C577.5-181.6,578.7-181.6,579.8-181.4z"/>
			<path class="st6" d="M1634.5,571.2c-0.3-3.9,2.6-7.3,6.5-7.6c3.9-0.3,7.3,2.6,7.7,6.5c0.3,3.9-2.6,7.3-6.5,7.6
				C1638.3,577.9,1634.8,575.1,1634.5,571.2z"/>
			<path class="st6" d="M1795.6,325.3c-0.4-4.3,2.9-8.1,7.2-8.5c4.3-0.4,8.2,2.9,8.5,7.2c0.4,4.4-2.9,8.2-7.2,8.5
				C1799.8,332.9,1796,329.6,1795.6,325.3z"/>
			<path class="st6" d="M1023.1,630.2c5.9,0.8,10.5,5.7,11,11.7c0.3,3.4-0.8,6.7-3,9.3c-2.2,2.6-5.3,4.2-8.7,4.5
				c-0.9,0.1-1.9,0-2.8-0.1c-5.9-0.8-10.5-5.7-11-11.6c-0.3-3.4,0.8-6.7,3-9.3c2.2-2.6,5.3-4.2,8.7-4.5
				C1021.3,630.1,1022.2,630.1,1023.1,630.2z"/>
			<path class="st6" d="M1148.3-30.8c7.3,1,13.1,7.1,13.7,14.5c0.4,4.2-1,8.3-3.7,11.6c-2.8,3.2-6.6,5.2-10.8,5.6
				c-1.2,0.1-2.4,0.1-3.5-0.1c-7.3-1-13.1-7.1-13.7-14.5c-0.3-4.2,1-8.3,3.7-11.6c2.8-3.2,6.6-5.2,10.9-5.6
				C1146-31,1147.1-31,1148.3-30.8z"/>
			<path class="st6" d="M1182,273.6c-0.4-5.4,3.6-10.1,8.9-10.5c5.4-0.4,10.1,3.6,10.5,8.9c0.4,5.4-3.6,10.1-8.9,10.5
				S1182.5,278.9,1182,273.6z"/>
			<path class="st6" d="M665.2-65.7c-0.6-7.1,4.7-13.3,11.8-13.9c7.1-0.6,13.4,4.7,13.9,11.8c0.6,7.1-4.7,13.3-11.8,13.9
				C672-53.3,665.8-58.6,665.2-65.7z"/>
			<path class="st6" d="M1389.2,75.3c-0.6-7.1,4.7-13.3,11.8-13.9c7.1-0.6,13.4,4.7,14,11.8s-4.7,13.3-11.8,13.9
				C1396,87.7,1389.7,82.4,1389.2,75.3z"/>
			<path class="st6" d="M1368.8-31.5c-0.6-7.1,4.7-13.3,11.8-13.9c7.1-0.6,13.4,4.7,13.9,11.8c0.6,7.1-4.7,13.3-11.8,13.9
				C1375.6-19.1,1369.4-24.4,1368.8-31.5z"/>
			<path class="st6" d="M1345.4-297.3c-0.6-7.1,4.7-13.3,11.8-13.9c7.1-0.6,13.3,4.7,13.9,11.8c0.6,7.1-4.7,13.3-11.8,13.9
				C1352.2-284.9,1346-290.2,1345.4-297.3z"/>
			<path class="st6" d="M1422.2,217.2c-0.6-7.1,4.7-13.3,11.8-13.9c7.1-0.6,13.3,4.7,13.9,11.8s-4.7,13.3-11.8,13.9
				C1429,229.5,1422.7,224.3,1422.2,217.2z"/>
			<path class="st6" d="M1767.6,551.1c-0.3-4.2,2.8-7.8,6.9-8.2c4.2-0.3,7.8,2.8,8.2,6.9c0.4,4.1-2.7,7.8-6.9,8.2
				C1771.6,558.4,1768,555.3,1767.6,551.1z"/>
			<path class="st6" d="M1633.7,13.9c-0.3-3.9,2.6-7.4,6.6-7.7c3.9-0.3,7.4,2.6,7.7,6.5s-2.6,7.4-6.6,7.8
				C1637.5,20.7,1634,17.8,1633.7,13.9z"/>
			<path class="st6" d="M1027.7,185.9c-0.3-3.1,2-5.9,5.2-6.1c3.1-0.3,5.9,2,6.1,5.2c0.3,3.1-2.1,5.8-5.2,6.1
				C1030.7,191.3,1028,189,1027.7,185.9z"/>
			<path class="st6" d="M908.6,434.6c-0.3-3.1,2.1-5.8,5.2-6.1c3.1-0.2,5.9,2.1,6.1,5.2c0.3,3.1-2.1,5.9-5.2,6.1
				C911.6,440,908.9,437.7,908.6,434.6z"/>
			<path class="st6" d="M1417.7,702c-0.2-3.1,2.1-5.9,5.2-6.1c3.1-0.2,5.9,2.1,6.1,5.2c0.3,3.2-2.1,5.9-5.2,6.1
				C1420.7,707.4,1418,705.1,1417.7,702z"/>
			<path class="st6" d="M1661.7,391.7c-0.3-3.1,2-5.8,5.2-6.1c3.1-0.3,5.9,2.1,6.1,5.2c0.3,3.1-2.1,5.8-5.2,6.1
				C1664.6,397.2,1661.9,394.9,1661.7,391.7z"/>
			<path class="st6" d="M1772.7,445.7c-0.3-3.1,2.1-5.8,5.2-6.1c3.1-0.3,5.9,2,6.1,5.2c0.3,3.1-2.1,5.8-5.2,6.1
				C1775.7,451.1,1772.9,448.8,1772.7,445.7z"/>
			<path class="st6" d="M1805,68.6c-0.3-3.1,2.1-5.9,5.2-6.1c3.1-0.2,5.9,2.1,6.1,5.2c0.2,3.1-2.1,5.8-5.2,6.1
				C1808,74,1805.3,71.7,1805,68.6z"/>
			<path class="st6" d="M1404.3,340.9c-0.3-3.1,2.1-5.9,5.2-6.1c3.1-0.3,5.9,2,6.1,5.2c0.3,3.1-2.1,5.8-5.2,6.1
				C1407.3,346.3,1404.6,344,1404.3,340.9z"/>
			<path class="st6" d="M1791.1-169c-0.3-3.1,2.1-5.9,5.2-6.1c3.1-0.2,5.9,2.1,6.1,5.2c0.3,3.1-2.1,5.9-5.2,6.1
				C1794.1-163.6,1791.3-165.9,1791.1-169z"/>
			<path class="st6" d="M835.4-145.1c-0.3-3.1,2.1-5.9,5.2-6.1c3.1-0.2,5.8,2.1,6.1,5.2c0.3,3.2-2.1,5.9-5.2,6.1
				S835.6-142,835.4-145.1z"/>
			<path class="st6" d="M364.8,46.5c-0.2-2.3,1.5-4.4,3.9-4.6c2.4-0.2,4.4,1.5,4.6,3.9c0.2,2.3-1.5,4.4-3.9,4.6
				C367,50.5,364.9,48.8,364.8,46.5z"/>
			<path class="st6" d="M692.3,156.6c-0.2-2.3,1.5-4.4,3.9-4.6c2.3-0.2,4.4,1.5,4.6,3.9c0.2,2.3-1.5,4.4-3.9,4.6
				C694.5,160.7,692.4,159,692.3,156.6z"/>
			<path class="st6" d="M1082.5,352.8c-0.2-2.3,1.5-4.4,3.9-4.6c2.3-0.2,4.4,1.5,4.6,3.9c0.2,2.3-1.5,4.4-3.9,4.6
				C1084.7,356.9,1082.7,355.2,1082.5,352.8z"/>
			<path class="st6" d="M1381.9,591c-0.2-2.3,1.6-4.4,3.9-4.6c2.3-0.2,4.4,1.5,4.6,3.9c0.2,2.3-1.5,4.4-3.9,4.6
				S1382,593.3,1381.9,591z"/>
			<path class="st6" d="M1086.7-152.4c-0.2-2.3,1.6-4.4,3.9-4.6c2.3-0.2,4.4,1.5,4.6,3.9c0.2,2.3-1.5,4.4-3.9,4.6
				C1089-148.3,1086.9-150.1,1086.7-152.4z"/>
			<path class="st6" d="M1806.2-3.3c-0.2-2.3,1.5-4.4,3.9-4.6c2.3-0.2,4.4,1.5,4.6,3.9c0.2,2.3-1.5,4.4-3.9,4.6
				C1808.4,0.7,1806.4-1,1806.2-3.3z"/>
			<path class="st6" d="M1796.1-57.4c-0.1-1.3,0.9-2.4,2.2-2.6c1.3-0.1,2.4,0.9,2.5,2.2c0.1,1.3-0.9,2.4-2.2,2.6
				C1797.3-55.1,1796.2-56.1,1796.1-57.4z"/>
			<path class="st6" d="M1558.4,400.2c-0.2-2.3,1.5-4.4,3.9-4.6c2.3-0.2,4.4,1.5,4.6,3.9c0.2,2.3-1.6,4.4-3.9,4.6
				C1560.6,404.3,1558.5,402.6,1558.4,400.2z"/>
			<path class="st6" d="M1722.1,693.9c-0.2-2.3,1.6-4.4,3.9-4.6s4.4,1.5,4.6,3.9c0.2,2.3-1.5,4.4-3.9,4.6
				C1724.3,698,1722.3,696.2,1722.1,693.9z"/>
			<path class="st6" d="M1874.1,569c-0.2-2.3,1.5-4.4,3.9-4.6c2.3-0.2,4.4,1.5,4.6,3.9c0.2,2.3-1.5,4.4-3.9,4.6
				C1876.4,573,1874.3,571.3,1874.1,569z"/>
			<path class="st6" d="M1566.9,163.8c-0.2-2.3,1.5-4.4,3.9-4.6c2.3-0.2,4.4,1.5,4.6,3.9c0.2,2.3-1.5,4.4-3.9,4.6
				C1569.1,167.9,1567.1,166.1,1566.9,163.8z"/>
			<path class="st6" d="M1252.6,169.2c-0.2-2.3,1.5-4.4,3.9-4.6c2.3-0.2,4.4,1.5,4.6,3.9c0.2,2.3-1.5,4.4-3.9,4.6
				C1254.9,173.3,1252.8,171.6,1252.6,169.2z"/>
			<path class="st6" d="M1649.8,683.6c-0.2-2.3,1.5-4.4,3.9-4.6c2.3-0.2,4.4,1.5,4.6,3.9c0.2,2.3-1.5,4.4-3.9,4.6
				S1649.9,685.9,1649.8,683.6z"/>
			<path class="st6" d="M24.7,192.6c-0.3-3.1,2-5.8,5.2-6.1c3.1-0.3,5.9,2.1,6.1,5.2c0.2,3.1-2.1,5.8-5.2,6.1
				C27.6,198,24.9,195.7,24.7,192.6z"/>
			<path class="st6" d="M161.8,195.3c-0.1-1.4,0.9-2.7,2.4-2.8c1.4-0.1,2.7,0.9,2.8,2.4c0.1,1.4-0.9,2.7-2.4,2.8
				C163.1,197.8,161.9,196.7,161.8,195.3z"/>
			<path class="st6" d="M119.8-20.2c-0.1-1.1,0.7-2.1,1.8-2.2c1.1-0.1,2.1,0.7,2.2,1.8s-0.7,2.1-1.8,2.2
				C120.9-18.2,119.9-19.1,119.8-20.2z"/>
			<path class="st6" d="M469.2-157.5c-0.1-1.6,1.1-3,2.6-3.1c1.6-0.1,3,1.1,3.1,2.6c0.1,1.6-1,3-2.6,3.1
				C470.7-154.8,469.3-156,469.2-157.5z"/>
			<path class="st6" d="M1118.6,753c0.7-1.1,2.1-1.5,3.3-0.8c1.1,0.6,1.5,2.1,0.8,3.2c-0.7,1.1-2.1,1.5-3.2,0.8
				C1118.3,755.6,1117.9,754.2,1118.6,753z"/>
			<path class="st6" d="M945.1,580c-0.1-1.3,0.9-2.4,2.2-2.6c1.3-0.1,2.4,0.9,2.6,2.2c0.1,1.3-0.9,2.4-2.2,2.6
				C946.3,582.3,945.2,581.3,945.1,580z"/>
			<path class="st6" d="M1316.7-316c-0.1-1.3,0.9-2.4,2.2-2.6c1.3-0.1,2.4,0.9,2.5,2.2c0.1,1.3-0.9,2.4-2.1,2.6
				C1318-313.7,1316.8-314.7,1316.7-316z"/>
			<path class="st6" d="M1668.1-342.6c-0.1-1.3,0.9-2.5,2.1-2.6c1.3-0.1,2.5,0.9,2.6,2.2c0.1,1.3-0.9,2.4-2.2,2.5
				C1669.3-340.3,1668.2-341.3,1668.1-342.6z"/>
			<path class="st6" d="M1595.9,145.2c-0.1-1.3,0.9-2.4,2.2-2.5c1.3-0.1,2.4,0.9,2.5,2.1c0.1,1.3-0.9,2.5-2.2,2.5
				C1597.2,147.5,1596,146.5,1595.9,145.2z"/>
			<path class="st6" d="M1862.7,656.7c-0.1-1.3,0.9-2.4,2.2-2.6c1.3-0.1,2.4,0.9,2.5,2.2s-0.8,2.4-2.2,2.6
				C1863.9,659,1862.8,658,1862.7,656.7z"/>
			<path class="st6" d="M1484,395.2c-0.1-1.3,0.9-2.4,2.2-2.5c1.3-0.1,2.4,0.9,2.6,2.1c0.1,1.3-0.9,2.5-2.2,2.6
				C1485.2,397.5,1484.1,396.5,1484,395.2z"/>
			<path class="st6" d="M1815,505.9c-0.1-1.3,0.9-2.4,2.2-2.6c1.3-0.1,2.4,0.9,2.6,2.2c0.1,1.3-0.9,2.4-2.2,2.6
				C1816.2,508.2,1815.1,507.2,1815,505.9z"/>
			<path class="st6" d="M1641.3,744.7c-0.1-1.3,0.9-2.4,2.2-2.6c1.3-0.1,2.4,0.9,2.5,2.2s-0.9,2.4-2.2,2.6
				C1642.6,747,1641.4,746,1641.3,744.7z"/>
			<path class="st6" d="M1721-264.5c-0.1-1.3,0.9-2.5,2.2-2.6c1.3-0.1,2.4,0.9,2.6,2.2c0.1,1.3-0.9,2.4-2.2,2.5
				C1722.3-262.2,1721.2-263.2,1721-264.5z"/>
			<path class="st6" d="M1388.6-162.2c-0.1-1.3,0.9-2.4,2.2-2.5c1.3-0.1,2.4,0.9,2.5,2.1c0.1,1.3-0.9,2.4-2.2,2.5
				C1389.8-159.9,1388.7-160.9,1388.6-162.2z"/>
			<path class="st6" d="M1267.1,57c-0.1-1.3,0.8-2.4,2.1-2.6c1.3-0.1,2.5,0.9,2.6,2.2c0.1,1.3-0.9,2.4-2.2,2.6
				C1268.3,59.3,1267.2,58.3,1267.1,57z"/>
			<path class="st6" d="M1142.4,26.6c-0.1-1.3,0.9-2.4,2.1-2.5c1.3-0.1,2.5,0.9,2.6,2.1c0.1,1.3-0.9,2.5-2.2,2.6
				C1143.7,28.9,1142.5,27.9,1142.4,26.6z"/>
			<path class="st6" d="M1155.1,414.2c-0.1-1.3,0.9-2.4,2.1-2.6c1.3-0.1,2.5,0.9,2.6,2.2c0.1,1.3-0.9,2.4-2.2,2.5
				C1156.4,416.5,1155.2,415.5,1155.1,414.2z"/>
			<path class="st6" d="M1272.5,400.8c-0.1-1.3,0.9-2.4,2.1-2.6c1.3-0.1,2.5,0.9,2.6,2.2c0.1,1.3-0.9,2.4-2.2,2.6
				C1273.8,403.1,1272.6,402.1,1272.5,400.8z"/>
			<path class="st6" d="M1282.1,545.4c-0.1-1.3,0.9-2.4,2.2-2.5c1.3-0.1,2.5,0.9,2.6,2.1c0.1,1.3-0.9,2.4-2.2,2.6
				C1283.4,547.7,1282.2,546.7,1282.1,545.4z"/>
			<path class="st6" d="M412-13.5c-0.1-1.1,0.7-2,1.7-2.1s2,0.7,2.1,1.8s-0.7,2-1.8,2.1C413-11.6,412.1-12.4,412-13.5z"/>
			<path class="st6" d="M1275.8,614.5c-0.4-5.1,3.4-9.6,8.5-10c5.1-0.4,9.6,3.4,10,8.5c0.4,5.1-3.4,9.6-8.5,10
				C1280.8,623.4,1276.3,619.6,1275.8,614.5z"/>
			<path class="st6" d="M1314.8,377.9c-0.4-4.2,2.8-7.9,7-8.2c4.2-0.4,7.9,2.8,8.3,7c0.3,4.2-2.8,7.9-7,8.2
				C1318.8,385.2,1315.1,382.1,1314.8,377.9z"/>
			<path class="st6" d="M954.1-34.6c-0.6-7.1,4.7-13.3,11.8-13.9c7.1-0.6,13.3,4.7,13.9,11.8s-4.7,13.4-11.8,13.9
				C960.9-22.2,954.7-27.5,954.1-34.6z"/>
			<path class="st6" d="M826.7,123.7c-0.6-7.1,4.7-13.3,11.8-13.9c7.1-0.6,13.3,4.7,14,11.8c0.6,7.1-4.7,13.3-11.8,13.9
				C833.5,136,827.3,130.8,826.7,123.7z"/>
			<path class="st6" d="M953.8,206.8c-0.6-7.1,4.7-13.3,11.8-13.9c7.1-0.6,13.4,4.7,14,11.8s-4.7,13.3-11.8,13.9
				C960.6,219.2,954.4,213.9,953.8,206.8z"/>
			<path class="st6" d="M1103.8-213.5c-0.6-7.1,4.7-13.3,11.8-13.9s13.4,4.7,13.9,11.8c0.6,7.1-4.7,13.3-11.8,13.9
				C1110.6-201.1,1104.3-206.4,1103.8-213.5z"/>
			<path class="st6" d="M1075.9,81.1c-0.4-5.3,3.5-9.9,8.8-10.3c5.3-0.4,9.9,3.5,10.3,8.8s-3.5,9.9-8.8,10.3
				C1081,90.3,1076.3,86.4,1075.9,81.1z"/>
			<path class="st6" d="M985.3,502.3c-0.4-5.3,3.5-9.9,8.8-10.3s9.9,3.5,10.3,8.7c0.4,5.3-3.5,9.9-8.8,10.3
				C990.4,511.5,985.8,507.6,985.3,502.3z"/>
			<path class="st6" d="M1490.5,760.4c-0.4-5.3,3.5-9.9,8.8-10.3c5.3-0.4,9.9,3.5,10.3,8.8c0.4,5.3-3.5,9.9-8.8,10.3
				C1495.5,769.6,1490.9,765.6,1490.5,760.4z"/>
			<path class="st6" d="M885.5-242.7c-0.4-5.3,3.5-9.9,8.8-10.4c5.3-0.4,9.9,3.5,10.4,8.8c0.4,5.3-3.5,9.9-8.8,10.3
				C890.6-233.5,886-237.5,885.5-242.7z"/>
			<path class="st6" d="M73.4,196.1c-0.6-7.1,4.7-13.3,11.8-13.9c7.1-0.6,13.4,4.7,13.9,11.8c0.6,7.1-4.7,13.3-11.8,13.9
				S74,203.2,73.4,196.1z"/>
			<path class="st6" d="M526.4,101.2c7.3,1,13.1,7.1,13.7,14.5c0.7,8.7-5.8,16.5-14.6,17.2c-1.2,0.1-2.4,0.1-3.5-0.1
				c-7.3-1-13.1-7.1-13.7-14.5c-0.7-8.7,5.8-16.4,14.6-17.2C524.1,101,525.2,101,526.4,101.2z"/>
			<path class="st6" d="M266.4-61.8c-0.6-7.1,4.7-13.3,11.8-13.9c7.1-0.6,13.3,4.7,13.9,11.8c0.6,7.1-4.7,13.3-11.8,13.9
				C273.3-49.4,267-54.7,266.4-61.8z"/>
			<path class="st6" d="M139.3,91c-0.2-2.2,1.4-4.2,3.7-4.3c2.2-0.2,4.2,1.5,4.3,3.7c0.2,2.2-1.5,4.2-3.7,4.4
				C141.4,94.9,139.4,93.3,139.3,91z"/>
			<path class="st6" d="M277.7,115.1c-0.1-1.7,1.1-3.2,2.8-3.3s3.2,1.1,3.3,2.8s-1.1,3.2-2.8,3.3
				C279.3,118.1,277.8,116.8,277.7,115.1z"/>
			<path class="st6" d="M66.3,17.1c-0.1-1.8,1.2-3.4,3.1-3.6c1.8-0.1,3.4,1.2,3.6,3.1c0.1,1.8-1.2,3.4-3,3.6
				C68.1,20.2,66.5,18.9,66.3,17.1z"/>
			<path class="st6" d="M66.5,114.7c-0.1-1.4,1-2.7,2.4-2.8s2.7,0.9,2.8,2.4c0.1,1.4-0.9,2.7-2.4,2.8
				C67.9,117.2,66.6,116.1,66.5,114.7z"/>
			<path class="st6" d="M823.4-250.2c-0.2-1.9,1.3-3.7,3.2-3.8c2-0.2,3.7,1.3,3.8,3.2c0.2,1.9-1.3,3.6-3.2,3.8
				C825.2-246.8,823.5-248.2,823.4-250.2z"/>
		</g>
	</g>
</g>
</svg>
