<?xml version="1.0" encoding="utf-8"?>
<!-- Generator: Adobe Illustrator 22.0.1, SVG Export Plug-In . SVG Version: 6.00 Build 0)  -->
<svg version="1.1" id="Layer_1" xmlns="http://www.w3.org/2000/svg" xmlns:xlink="http://www.w3.org/1999/xlink" x="0px" y="0px"
	 viewBox="0 0 28.1 27.8" style="enable-background:new 0 0 28.1 27.8;" xml:space="preserve">
<style type="text/css">
	.st0{fill:#2B2E35;}
</style>
<g>
	<path class="st0" d="M7.1,11.5l-1.2,4.8c-0.2,0.8-0.7,4.5-0.5,6.4c0,0.2,0.2,0.3,0.3,0.4l7.6,2c0.1,0,0.2,0,0.3-0.1
		c0.1-0.1,0.2-0.2,0.2-0.3c0,0,0.3-0.9,2.1-2.1c3.1-2,3.3-4.1,3.2-5.2c-0.2-1.2-0.9-2-1.7-2.4l1.9-7.8C19.6,6,19.1,5,18.2,4.8
		l-0.2-0.1c-1-0.3-1.9,0.4-2.2,1.5l-1,3.5c0,0,0,0,0,0l0,0.1L14.7,10l-0.6-0.2c-0.7-0.2-1.3,0-1.8,0.5l-0.6-0.2
		c-0.4-0.1-1.1-0.1-1.6,0.1L9.3,10C8.3,9.8,7.4,10.4,7.1,11.5z M7.9,11.7c0.1-0.5,0.6-1,1.2-0.8L9.6,11l-0.9,3.3
		c-0.1,0.2,0.1,0.5,0.3,0.5c0.2,0.1,0.5-0.1,0.5-0.3l0.9-3.5c0.3-0.1,0.6-0.1,0.9,0l0.4,0.1l-1,3.6c-0.1,0.2,0.1,0.5,0.3,0.5
		c0.2,0.1,0.5-0.1,0.5-0.3l1-4c0.2-0.2,0.5-0.5,1-0.3l0.6,0.2l-1.1,4.4c-0.1,0.2,0.1,0.5,0.3,0.5c0.2,0.1,0.5-0.1,0.5-0.3l1.4-5.4
		l1-3.5c0.1-0.5,0.5-1,1.1-0.9l0.2,0.1c0.6,0.2,0.6,0.8,0.5,1.3l-2,8.2c0,0.1,0,0.1,0,0.2c0,0-0.1,0.1-0.1,0.2l-0.8,3.2
		c-0.1,0.2,0.1,0.5,0.3,0.5c0.2,0.1,0.5-0.1,0.5-0.3l0.8-3.1c0.5,0.3,0.9,0.9,1,1.7c0.1,0.8,0,2.5-2.8,4.3c-1.5,0.9-2.1,1.8-2.3,2.2
		l-6.9-1.8c-0.1-1.7,0.3-5,0.5-5.7L7.9,11.7z"/>
	<polygon class="st0" points="12.5,8.5 15.4,7.1 12.3,8 	"/>
	<polygon class="st0" points="13,2.9 15.7,4.7 13.4,2.5 	"/>
	<polygon class="st0" points="18.1,0.6 17.9,3.8 18.6,0.7 	"/>
	<polygon class="st0" points="22.7,3.8 19.8,5.2 22.8,4.3 	"/>
	<polygon class="st0" points="22.1,9.4 19.5,7.6 21.8,9.8 	"/>
</g>
</svg>
