<?xml version="1.0" encoding="utf-8"?>
<!-- Generator: Adobe Illustrator 23.0.3, SVG Export Plug-In . SVG Version: 6.00 Build 0)  -->
<svg version="1.1" id="Capa_1" xmlns="http://www.w3.org/2000/svg" xmlns:xlink="http://www.w3.org/1999/xlink" x="0px" y="0px"
	 viewBox="0 0 1606 83.1" style="enable-background:new 0 0 1606 83.1;" xml:space="preserve">
<style type="text/css">
	.st0{fill:#61C1A2;}
</style>
<title>titulo_1</title>
<g>
	<path class="st0" d="M27.2,58.6h0.2l10.1-34.5h7.5v42.2h-5.9V35.9l-0.2,0l-9.7,30.5h-4l-9.8-30.9l-0.2,0v30.9H9.5V24.1h7.7
		L27.2,58.6z"/>
	<path class="st0" d="M51.1,50.3c0-4.7,1.1-8.5,3.3-11.5c2.2-3,5.2-4.5,9.1-4.5s6.9,1.5,9.1,4.5c2.2,3,3.3,6.8,3.3,11.5v0.8
		c0,4.7-1.1,8.5-3.3,11.4c-2.2,2.9-5.2,4.4-9,4.4c-3.9,0-6.9-1.5-9.1-4.4c-2.2-2.9-3.3-6.8-3.3-11.4V50.3z M57.1,51.1
		c0,3.3,0.5,6.1,1.6,8.2s2.7,3.2,4.9,3.2c2.1,0,3.8-1.1,4.8-3.2s1.6-4.9,1.6-8.2v-0.8c0-3.3-0.5-6-1.6-8.2c-1.1-2.2-2.7-3.2-4.9-3.2
		s-3.8,1.1-4.9,3.2c-1.1,2.2-1.6,4.9-1.6,8.2V51.1z"/>
	<path class="st0" d="M80.5,51c0-5,0.9-9.1,2.8-12.1c1.8-3,4.4-4.6,7.7-4.6c1.5,0,2.8,0.3,4,1c1.2,0.7,2.2,1.6,3,2.9V21.1h5.9v45.2
		H99l-0.6-3.8c-0.9,1.4-1.9,2.5-3.2,3.3C94,66.6,92.5,67,90.9,67c-3.3,0-5.9-1.4-7.7-4.2c-1.8-2.8-2.7-6.5-2.7-11.1V51z M86.3,51.7
		c0,3.3,0.5,5.9,1.5,7.8s2.5,2.9,4.6,2.9c1.3,0,2.4-0.3,3.4-1c0.9-0.7,1.7-1.7,2.2-3V43.2c-0.6-1.3-1.3-2.3-2.3-3.1
		c-0.9-0.8-2-1.1-3.3-1.1c-2.1,0-3.6,1.1-4.6,3.4c-1,2.2-1.5,5.1-1.5,8.7V51.7z"/>
	<path class="st0" d="M122.1,67c-3.9,0-7-1.4-9.2-4.3c-2.2-2.9-3.3-6.6-3.3-11.2v-1.4c0-4.6,1.1-8.4,3.3-11.3s5.1-4.4,8.6-4.4
		c3.6,0,6.3,1.3,8.2,3.8c1.9,2.5,2.8,5.9,2.8,10.2v3.3h-17c0,3.2,0.6,5.8,1.7,7.8c1.1,2,2.9,3,5.3,3c1.6,0,3.1-0.3,4.3-0.8
		s2.3-1.3,3.4-2.2l1.9,3.7c-1,1.1-2.4,2-4.1,2.7C126.3,66.6,124.3,67,122.1,67z M121.6,38.9c-1.7,0-3.1,0.8-4.1,2.4
		c-1,1.6-1.6,3.7-1.9,6.3h11.1v-0.7c0-2.4-0.4-4.3-1.3-5.7C124.7,39.7,123.4,38.9,121.6,38.9z"/>
	<path class="st0" d="M144.2,66.4h-5.9V21.1h5.9V66.4z"/>
	<path class="st0" d="M150.2,50.3c0-4.7,1.1-8.5,3.3-11.5c2.2-3,5.2-4.5,9.1-4.5s6.9,1.5,9.1,4.5c2.2,3,3.3,6.8,3.3,11.5v0.8
		c0,4.7-1.1,8.5-3.3,11.4c-2.2,2.9-5.2,4.4-9,4.4c-3.9,0-6.9-1.5-9.1-4.4c-2.2-2.9-3.3-6.8-3.3-11.4V50.3z M156.1,51.1
		c0,3.3,0.5,6.1,1.6,8.2s2.7,3.2,4.9,3.2c2.1,0,3.8-1.1,4.8-3.2s1.6-4.9,1.6-8.2v-0.8c0-3.3-0.5-6-1.6-8.2c-1.1-2.2-2.7-3.2-4.9-3.2
		s-3.8,1.1-4.9,3.2c-1.1,2.2-1.6,4.9-1.6,8.2V51.1z"/>
	<path class="st0" d="M220.7,53.7l0.1,0.2c0.1,4.2-1.1,7.4-3.5,9.7c-2.4,2.3-5.7,3.5-9.9,3.5c-4.3,0-7.8-1.4-10.4-4.2
		c-2.6-2.8-3.9-6.7-3.9-11.7V39.4c0-5,1.3-8.9,3.8-11.7c2.5-2.8,5.9-4.2,10.2-4.2c4.3,0,7.7,1.1,10.1,3.4c2.4,2.2,3.6,5.5,3.5,9.8
		l-0.1,0.2h-5.7c0-3-0.7-5.2-2-6.7c-1.3-1.4-3.3-2.1-5.9-2.1c-2.6,0-4.6,1-6,2.9s-2.1,4.7-2.1,8.4v11.8c0,3.7,0.7,6.5,2.2,8.4
		s3.5,2.9,6.1,2.9c2.6,0,4.5-0.7,5.7-2.1c1.3-1.4,1.9-3.6,1.9-6.7H220.7z"/>
	<path class="st0" d="M225.3,50.3c0-4.7,1.1-8.5,3.3-11.5c2.2-3,5.2-4.5,9.1-4.5s6.9,1.5,9.1,4.5c2.2,3,3.3,6.8,3.3,11.5v0.8
		c0,4.7-1.1,8.5-3.3,11.4c-2.2,2.9-5.2,4.4-9,4.4c-3.9,0-6.9-1.5-9.1-4.4c-2.2-2.9-3.3-6.8-3.3-11.4V50.3z M231.2,51.1
		c0,3.3,0.5,6.1,1.6,8.2s2.7,3.2,4.9,3.2c2.1,0,3.8-1.1,4.8-3.2s1.6-4.9,1.6-8.2v-0.8c0-3.3-0.5-6-1.6-8.2c-1.1-2.2-2.7-3.2-4.9-3.2
		s-3.8,1.1-4.9,3.2c-1.1,2.2-1.6,4.9-1.6,8.2V51.1z"/>
	<path class="st0" d="M261.1,35l0.3,4.7c0.9-1.7,2-3,3.4-3.9c1.4-0.9,2.9-1.4,4.6-1.4c2.8,0,5,1,6.5,3.1c1.6,2.1,2.3,5.2,2.3,9.6
		v19.3h-5.9V47.1c0-3-0.4-5-1.2-6.3s-2.1-1.8-3.7-1.8c-1.4,0-2.5,0.4-3.5,1.1s-1.7,1.7-2.3,2.9v23.4h-5.9V35H261.1z"/>
	<path class="st0" d="M295.9,62.5c1.5,0,2.7-0.6,3.6-1.7c1-1.1,1.5-2.6,1.5-4.6h5.3l0.1,0.2c0.1,3-0.9,5.5-3,7.5c-2.1,2-4.6,3-7.5,3
		c-3.9,0-6.9-1.5-9-4.4c-2.1-2.9-3.2-6.7-3.2-11.3v-1.1c0-4.6,1.1-8.3,3.2-11.3c2.1-3,5.1-4.5,9-4.5c3.1,0,5.7,1.1,7.6,3.2
		c2,2.1,2.9,4.9,2.9,8.3l-0.1,0.1H301c0-2.1-0.5-3.8-1.4-5.1c-0.9-1.3-2.2-2-3.7-2c-2.2,0-3.8,1.1-4.8,3.2c-1,2.1-1.5,4.8-1.5,8v1.1
		c0,3.3,0.5,6,1.5,8.1C292.1,61.5,293.7,62.5,295.9,62.5z"/>
	<path class="st0" d="M323.2,67c-3.9,0-7-1.4-9.2-4.3c-2.2-2.9-3.3-6.6-3.3-11.2v-1.4c0-4.6,1.1-8.4,3.3-11.3s5.1-4.4,8.6-4.4
		c3.6,0,6.3,1.3,8.2,3.8c1.9,2.5,2.8,5.9,2.8,10.2v3.3h-17c0,3.2,0.6,5.8,1.7,7.8c1.1,2,2.9,3,5.3,3c1.6,0,3.1-0.3,4.3-0.8
		s2.3-1.3,3.4-2.2l1.9,3.7c-1,1.1-2.4,2-4.1,2.7C327.3,66.6,325.4,67,323.2,67z M322.7,38.9c-1.7,0-3.1,0.8-4.1,2.4
		c-1,1.6-1.6,3.7-1.9,6.3h11.1v-0.7c0-2.4-0.4-4.3-1.3-5.7C325.7,39.7,324.4,38.9,322.7,38.9z"/>
	<path class="st0" d="M362.5,51.7c0,4.6-0.9,8.4-2.8,11.1c-1.8,2.8-4.4,4.2-7.7,4.2c-1.5,0-2.9-0.3-4.1-0.9c-1.2-0.6-2.2-1.5-3-2.7
		v15.1h-5.9V35h5l0.6,3.8c0.9-1.4,1.9-2.5,3.1-3.2c1.2-0.7,2.7-1.1,4.3-1.1c3.3,0,5.9,1.5,7.8,4.6c1.8,3,2.8,7.1,2.8,12.1V51.7z
		 M356.6,51c0-3.6-0.5-6.5-1.6-8.7c-1-2.2-2.6-3.4-4.7-3.4c-1.3,0-2.4,0.4-3.3,1.1c-0.9,0.7-1.6,1.7-2.2,2.9v15.8
		c0.5,1.2,1.3,2.1,2.2,2.7c0.9,0.6,2,1,3.4,1c2.1,0,3.6-1,4.6-3c1-2,1.5-4.6,1.5-7.9V51z"/>
	<path class="st0" d="M375.7,27.2V35h4.9v4.2h-4.9v18.7c0,1.6,0.2,2.8,0.7,3.5c0.5,0.7,1.1,1,2,1c0.3,0,0.6,0,0.9-0.1
		c0.3-0.1,0.6-0.1,1-0.3l0.6,4.1c-0.6,0.3-1.2,0.5-1.9,0.7c-0.7,0.2-1.4,0.2-2.1,0.2c-2.3,0-4-0.7-5.3-2.2c-1.3-1.5-1.9-3.8-1.9-6.9
		V39.2h-4.1V35h4.1v-7.8H375.7z"/>
	<path class="st0" d="M402.9,61.8c-0.9,1.7-1.9,2.9-3.2,3.8S396.8,67,395,67c-2.9,0-5.1-1.1-6.8-3.3c-1.6-2.2-2.4-5.7-2.4-10.4V35
		h5.9v18.4c0,3.4,0.4,5.7,1.2,7.1c0.8,1.3,2,2,3.5,2c1.5,0,2.7-0.3,3.7-1c1-0.7,1.8-1.6,2.4-2.9V35h5.9v31.4h-5L402.9,61.8z"/>
	<path class="st0" d="M431.5,66.4c-0.3-0.9-0.4-1.8-0.6-2.5c-0.1-0.7-0.2-1.5-0.3-2.2c-0.8,1.5-1.9,2.8-3.3,3.8
		c-1.4,1-2.9,1.5-4.7,1.5c-2.8,0-5-0.8-6.5-2.5s-2.2-3.9-2.2-6.8c0-3,1-5.3,3.1-7c2.1-1.7,5-2.6,8.7-2.6h4.8v-3.2
		c0-1.9-0.4-3.4-1.3-4.5c-0.9-1.1-2.1-1.6-3.7-1.6c-1.4,0-2.6,0.5-3.4,1.4c-0.8,0.9-1.3,2.1-1.3,3.6l-5.6,0l-0.1-0.2
		c-0.1-2.4,0.8-4.6,2.8-6.4c2-1.9,4.6-2.8,7.9-2.8c3.1,0,5.6,0.9,7.6,2.7c1.9,1.8,2.9,4.4,2.9,7.8v14.6c0,1.2,0.1,2.4,0.2,3.5
		c0.2,1.1,0.4,2.2,0.7,3.3H431.5z M423.9,62.4c1.6,0,3-0.5,4.3-1.5c1.2-1,2-2.2,2.4-3.6v-5.6h-4.9c-1.8,0-3.2,0.6-4.3,1.7
		c-1,1.2-1.5,2.5-1.5,4.2c0,1.5,0.3,2.6,1,3.5C421.7,62,422.6,62.4,423.9,62.4z"/>
	<path class="st0" d="M449.6,66.4h-5.9V21.1h5.9V66.4z"/>
	<path class="st0" d="M462.6,65.7l-3.8,8.6H455l1.7-8.8v-5.4h5.8V65.7z"/>
	<path class="st0" d="M500.1,58.6h0.2l10.1-34.5h7.5v42.2H512V35.9l-0.2,0l-9.7,30.5h-4l-9.8-30.9l-0.2,0v30.9h-5.9V24.1h7.7
		L500.1,58.6z"/>
	<path class="st0" d="M524,50.3c0-4.7,1.1-8.5,3.3-11.5c2.2-3,5.2-4.5,9.1-4.5s6.9,1.5,9.1,4.5c2.2,3,3.3,6.8,3.3,11.5v0.8
		c0,4.7-1.1,8.5-3.3,11.4c-2.2,2.9-5.2,4.4-9,4.4c-3.9,0-6.9-1.5-9.1-4.4c-2.2-2.9-3.3-6.8-3.3-11.4V50.3z M529.9,51.1
		c0,3.3,0.5,6.1,1.6,8.2s2.7,3.2,4.9,3.2c2.1,0,3.8-1.1,4.8-3.2s1.6-4.9,1.6-8.2v-0.8c0-3.3-0.5-6-1.6-8.2c-1.1-2.2-2.7-3.2-4.9-3.2
		s-3.8,1.1-4.9,3.2c-1.1,2.2-1.6,4.9-1.6,8.2V51.1z"/>
	<path class="st0" d="M553.3,51c0-5,0.9-9.1,2.8-12.1c1.8-3,4.4-4.6,7.7-4.6c1.5,0,2.8,0.3,4,1c1.2,0.7,2.2,1.6,3,2.9V21.1h5.9v45.2
		h-4.9l-0.6-3.8c-0.9,1.4-1.9,2.5-3.2,3.3c-1.3,0.7-2.7,1.1-4.3,1.1c-3.3,0-5.9-1.4-7.7-4.2c-1.8-2.8-2.7-6.5-2.7-11.1V51z
		 M559.1,51.7c0,3.3,0.5,5.9,1.5,7.8s2.5,2.9,4.6,2.9c1.3,0,2.4-0.3,3.3-1c0.9-0.7,1.7-1.7,2.2-3V43.2c-0.6-1.3-1.3-2.3-2.3-3.1
		c-0.9-0.8-2-1.1-3.3-1.1c-2.1,0-3.6,1.1-4.6,3.4c-1,2.2-1.5,5.1-1.5,8.7V51.7z"/>
	<path class="st0" d="M595,67c-3.9,0-7-1.4-9.2-4.3c-2.2-2.9-3.3-6.6-3.3-11.2v-1.4c0-4.6,1.1-8.4,3.3-11.3s5.1-4.4,8.6-4.4
		c3.6,0,6.3,1.3,8.2,3.8c1.9,2.5,2.8,5.9,2.8,10.2v3.3h-17c0,3.2,0.6,5.8,1.7,7.8c1.2,2,2.9,3,5.3,3c1.6,0,3.1-0.3,4.3-0.8
		c1.2-0.5,2.3-1.3,3.4-2.2l1.9,3.7c-1,1.1-2.4,2-4.1,2.7C599.1,66.6,597.2,67,595,67z M594.4,38.9c-1.7,0-3.1,0.8-4.1,2.4
		c-1,1.6-1.6,3.7-1.9,6.3h11.1v-0.7c0-2.4-0.4-4.3-1.3-5.7C597.5,39.7,596.2,38.9,594.4,38.9z"/>
	<path class="st0" d="M617,66.4h-5.9V21.1h5.9V66.4z"/>
	<path class="st0" d="M623,50.3c0-4.7,1.1-8.5,3.3-11.5c2.2-3,5.2-4.5,9.1-4.5s6.9,1.5,9.1,4.5c2.2,3,3.3,6.8,3.3,11.5v0.8
		c0,4.7-1.1,8.5-3.3,11.4c-2.2,2.9-5.2,4.4-9,4.4c-3.9,0-6.9-1.5-9.1-4.4c-2.2-2.9-3.3-6.8-3.3-11.4V50.3z M628.9,51.1
		c0,3.3,0.5,6.1,1.6,8.2s2.7,3.2,4.9,3.2c2.1,0,3.8-1.1,4.8-3.2s1.6-4.9,1.6-8.2v-0.8c0-3.3-0.5-6-1.6-8.2c-1.1-2.2-2.7-3.2-4.9-3.2
		s-3.8,1.1-4.9,3.2c-1.1,2.2-1.6,4.9-1.6,8.2V51.1z"/>
	<path class="st0" d="M668.3,58.4c0-1.2-0.4-2.2-1.2-3.1c-0.8-0.8-2.4-1.7-4.7-2.8c-3.2-1.2-5.6-2.5-7.3-4c-1.6-1.4-2.4-3.3-2.4-5.5
		c0-2.4,1-4.5,2.9-6.2c1.9-1.7,4.5-2.6,7.6-2.6c3.2,0,5.8,0.9,7.8,2.8c2,1.9,2.9,4.1,2.8,6.8l-0.1,0.2h-5.7c0-1.5-0.4-2.8-1.3-3.8
		s-2.1-1.6-3.6-1.6c-1.5,0-2.7,0.4-3.5,1.3c-0.8,0.8-1.3,1.8-1.3,2.9c0,1.2,0.4,2.1,1.1,2.8c0.7,0.7,2.3,1.6,4.7,2.7
		c3.3,1.2,5.8,2.5,7.4,4s2.5,3.4,2.5,5.7c0,2.6-1,4.7-3,6.4c-2,1.6-4.6,2.5-7.9,2.5c-3.5,0-6.3-1-8.3-2.9c-2-2-3-4.3-2.9-6.9
		l0.1-0.2h5.5c0.1,2,0.7,3.5,1.7,4.4c1.1,0.9,2.4,1.3,4,1.3c1.6,0,2.8-0.4,3.7-1.2C667.9,60.7,668.3,59.7,668.3,58.4z"/>
	<path class="st0" d="M698,35l0.3,4.3c0.9-1.5,2-2.7,3.3-3.6c1.3-0.8,2.9-1.3,4.7-1.3c1.7,0,3.2,0.5,4.5,1.4s2.2,2.4,2.9,4.4
		c0.8-1.8,1.9-3.2,3.3-4.3c1.4-1,3-1.5,4.9-1.5c2.7,0,4.9,1.1,6.4,3.3c1.6,2.2,2.3,5.6,2.3,10.1v18.5h-5.9V47.8
		c0-3.3-0.4-5.6-1.2-6.9c-0.8-1.3-2-2-3.6-2c-1.4,0-2.5,0.5-3.4,1.5c-0.9,1-1.6,2.3-2,4c0,0.3,0,0.7,0.1,1.1c0,0.4,0,0.8,0,1.1v19.7
		h-5.9V47.8c0-3.2-0.4-5.4-1.2-6.8c-0.8-1.4-2-2-3.6-2c-1.3,0-2.4,0.3-3.2,1s-1.6,1.7-2.1,2.9v23.5h-5.9V35H698z"/>
	<path class="st0" d="M753.8,66.4c-0.3-0.9-0.5-1.8-0.6-2.5c-0.1-0.7-0.2-1.5-0.3-2.2c-0.8,1.5-1.9,2.8-3.3,3.8
		c-1.4,1-2.9,1.5-4.7,1.5c-2.8,0-5-0.8-6.5-2.5c-1.5-1.7-2.2-3.9-2.2-6.8c0-3,1-5.3,3.1-7c2.1-1.7,5-2.6,8.7-2.6h4.8v-3.2
		c0-1.9-0.4-3.4-1.3-4.5s-2.1-1.6-3.7-1.6c-1.4,0-2.6,0.5-3.4,1.4c-0.8,0.9-1.3,2.1-1.3,3.6l-5.6,0l-0.1-0.2
		c-0.1-2.4,0.8-4.6,2.8-6.4c2-1.9,4.6-2.8,7.9-2.8c3.1,0,5.6,0.9,7.6,2.7c1.9,1.8,2.9,4.4,2.9,7.8v14.6c0,1.2,0.1,2.4,0.2,3.5
		c0.2,1.1,0.4,2.2,0.7,3.3H753.8z M746.2,62.4c1.6,0,3-0.5,4.3-1.5s2-2.2,2.4-3.6v-5.6H748c-1.8,0-3.2,0.6-4.3,1.7
		c-1,1.2-1.5,2.5-1.5,4.2c0,1.5,0.3,2.6,1,3.5S744.9,62.4,746.2,62.4z"/>
	<path class="st0" d="M773.1,27.2V35h4.9v4.2h-4.9v18.7c0,1.6,0.2,2.8,0.7,3.5s1.1,1,2,1c0.3,0,0.6,0,0.9-0.1c0.3-0.1,0.6-0.1,1-0.3
		l0.6,4.1c-0.6,0.3-1.2,0.5-1.9,0.7c-0.7,0.2-1.4,0.2-2.1,0.2c-2.3,0-4-0.7-5.3-2.2c-1.3-1.5-1.9-3.8-1.9-6.9V39.2h-4.1V35h4.1v-7.8
		H773.1z"/>
	<path class="st0" d="M794.7,67c-3.9,0-7-1.4-9.2-4.3c-2.2-2.9-3.3-6.6-3.3-11.2v-1.4c0-4.6,1.1-8.4,3.3-11.3s5.1-4.4,8.6-4.4
		c3.6,0,6.3,1.3,8.2,3.8c1.9,2.5,2.8,5.9,2.8,10.2v3.3h-17c0,3.2,0.6,5.8,1.7,7.8c1.2,2,2.9,3,5.3,3c1.6,0,3.1-0.3,4.3-0.8
		c1.2-0.5,2.3-1.3,3.4-2.2l1.9,3.7c-1,1.1-2.4,2-4.1,2.7C798.8,66.6,796.9,67,794.7,67z M794.2,38.9c-1.7,0-3.1,0.8-4.1,2.4
		c-1,1.6-1.6,3.7-1.9,6.3h11.1v-0.7c0-2.4-0.4-4.3-1.3-5.7C797.2,39.7,795.9,38.9,794.2,38.9z"/>
	<path class="st0" d="M815.8,35l0.3,4.3c0.9-1.5,2-2.7,3.3-3.6c1.3-0.8,2.9-1.3,4.7-1.3c1.7,0,3.2,0.5,4.5,1.4s2.2,2.4,2.9,4.4
		c0.8-1.8,1.9-3.2,3.3-4.3c1.4-1,3-1.5,4.9-1.5c2.7,0,4.9,1.1,6.4,3.3c1.6,2.2,2.3,5.6,2.3,10.1v18.5h-5.9V47.8
		c0-3.3-0.4-5.6-1.2-6.9c-0.8-1.3-2-2-3.6-2c-1.4,0-2.5,0.5-3.4,1.5c-0.9,1-1.6,2.3-2,4c0,0.3,0,0.7,0.1,1.1c0,0.4,0,0.8,0,1.1v19.7
		h-5.9V47.8c0-3.2-0.4-5.4-1.2-6.8c-0.8-1.4-2-2-3.6-2c-1.3,0-2.4,0.3-3.2,1s-1.6,1.7-2.1,2.9v23.5h-5.9V35H815.8z"/>
	<path class="st0" d="M871.6,66.4c-0.3-0.9-0.5-1.8-0.6-2.5c-0.1-0.7-0.2-1.5-0.3-2.2c-0.8,1.5-1.9,2.8-3.3,3.8
		c-1.4,1-2.9,1.5-4.7,1.5c-2.8,0-5-0.8-6.5-2.5c-1.5-1.7-2.2-3.9-2.2-6.8c0-3,1-5.3,3.1-7c2.1-1.7,5-2.6,8.7-2.6h4.8v-3.2
		c0-1.9-0.4-3.4-1.3-4.5s-2.1-1.6-3.7-1.6c-1.4,0-2.6,0.5-3.4,1.4c-0.8,0.9-1.3,2.1-1.3,3.6l-5.6,0l-0.1-0.2
		c-0.1-2.4,0.8-4.6,2.8-6.4c2-1.9,4.6-2.8,7.9-2.8c3.1,0,5.6,0.9,7.6,2.7c1.9,1.8,2.9,4.4,2.9,7.8v14.6c0,1.2,0.1,2.4,0.2,3.5
		c0.2,1.1,0.4,2.2,0.7,3.3H871.6z M864,62.4c1.6,0,3-0.5,4.3-1.5s2-2.2,2.4-3.6v-5.6h-4.9c-1.8,0-3.2,0.6-4.3,1.7
		c-1,1.2-1.5,2.5-1.5,4.2c0,1.5,0.3,2.6,1,3.5S862.7,62.4,864,62.4z M868,21.6h6.8l0.1,0.1l-7,7.6h-4.9L868,21.6z"/>
	<path class="st0" d="M890.9,27.2V35h4.9v4.2h-4.9v18.7c0,1.6,0.2,2.8,0.7,3.5s1.1,1,2,1c0.3,0,0.6,0,0.9-0.1c0.3-0.1,0.6-0.1,1-0.3
		l0.6,4.1c-0.6,0.3-1.2,0.5-1.9,0.7c-0.7,0.2-1.4,0.2-2.1,0.2c-2.3,0-4-0.7-5.3-2.2c-1.3-1.5-1.9-3.8-1.9-6.9V39.2h-4.1V35h4.1v-7.8
		H890.9z"/>
	<path class="st0" d="M907.5,26.7h-5.9v-5.6h5.9V26.7z M907.5,66.4h-5.9V35h5.9V66.4z"/>
	<path class="st0" d="M925.6,62.5c1.5,0,2.7-0.6,3.6-1.7c1-1.1,1.5-2.6,1.5-4.6h5.3l0.1,0.2c0.1,3-0.9,5.5-3,7.5s-4.6,3-7.5,3
		c-3.9,0-6.9-1.5-9-4.4c-2.1-2.9-3.2-6.7-3.2-11.3v-1.1c0-4.6,1.1-8.3,3.2-11.3c2.1-3,5.1-4.5,9-4.5c3.1,0,5.7,1.1,7.6,3.2
		c2,2.1,2.9,4.9,2.9,8.3L936,46h-5.3c0-2.1-0.5-3.8-1.4-5.1c-0.9-1.3-2.2-2-3.7-2c-2.2,0-3.8,1.1-4.8,3.2c-1,2.1-1.5,4.8-1.5,8v1.1
		c0,3.3,0.5,6,1.5,8.1C921.7,61.5,923.3,62.5,925.6,62.5z"/>
	<path class="st0" d="M940.3,50.3c0-4.7,1.1-8.5,3.3-11.5c2.2-3,5.2-4.5,9.1-4.5s6.9,1.5,9.1,4.5c2.2,3,3.3,6.8,3.3,11.5v0.8
		c0,4.7-1.1,8.5-3.3,11.4c-2.2,2.9-5.2,4.4-9,4.4c-3.9,0-6.9-1.5-9.1-4.4c-2.2-2.9-3.3-6.8-3.3-11.4V50.3z M946.3,51.1
		c0,3.3,0.5,6.1,1.6,8.2s2.7,3.2,4.9,3.2c2.1,0,3.8-1.1,4.8-3.2s1.6-4.9,1.6-8.2v-0.8c0-3.3-0.5-6-1.6-8.2c-1.1-2.2-2.7-3.2-4.9-3.2
		s-3.8,1.1-4.9,3.2c-1.1,2.2-1.6,4.9-1.6,8.2V51.1z"/>
	<path class="st0" d="M985.7,58.4c0-1.2-0.4-2.2-1.2-3.1c-0.8-0.8-2.4-1.7-4.7-2.8c-3.2-1.2-5.6-2.5-7.3-4c-1.6-1.4-2.4-3.3-2.4-5.5
		c0-2.4,1-4.5,2.9-6.2c1.9-1.7,4.5-2.6,7.6-2.6c3.2,0,5.8,0.9,7.8,2.8c2,1.9,2.9,4.1,2.8,6.8l-0.1,0.2h-5.7c0-1.5-0.4-2.8-1.3-3.8
		s-2.1-1.6-3.6-1.6c-1.5,0-2.7,0.4-3.5,1.3c-0.8,0.8-1.3,1.8-1.3,2.9c0,1.2,0.4,2.1,1.1,2.8c0.7,0.7,2.3,1.6,4.7,2.7
		c3.3,1.2,5.8,2.5,7.4,4s2.5,3.4,2.5,5.7c0,2.6-1,4.7-3,6.4c-2,1.6-4.6,2.5-7.9,2.5c-3.5,0-6.3-1-8.3-2.9c-2-2-3-4.3-2.9-6.9
		l0.1-0.2h5.5c0.1,2,0.7,3.5,1.7,4.4c1.1,0.9,2.4,1.3,4,1.3c1.6,0,2.8-0.4,3.7-1.2C985.2,60.7,985.7,59.7,985.7,58.4z"/>
	<path class="st0" d="M1018.9,55.5l0.5,2.1h0.2l6.1-22.7h6.5L1021,71.2c-0.7,2.1-1.7,4-3,5.5s-3.1,2.3-5.5,2.3c-0.5,0-1-0.1-1.6-0.2
		c-0.6-0.1-1.1-0.2-1.7-0.4l0.7-4.4c0.2,0,0.5,0.1,0.9,0.1c0.4,0,0.7,0.1,0.9,0.1c1.2,0,2.1-0.5,2.8-1.5s1.2-2.1,1.6-3.5l1.1-3.2
		l-9.9-31.2h6.4L1018.9,55.5z"/>
	<path class="st0" d="M1056.8,27.2V35h4.9v4.2h-4.9v18.7c0,1.6,0.2,2.8,0.7,3.5s1.1,1,2,1c0.3,0,0.6,0,0.9-0.1
		c0.3-0.1,0.6-0.1,1-0.3l0.6,4.1c-0.6,0.3-1.2,0.5-1.9,0.7c-0.7,0.2-1.4,0.2-2.1,0.2c-2.3,0-4-0.7-5.3-2.2c-1.3-1.5-1.9-3.8-1.9-6.9
		V39.2h-4.1V35h4.1v-7.8H1056.8z"/>
	<path class="st0" d="M1078.4,67c-3.9,0-7-1.4-9.2-4.3c-2.2-2.9-3.3-6.6-3.3-11.2v-1.4c0-4.6,1.1-8.4,3.3-11.3s5.1-4.4,8.6-4.4
		c3.6,0,6.3,1.3,8.2,3.8c1.9,2.5,2.8,5.9,2.8,10.2v3.3h-17c0,3.2,0.6,5.8,1.7,7.8c1.2,2,2.9,3,5.3,3c1.6,0,3.1-0.3,4.3-0.8
		c1.2-0.5,2.3-1.3,3.4-2.2l1.9,3.7c-1,1.1-2.4,2-4.1,2.7C1082.5,66.6,1080.6,67,1078.4,67z M1077.8,38.9c-1.7,0-3.1,0.8-4.1,2.4
		c-1,1.6-1.6,3.7-1.9,6.3h11.1v-0.7c0-2.4-0.4-4.3-1.3-5.7C1080.9,39.7,1079.6,38.9,1077.8,38.9z M1079.5,21.6h6.8l0.1,0.1l-7,7.6
		h-4.9L1079.5,21.6z"/>
	<path class="st0" d="M1105,62.5c1.5,0,2.7-0.6,3.6-1.7c1-1.1,1.5-2.6,1.5-4.6h5.3l0.1,0.2c0.1,3-0.9,5.5-3,7.5s-4.6,3-7.5,3
		c-3.9,0-6.9-1.5-9-4.4c-2.1-2.9-3.2-6.7-3.2-11.3v-1.1c0-4.6,1.1-8.3,3.2-11.3c2.1-3,5.1-4.5,9-4.5c3.1,0,5.7,1.1,7.6,3.2
		c2,2.1,2.9,4.9,2.9,8.3l-0.1,0.1h-5.3c0-2.1-0.5-3.8-1.4-5.1c-0.9-1.3-2.2-2-3.7-2c-2.2,0-3.8,1.1-4.8,3.2c-1,2.1-1.5,4.8-1.5,8
		v1.1c0,3.3,0.5,6,1.5,8.1C1101.2,61.5,1102.8,62.5,1105,62.5z"/>
	<path class="st0" d="M1126.3,35l0.3,4.7c0.9-1.7,2-3,3.4-3.9c1.4-0.9,2.9-1.4,4.6-1.4c2.8,0,5,1,6.5,3.1c1.6,2.1,2.3,5.2,2.3,9.6
		v19.3h-5.9V47.1c0-3-0.4-5-1.2-6.3s-2.1-1.8-3.7-1.8c-1.4,0-2.5,0.4-3.5,1.1s-1.7,1.7-2.3,2.9v23.4h-5.9V35H1126.3z"/>
	<path class="st0" d="M1156.5,26.7h-5.9v-5.6h5.9V26.7z M1156.5,66.4h-5.9V35h5.9V66.4z"/>
	<path class="st0" d="M1174.6,62.5c1.5,0,2.7-0.6,3.6-1.7c1-1.1,1.5-2.6,1.5-4.6h5.3l0.1,0.2c0.1,3-0.9,5.5-3,7.5s-4.6,3-7.5,3
		c-3.9,0-6.9-1.5-9-4.4c-2.1-2.9-3.2-6.7-3.2-11.3v-1.1c0-4.6,1.1-8.3,3.2-11.3c2.1-3,5.1-4.5,9-4.5c3.1,0,5.7,1.1,7.6,3.2
		c2,2.1,2.9,4.9,2.9,8.3l-0.1,0.1h-5.3c0-2.1-0.5-3.8-1.4-5.1c-0.9-1.3-2.2-2-3.7-2c-2.2,0-3.8,1.1-4.8,3.2c-1,2.1-1.5,4.8-1.5,8
		v1.1c0,3.3,0.5,6,1.5,8.1C1170.8,61.5,1172.4,62.5,1174.6,62.5z"/>
	<path class="st0" d="M1206.9,66.4c-0.3-0.9-0.5-1.8-0.6-2.5c-0.1-0.7-0.2-1.5-0.3-2.2c-0.8,1.5-1.9,2.8-3.3,3.8
		c-1.4,1-2.9,1.5-4.7,1.5c-2.8,0-5-0.8-6.5-2.5c-1.5-1.7-2.2-3.9-2.2-6.8c0-3,1-5.3,3.1-7c2.1-1.7,5-2.6,8.7-2.6h4.8v-3.2
		c0-1.9-0.4-3.4-1.3-4.5s-2.1-1.6-3.7-1.6c-1.4,0-2.6,0.5-3.4,1.4c-0.8,0.9-1.3,2.1-1.3,3.6l-5.6,0l-0.1-0.2
		c-0.1-2.4,0.8-4.6,2.8-6.4c2-1.9,4.6-2.8,7.9-2.8c3.1,0,5.6,0.9,7.6,2.7c1.9,1.8,2.9,4.4,2.9,7.8v14.6c0,1.2,0.1,2.4,0.2,3.5
		c0.2,1.1,0.4,2.2,0.7,3.3H1206.9z M1199.3,62.4c1.6,0,3-0.5,4.3-1.5s2-2.2,2.4-3.6v-5.6h-4.9c-1.8,0-3.2,0.6-4.3,1.7
		c-1,1.2-1.5,2.5-1.5,4.2c0,1.5,0.3,2.6,1,3.5S1198,62.4,1199.3,62.4z"/>
	<path class="st0" d="M1233.5,58.4c0-1.2-0.4-2.2-1.2-3.1c-0.8-0.8-2.4-1.7-4.7-2.8c-3.2-1.2-5.6-2.5-7.3-4
		c-1.6-1.4-2.4-3.3-2.4-5.5c0-2.4,1-4.5,2.9-6.2c1.9-1.7,4.5-2.6,7.6-2.6c3.2,0,5.8,0.9,7.8,2.8c2,1.9,2.9,4.1,2.8,6.8l-0.1,0.2
		h-5.7c0-1.5-0.4-2.8-1.3-3.8s-2.1-1.6-3.6-1.6c-1.5,0-2.7,0.4-3.5,1.3c-0.8,0.8-1.3,1.8-1.3,2.9c0,1.2,0.4,2.1,1.1,2.8
		c0.7,0.7,2.3,1.6,4.7,2.7c3.3,1.2,5.8,2.5,7.4,4s2.5,3.4,2.5,5.7c0,2.6-1,4.7-3,6.4c-2,1.6-4.6,2.5-7.9,2.5c-3.5,0-6.3-1-8.3-2.9
		c-2-2-3-4.3-2.9-6.9l0.1-0.2h5.5c0.1,2,0.7,3.5,1.7,4.4c1.1,0.9,2.4,1.3,4,1.3c1.6,0,2.8-0.4,3.7-1.2
		C1233.1,60.7,1233.5,59.7,1233.5,58.4z"/>
	<path class="st0" d="M1256.8,51c0-5,0.9-9.1,2.8-12.1c1.8-3,4.4-4.6,7.7-4.6c1.5,0,2.8,0.3,4,1c1.2,0.7,2.2,1.6,3,2.9V21.1h5.9
		v45.2h-4.9l-0.6-3.8c-0.9,1.4-1.9,2.5-3.2,3.3c-1.3,0.7-2.7,1.1-4.3,1.1c-3.3,0-5.9-1.4-7.7-4.2c-1.8-2.8-2.7-6.5-2.7-11.1V51z
		 M1262.6,51.7c0,3.3,0.5,5.9,1.5,7.8s2.5,2.9,4.6,2.9c1.3,0,2.4-0.3,3.3-1c0.9-0.7,1.7-1.7,2.2-3V43.2c-0.6-1.3-1.3-2.3-2.3-3.1
		c-0.9-0.8-2-1.1-3.3-1.1c-2.1,0-3.6,1.1-4.6,3.4c-1,2.2-1.5,5.1-1.5,8.7V51.7z"/>
	<path class="st0" d="M1298.5,67c-3.9,0-7-1.4-9.2-4.3c-2.2-2.9-3.3-6.6-3.3-11.2v-1.4c0-4.6,1.1-8.4,3.3-11.3s5.1-4.4,8.6-4.4
		c3.6,0,6.3,1.3,8.2,3.8c1.9,2.5,2.8,5.9,2.8,10.2v3.3h-17c0,3.2,0.6,5.8,1.7,7.8c1.2,2,2.9,3,5.3,3c1.6,0,3.1-0.3,4.3-0.8
		c1.2-0.5,2.3-1.3,3.4-2.2l1.9,3.7c-1,1.1-2.4,2-4.1,2.7C1302.6,66.6,1300.6,67,1298.5,67z M1297.9,38.9c-1.7,0-3.1,0.8-4.1,2.4
		c-1,1.6-1.6,3.7-1.9,6.3h11.1v-0.7c0-2.4-0.4-4.3-1.3-5.7C1301,39.7,1299.7,38.9,1297.9,38.9z"/>
	<path class="st0" d="M1332.6,35l0.3,4.3c0.9-1.5,2-2.7,3.3-3.6c1.3-0.8,2.9-1.3,4.7-1.3c1.7,0,3.2,0.5,4.5,1.4s2.2,2.4,2.9,4.4
		c0.8-1.8,1.9-3.2,3.3-4.3c1.4-1,3-1.5,4.9-1.5c2.7,0,4.9,1.1,6.4,3.3c1.6,2.2,2.3,5.6,2.3,10.1v18.5h-5.9V47.8
		c0-3.3-0.4-5.6-1.2-6.9c-0.8-1.3-2-2-3.6-2c-1.4,0-2.5,0.5-3.4,1.5c-0.9,1-1.6,2.3-2,4c0,0.3,0,0.7,0.1,1.1c0,0.4,0,0.8,0,1.1v19.7
		h-5.9V47.8c0-3.2-0.4-5.4-1.2-6.8c-0.8-1.4-2-2-3.6-2c-1.3,0-2.4,0.3-3.2,1s-1.6,1.7-2.1,2.9v23.5h-5.9V35H1332.6z"/>
	<path class="st0" d="M1370.9,50.3c0-4.7,1.1-8.5,3.3-11.5c2.2-3,5.2-4.5,9.1-4.5s6.9,1.5,9.1,4.5c2.2,3,3.3,6.8,3.3,11.5v0.8
		c0,4.7-1.1,8.5-3.3,11.4c-2.2,2.9-5.2,4.4-9,4.4c-3.9,0-6.9-1.5-9.1-4.4c-2.2-2.9-3.3-6.8-3.3-11.4V50.3z M1376.8,51.1
		c0,3.3,0.5,6.1,1.6,8.2s2.7,3.2,4.9,3.2c2.1,0,3.8-1.1,4.8-3.2s1.6-4.9,1.6-8.2v-0.8c0-3.3-0.5-6-1.6-8.2c-1.1-2.2-2.7-3.2-4.9-3.2
		s-3.8,1.1-4.9,3.2c-1.1,2.2-1.6,4.9-1.6,8.2V51.1z"/>
	<path class="st0" d="M1400.2,51c0-5,0.9-9.1,2.8-12.1c1.8-3,4.4-4.6,7.7-4.6c1.5,0,2.8,0.3,4,1c1.2,0.7,2.2,1.6,3,2.9V21.1h5.9
		v45.2h-4.9l-0.6-3.8c-0.9,1.4-1.9,2.5-3.2,3.3c-1.3,0.7-2.7,1.1-4.3,1.1c-3.3,0-5.9-1.4-7.7-4.2c-1.8-2.8-2.7-6.5-2.7-11.1V51z
		 M1406.1,51.7c0,3.3,0.5,5.9,1.5,7.8s2.5,2.9,4.6,2.9c1.3,0,2.4-0.3,3.3-1c0.9-0.7,1.7-1.7,2.2-3V43.2c-0.6-1.3-1.3-2.3-2.3-3.1
		c-0.9-0.8-2-1.1-3.3-1.1c-2.1,0-3.6,1.1-4.6,3.4c-1,2.2-1.5,5.1-1.5,8.7V51.7z"/>
	<path class="st0" d="M1441.9,67c-3.9,0-7-1.4-9.2-4.3c-2.2-2.9-3.3-6.6-3.3-11.2v-1.4c0-4.6,1.1-8.4,3.3-11.3s5.1-4.4,8.6-4.4
		c3.6,0,6.3,1.3,8.2,3.8c1.9,2.5,2.8,5.9,2.8,10.2v3.3h-17c0,3.2,0.6,5.8,1.7,7.8c1.2,2,2.9,3,5.3,3c1.6,0,3.1-0.3,4.3-0.8
		c1.2-0.5,2.3-1.3,3.4-2.2l1.9,3.7c-1,1.1-2.4,2-4.1,2.7C1446.1,66.6,1444.1,67,1441.9,67z M1441.4,38.9c-1.7,0-3.1,0.8-4.1,2.4
		c-1,1.6-1.6,3.7-1.9,6.3h11.1v-0.7c0-2.4-0.4-4.3-1.3-5.7C1444.4,39.7,1443.1,38.9,1441.4,38.9z"/>
	<path class="st0" d="M1463.9,66.4h-5.9V21.1h5.9V66.4z"/>
	<path class="st0" d="M1487.4,66.4c-0.3-0.9-0.5-1.8-0.6-2.5c-0.1-0.7-0.2-1.5-0.3-2.2c-0.8,1.5-1.9,2.8-3.3,3.8
		c-1.4,1-2.9,1.5-4.7,1.5c-2.8,0-5-0.8-6.5-2.5c-1.5-1.7-2.2-3.9-2.2-6.8c0-3,1-5.3,3.1-7c2.1-1.7,5-2.6,8.7-2.6h4.8v-3.2
		c0-1.9-0.4-3.4-1.3-4.5s-2.1-1.6-3.7-1.6c-1.4,0-2.6,0.5-3.4,1.4c-0.8,0.9-1.3,2.1-1.3,3.6l-5.6,0l-0.1-0.2
		c-0.1-2.4,0.8-4.6,2.8-6.4c2-1.9,4.6-2.8,7.9-2.8c3.1,0,5.6,0.9,7.6,2.7c1.9,1.8,2.9,4.4,2.9,7.8v14.6c0,1.2,0.1,2.4,0.2,3.5
		c0.2,1.1,0.4,2.2,0.7,3.3H1487.4z M1479.8,62.4c1.6,0,3-0.5,4.3-1.5s2-2.2,2.4-3.6v-5.6h-4.9c-1.8,0-3.2,0.6-4.3,1.7
		c-1,1.2-1.5,2.5-1.5,4.2c0,1.5,0.3,2.6,1,3.5S1478.6,62.4,1479.8,62.4z"/>
	<path class="st0" d="M1510.1,62.5c1.5,0,2.7-0.6,3.6-1.7c1-1.1,1.5-2.6,1.5-4.6h5.3l0.1,0.2c0.1,3-0.9,5.5-3,7.5s-4.6,3-7.5,3
		c-3.9,0-6.9-1.5-9-4.4c-2.1-2.9-3.2-6.7-3.2-11.3v-1.1c0-4.6,1.1-8.3,3.2-11.3c2.1-3,5.1-4.5,9-4.5c3.1,0,5.7,1.1,7.6,3.2
		c2,2.1,2.9,4.9,2.9,8.3l-0.1,0.1h-5.3c0-2.1-0.5-3.8-1.4-5.1c-0.9-1.3-2.2-2-3.7-2c-2.2,0-3.8,1.1-4.8,3.2c-1,2.1-1.5,4.8-1.5,8
		v1.1c0,3.3,0.5,6,1.5,8.1C1506.3,61.5,1507.9,62.5,1510.1,62.5z"/>
	<path class="st0" d="M1532.4,26.7h-5.9v-5.6h5.9V26.7z M1532.4,66.4h-5.9V35h5.9V66.4z"/>
	<path class="st0" d="M1538.4,50.3c0-4.7,1.1-8.5,3.3-11.5c2.2-3,5.2-4.5,9.1-4.5s6.9,1.5,9.1,4.5c2.2,3,3.3,6.8,3.3,11.5v0.8
		c0,4.7-1.1,8.5-3.3,11.4c-2.2,2.9-5.2,4.4-9,4.4c-3.9,0-6.9-1.5-9.1-4.4c-2.2-2.9-3.3-6.8-3.3-11.4V50.3z M1544.3,51.1
		c0,3.3,0.5,6.1,1.6,8.2s2.7,3.2,4.9,3.2c2.1,0,3.8-1.1,4.8-3.2s1.6-4.9,1.6-8.2v-0.8c0-3.3-0.5-6-1.6-8.2c-1.1-2.2-2.7-3.2-4.9-3.2
		s-3.8,1.1-4.9,3.2c-1.1,2.2-1.6,4.9-1.6,8.2V51.1z M1553,21.6h6.8l0.1,0.1l-7,7.6h-4.9L1553,21.6z"/>
	<path class="st0" d="M1574.1,35l0.3,4.7c0.9-1.7,2-3,3.4-3.9c1.4-0.9,2.9-1.4,4.6-1.4c2.8,0,5,1,6.5,3.1c1.6,2.1,2.3,5.2,2.3,9.6
		v19.3h-5.9V47.1c0-3-0.4-5-1.2-6.3s-2.1-1.8-3.7-1.8c-1.4,0-2.5,0.4-3.5,1.1s-1.7,1.7-2.3,2.9v23.4h-5.9V35H1574.1z"/>
</g>
</svg>
