<?xml version="1.0" encoding="utf-8"?>
<!-- Generator: Adobe Illustrator 23.0.3, SVG Export Plug-In . SVG Version: 6.00 Build 0)  -->
<svg version="1.1" id="Ñëîé_1" xmlns="http://www.w3.org/2000/svg" xmlns:xlink="http://www.w3.org/1999/xlink" x="0px" y="0px"
	 viewBox="0 0 509.1 540" style="enable-background:new 0 0 509.1 540;" xml:space="preserve">
<style type="text/css">
	.st0{fill:#61C1A2;}
</style>
<g>
	<polygon class="st0" points="485.8,382.7 296.8,317.2 362.2,506.3 392.9,443.2 455.6,505.9 485.4,476 422.7,413.4 	"/>
	<path class="st0" d="M437.4,132.2l0.6-0.4l-12.1-13.5c-2.8-3.1-5.6-6.1-8.5-9C374,65.7,314.8,40.9,253,40.9c-0.1,0-0.2,0-0.3,0
		s-0.2,0-0.3,0C204.3,40.9,157.7,56,119,83.2c-4.4,3.1-8.7,6.3-12.8,9.7c-0.4,0.4-0.9,0.7-1.3,1.1c-5.8,4.8-11.5,9.9-16.9,15.3
		c-0.6,0.6-1.2,1.2-1.8,1.8c-0.8,0.9-1.7,1.7-2.5,2.6c-1.4,1.5-2.8,3-4.2,4.6l-12.1,13.5l0.6,0.4c-30.9,40.4-47.8,89.9-47.8,141.2
		S37,374.2,68,414.6l-0.6,0.4l12.1,13.5c30.3,33.8,69.6,57.7,112.7,69.4c19.6,5.3,39.9,8,60.6,8c6.2,0,12.4-0.3,18.5-0.7
		c4.1-0.3,8.1-0.8,12.2-1.3c2-0.3,4-0.6,6-0.9c9.6-1.5,19.1-3.7,28.4-6.4c1-0.3,2.1-0.6,3.1-0.9c2.1-0.6,4.1-1.3,6.2-2l-19.5-56.4
		c-16.2,25.4-35.7,39.6-54.9,39.6c-22.9,0-46.3-20.3-64-55.8c-2.8-5.6-5.4-11.5-7.9-17.7c22.9-4.2,47-6.3,71.8-6.3
		c14.2,0,28.1,0.7,41.7,2.1L284,369c-10.3-0.7-20.7-1.1-31.3-1.1c-28.1,0-55.3,2.5-81.2,7.5c-7.4-26.6-11.9-56.4-12.9-87.6h97.2h45
		h45.9c-0.2,5.2-0.5,10.4-0.8,15.6l28.4,9.8c0.7-8.3,1.3-16.8,1.5-25.4h79.8c-1.2,17.2-4.6,34-10,50.1l27.5,9.5
		c8-23.7,12.1-48.7,12.1-74.1C485.2,222.1,468.3,172.6,437.4,132.2z M252.5,69.9c0.1,0,0.1,0,0.2,0c0.1,0,0.1,0,0.2,0
		c22.9,0.1,46.1,20.4,63.8,55.8c2.8,5.6,5.4,11.6,7.9,17.7c-22.9,4.2-47,6.3-71.9,6.3c-24.8,0-48.9-2.1-71.8-6.3
		c2.4-6.1,5.1-12.1,7.9-17.7C206.4,90.4,229.6,70.1,252.5,69.9z M93.9,146.2c14.8,7.3,31.3,13.4,49.3,18.4
		c-7.8,28.3-12.6,60.1-13.6,94.2H49.8C52.7,217.7,68.1,178.5,93.9,146.2z M49.8,287.9h79.8c1.1,34.1,5.9,65.9,13.6,94.2
		c-18,5-34.5,11.1-49.3,18.4C68.1,368.3,52.7,329.1,49.8,287.9z M180.9,463.7c-0.1,0-0.2-0.1-0.2-0.1c-0.5-0.2-1.1-0.4-1.6-0.6
		c-1.2-0.5-2.4-0.9-3.6-1.4c-0.4-0.1-0.8-0.3-1.1-0.5c-1.6-0.7-3.1-1.3-4.7-2c-0.1,0-0.1,0-0.2-0.1c-1.5-0.7-2.9-1.3-4.4-2
		c-0.4-0.2-0.9-0.4-1.3-0.6c-1.1-0.5-2.1-1-3.2-1.6c-0.5-0.3-1.1-0.5-1.6-0.8c-1-0.5-1.9-1-2.9-1.5c-0.6-0.3-1.1-0.6-1.7-0.9
		c-0.9-0.5-1.9-1-2.8-1.5c-0.6-0.3-1.1-0.6-1.7-1c-0.9-0.5-1.8-1.1-2.8-1.6c-0.5-0.3-1.1-0.6-1.6-1c-0.9-0.6-1.9-1.2-2.8-1.8
		c-0.5-0.3-1-0.6-1.4-0.9c-1.1-0.7-2.2-1.4-3.2-2.2c-0.3-0.2-0.7-0.4-1-0.7c-1.4-1-2.8-2-4.2-3c-0.2-0.1-0.3-0.3-0.5-0.4
		c-1.2-0.9-2.4-1.8-3.6-2.6c-0.4-0.3-0.9-0.7-1.3-1c-0.9-0.7-1.8-1.4-2.7-2.1c-0.5-0.4-1-0.8-1.5-1.2c-0.8-0.7-1.6-1.3-2.4-2
		c-0.5-0.4-1-0.9-1.6-1.3c-0.8-0.7-1.5-1.4-2.3-2c-0.5-0.5-1-0.9-1.5-1.4c-0.3-0.3-0.6-0.5-0.9-0.8c11.4-5,24-9.4,37.4-13.1
		C160.1,430.7,169.8,448.9,180.9,463.7z M152.2,136.9c-13.4-3.7-26-8.1-37.4-13.1c0.3-0.3,0.6-0.6,0.9-0.8c0.5-0.5,1-0.9,1.5-1.4
		c0.8-0.7,1.5-1.3,2.3-2c0.5-0.4,1-0.9,1.6-1.3c0.8-0.7,1.6-1.3,2.4-2c0.5-0.4,1-0.8,1.5-1.2c0.9-0.7,1.8-1.4,2.7-2.1
		c0.4-0.3,0.9-0.7,1.3-1.1c1.1-0.9,2.3-1.7,3.5-2.6c0.2-0.1,0.4-0.3,0.6-0.4c1.4-1,2.8-2,4.2-2.9c0.4-0.2,0.7-0.5,1.1-0.7
		c1.1-0.7,2.1-1.4,3.1-2.1c0.5-0.3,1-0.6,1.5-1c0.9-0.6,1.9-1.2,2.8-1.8c0.6-0.3,1.1-0.7,1.6-1c0.9-0.5,1.8-1.1,2.7-1.6
		c0.6-0.3,1.1-0.7,1.7-1c0.9-0.5,1.8-1,2.7-1.5c0.6-0.3,1.1-0.6,1.7-0.9c0.9-0.5,1.9-1,2.8-1.5c0.6-0.3,1.1-0.6,1.6-0.8
		c1-0.5,2.1-1,3.1-1.6c0.5-0.2,0.9-0.5,1.4-0.7c1.4-0.7,2.9-1.3,4.3-2c0.1,0,0.2-0.1,0.3-0.1c1.6-0.7,3.1-1.4,4.7-2
		c0.4-0.2,0.8-0.3,1.2-0.5c1.2-0.5,2.3-0.9,3.5-1.4c0.6-0.2,1.1-0.4,1.6-0.6c0.1,0,0.1-0.1,0.2-0.1
		C169.8,97.8,160.1,116.1,152.2,136.9z M158.6,258.8c1.1-31.2,5.5-60.9,12.9-87.6c25.9,5,53.1,7.5,81.2,7.5s55.3-2.5,81.2-7.5
		c7.4,26.6,11.9,56.4,12.9,87.6L158.6,258.8L158.6,258.8z M324.4,83.1c0,0,0.1,0,0.1,0.1c0.6,0.2,1.2,0.4,1.8,0.7
		c1.1,0.4,2.2,0.9,3.3,1.3c0.5,0.2,0.9,0.4,1.4,0.6c1.5,0.7,3.1,1.3,4.6,2c0.2,0.1,0.4,0.2,0.6,0.3c1.3,0.6,2.7,1.2,4,1.9
		c0.5,0.2,1,0.5,1.5,0.7c1,0.5,2,1,3,1.5c0.6,0.3,1.1,0.6,1.7,0.9c0.9,0.5,1.8,1,2.8,1.4c0.6,0.3,1.2,0.7,1.8,1
		c0.9,0.5,1.8,1,2.6,1.5c0.6,0.3,1.2,0.7,1.8,1c0.9,0.5,1.8,1,2.6,1.6c0.6,0.3,1.1,0.7,1.7,1.1c0.9,0.6,1.8,1.1,2.7,1.7
		c0.5,0.3,1,0.7,1.6,1c1,0.7,2,1.3,3,2c0.4,0.3,0.8,0.5,1.1,0.8c1.4,1,2.8,1.9,4.1,2.9c0.2,0.2,0.5,0.3,0.7,0.5
		c1.1,0.8,2.3,1.7,3.4,2.5c0.5,0.4,0.9,0.7,1.4,1.1c0.9,0.7,1.7,1.4,2.6,2.1c0.5,0.4,1,0.8,1.5,1.3c0.8,0.7,1.6,1.3,2.4,2
		c0.5,0.4,1,0.9,1.6,1.4c0.8,0.7,1.5,1.3,2.3,2c0.5,0.5,1,0.9,1.6,1.4c0.3,0.3,0.6,0.5,0.9,0.8c-11.4,5-24,9.4-37.4,13.1
		C345.3,116.1,335.6,97.8,324.4,83.1z M375.8,258.8c-1.1-34.1-5.9-65.9-13.6-94.2c18-5,34.5-11.1,49.3-18.4
		c25.8,32.2,41.2,71.4,44.1,112.6H375.8z"/>
</g>
</svg>
